<svg width="231" height="237" viewBox="0 0 231 237" fill="none" xmlns="http://www.w3.org/2000/svg">
<path d="M177.493 149.141C177.493 175.075 158.352 184.698 132.218 187.248C120.791 177.61 109.364 177.61 97.9353 187.244C71.8008 184.698 52.6641 175.075 52.6641 149.141C52.6641 117.805 80.6067 74.5195 115.079 74.5195C149.546 74.5195 177.493 117.805 177.493 149.141Z" fill="#C6C6C6"/>
<path d="M81.8821 184.451L93.9806 141.436L73.8469 134.627C73.8466 134.627 67.7821 174.194 81.8821 184.451Z" fill="#A8A8A8"/>
<path d="M148.274 184.451L136.176 141.436L156.309 134.627C156.309 134.627 162.374 174.194 148.274 184.451Z" fill="#A8A8A8"/>
<path d="M132.217 164.888V187.248C126.77 187.777 121.02 188.001 115.078 188.001C109.131 188.001 103.382 187.777 97.9343 187.244V164.888C109.362 171.33 120.789 171.33 132.217 164.888Z" fill="#A8A8A8"/>
<path d="M146.122 174.513C152.171 162.898 155.671 152.952 156.307 134.627H126.424V180.019C126.424 185.857 129.654 188.001 135.881 188.001C143.193 188.001 149.12 187.051 149.12 181.213C149.12 178.67 147.995 176.337 146.122 174.513Z" fill="#C6C6C6"/>
<path d="M73.8467 134.627C74.4823 152.951 77.9827 162.898 84.0321 174.513C82.1583 176.337 81.0336 178.67 81.0336 181.213C81.0336 187.051 86.9611 188.001 94.273 188.001C100.5 188.001 103.73 185.857 103.73 180.019V134.627H73.8467Z" fill="#C6C6C6"/>
<path d="M157.562 112.067C158.866 116.935 159.031 122.105 157.86 127.427C157.629 128.477 156.583 129.135 155.541 128.872C153.011 128.236 150.595 127.538 148.286 126.786C147.1 126.399 145.888 127.262 145.823 128.508C145.578 133.184 144.256 137.998 141.728 142.81C141.302 143.62 140.353 144.014 139.481 143.736C136.113 142.664 132.857 141.271 130.458 139.799C129.581 139.262 128.436 139.526 127.883 140.393C124.614 145.517 122.501 147.682 116.249 152.605C115.561 153.146 114.591 153.146 113.904 152.605C107.653 147.682 105.539 145.517 102.27 140.393C101.717 139.526 100.571 139.262 99.6949 139.799C97.296 141.271 94.0402 142.664 90.6716 143.736C89.7999 144.014 88.8507 143.62 88.4251 142.81C85.8974 137.998 84.5744 133.184 84.3299 128.508C84.2649 127.262 83.0532 126.399 81.8664 126.785C79.5579 127.538 77.1415 128.236 74.6119 128.872C73.5695 129.134 72.5237 128.476 72.2928 127.426C71.1222 122.105 71.2863 116.935 72.5909 112.067C72.9515 110.722 71.8033 109.455 70.4341 109.707C68.4593 110.07 66.4273 110.392 64.3373 110.67C63.1498 110.828 62.1151 109.854 62.1958 108.659C63.6885 86.5735 86.6961 69.5874 115.077 66.521C143.457 69.587 166.465 86.5735 167.958 108.659C168.038 109.854 167.003 110.828 165.816 110.67C163.726 110.392 161.694 110.07 159.719 109.707C158.349 109.455 157.201 110.722 157.562 112.067Z" fill="#A8A8A8"/>
<path d="M61.0768 45.9095C54.6583 36.8569 50.1944 24.281 47.1989 9.05745C46.2971 4.47422 49.7582 0.195382 54.4274 0.0576869C70.7837 -0.42443 83.7745 2.10733 93.036 7.82187C93.2468 18.8177 71.9415 44.2079 61.0768 45.9095Z" fill="#B7B7B7"/>
<path d="M182.224 68.5383C181.725 68.3793 181.218 68.2317 180.699 68.0958C179.281 67.729 177.98 69.0718 178.418 70.4715C180.113 75.8468 179.175 81.8121 177.692 86.775C176.902 89.4269 173.38 89.9527 171.825 87.664C171.802 87.6262 171.776 87.5884 171.75 87.5505C170.338 85.4965 167.362 85.3074 165.75 87.2102C158.881 95.3166 148.546 100.688 135.178 103.253C101.975 99.349 84.9824 70.8564 84.9824 45.9096C84.9824 28.2934 100.853 8.52737 119.011 0.113636C132.235 0.874081 143.447 5.45475 152.322 12.2106C162.062 19.6322 168.977 29.6792 172.623 40.1951C179.005 44.2085 184.516 55.4091 186.998 63.8824C187.849 66.7835 185.103 69.4655 182.224 68.5383Z" fill="#C6C6C6"/>
<path d="M135.179 103.253C129.096 104.421 122.382 105.008 115.078 105.008C91.7234 105.008 74.3984 99.0047 64.4046 87.2103C62.793 85.3075 59.8163 85.4966 58.4052 87.5506C58.3787 87.5885 58.3523 87.6263 58.3258 87.6641C56.7748 89.9528 53.2531 89.427 52.4589 86.7751C50.9762 81.8122 50.0381 75.8469 51.7326 70.4716C52.1751 69.0719 50.8738 67.7291 49.4517 68.0959C48.9372 68.2322 48.4305 68.3798 47.9311 68.5384C45.0524 69.4652 42.3062 66.7832 43.1573 63.8817C45.6388 55.4085 51.1503 44.2155 57.5279 40.2022C64.817 19.1711 85.1904 0.000289917 115.078 0.000289917C116.409 0.000289917 117.718 0.0381102 119.012 0.113751C107.713 11.9005 100.768 27.8977 100.768 45.5135C100.768 70.4606 114.688 92.1544 135.179 103.253Z" fill="#B7B7B7"/>
<path d="M169.076 45.9096C175.494 36.8569 179.958 24.2811 182.954 9.05752C183.856 4.47429 180.395 0.195451 175.725 0.0577556C159.369 -0.424362 146.378 2.1074 137.117 7.82194C136.906 18.8177 158.211 44.208 169.076 45.9096Z" fill="#C6C6C6"/>
<path d="M164.787 30.4421C162.705 28.6191 160.258 26.182 157.636 23.0569C154.715 19.576 152.596 16.4574 151.135 13.9407C155.329 12.6633 160.213 11.8555 165.759 11.5224C168.338 11.3675 170.328 13.7678 169.665 16.2647C168.248 21.6025 166.62 26.3359 164.787 30.4421Z" fill="#FAD5CB"/>
<path d="M84.9833 65.5574C91.1159 65.5574 96.0874 61.5985 96.0874 56.7148C96.0874 51.8312 91.1159 47.8722 84.9833 47.8722C78.8506 47.8722 73.8792 51.8312 73.8792 56.7148C73.8792 61.5985 78.8506 65.5574 84.9833 65.5574Z" fill="white"/>
<path d="M145.171 65.5574C151.303 65.5574 156.275 61.5985 156.275 56.7148C156.275 51.8312 151.303 47.8722 145.171 47.8722C139.038 47.8722 134.067 51.8312 134.067 56.7148C134.067 61.5985 139.038 65.5574 145.171 65.5574Z" fill="white"/>
<path d="M91.4543 51.0396C89.8875 51.0396 88.6174 49.7695 88.6174 48.2027V43.6635C88.6174 42.0967 89.8875 40.8266 91.4543 40.8266C93.0211 40.8266 94.2912 42.0967 94.2912 43.6635V48.2027C94.2912 49.7691 93.0211 51.0396 91.4543 51.0396Z" fill="#666667"/>
<path d="M138.699 51.0396C137.132 51.0396 135.862 49.7695 135.862 48.2027V43.6635C135.862 42.0967 137.132 40.8266 138.699 40.8266C140.266 40.8266 141.536 42.0967 141.536 43.6635V48.2027C141.536 49.7691 140.265 51.0396 138.699 51.0396Z" fill="#666667"/>
<path d="M122.644 84.4641C122.394 84.4641 122.139 84.4307 121.886 84.3605L121.772 84.3282C116.165 82.7269 112.24 77.4655 112.24 71.5369V63.3324C112.24 61.7657 113.51 60.4956 115.077 60.4956C116.644 60.4956 117.914 61.7657 117.914 63.3324V71.5369C117.914 74.9451 120.147 77.9634 123.344 78.8759L123.399 78.8916C124.909 79.3091 125.795 80.8723 125.377 82.3825C125.029 83.6397 123.888 84.4641 122.644 84.4641Z" fill="#666667"/>
<path d="M107.511 84.4645C106.278 84.4645 105.143 83.6537 104.785 82.4086C104.354 80.9024 105.225 79.3316 106.731 78.8998L106.81 78.877C110.009 77.9627 112.241 74.9451 112.241 71.5384V66.6474C112.241 65.0806 113.511 63.8105 115.078 63.8105C116.644 63.8105 117.915 65.0806 117.915 66.6474V71.5384C117.915 77.4648 113.99 82.7258 108.371 84.3319L108.294 84.354C108.033 84.4289 107.77 84.4645 107.511 84.4645Z" fill="#666667"/>
<path d="M65.3647 30.442C67.4474 28.6189 69.8939 26.1818 72.5164 23.0567C75.4374 19.5758 77.556 16.4573 79.0171 13.9406C74.8231 12.6631 69.9395 11.8553 64.3927 11.5223C61.8136 11.3673 59.8242 13.7676 60.487 16.2645C61.9039 21.6023 63.5328 26.3357 65.3647 30.442Z" fill="#FDC4B5"/>
<path d="M107.289 58.702C107.289 62.3581 110.776 66.6458 115.077 66.6458C119.378 66.6458 122.865 62.3581 122.865 58.702C122.865 55.0459 119.378 53.4061 115.077 53.4061C110.776 53.4064 107.289 55.0463 107.289 58.702Z" fill="#FFAAA1"/>
<path d="M222.431 180.565H8.56859C1.62867 180.565 -2.42241 172.736 1.58626 167.071L22.1822 137.964L117.292 152.762L208.818 137.964L229.414 167.071C233.422 172.737 229.371 180.565 222.431 180.565Z" fill="#F8AD3E"/>
<path d="M178.171 170.842L208.815 137.965V211.844C208.815 225.384 197.842 236.356 184.307 236.356H178.171L172.493 202.878L178.171 170.842Z" fill="#FFD9A0"/>
<path d="M52.823 236.355H46.6897C33.155 236.355 22.1816 225.381 22.1816 211.842V137.964L52.8252 178.521L55.8115 205.637L52.823 236.355Z" fill="#FDC072"/>
<path d="M178.172 174.92V236.357H67.8608C62.375 226.54 60.1999 211.935 60.5879 195.151C60.7503 187.95 61.7104 180.566 64.0529 174.92H178.172Z" fill="#FFF4E5"/>
<path d="M67.8601 236.357H52.8225V174.92H64.0522C62.8791 181.192 62.1031 187.95 61.9407 195.151C61.5527 211.935 64.5981 226.052 67.8601 236.357Z" fill="#FFE0B7"/>
<path d="M79.0712 223.297C86.4946 223.297 92.5125 218.505 92.5125 212.593C92.5125 206.682 86.4946 201.889 79.0712 201.889C71.6478 201.889 65.6299 206.682 65.6299 212.593C65.6299 218.505 71.6478 223.297 79.0712 223.297Z" fill="#FFA1AC"/>
<path d="M151.929 223.297C159.352 223.297 165.37 218.505 165.37 212.593C165.37 206.682 159.352 201.889 151.929 201.889C144.505 201.889 138.487 206.682 138.487 212.593C138.487 218.505 144.505 223.297 151.929 223.297Z" fill="#FFA1AC"/>
<path d="M208.816 137.965L194.812 169.759C191.92 176.328 185.423 180.564 178.245 180.564H63.1283C57.9727 162.837 67.8615 145.071 77.0514 137.965H208.816Z" fill="#FDC072"/>
<path d="M77.0516 137.965C71.8586 147.728 65.7001 162.292 63.1284 180.564H52.756C45.5778 180.564 39.081 176.328 36.1889 169.759L22.1846 137.965H77.0516Z" fill="#F8AD3E"/>
<path d="M86.9683 191.062C81.5186 191.062 77.085 195.496 77.085 200.946C77.085 202.871 78.6456 204.432 80.5707 204.432C82.4963 204.432 84.0565 202.871 84.0565 200.946C84.0565 199.341 85.3626 198.034 86.9683 198.034C88.5741 198.034 89.8802 199.34 89.8802 200.946C89.8802 202.871 91.4408 204.432 93.3659 204.432C95.2911 204.432 96.8517 202.871 96.8517 200.946C96.8517 195.496 92.418 191.062 86.9683 191.062Z" fill="#454545"/>
<path d="M144.158 191.062C138.708 191.062 134.274 195.496 134.274 200.946C134.274 202.871 135.835 204.432 137.76 204.432C139.686 204.432 141.246 202.871 141.246 200.946C141.246 199.341 142.552 198.034 144.158 198.034C145.764 198.034 147.07 199.34 147.07 200.946C147.07 202.871 148.63 204.432 150.555 204.432C152.481 204.432 154.041 202.871 154.041 200.946C154.042 195.496 149.608 191.062 144.158 191.062Z" fill="#454545"/>
<path d="M124.64 205.796C123.188 204.53 120.986 204.682 119.722 206.133C118.671 207.338 117.156 208.029 115.563 208.029C113.97 208.029 112.455 207.338 111.404 206.133C110.14 204.682 107.938 204.531 106.486 205.796C105.035 207.061 104.884 209.263 106.149 210.715C108.524 213.439 111.956 215.001 115.564 215.001C119.172 215.001 122.603 213.439 124.978 210.715C126.242 209.263 126.091 207.061 124.64 205.796Z" fill="#454545"/>
</svg>
