<svg width="313" height="82" viewBox="0 0 313 82" fill="none" xmlns="http://www.w3.org/2000/svg">
<path d="M30.1331 7.6405H36.9898C41.1655 7.02519 45.4299 7.56618 49.3197 9.20469C54.1999 12.1415 57.7395 16.8695 59.1837 22.38C60.2062 25.2678 60.2062 25.2678 62.6722 24.245H64.5968V1.38371H0.0601292V5.41453H2.70655C3.85658 5.40656 4.99377 5.65641 6.0346 6.14572C7.07542 6.63503 7.99342 7.35137 8.72116 8.24211C11.1871 12.2128 11.6082 16.6647 11.6082 39.8269C11.6082 64.4329 11.0669 70.449 8.72116 73.5172C8.14207 74.306 7.39233 74.9538 6.52791 75.4121C5.66349 75.8705 4.70672 76.1276 3.72904 76.1643C0.0601293 76.8261 0.0601292 76.766 0.0601292 78.3903C-0.142764 78.9335 -0.142764 79.5317 0.0601292 80.0748H40.779C41.0485 79.5435 41.1889 78.956 41.1889 78.3602C41.1889 77.7644 41.0485 77.177 40.779 76.6456C39.7928 76.3712 38.7876 76.1701 37.7717 76.044C36.6727 75.9133 35.5864 75.6919 34.5238 75.3822C33.0022 74.2711 31.7968 72.782 31.0268 71.0622C30.2568 69.3424 29.9487 67.4513 30.1331 65.5759C29.5317 61.6053 29.231 54.3257 29.231 48.3096V43.5569H31.6368C34.6342 43.4651 37.6299 43.7891 40.5384 44.5194C41.9318 45.3807 43.1179 46.5391 44.012 47.9118C44.9062 49.2846 45.4863 50.8378 45.711 52.4607L46.2523 54.3257H49.9212V27.6742H46.553L46.0117 30.2612C45.784 31.9208 45.1701 33.5039 44.2195 34.8831C43.269 36.2624 42.0081 37.3993 40.5384 38.2025C39.1151 38.6262 37.6155 38.7289 36.1478 38.5033H29.231V32.0059C29.231 25.2678 29.5918 11.0697 29.8324 8.84373L30.1331 7.6405ZM311.617 55.3485C308.774 50.7715 304.339 47.4074 299.166 45.9032C295.201 44.6632 291.535 42.6148 288.4 39.887C287.695 39.2046 287.167 38.3599 286.863 37.4266C286.559 36.4933 286.488 35.4997 286.656 34.5326C286.661 32.6357 287.418 30.8181 288.761 29.4791C289.672 28.5253 290.824 27.8368 292.095 27.4871C293.366 27.1374 294.709 27.1397 295.979 27.4938C298.608 28.2433 300.986 29.6903 302.86 31.6814C304.734 33.6726 306.035 36.1337 306.625 38.8041C307.587 41.5114 307.707 41.5114 309.451 40.7894L310.534 40.3683V25.3881L309.752 25.0271C303.831 22.9469 297.55 22.0874 291.287 22.5004C285.894 22.637 280.747 24.7825 276.852 28.5165C275.086 30.1703 273.703 32.1902 272.799 34.4349C271.895 36.6796 271.492 39.0948 271.62 41.5114C271.653 45.206 273.12 48.7433 275.709 51.3778C278.572 54.1934 282.083 56.2597 285.934 57.394C295.257 61.0638 297.963 63.4101 297.963 67.6816C298.003 69.4829 297.43 71.2442 296.337 72.6764C295.244 74.1086 293.697 75.1264 291.949 75.5627C289.849 76.0242 287.673 76.0242 285.573 75.5627C282.824 74.4952 280.369 72.7865 278.412 70.5785C276.456 68.3706 275.055 65.7274 274.326 62.8687L273.544 60.9435H272.462C271.944 60.982 271.436 61.1038 270.958 61.3045H270.356V78.3903H271.379C275.442 79.7424 279.635 80.6698 283.889 81.1577H289.904C292.512 81.3492 295.134 81.1052 297.663 80.4358C300.873 79.8433 303.872 78.421 306.362 76.3102C308.852 74.1994 310.746 71.4735 311.857 68.4035C312.575 66.6888 312.943 64.8479 312.94 62.989C313.177 60.3701 312.72 57.735 311.617 55.3485ZM254.959 24.245C251.355 22.7314 247.471 21.9972 243.564 22.0905C239.656 22.1838 235.812 23.1026 232.284 24.7865C228.968 26.409 226.029 28.7089 223.656 31.5379C221.284 34.3668 219.531 37.662 218.511 41.2106C217.21 45.0816 216.658 49.1653 216.887 53.2428C216.844 55.4614 217.025 57.6786 217.428 59.8606C218.399 65.2258 220.989 70.1652 224.849 74.0153C228.708 77.8654 233.654 80.4418 239.02 81.3984C242.515 81.8388 246.051 81.8388 249.546 81.3984C253.172 80.759 256.643 79.4317 259.771 77.4879C262.358 76.0371 264.548 73.9708 266.146 71.4717C266.044 71.0796 265.863 70.7123 265.615 70.3918C265.367 70.0713 265.057 69.8043 264.703 69.6067C264.016 69.8554 263.368 70.1997 262.778 70.6295C259.786 72.6016 256.254 73.5901 252.673 73.4571C250.297 73.6178 247.915 73.2477 245.699 72.3736C243.483 71.4996 241.489 70.1434 239.862 68.4035C238.604 67.2341 237.565 65.8486 236.795 64.3125C234.926 60.5725 233.919 56.4609 233.848 52.2803V49.934H267.169V48.7307C267.242 47.5286 267.242 46.3232 267.169 45.1211C267.157 40.8731 266.021 36.704 263.876 33.0373C261.732 29.3707 258.655 26.3372 254.959 24.245ZM238.178 45.0609H233.968V41.5114C235.351 32.427 238.78 27.0125 242.99 27.0125C247.2 27.0125 249.005 32.3668 249.786 42.1731V44.9406H246.178L238.178 45.0609ZM151.688 22.2597C149.61 22.1791 147.544 22.6131 145.674 23.5231C141.609 25.4978 138.325 28.782 136.351 32.8481L135.569 34.292V22.2597H135.268C134.547 22.2597 112.293 26.7117 111.571 27.0125C110.849 27.3133 111.09 27.3734 111.09 28.4563C111.09 29.5392 111.09 29.7197 111.571 29.7799L113.917 30.2612C114.574 30.2773 115.218 30.4428 115.802 30.7451C116.385 31.0473 116.892 31.4785 117.285 32.0059C118.788 33.9912 119.089 37.4806 119.089 52.3404C119.386 59.0301 119.104 65.733 118.247 72.3742C118.045 73.3756 117.538 74.2896 116.794 74.99C116.051 75.6905 115.108 76.1429 114.097 76.2847L112.052 76.7058H111.27V78.3903C111.052 78.9514 111.052 79.5739 111.27 80.135H144.892V78.3903C145.008 77.8146 145.008 77.2213 144.892 76.6456C142.867 76.5667 140.854 76.3049 138.877 75.8635C137.8 75.3002 136.92 74.4239 136.351 73.3499C135.782 72.276 135.551 71.0549 135.689 69.8474C135.208 66.358 134.968 56.1306 135.088 48.3096C135.208 40.4886 135.088 40.0073 135.75 39.4659C137.762 37.9223 140.253 37.1345 142.787 37.2399C145.175 37.292 147.52 37.8887 149.643 38.9846C150.379 39.3934 151.169 39.6971 151.989 39.887C151.989 39.887 158.004 25.328 158.004 24.6662C157.234 23.7715 156.253 23.083 155.151 22.6628C154.048 22.2426 152.858 22.1041 151.688 22.2597ZM111.15 47.5275C110.94 43.2284 109.706 39.0417 107.551 35.3162C105.396 31.5908 102.382 28.4344 98.7598 26.1101C94.4557 23.7875 89.6671 22.5069 84.7786 22.3711C79.89 22.2352 75.0378 23.248 70.6114 25.328C64.3532 28.6289 59.628 34.2402 57.4395 40.9699C55.179 48.5046 55.179 56.5372 57.4395 64.0719C58.6245 68.1898 60.8394 71.9375 63.8751 74.9611C67.6558 78.6511 72.5309 81.0154 77.7688 81.6992C81.1311 81.9804 84.511 81.9804 87.8734 81.6992C89.1106 81.5109 90.3357 81.2497 91.5423 80.9171C96.4379 79.5472 100.842 76.8111 104.24 73.0289C107.638 69.2467 109.889 64.5748 110.729 59.5598C111.329 55.5784 111.471 51.5412 111.15 47.5275ZM86.1291 77.6082C80.1145 79.4131 75.6036 73.5774 74.0999 61.3045C73.5477 54.879 73.5477 48.4181 74.0999 41.9927C75.3028 32.1262 78.3703 27.1328 83.1218 27.1328C84.0805 27.0734 85.0394 27.2444 85.9184 27.6317C86.7973 28.019 87.5708 28.6112 88.1741 29.3588C92.2039 33.3896 94.1887 41.391 94.1887 53.4233C94.6891 60.2329 93.6191 67.0665 91.0611 73.3969C89.9316 75.2432 88.184 76.6288 86.1291 77.3074V77.6082ZM194.392 23.4629C192.695 23.2445 190.977 23.2445 189.28 23.4629C186.022 23.4602 182.801 24.1578 179.837 25.5084L177.972 26.2905V13.2355C178.298 8.82969 178.298 4.40582 177.972 0C177.25 0 154.275 4.39178 153.914 4.57227C153.736 5.01644 153.736 5.51181 153.914 5.95598C153.914 7.21937 153.914 7.15921 156.62 7.76082C157.38 7.93129 158.11 8.21522 158.786 8.60308C159.96 9.7074 160.741 11.165 161.011 12.7542C161.696 17.3326 161.917 21.9684 161.673 26.5913V79.4131L163.296 79.774C165.702 80.3155 172.499 81.4585 174.724 81.6992C179.168 82.0527 183.633 82.0527 188.077 81.6992C193.009 81.1953 197.71 79.3546 201.674 76.3756C205.638 73.3966 208.714 69.3922 210.571 64.7938C211.678 61.8425 212.445 58.7745 212.857 55.6493C213.215 51.4161 213.074 47.1554 212.436 42.9552C211.791 38.2471 209.713 33.8515 206.485 30.3645C203.257 26.8776 199.035 24.4681 194.392 23.4629ZM178.634 76.5855C178.634 75.8034 178.032 49.4527 178.153 38.9244V30.6823L179.897 30.2612C181.074 30.0925 182.269 30.0925 183.445 30.2612C184.747 30.1288 186.056 30.4245 187.174 31.1034C189.421 32.654 191.286 34.6941 192.63 37.07C193.974 39.4459 194.761 42.0958 194.933 44.8202C195.371 49.2011 195.371 53.6147 194.933 57.9956C194.573 64.3628 192.121 70.4327 187.956 75.2619C186.774 76.3848 185.29 77.1377 183.686 77.4277C182.472 77.6389 181.231 77.6389 180.017 77.4277C178.874 77.4277 178.874 77.0668 178.874 76.5855H178.634Z" fill="#33629A"/>
</svg>
