<svg width="370" height="132" viewBox="0 0 370 132" fill="none" xmlns="http://www.w3.org/2000/svg">
<g clip-path="url(#clip0_788_8007)">
<path d="M227.332 59.2212L220.911 78.063V79.2267H226.035V83.6532H220.911V88.073H212.404V83.6532H207.48V79.2267H212.404V78.063L205.083 59.2212H213.352L216.762 69.5401L219.945 59.2212" fill="#A7A09A"/>
<path d="M92.7793 52.3066H102.304V62.4073L108.649 52.3066H119.085L111.136 63.9712L117.776 73.7331H120.556V81.1224H112.814V78.0404H109.453L102.304 67.664V78.0404H92.7793V52.3066Z" fill="#A7A09A"/>
<path d="M167.858 51.9077H180.425L185.275 67.8082L190.103 51.9077H202.629V78.0401H194.827V58.111L188.775 78.0401H181.711L175.681 58.111V78.0401H167.858V51.9077Z" fill="#A7A09A"/>
<path d="M230.266 59.2212H238.114V65.3269H243.257V59.2212H251.104V77.5875H243.257V69.831H238.114V77.5875H230.266V59.2212Z" fill="#A7A09A"/>
<path d="M299.206 59.2212V77.5875H292.7V67.814L286.141 77.5875H279.381V59.2212H285.886V68.9947L292.446 59.2212H299.206Z" fill="#A7A09A"/>
<path d="M282.476 50.7397H285.381C285.53 51.5954 285.937 52.2494 286.6 52.7016C287.278 53.1539 288.178 53.38 289.303 53.38C290.427 53.38 291.321 53.1539 291.984 52.7016C292.662 52.2494 293.075 51.5954 293.224 50.7397H296.129C296.048 52.4999 295.418 53.8506 294.24 54.7918C293.061 55.7208 291.416 56.1853 289.303 56.1853C287.19 56.1853 285.544 55.7208 284.366 54.7918C283.187 53.8506 282.557 52.4999 282.476 50.7397Z" fill="#A7A09A"/>
<path d="M304.001 77.5875V52.2246H325.045V58.7566H313.643V77.5875H304.001Z" fill="#A7A09A"/>
<path d="M354.662 66.1414C355.781 66.1447 356.892 66.2417 357.928 66.1553C361.889 65.8113 361.832 62.7568 357.834 62.5072C355.836 62.5102 353.169 63.2305 351.823 63.8128V59.5656C354.609 59.0446 357.948 58.6543 360.892 58.7208C364.572 58.8967 369.538 59.0717 369.945 63.5997C369.945 65.7643 368.619 67.1253 365.966 67.6829C368.958 68.3497 370.454 69.9131 370.454 72.3728C370.267 77.1997 365.071 77.6661 361.248 78.0417C357.885 78.2879 354.98 77.9375 351.778 77.1448V71.7388C353.957 72.5034 356.314 73.6071 358.708 73.2292C362.528 72.5183 362.302 70.2289 358.525 69.7058C357.239 69.6061 355.816 69.7655 354.662 69.7655V66.1414Z" fill="#A7A09A"/>
<path d="M337.865 58.767C335.032 58.7383 332.23 59.1548 329.459 59.702V64.1845C331.717 63.0449 334.191 62.7687 336.68 62.672C338.7 62.5113 341.692 63.2478 341.697 65.8345H337.865C334.352 65.8345 331.768 66.3413 330.12 67.347C328.485 68.3528 327.667 69.9234 327.667 72.077C327.667 73.8481 328.343 75.2794 329.652 76.3945C330.972 77.4987 332.671 78.072 334.778 78.072C336.341 78.072 337.657 77.8049 338.747 77.302C339.838 76.7882 340.824 75.9696 341.697 74.8545V77.577H349.138V67.0995C349.138 64.1588 348.321 62.048 346.685 60.747C345.062 59.4352 341.536 58.767 337.865 58.767ZM341.697 69.327C341.836 70.7748 341.042 71.6652 340.194 72.7883C338.152 74.0442 336.341 73.558 336.128 71.5129C336.394 69.1103 338.67 69.0402 341.697 69.327Z" fill="#A7A09A"/>
<path d="M149.156 66.1414C150.275 66.1447 151.386 66.2417 152.422 66.1553C156.383 65.8113 156.326 62.7568 152.328 62.5072C150.33 62.5102 147.663 63.2305 146.317 63.8128V59.5656C149.103 59.0446 152.442 58.6543 155.386 58.7208C159.066 58.8967 164.032 59.0717 164.439 63.5997C164.439 65.7643 163.113 67.1253 160.46 67.6829C163.452 68.3497 164.948 69.9131 164.948 72.3728C164.761 77.1997 159.565 77.6661 155.742 78.0417C152.379 78.2879 149.474 77.9375 146.272 77.1448V71.7388C148.451 72.5034 150.808 73.6071 153.202 73.2292C157.022 72.5183 156.796 70.2289 153.019 69.7058C151.733 69.6061 150.31 69.7655 149.156 69.7655V66.1414Z" fill="#A7A09A"/>
<path d="M132.359 58.767C129.525 58.7383 126.724 59.1548 123.953 59.702V64.1845C126.211 63.0449 128.685 62.7687 131.174 62.672C133.194 62.5113 136.186 63.2478 136.19 65.8345H132.359C128.846 65.8345 126.262 66.3413 124.614 67.347C122.979 68.3528 122.161 69.9234 122.161 72.077C122.161 73.8481 122.837 75.2794 124.146 76.3945C125.466 77.4987 127.164 78.072 129.272 78.072C130.835 78.072 132.151 77.8049 133.241 77.302C134.331 76.7882 135.318 75.9696 136.19 74.8545V77.577H143.632V67.0995C143.632 64.1588 142.815 62.048 141.179 60.747C139.556 59.4352 136.03 58.767 132.359 58.767ZM136.19 69.327C136.329 70.7748 135.536 71.6652 134.688 72.7883C132.646 74.0442 130.834 73.558 130.622 71.5129C130.888 69.1103 133.164 69.0402 136.19 69.327Z" fill="#A7A09A"/>
<path d="M91.9839 83.5012H93.7093L95.8881 87.6007V83.5012H97.3527V89.4784H95.6273L93.4485 85.3788V89.4784H91.9839V83.5012ZM103.387 88.3894H100.971L100.59 89.4784H99.0372L101.256 83.5012H103.098L105.317 89.4784H103.764L103.387 88.3894ZM101.356 87.2804H102.998L102.179 84.9024L101.356 87.2804ZM106.185 83.4759H111.707V84.641H109.72V89.4531H108.176V84.641H106.185V83.4759ZM113.2 83.4759H114.745V89.4531H113.2V83.4759ZM119.614 84.5929C119.143 84.5929 118.778 84.7664 118.519 85.1134C118.259 85.4603 118.13 85.9488 118.13 86.5786C118.13 87.2058 118.259 87.6929 118.519 88.0399C118.778 88.3869 119.143 88.5604 119.614 88.5604C120.088 88.5604 120.454 88.3869 120.714 88.0399C120.973 87.6929 121.103 87.2058 121.103 86.5786C121.103 85.9488 120.973 85.4603 120.714 85.1134C120.454 84.7664 120.088 84.5929 119.614 84.5929ZM119.614 83.4759C120.577 83.4759 121.332 83.7509 121.877 84.3007C122.423 84.8505 122.696 85.6098 122.696 86.5786C122.696 87.5448 122.423 88.3028 121.877 88.8526C121.332 89.4024 120.577 89.6773 119.614 89.6773C118.654 89.6773 117.9 89.4024 117.351 88.8526C116.805 88.3028 116.533 87.5448 116.533 86.5786C116.533 85.6098 116.805 84.8505 117.351 84.3007C117.9 83.7509 118.654 83.4759 119.614 83.4759ZM124.952 83.4759H126.678L128.856 87.5755V83.4759H130.321V89.4531H128.596L126.417 85.3536V89.4531H124.952V83.4759ZM136.303 88.3642H133.888L133.507 89.4531H131.954L134.173 83.4759H136.014L138.233 89.4531H136.681L136.303 88.3642ZM134.273 87.2552H135.914L135.096 84.8772L134.273 87.2552ZM139.942 83.4759H141.486V88.2881H144.199V89.4531H139.942V83.4759ZM158.202 89.1501C157.919 89.2969 157.623 89.4076 157.315 89.4824C157.008 89.5571 156.687 89.5945 156.352 89.5945C155.355 89.5945 154.564 89.3169 153.981 88.7617C153.398 88.2039 153.106 87.4486 153.106 86.4958C153.106 85.5403 153.398 84.7849 153.981 84.2298C154.564 83.672 155.355 83.3931 156.352 83.3931C156.687 83.3931 157.008 83.4304 157.315 83.5052C157.623 83.5799 157.919 83.6907 158.202 83.8375V85.0745C157.916 84.8797 157.634 84.7369 157.355 84.6462C157.077 84.5554 156.784 84.51 156.477 84.51C155.926 84.51 155.492 84.6862 155.177 85.0385C154.861 85.3908 154.703 85.8766 154.703 86.4958C154.703 87.1123 154.861 87.5967 155.177 87.949C155.492 88.3013 155.926 88.4775 156.477 88.4775C156.784 88.4775 157.077 88.4321 157.355 88.3414C157.634 88.2506 157.916 88.1078 158.202 87.913V89.1501ZM162.755 84.5929C162.284 84.5929 161.919 84.7664 161.66 85.1134C161.4 85.4603 161.27 85.9488 161.27 86.5786C161.27 87.2058 161.4 87.6929 161.66 88.0399C161.919 88.3869 162.284 88.5604 162.755 88.5604C163.229 88.5604 163.595 88.3869 163.855 88.0399C164.114 87.6929 164.244 87.2058 164.244 86.5786C164.244 85.9488 164.114 85.4603 163.855 85.1134C163.595 84.7664 163.229 84.5929 162.755 84.5929ZM162.755 83.4759C163.718 83.4759 164.472 83.7509 165.018 84.3007C165.564 84.8505 165.837 85.6098 165.837 86.5786C165.837 87.5448 165.564 88.3028 165.018 88.8526C164.472 89.4024 163.718 89.6773 162.755 89.6773C161.795 89.6773 161.04 89.4024 160.492 88.8526C159.946 88.3028 159.673 87.5448 159.673 86.5786C159.673 85.6098 159.946 84.8505 160.492 84.3007C161.04 83.7509 161.795 83.4759 162.755 83.4759ZM167.926 83.4759H169.892L171.257 86.6747L172.629 83.4759H174.591V89.4531H173.13V85.0813L171.75 88.3041H170.771L169.391 85.0813V89.4531H167.926V83.4759ZM176.732 83.4759H179.296C180.058 83.4759 180.642 83.6454 181.049 83.9844C181.458 84.3207 181.663 84.8011 181.663 85.4256C181.663 86.0529 181.458 86.5359 181.049 86.8749C180.642 87.2112 180.058 87.3793 179.296 87.3793H178.276V89.4531H176.732V83.4759ZM178.276 84.5929V86.2624H179.131C179.431 86.2624 179.662 86.1903 179.825 86.0462C179.988 85.8994 180.07 85.6925 180.07 85.4256C180.07 85.1587 179.988 84.9532 179.825 84.8091C179.662 84.665 179.431 84.5929 179.131 84.5929H178.276ZM187.082 88.3894H184.666L184.285 89.4784H182.732L184.951 83.5012H186.793L189.012 89.4784H187.459L187.082 88.3894ZM185.051 87.2804H186.692L185.874 84.9024L185.051 87.2804ZM190.684 83.5012H192.41L194.588 87.6007V83.5012H196.053V89.4784H194.328L192.149 85.3788V89.4784H190.684V83.5012ZM197.617 83.5012H199.306L200.671 85.631L202.035 83.5012H203.728L201.445 86.9602V89.4784H199.9V86.9602L197.617 83.5012Z" fill="#A7A09A"/>
<path d="M237.045 83.4759L234.762 86.9349V87.7035H235.653V88.4722H234.762V89.4531H233.217V88.4722H232.33V87.7035H233.217V86.9349L230.934 83.4759H232.623L233.988 85.6057L235.352 83.4759H237.045ZM238.788 89.4531V88.288C239.468 88.2133 239.876 87.9558 240.012 87.5154C240.149 87.0723 240.217 86.1022 240.217 84.6048V83.4759H244.482V89.4531H242.937V84.6409H241.762V85.0052C241.762 86.4678 241.632 87.5381 241.372 88.216C241.113 88.8912 240.252 89.3036 238.788 89.4531ZM254.629 83.4759H260.15V84.6409H258.164V89.4531H256.619V84.6409H254.629V83.4759ZM264.576 88.4042C264.9 88.4042 265.134 88.3441 265.278 88.224C265.433 88.0932 265.511 87.9037 265.511 87.6555C265.511 87.4126 265.433 87.2271 265.278 87.099C265.136 86.9789 264.902 86.9189 264.576 86.9189H263.669V88.4042H264.576ZM267.056 87.6075C267.056 88.2427 266.861 88.7017 266.47 88.9847C266.039 89.2969 265.445 89.4531 264.688 89.4531H262.124V83.4759H263.669V85.7539H264.688C265.445 85.7539 266.039 85.91 266.47 86.2223C266.861 86.5052 267.056 86.9669 267.056 87.6075ZM267.585 83.4759H269.13V89.4531H267.585V83.4759ZM272.439 83.4759H273.984V85.942L276.399 83.4759H278.149L275.769 85.898L277.459 88.288H278.281V89.4531V90.7382H276.74V89.4531H276.58L274.778 86.9069L273.984 87.7156V89.4531H272.439V83.4759ZM284.514 83.4759H286.059V85.942L288.474 83.4759H290.224L287.844 85.898L290.356 89.4531H288.655L286.853 86.9069L286.059 87.7156V89.4531H284.514V83.4759ZM296.073 84.5928C295.602 84.5928 295.237 84.7663 294.978 85.1133C294.718 85.4603 294.588 85.9487 294.588 86.5786C294.588 87.2058 294.718 87.6929 294.978 88.0398C295.237 88.3868 295.602 88.5603 296.073 88.5603C296.547 88.5603 296.913 88.3868 297.173 88.0398C297.432 87.6929 297.562 87.2058 297.562 86.5786C297.562 85.9487 297.432 85.4603 297.173 85.1133C296.913 84.7663 296.547 84.5928 296.073 84.5928ZM296.073 83.4759C297.036 83.4759 297.79 83.7508 298.336 84.3006C298.882 84.8504 299.155 85.6097 299.155 86.5786C299.155 87.5447 298.882 88.3027 298.336 88.8525C297.79 89.4024 297.036 89.6773 296.073 89.6773C295.113 89.6773 294.358 89.4024 293.81 88.8525C293.264 88.3027 292.991 87.5447 292.991 86.5786C292.991 85.6097 293.264 84.8504 293.81 84.3006C294.358 83.7508 295.113 83.4759 296.073 83.4759ZM302.853 83.4759H304.819L306.184 86.6746L307.556 83.4759H309.518V89.4531H308.057V85.0813L306.677 88.3041H305.698L304.318 85.0813V89.4531H302.853V83.4759ZM318.243 83.4759V89.4531H316.698V84.6409H314.419V89.4531H312.874V83.4759H318.243ZM325.405 88.3641H322.99L322.609 89.4531H321.056L323.275 83.4759H325.116L327.335 89.4531H325.783L325.405 88.3641ZM323.375 87.2552H325.016L324.198 84.8771L323.375 87.2552ZM330.224 83.4759H331.768V85.7539H334.047V83.4759H335.592V89.4531H334.047V86.9189H331.768V89.4531H330.224V83.4759ZM344.313 83.4759V89.4531H342.849V85.3535L340.67 89.4531H338.944V83.4759H340.409V87.5754L342.588 83.4759H344.313ZM349.263 85.3535C349.263 85.6284 349.332 85.8259 349.471 85.946C349.613 86.0661 349.846 86.1262 350.169 86.1262H350.94V84.5928H350.169C349.846 84.5928 349.613 84.6516 349.471 84.769C349.332 84.8864 349.263 85.0813 349.263 85.3535ZM347.437 89.4531L348.929 86.9149C348.726 86.8001 348.473 86.5999 348.171 86.3143C347.869 86.0261 347.718 85.6831 347.718 85.2854C347.718 84.6876 347.901 84.2365 348.267 83.9323C348.637 83.628 349.216 83.4759 350.005 83.4759H352.485V89.4531H350.94V87.1911H350.414L349.082 89.4531H347.437ZM360.357 89.1208C360.074 89.2676 359.778 89.3783 359.47 89.4531C359.163 89.5278 358.842 89.5652 358.507 89.5652C357.51 89.5652 356.719 89.2876 356.136 88.7324C355.553 88.1746 355.261 87.4193 355.261 86.4665C355.261 85.511 355.553 84.7557 356.136 84.2005C356.719 83.6427 357.51 83.3638 358.507 83.3638C358.842 83.3638 359.163 83.4011 359.47 83.4759C359.778 83.5506 360.074 83.6614 360.357 83.8082V85.0452C360.071 84.8504 359.789 84.7076 359.51 84.6169C359.232 84.5261 358.939 84.4807 358.632 84.4807C358.081 84.4807 357.647 84.6569 357.332 85.0092C357.016 85.3615 356.858 85.8473 356.858 86.4665C356.858 87.083 357.016 87.5674 357.332 87.9197C357.647 88.272 358.081 88.4482 358.632 88.4482C358.939 88.4482 359.232 88.4028 359.51 88.3121C359.789 88.2213 360.071 88.0785 360.357 87.8837V89.1208ZM365.535 88.4042C365.859 88.4042 366.093 88.3441 366.237 88.224C366.392 88.0932 366.47 87.9037 366.47 87.6555C366.47 87.4126 366.392 87.2271 366.237 87.099C366.095 86.9789 365.861 86.9189 365.535 86.9189H364.628V88.4042H365.535ZM368.015 87.6075C368.015 88.2427 367.819 88.7017 367.429 88.9847C366.998 89.2969 366.404 89.4531 365.647 89.4531H363.083V83.4759H364.628V85.7539H365.647C366.404 85.7539 366.998 85.91 367.429 86.2223C367.819 86.5052 368.015 86.9669 368.015 87.6075ZM368.544 83.4759H370.089V89.4531H368.544V83.4759Z" fill="#A7A09A"/>
<path d="M247.243 83.4761H252.764V84.6411H250.778V89.4533H249.233V84.6411H247.243V83.4761Z" fill="#A7A09A"/>
<path d="M264.659 58.767C261.826 58.7383 259.024 59.1548 256.253 59.702V64.1845C258.511 63.0449 260.985 62.7687 263.474 62.672C265.494 62.5113 268.486 63.2478 268.49 65.8345H264.659C261.146 65.8345 258.562 66.3413 256.914 67.347C255.279 68.3528 254.461 69.9234 254.461 72.077C254.461 73.8481 255.137 75.2794 256.446 76.3945C257.766 77.4987 259.464 78.072 261.572 78.072C263.135 78.072 264.451 77.8049 265.541 77.302C266.632 76.7882 267.618 75.9696 268.49 74.8545V77.577H275.932V67.0995C275.932 64.1588 275.115 62.048 273.479 60.747C271.856 59.4352 268.33 58.767 264.659 58.767ZM268.49 69.327C268.629 70.7748 267.836 71.6652 266.988 72.7883C264.946 74.0442 263.134 73.558 262.922 71.5129C263.188 69.1103 265.464 69.0402 268.49 69.327Z" fill="#A7A09A"/>
<path d="M37.1309 29.8921C37.5903 34.3987 37.1807 39.765 35.3394 44.1096L35.6701 44.3021C35.7883 44.3002 35.9098 44.3021 36.0284 44.3021C48.0126 44.3021 57.7201 53.9876 57.7201 65.9446C57.7201 68.8818 57.1295 71.6947 56.0664 74.2496L67.1189 84.3971C70.3421 78.9993 72.1904 72.6798 72.1904 65.9446C72.1904 46.3911 56.5868 30.4801 37.1309 29.8921ZM22.2196 32.5871C9.08997 38.0033 -0.161132 50.8954 -0.161133 65.9446C-0.161133 80.1657 8.10941 92.4576 20.0973 98.3396V80.6571C18.7065 79.1577 17.5215 77.4703 16.5969 75.6246C14.1418 71.2957 12.5332 64.5106 12.5452 57.3371C12.5602 48.31 14.8938 38.81 22.2196 32.5871Z" fill="black"/>
<path fill-rule="evenodd" clip-rule="evenodd" d="M22.2995 78.7502C14.9579 70.4672 14.6017 61.2129 16.6363 55.9135C20.4705 45.9263 34.3672 41.3615 36.4586 26.4365C37.0111 63.5181 18.6456 50.9086 22.2995 78.7502Z" fill="#A7A09A"/>
<path fill-rule="evenodd" clip-rule="evenodd" d="M14.5564 55.7939C13.3823 32.8274 32.4408 35.6927 34.91 16.062C38.1414 39.6839 17.0407 42.2392 14.5564 55.7939Z" fill="#A7A09A"/>
<path fill-rule="evenodd" clip-rule="evenodd" d="M22.2995 76.9905C14.9579 68.7075 14.6017 59.4532 16.6363 54.1537C20.4705 44.1666 34.3672 39.6018 36.4586 24.6768C37.0111 61.7584 18.6456 49.1488 22.2995 76.9905Z" fill="#02AEF0"/>
<path fill-rule="evenodd" clip-rule="evenodd" d="M14.5564 54.0342C13.3823 31.0676 32.4408 33.9329 34.91 14.3022C38.1414 37.9241 17.0407 40.4794 14.5564 54.0342Z" fill="#90D6F7"/>
<path d="M26.9811 84.5337C26.9812 84.8377 26.9213 85.1389 26.8047 85.4198C26.6882 85.7008 26.5173 85.9561 26.3018 86.1712C26.0864 86.3862 25.8305 86.5568 25.549 86.6732C25.2674 86.7896 24.9656 86.8495 24.6608 86.8495C24.3561 86.8495 24.0543 86.7896 23.7727 86.6732C23.4911 86.5568 23.2353 86.3862 23.0199 86.1712C22.8044 85.9561 22.6335 85.7008 22.5169 85.4198C22.4004 85.1389 22.3405 84.8377 22.3406 84.5337C22.3405 84.2296 22.4004 83.9284 22.5169 83.6475C22.6335 83.3665 22.8044 83.1112 23.0199 82.8961C23.2353 82.6811 23.4911 82.5105 23.7727 82.3941C24.0543 82.2777 24.3561 82.2178 24.6608 82.2178C24.9656 82.2178 25.2674 82.2777 25.549 82.3941C25.8305 82.5105 26.0864 82.6811 26.3018 82.8961C26.5173 83.1112 26.6882 83.3665 26.8047 83.6475C26.9213 83.9284 26.9812 84.2296 26.9811 84.5337Z" fill="#A7A09A"/>
<path d="M26.9811 90.4067C26.9812 90.7108 26.9213 91.0119 26.8047 91.2929C26.6882 91.5739 26.5173 91.8292 26.3018 92.0442C26.0864 92.2593 25.8305 92.4299 25.549 92.5463C25.2674 92.6627 24.9656 92.7226 24.6608 92.7226C24.3561 92.7226 24.0543 92.6627 23.7727 92.5463C23.4911 92.4299 23.2353 92.2593 23.0199 92.0442C22.8044 91.8292 22.6335 91.5739 22.5169 91.2929C22.4004 91.0119 22.3405 90.7108 22.3406 90.4067C22.3405 90.1026 22.4004 89.8015 22.5169 89.5205C22.6335 89.2395 22.8044 88.9842 23.0199 88.7692C23.2353 88.5541 23.4911 88.3835 23.7727 88.2671C24.0543 88.1507 24.3561 88.0908 24.6608 88.0908C24.9656 88.0908 25.2674 88.1507 25.549 88.2671C25.8305 88.3835 26.0864 88.5541 26.3018 88.7692C26.5173 88.9842 26.6882 89.2395 26.8047 89.5205C26.9213 89.8015 26.9812 90.1026 26.9811 90.4067Z" fill="#A7A09A"/>
<path d="M26.9811 96.2798C26.9812 96.5838 26.9213 96.885 26.8047 97.1659C26.6882 97.4469 26.5173 97.7022 26.3018 97.9173C26.0864 98.1323 25.8305 98.3029 25.549 98.4193C25.2674 98.5357 24.9656 98.5956 24.6608 98.5956C24.3561 98.5956 24.0543 98.5357 23.7727 98.4193C23.4911 98.3029 23.2353 98.1323 23.0199 97.9173C22.8044 97.7022 22.6335 97.4469 22.5169 97.1659C22.4004 96.885 22.3405 96.5838 22.3406 96.2798C22.3405 95.9757 22.4004 95.6745 22.5169 95.3936C22.6335 95.1126 22.8044 94.8573 23.0199 94.6422C23.2353 94.4272 23.4911 94.2566 23.7727 94.1402C24.0543 94.0238 24.3561 93.9639 24.6608 93.9639C24.9656 93.9639 25.2674 94.0238 25.549 94.1402C25.8305 94.2566 26.0864 94.4272 26.3018 94.6422C26.5173 94.8573 26.6882 95.1126 26.8047 95.3936C26.9213 95.6745 26.9812 95.9757 26.9811 96.2798Z" fill="#A7A09A"/>
<path d="M32.8676 84.5337C32.8677 84.8377 32.8078 85.1389 32.6912 85.4198C32.5747 85.7008 32.4038 85.9561 32.1883 86.1712C31.9728 86.3862 31.717 86.5568 31.4354 86.6732C31.1539 86.7896 30.8521 86.8495 30.5473 86.8495C30.2425 86.8495 29.9407 86.7896 29.6592 86.6732C29.3776 86.5568 29.1218 86.3862 28.9063 86.1712C28.6909 85.9561 28.52 85.7008 28.4034 85.4198C28.2869 85.1389 28.2269 84.8377 28.2271 84.5337C28.2269 84.2296 28.2869 83.9284 28.4034 83.6475C28.52 83.3665 28.6909 83.1112 28.9063 82.8961C29.1218 82.6811 29.3776 82.5105 29.6592 82.3941C29.9407 82.2777 30.2425 82.2178 30.5473 82.2178C30.8521 82.2178 31.1539 82.2777 31.4354 82.3941C31.717 82.5105 31.9728 82.6811 32.1883 82.8961C32.4038 83.1112 32.5747 83.3665 32.6912 83.6475C32.8078 83.9284 32.8677 84.2296 32.8676 84.5337Z" fill="#A7A09A"/>
<path d="M32.8676 90.4067C32.8677 90.7108 32.8078 91.0119 32.6912 91.2929C32.5747 91.5739 32.4038 91.8292 32.1883 92.0442C31.9728 92.2593 31.717 92.4299 31.4354 92.5463C31.1539 92.6627 30.8521 92.7226 30.5473 92.7226C30.2425 92.7226 29.9407 92.6627 29.6592 92.5463C29.3776 92.4299 29.1218 92.2593 28.9063 92.0442C28.6909 91.8292 28.52 91.5739 28.4034 91.2929C28.2869 91.0119 28.2269 90.7108 28.2271 90.4067C28.2269 90.1026 28.2869 89.8015 28.4034 89.5205C28.52 89.2395 28.6909 88.9842 28.9063 88.7692C29.1218 88.5541 29.3776 88.3835 29.6592 88.2671C29.9407 88.1507 30.2425 88.0908 30.5473 88.0908C30.8521 88.0908 31.1539 88.1507 31.4354 88.2671C31.717 88.3835 31.9728 88.5541 32.1883 88.7692C32.4038 88.9842 32.5747 89.2395 32.6912 89.5205C32.8078 89.8015 32.8677 90.1026 32.8676 90.4067Z" fill="#A7A09A"/>
<path d="M32.8676 96.2798C32.8677 96.5838 32.8078 96.885 32.6912 97.1659C32.5747 97.4469 32.4038 97.7022 32.1883 97.9173C31.9728 98.1323 31.717 98.3029 31.4354 98.4193C31.1539 98.5357 30.8521 98.5956 30.5473 98.5956C30.2425 98.5956 29.9407 98.5357 29.6592 98.4193C29.3776 98.3029 29.1218 98.1323 28.9063 97.9173C28.6909 97.7022 28.52 97.4469 28.4034 97.1659C28.2869 96.885 28.2269 96.5838 28.2271 96.2798C28.2269 95.9757 28.2869 95.6745 28.4034 95.3936C28.52 95.1126 28.6909 94.8573 28.9063 94.6422C29.1218 94.4272 29.3776 94.2566 29.6592 94.1402C29.9407 94.0238 30.2425 93.9639 30.5473 93.9639C30.8521 93.9639 31.1539 94.0238 31.4354 94.1402C31.717 94.2566 31.9728 94.4272 32.1883 94.6422C32.4038 94.8573 32.5747 95.1126 32.6912 95.3936C32.8078 95.6745 32.8677 95.9757 32.8676 96.2798Z" fill="#A7A09A"/>
<path d="M38.7541 84.5337C38.7542 84.8377 38.6942 85.1389 38.5777 85.4198C38.4611 85.7008 38.2902 85.9561 38.0748 86.1712C37.8593 86.3862 37.6035 86.5568 37.3219 86.6732C37.0404 86.7896 36.7386 86.8495 36.4338 86.8495C36.129 86.8495 35.8272 86.7896 35.5457 86.6732C35.2641 86.5568 35.0083 86.3862 34.7928 86.1712C34.5773 85.9561 34.4064 85.7008 34.2899 85.4198C34.1733 85.1389 34.1134 84.8377 34.1135 84.5337C34.1134 84.2296 34.1733 83.9284 34.2899 83.6475C34.4064 83.3665 34.5773 83.1112 34.7928 82.8961C35.0083 82.6811 35.2641 82.5105 35.5457 82.3941C35.8272 82.2777 36.129 82.2178 36.4338 82.2178C36.7386 82.2178 37.0404 82.2777 37.3219 82.3941C37.6035 82.5105 37.8593 82.6811 38.0748 82.8961C38.2902 83.1112 38.4611 83.3665 38.5777 83.6475C38.6942 83.9284 38.7542 84.2296 38.7541 84.5337Z" fill="#A7A09A"/>
<path d="M38.7541 90.4067C38.7542 90.7108 38.6942 91.0119 38.5777 91.2929C38.4611 91.5739 38.2902 91.8292 38.0748 92.0442C37.8593 92.2593 37.6035 92.4299 37.3219 92.5463C37.0404 92.6627 36.7386 92.7226 36.4338 92.7226C36.129 92.7226 35.8272 92.6627 35.5457 92.5463C35.2641 92.4299 35.0083 92.2593 34.7928 92.0442C34.5773 91.8292 34.4064 91.5739 34.2899 91.2929C34.1733 91.0119 34.1134 90.7108 34.1135 90.4067C34.1134 90.1026 34.1733 89.8015 34.2899 89.5205C34.4064 89.2395 34.5773 88.9842 34.7928 88.7692C35.0083 88.5541 35.2641 88.3835 35.5457 88.2671C35.8272 88.1507 36.129 88.0908 36.4338 88.0908C36.7386 88.0908 37.0404 88.1507 37.3219 88.2671C37.6035 88.3835 37.8593 88.5541 38.0748 88.7692C38.2902 88.9842 38.4611 89.2395 38.5777 89.5205C38.6942 89.8015 38.7542 90.1026 38.7541 90.4067Z" fill="#A7A09A"/>
<path d="M38.7541 96.2798C38.7542 96.5838 38.6942 96.885 38.5777 97.1659C38.4611 97.4469 38.2902 97.7022 38.0748 97.9173C37.8593 98.1323 37.6035 98.3029 37.3219 98.4193C37.0404 98.5357 36.7386 98.5956 36.4338 98.5956C36.129 98.5956 35.8272 98.5357 35.5457 98.4193C35.2641 98.3029 35.0083 98.1323 34.7928 97.9173C34.5773 97.7022 34.4064 97.4469 34.2899 97.1659C34.1733 96.885 34.1134 96.5838 34.1135 96.2798C34.1134 95.9757 34.1733 95.6745 34.2899 95.3936C34.4064 95.1126 34.5773 94.8573 34.7928 94.6422C35.0083 94.4272 35.2641 94.2566 35.5457 94.1402C35.8272 94.0238 36.129 93.9639 36.4338 93.9639C36.7386 93.9639 37.0404 94.0238 37.3219 94.1402C37.6035 94.2566 37.8593 94.4272 38.0748 94.6422C38.2902 94.8573 38.4611 95.1126 38.5777 95.3936C38.6942 95.6745 38.7542 95.9757 38.7541 96.2798Z" fill="#A7A09A"/>
<path d="M44.6405 84.5337C44.6406 84.8377 44.5807 85.1389 44.4642 85.4198C44.3476 85.7008 44.1767 85.9561 43.9613 86.1712C43.7458 86.3862 43.49 86.5568 43.2084 86.6732C42.9268 86.7896 42.625 86.8495 42.3203 86.8495C42.0155 86.8495 41.7137 86.7896 41.4321 86.6732C41.1506 86.5568 40.8947 86.3862 40.6793 86.1712C40.4638 85.9561 40.2929 85.7008 40.1764 85.4198C40.0598 85.1389 39.9999 84.8377 40 84.5337C39.9999 84.2296 40.0598 83.9284 40.1764 83.6475C40.2929 83.3665 40.4638 83.1112 40.6793 82.8961C40.8947 82.6811 41.1506 82.5105 41.4321 82.3941C41.7137 82.2777 42.0155 82.2178 42.3203 82.2178C42.625 82.2178 42.9268 82.2777 43.2084 82.3941C43.49 82.5105 43.7458 82.6811 43.9613 82.8961C44.1767 83.1112 44.3476 83.3665 44.4642 83.6475C44.5807 83.9284 44.6406 84.2296 44.6405 84.5337Z" fill="#A7A09A"/>
<path d="M44.6405 90.4067C44.6406 90.7108 44.5807 91.0119 44.4642 91.2929C44.3476 91.5739 44.1767 91.8292 43.9613 92.0442C43.7458 92.2593 43.49 92.4299 43.2084 92.5463C42.9268 92.6627 42.625 92.7226 42.3203 92.7226C42.0155 92.7226 41.7137 92.6627 41.4321 92.5463C41.1506 92.4299 40.8947 92.2593 40.6793 92.0442C40.4638 91.8292 40.2929 91.5739 40.1764 91.2929C40.0598 91.0119 39.9999 90.7108 40 90.4067C39.9999 90.1026 40.0598 89.8015 40.1764 89.5205C40.2929 89.2395 40.4638 88.9842 40.6793 88.7692C40.8947 88.5541 41.1506 88.3835 41.4321 88.2671C41.7137 88.1507 42.0155 88.0908 42.3203 88.0908C42.625 88.0908 42.9268 88.1507 43.2084 88.2671C43.49 88.3835 43.7458 88.5541 43.9613 88.7692C44.1767 88.9842 44.3476 89.2395 44.4642 89.5205C44.5807 89.8015 44.6406 90.1026 44.6405 90.4067Z" fill="#A7A09A"/>
<path d="M44.6405 96.2798C44.6406 96.5838 44.5807 96.885 44.4642 97.1659C44.3476 97.4469 44.1767 97.7022 43.9613 97.9173C43.7458 98.1323 43.49 98.3029 43.2084 98.4193C42.9268 98.5357 42.625 98.5956 42.3203 98.5956C42.0155 98.5956 41.7137 98.5357 41.4321 98.4193C41.1506 98.3029 40.8947 98.1323 40.6793 97.9173C40.4638 97.7022 40.2929 97.4469 40.1764 97.1659C40.0598 96.885 39.9999 96.5838 40 96.2798C39.9999 95.9757 40.0598 95.6745 40.1764 95.3936C40.2929 95.1126 40.4638 94.8573 40.6793 94.6422C40.8947 94.4272 41.1506 94.2566 41.4321 94.1402C41.7137 94.0238 42.0155 93.9639 42.3203 93.9639C42.625 93.9639 42.9268 94.0238 43.2084 94.1402C43.49 94.2566 43.7458 94.4272 43.9613 94.6422C44.1767 94.8573 44.3476 95.1126 44.4642 95.3936C44.5807 95.6745 44.6406 95.9757 44.6405 96.2798Z" fill="#A7A09A"/>
<path d="M50.5272 84.5337C50.5274 84.8377 50.4674 85.1389 50.3509 85.4198C50.2343 85.7008 50.0634 85.9561 49.848 86.1712C49.6325 86.3862 49.3767 86.5568 49.0951 86.6732C48.8136 86.7896 48.5118 86.8495 48.207 86.8495C47.9022 86.8495 47.6004 86.7896 47.3189 86.6732C47.0373 86.5568 46.7815 86.3862 46.566 86.1712C46.3505 85.9561 46.1796 85.7008 46.0631 85.4198C45.9465 85.1389 45.8866 84.8377 45.8867 84.5337C45.8866 84.2296 45.9465 83.9284 46.0631 83.6475C46.1796 83.3665 46.3505 83.1112 46.566 82.8961C46.7815 82.6811 47.0373 82.5105 47.3189 82.3941C47.6004 82.2777 47.9022 82.2178 48.207 82.2178C48.5118 82.2178 48.8136 82.2777 49.0951 82.3941C49.3767 82.5105 49.6325 82.6811 49.848 82.8961C50.0634 83.1112 50.2343 83.3665 50.3509 83.6475C50.4674 83.9284 50.5274 84.2296 50.5272 84.5337Z" fill="#A7A09A"/>
<path d="M50.5272 90.4067C50.5274 90.7108 50.4674 91.0119 50.3509 91.2929C50.2343 91.5739 50.0634 91.8292 49.848 92.0442C49.6325 92.2593 49.3767 92.4299 49.0951 92.5463C48.8136 92.6627 48.5118 92.7226 48.207 92.7226C47.9022 92.7226 47.6004 92.6627 47.3189 92.5463C47.0373 92.4299 46.7815 92.2593 46.566 92.0442C46.3505 91.8292 46.1796 91.5739 46.0631 91.2929C45.9465 91.0119 45.8866 90.7108 45.8867 90.4067C45.8866 90.1026 45.9465 89.8015 46.0631 89.5205C46.1796 89.2395 46.3505 88.9842 46.566 88.7692C46.7815 88.5541 47.0373 88.3835 47.3189 88.2671C47.6004 88.1507 47.9022 88.0908 48.207 88.0908C48.5118 88.0908 48.8136 88.1507 49.0951 88.2671C49.3767 88.3835 49.6325 88.5541 49.848 88.7692C50.0634 88.9842 50.2343 89.2395 50.3509 89.5205C50.4674 89.8015 50.5274 90.1026 50.5272 90.4067Z" fill="#A7A09A"/>
<path d="M50.5272 96.2798C50.5274 96.5838 50.4674 96.885 50.3509 97.1659C50.2343 97.4469 50.0634 97.7022 49.848 97.9173C49.6325 98.1323 49.3767 98.3029 49.0951 98.4193C48.8136 98.5357 48.5118 98.5956 48.207 98.5956C47.9022 98.5956 47.6004 98.5357 47.3189 98.4193C47.0373 98.3029 46.7815 98.1323 46.566 97.9173C46.3505 97.7022 46.1796 97.4469 46.0631 97.1659C45.9465 96.885 45.8866 96.5838 45.8867 96.2798C45.8866 95.9757 45.9465 95.6745 46.0631 95.3936C46.1796 95.1126 46.3505 94.8573 46.566 94.6422C46.7815 94.4272 47.0373 94.2566 47.3189 94.1402C47.6004 94.0238 47.9022 93.9639 48.207 93.9639C48.5118 93.9639 48.8136 94.0238 49.0951 94.1402C49.3767 94.2566 49.6325 94.4272 49.848 94.6422C50.0634 94.8573 50.2343 95.1126 50.3509 95.3936C50.4674 95.6745 50.5274 95.9757 50.5272 96.2798Z" fill="#A7A09A"/>
<path d="M56.4137 84.5337C56.4138 84.8377 56.3539 85.1389 56.2374 85.4198C56.1208 85.7008 55.9499 85.9561 55.7344 86.1712C55.519 86.3862 55.2632 86.5568 54.9816 86.6732C54.7 86.7896 54.3982 86.8495 54.0935 86.8495C53.7887 86.8495 53.4869 86.7896 53.2053 86.6732C52.9238 86.5568 52.6679 86.3862 52.4525 86.1712C52.237 85.9561 52.0661 85.7008 51.9496 85.4198C51.833 85.1389 51.7731 84.8377 51.7732 84.5337C51.7731 84.2296 51.833 83.9284 51.9496 83.6475C52.0661 83.3665 52.237 83.1112 52.4525 82.8961C52.6679 82.6811 52.9238 82.5105 53.2053 82.3941C53.4869 82.2777 53.7887 82.2178 54.0935 82.2178C54.3982 82.2178 54.7 82.2777 54.9816 82.3941C55.2632 82.5105 55.519 82.6811 55.7344 82.8961C55.9499 83.1112 56.1208 83.3665 56.2374 83.6475C56.3539 83.9284 56.4138 84.2296 56.4137 84.5337Z" fill="#A7A09A"/>
<path d="M56.4137 90.4072C56.4138 90.7113 56.3539 91.0124 56.2374 91.2934C56.1208 91.5743 55.9499 91.8297 55.7344 92.0447C55.519 92.2598 55.2632 92.4304 54.9816 92.5468C54.7 92.6632 54.3982 92.7231 54.0935 92.7231C53.7887 92.7231 53.4869 92.6632 53.2053 92.5468C52.9238 92.4304 52.6679 92.2598 52.4525 92.0447C52.237 91.8297 52.0661 91.5743 51.9496 91.2934C51.833 91.0124 51.7731 90.7113 51.7732 90.4072C51.7731 90.1031 51.833 89.802 51.9496 89.521C52.0661 89.24 52.237 88.9847 52.4525 88.7697C52.6679 88.5546 52.9238 88.384 53.2053 88.2676C53.4869 88.1512 53.7887 88.0913 54.0935 88.0913C54.3982 88.0913 54.7 88.1512 54.9816 88.2676C55.2632 88.384 55.519 88.5546 55.7344 88.7697C55.9499 88.9847 56.1208 89.24 56.2374 89.521C56.3539 89.802 56.4138 90.1031 56.4137 90.4072Z" fill="#A7A09A"/>
<path d="M56.4137 96.2802C56.4138 96.5843 56.3539 96.8855 56.2374 97.1664C56.1208 97.4474 55.9499 97.7027 55.7344 97.9178C55.519 98.1328 55.2632 98.3034 54.9816 98.4198C54.7 98.5362 54.3982 98.5961 54.0935 98.5961C53.7887 98.5961 53.4869 98.5362 53.2053 98.4198C52.9238 98.3034 52.6679 98.1328 52.4525 97.9178C52.237 97.7027 52.0661 97.4474 51.9496 97.1664C51.833 96.8855 51.7731 96.5843 51.7732 96.2802C51.7731 95.9762 51.833 95.675 51.9496 95.3941C52.0661 95.1131 52.237 94.8578 52.4525 94.6427C52.6679 94.4277 52.9238 94.2571 53.2053 94.1407C53.4869 94.0243 53.7887 93.9644 54.0935 93.9644C54.3982 93.9644 54.7 94.0243 54.9816 94.1407C55.2632 94.2571 55.519 94.4277 55.7344 94.6427C55.9499 94.8578 56.1208 95.1131 56.2374 95.3941C56.3539 95.675 56.4138 95.9762 56.4137 96.2802Z" fill="#A7A09A"/>
<path d="M56.4137 78.6606C56.4138 78.9647 56.3539 79.2658 56.2374 79.5468C56.1208 79.8278 55.9499 80.0831 55.7344 80.2981C55.519 80.5132 55.2632 80.6838 54.9816 80.8002C54.7 80.9166 54.3982 80.9765 54.0935 80.9765C53.7887 80.9765 53.4869 80.9166 53.2053 80.8002C52.9238 80.6838 52.6679 80.5132 52.4525 80.2981C52.237 80.0831 52.0661 79.8278 51.9496 79.5468C51.833 79.2658 51.7731 78.9647 51.7732 78.6606C51.7731 78.3565 51.833 78.0554 51.9496 77.7744C52.0661 77.4935 52.237 77.2381 52.4525 77.0231C52.6679 76.808 52.9238 76.6374 53.2053 76.521C53.4869 76.4046 53.7887 76.3447 54.0935 76.3447C54.3982 76.3447 54.7 76.4046 54.9816 76.521C55.2632 76.6374 55.519 76.808 55.7344 77.0231C55.9499 77.2381 56.1208 77.4935 56.2374 77.7744C56.3539 78.0554 56.4138 78.3565 56.4137 78.6606Z" fill="#A7A09A"/>
<path d="M56.4137 102.153C56.4138 102.457 56.3539 102.759 56.2374 103.039C56.1208 103.32 55.9499 103.576 55.7344 103.791C55.519 104.006 55.2632 104.176 54.9816 104.293C54.7 104.409 54.3982 104.469 54.0935 104.469C53.7887 104.469 53.4869 104.409 53.2053 104.293C52.9238 104.176 52.6679 104.006 52.4525 103.791C52.237 103.576 52.0661 103.32 51.9496 103.039C51.833 102.759 51.7731 102.457 51.7732 102.153C51.7731 101.849 51.833 101.548 51.9496 101.267C52.0661 100.986 52.237 100.731 52.4525 100.516C52.6679 100.301 52.9238 100.13 53.2053 100.014C53.4869 99.8973 53.7887 99.8374 54.0935 99.8374C54.3982 99.8374 54.7 99.8973 54.9816 100.014C55.2632 100.13 55.519 100.301 55.7344 100.516C55.9499 100.731 56.1208 100.986 56.2374 101.267C56.3539 101.548 56.4138 101.849 56.4137 102.153Z" fill="#A7A09A"/>
<path d="M62.3002 84.5337C62.3003 84.8377 62.2404 85.1389 62.1238 85.4198C62.0073 85.7008 61.8364 85.9561 61.6209 86.1712C61.4055 86.3862 61.1496 86.5568 60.8681 86.6732C60.5865 86.7896 60.2847 86.8495 59.9799 86.8495C59.6752 86.8495 59.3734 86.7896 59.0918 86.6732C58.8102 86.5568 58.5544 86.3862 58.3389 86.1712C58.1235 85.9561 57.9526 85.7008 57.836 85.4198C57.7195 85.1389 57.6596 84.8377 57.6597 84.5337C57.6596 84.2296 57.7195 83.9284 57.836 83.6475C57.9526 83.3665 58.1235 83.1112 58.3389 82.8961C58.5544 82.6811 58.8102 82.5105 59.0918 82.3941C59.3734 82.2777 59.6752 82.2178 59.9799 82.2178C60.2847 82.2178 60.5865 82.2777 60.8681 82.3941C61.1496 82.5105 61.4055 82.6811 61.6209 82.8961C61.8364 83.1112 62.0073 83.3665 62.1238 83.6475C62.2404 83.9284 62.3003 84.2296 62.3002 84.5337Z" fill="#A7A09A"/>
<path d="M62.3002 90.4072C62.3003 90.7113 62.2404 91.0124 62.1238 91.2934C62.0073 91.5743 61.8364 91.8297 61.6209 92.0447C61.4055 92.2598 61.1496 92.4304 60.8681 92.5468C60.5865 92.6632 60.2847 92.7231 59.9799 92.7231C59.6752 92.7231 59.3734 92.6632 59.0918 92.5468C58.8102 92.4304 58.5544 92.2598 58.3389 92.0447C58.1235 91.8297 57.9526 91.5743 57.836 91.2934C57.7195 91.0124 57.6596 90.7113 57.6597 90.4072C57.6596 90.1031 57.7195 89.802 57.836 89.521C57.9526 89.24 58.1235 88.9847 58.3389 88.7697C58.5544 88.5546 58.8102 88.384 59.0918 88.2676C59.3734 88.1512 59.6752 88.0913 59.9799 88.0913C60.2847 88.0913 60.5865 88.1512 60.8681 88.2676C61.1496 88.384 61.4055 88.5546 61.6209 88.7697C61.8364 88.9847 62.0073 89.24 62.1238 89.521C62.2404 89.802 62.3003 90.1031 62.3002 90.4072Z" fill="#A7A09A"/>
<path d="M62.3002 96.2802C62.3003 96.5843 62.2404 96.8855 62.1238 97.1664C62.0073 97.4474 61.8364 97.7027 61.6209 97.9178C61.4055 98.1328 61.1496 98.3034 60.8681 98.4198C60.5865 98.5362 60.2847 98.5961 59.9799 98.5961C59.6752 98.5961 59.3734 98.5362 59.0918 98.4198C58.8102 98.3034 58.5544 98.1328 58.3389 97.9178C58.1235 97.7027 57.9526 97.4474 57.836 97.1664C57.7195 96.8855 57.6596 96.5843 57.6597 96.2802C57.6596 95.9762 57.7195 95.675 57.836 95.3941C57.9526 95.1131 58.1235 94.8578 58.3389 94.6427C58.5544 94.4277 58.8102 94.2571 59.0918 94.1407C59.3734 94.0243 59.6752 93.9644 59.9799 93.9644C60.2847 93.9644 60.5865 94.0243 60.8681 94.1407C61.1496 94.2571 61.4055 94.4277 61.6209 94.6427C61.8364 94.8578 62.0073 95.1131 62.1238 95.3941C62.2404 95.675 62.3003 95.9762 62.3002 96.2802Z" fill="#A7A09A"/>
<path d="M68.1867 90.4072C68.1868 90.7113 68.1269 91.0124 68.0103 91.2934C67.8938 91.5743 67.7229 91.8297 67.5074 92.0447C67.2919 92.2598 67.0361 92.4304 66.7545 92.5468C66.473 92.6632 66.1712 92.7231 65.8664 92.7231C65.5616 92.7231 65.2598 92.6632 64.9783 92.5468C64.6967 92.4304 64.4409 92.2598 64.2254 92.0447C64.01 91.8297 63.8391 91.5743 63.7225 91.2934C63.606 91.0124 63.546 90.7113 63.5461 90.4072C63.546 90.1031 63.606 89.802 63.7225 89.521C63.8391 89.24 64.01 88.9847 64.2254 88.7697C64.4409 88.5546 64.6967 88.384 64.9783 88.2676C65.2598 88.1512 65.5616 88.0913 65.8664 88.0913C66.1712 88.0913 66.473 88.1512 66.7545 88.2676C67.0361 88.384 67.2919 88.5546 67.5074 88.7697C67.7229 88.9847 67.8938 89.24 68.0103 89.521C68.1269 89.802 68.1868 90.1031 68.1867 90.4072Z" fill="#A7A09A"/>
<path d="M26.9811 83.6538C26.9812 83.9579 26.9213 84.259 26.8047 84.54C26.6882 84.8209 26.5173 85.0762 26.3018 85.2913C26.0864 85.5064 25.8305 85.677 25.549 85.7934C25.2674 85.9098 24.9656 85.9697 24.6608 85.9697C24.3561 85.9697 24.0543 85.9098 23.7727 85.7934C23.4911 85.677 23.2353 85.5064 23.0199 85.2913C22.8044 85.0762 22.6335 84.8209 22.5169 84.54C22.4004 84.259 22.3405 83.9579 22.3406 83.6538C22.3405 83.3497 22.4004 83.0486 22.5169 82.7676C22.6335 82.4866 22.8044 82.2313 23.0199 82.0162C23.2353 81.8012 23.4911 81.6306 23.7727 81.5142C24.0543 81.3978 24.3561 81.3379 24.6608 81.3379C24.9656 81.3379 25.2674 81.3978 25.549 81.5142C25.8305 81.6306 26.0864 81.8012 26.3018 82.0162C26.5173 82.2313 26.6882 82.4866 26.8047 82.7676C26.9213 83.0486 26.9812 83.3497 26.9811 83.6538Z" fill="#02AEF0"/>
<path d="M26.9811 89.5268C26.9812 89.8309 26.9213 90.132 26.8047 90.413C26.6882 90.694 26.5173 90.9493 26.3018 91.1643C26.0864 91.3794 25.8305 91.55 25.549 91.6664C25.2674 91.7828 24.9656 91.8427 24.6608 91.8427C24.3561 91.8427 24.0543 91.7828 23.7727 91.6664C23.4911 91.55 23.2353 91.3794 23.0199 91.1643C22.8044 90.9493 22.6335 90.694 22.5169 90.413C22.4004 90.132 22.3405 89.8309 22.3406 89.5268C22.3405 89.2227 22.4004 88.9216 22.5169 88.6406C22.6335 88.3597 22.8044 88.1044 23.0199 87.8893C23.2353 87.6742 23.4911 87.5036 23.7727 87.3872C24.0543 87.2708 24.3561 87.2109 24.6608 87.2109C24.9656 87.2109 25.2674 87.2708 25.549 87.3872C25.8305 87.5036 26.0864 87.6742 26.3018 87.8893C26.5173 88.1044 26.6882 88.3597 26.8047 88.6406C26.9213 88.9216 26.9812 89.2227 26.9811 89.5268Z" fill="#02AEF0"/>
<path d="M26.9811 95.3999C26.9812 95.704 26.9213 96.0051 26.8047 96.2861C26.6882 96.567 26.5173 96.8223 26.3018 97.0374C26.0864 97.2525 25.8305 97.4231 25.549 97.5394C25.2674 97.6558 24.9656 97.7158 24.6608 97.7158C24.3561 97.7158 24.0543 97.6558 23.7727 97.5394C23.4911 97.4231 23.2353 97.2525 23.0199 97.0374C22.8044 96.8223 22.6335 96.567 22.5169 96.2861C22.4004 96.0051 22.3405 95.704 22.3406 95.3999C22.3405 95.0958 22.4004 94.7947 22.5169 94.5137C22.6335 94.2327 22.8044 93.9774 23.0199 93.7623C23.2353 93.5473 23.4911 93.3767 23.7727 93.2603C24.0543 93.1439 24.3561 93.084 24.6608 93.084C24.9656 93.084 25.2674 93.1439 25.549 93.2603C25.8305 93.3767 26.0864 93.5473 26.3018 93.7623C26.5173 93.9774 26.6882 94.2327 26.8047 94.5137C26.9213 94.7947 26.9812 95.0958 26.9811 95.3999Z" fill="#02AEF0"/>
<path d="M32.8676 83.6538C32.8677 83.9579 32.8078 84.259 32.6912 84.54C32.5747 84.8209 32.4038 85.0762 32.1883 85.2913C31.9728 85.5064 31.717 85.677 31.4354 85.7934C31.1539 85.9098 30.8521 85.9697 30.5473 85.9697C30.2425 85.9697 29.9407 85.9098 29.6592 85.7934C29.3776 85.677 29.1218 85.5064 28.9063 85.2913C28.6909 85.0762 28.52 84.8209 28.4034 84.54C28.2869 84.259 28.2269 83.9579 28.2271 83.6538C28.2269 83.3497 28.2869 83.0486 28.4034 82.7676C28.52 82.4866 28.6909 82.2313 28.9063 82.0162C29.1218 81.8012 29.3776 81.6306 29.6592 81.5142C29.9407 81.3978 30.2425 81.3379 30.5473 81.3379C30.8521 81.3379 31.1539 81.3978 31.4354 81.5142C31.717 81.6306 31.9728 81.8012 32.1883 82.0162C32.4038 82.2313 32.5747 82.4866 32.6912 82.7676C32.8078 83.0486 32.8677 83.3497 32.8676 83.6538Z" fill="#02AEF0"/>
<path d="M32.8676 89.5268C32.8677 89.8309 32.8078 90.132 32.6912 90.413C32.5747 90.694 32.4038 90.9493 32.1883 91.1643C31.9728 91.3794 31.717 91.55 31.4354 91.6664C31.1539 91.7828 30.8521 91.8427 30.5473 91.8427C30.2425 91.8427 29.9407 91.7828 29.6592 91.6664C29.3776 91.55 29.1218 91.3794 28.9063 91.1643C28.6909 90.9493 28.52 90.694 28.4034 90.413C28.2869 90.132 28.2269 89.8309 28.2271 89.5268C28.2269 89.2227 28.2869 88.9216 28.4034 88.6406C28.52 88.3597 28.6909 88.1044 28.9063 87.8893C29.1218 87.6742 29.3776 87.5036 29.6592 87.3872C29.9407 87.2708 30.2425 87.2109 30.5473 87.2109C30.8521 87.2109 31.1539 87.2708 31.4354 87.3872C31.717 87.5036 31.9728 87.6742 32.1883 87.8893C32.4038 88.1044 32.5747 88.3597 32.6912 88.6406C32.8078 88.9216 32.8677 89.2227 32.8676 89.5268Z" fill="#02AEF0"/>
<path d="M32.8676 95.3999C32.8677 95.704 32.8078 96.0051 32.6912 96.2861C32.5747 96.567 32.4038 96.8223 32.1883 97.0374C31.9728 97.2525 31.717 97.4231 31.4354 97.5394C31.1539 97.6558 30.8521 97.7158 30.5473 97.7158C30.2425 97.7158 29.9407 97.6558 29.6592 97.5394C29.3776 97.4231 29.1218 97.2525 28.9063 97.0374C28.6909 96.8223 28.52 96.567 28.4034 96.2861C28.2869 96.0051 28.2269 95.704 28.2271 95.3999C28.2269 95.0958 28.2869 94.7947 28.4034 94.5137C28.52 94.2327 28.6909 93.9774 28.9063 93.7623C29.1218 93.5473 29.3776 93.3767 29.6592 93.2603C29.9407 93.1439 30.2425 93.084 30.5473 93.084C30.8521 93.084 31.1539 93.1439 31.4354 93.2603C31.717 93.3767 31.9728 93.5473 32.1883 93.7623C32.4038 93.9774 32.5747 94.2327 32.6912 94.5137C32.8078 94.7947 32.8677 95.0958 32.8676 95.3999Z" fill="#02AEF0"/>
<path d="M38.7541 83.6538C38.7542 83.9579 38.6942 84.259 38.5777 84.54C38.4611 84.8209 38.2902 85.0762 38.0748 85.2913C37.8593 85.5064 37.6035 85.677 37.3219 85.7934C37.0404 85.9098 36.7386 85.9697 36.4338 85.9697C36.129 85.9697 35.8272 85.9098 35.5457 85.7934C35.2641 85.677 35.0083 85.5064 34.7928 85.2913C34.5773 85.0762 34.4064 84.8209 34.2899 84.54C34.1733 84.259 34.1134 83.9579 34.1135 83.6538C34.1134 83.3497 34.1733 83.0486 34.2899 82.7676C34.4064 82.4866 34.5773 82.2313 34.7928 82.0162C35.0083 81.8012 35.2641 81.6306 35.5457 81.5142C35.8272 81.3978 36.129 81.3379 36.4338 81.3379C36.7386 81.3379 37.0404 81.3978 37.3219 81.5142C37.6035 81.6306 37.8593 81.8012 38.0748 82.0162C38.2902 82.2313 38.4611 82.4866 38.5777 82.7676C38.6942 83.0486 38.7542 83.3497 38.7541 83.6538Z" fill="#02AEF0"/>
<path d="M38.7541 89.5268C38.7542 89.8309 38.6942 90.132 38.5777 90.413C38.4611 90.694 38.2902 90.9493 38.0748 91.1643C37.8593 91.3794 37.6035 91.55 37.3219 91.6664C37.0404 91.7828 36.7386 91.8427 36.4338 91.8427C36.129 91.8427 35.8272 91.7828 35.5457 91.6664C35.2641 91.55 35.0083 91.3794 34.7928 91.1643C34.5773 90.9493 34.4064 90.694 34.2899 90.413C34.1733 90.132 34.1134 89.8309 34.1135 89.5268C34.1134 89.2227 34.1733 88.9216 34.2899 88.6406C34.4064 88.3597 34.5773 88.1044 34.7928 87.8893C35.0083 87.6742 35.2641 87.5036 35.5457 87.3872C35.8272 87.2708 36.129 87.2109 36.4338 87.2109C36.7386 87.2109 37.0404 87.2708 37.3219 87.3872C37.6035 87.5036 37.8593 87.6742 38.0748 87.8893C38.2902 88.1044 38.4611 88.3597 38.5777 88.6406C38.6942 88.9216 38.7542 89.2227 38.7541 89.5268Z" fill="#02AEF0"/>
<path d="M38.7541 95.3999C38.7542 95.704 38.6942 96.0051 38.5777 96.2861C38.4611 96.567 38.2902 96.8223 38.0748 97.0374C37.8593 97.2525 37.6035 97.4231 37.3219 97.5394C37.0404 97.6558 36.7386 97.7158 36.4338 97.7158C36.129 97.7158 35.8272 97.6558 35.5457 97.5394C35.2641 97.4231 35.0083 97.2525 34.7928 97.0374C34.5773 96.8223 34.4064 96.567 34.2899 96.2861C34.1733 96.0051 34.1134 95.704 34.1135 95.3999C34.1134 95.0958 34.1733 94.7947 34.2899 94.5137C34.4064 94.2327 34.5773 93.9774 34.7928 93.7623C35.0083 93.5473 35.2641 93.3767 35.5457 93.2603C35.8272 93.1439 36.129 93.084 36.4338 93.084C36.7386 93.084 37.0404 93.1439 37.3219 93.2603C37.6035 93.3767 37.8593 93.5473 38.0748 93.7623C38.2902 93.9774 38.4611 94.2327 38.5777 94.5137C38.6942 94.7947 38.7542 95.0958 38.7541 95.3999Z" fill="#02AEF0"/>
<path d="M44.6405 83.6538C44.6406 83.9579 44.5807 84.259 44.4642 84.54C44.3476 84.8209 44.1767 85.0762 43.9613 85.2913C43.7458 85.5064 43.49 85.677 43.2084 85.7934C42.9268 85.9098 42.625 85.9697 42.3203 85.9697C42.0155 85.9697 41.7137 85.9098 41.4321 85.7934C41.1506 85.677 40.8947 85.5064 40.6793 85.2913C40.4638 85.0762 40.2929 84.8209 40.1764 84.54C40.0598 84.259 39.9999 83.9579 40 83.6538C39.9999 83.3497 40.0598 83.0486 40.1764 82.7676C40.2929 82.4866 40.4638 82.2313 40.6793 82.0162C40.8947 81.8012 41.1506 81.6306 41.4321 81.5142C41.7137 81.3978 42.0155 81.3379 42.3203 81.3379C42.625 81.3379 42.9268 81.3978 43.2084 81.5142C43.49 81.6306 43.7458 81.8012 43.9613 82.0162C44.1767 82.2313 44.3476 82.4866 44.4642 82.7676C44.5807 83.0486 44.6406 83.3497 44.6405 83.6538Z" fill="#02AEF0"/>
<path d="M44.6405 89.5268C44.6406 89.8309 44.5807 90.132 44.4642 90.413C44.3476 90.694 44.1767 90.9493 43.9613 91.1643C43.7458 91.3794 43.49 91.55 43.2084 91.6664C42.9268 91.7828 42.625 91.8427 42.3203 91.8427C42.0155 91.8427 41.7137 91.7828 41.4321 91.6664C41.1506 91.55 40.8947 91.3794 40.6793 91.1643C40.4638 90.9493 40.2929 90.694 40.1764 90.413C40.0598 90.132 39.9999 89.8309 40 89.5268C39.9999 89.2227 40.0598 88.9216 40.1764 88.6406C40.2929 88.3597 40.4638 88.1044 40.6793 87.8893C40.8947 87.6742 41.1506 87.5036 41.4321 87.3872C41.7137 87.2708 42.0155 87.2109 42.3203 87.2109C42.625 87.2109 42.9268 87.2708 43.2084 87.3872C43.49 87.5036 43.7458 87.6742 43.9613 87.8893C44.1767 88.1044 44.3476 88.3597 44.4642 88.6406C44.5807 88.9216 44.6406 89.2227 44.6405 89.5268Z" fill="#02AEF0"/>
<path d="M44.6405 95.3999C44.6406 95.704 44.5807 96.0051 44.4642 96.2861C44.3476 96.567 44.1767 96.8223 43.9613 97.0374C43.7458 97.2525 43.49 97.4231 43.2084 97.5394C42.9268 97.6558 42.625 97.7158 42.3203 97.7158C42.0155 97.7158 41.7137 97.6558 41.4321 97.5394C41.1506 97.4231 40.8947 97.2525 40.6793 97.0374C40.4638 96.8223 40.2929 96.567 40.1764 96.2861C40.0598 96.0051 39.9999 95.704 40 95.3999C39.9999 95.0958 40.0598 94.7947 40.1764 94.5137C40.2929 94.2327 40.4638 93.9774 40.6793 93.7623C40.8947 93.5473 41.1506 93.3767 41.4321 93.2603C41.7137 93.1439 42.0155 93.084 42.3203 93.084C42.625 93.084 42.9268 93.1439 43.2084 93.2603C43.49 93.3767 43.7458 93.5473 43.9613 93.7623C44.1767 93.9774 44.3476 94.2327 44.4642 94.5137C44.5807 94.7947 44.6406 95.0958 44.6405 95.3999Z" fill="#02AEF0"/>
<path d="M50.5272 83.6538C50.5274 83.9579 50.4674 84.259 50.3509 84.54C50.2343 84.8209 50.0634 85.0762 49.848 85.2913C49.6325 85.5064 49.3767 85.677 49.0951 85.7934C48.8136 85.9098 48.5118 85.9697 48.207 85.9697C47.9022 85.9697 47.6004 85.9098 47.3189 85.7934C47.0373 85.677 46.7815 85.5064 46.566 85.2913C46.3505 85.0762 46.1796 84.8209 46.0631 84.54C45.9465 84.259 45.8866 83.9579 45.8867 83.6538C45.8866 83.3497 45.9465 83.0486 46.0631 82.7676C46.1796 82.4866 46.3505 82.2313 46.566 82.0162C46.7815 81.8012 47.0373 81.6306 47.3189 81.5142C47.6004 81.3978 47.9022 81.3379 48.207 81.3379C48.5118 81.3379 48.8136 81.3978 49.0951 81.5142C49.3767 81.6306 49.6325 81.8012 49.848 82.0162C50.0634 82.2313 50.2343 82.4866 50.3509 82.7676C50.4674 83.0486 50.5274 83.3497 50.5272 83.6538Z" fill="#02AEF0"/>
<path d="M50.5272 89.5268C50.5274 89.8309 50.4674 90.132 50.3509 90.413C50.2343 90.694 50.0634 90.9493 49.848 91.1643C49.6325 91.3794 49.3767 91.55 49.0951 91.6664C48.8136 91.7828 48.5118 91.8427 48.207 91.8427C47.9022 91.8427 47.6004 91.7828 47.3189 91.6664C47.0373 91.55 46.7815 91.3794 46.566 91.1643C46.3505 90.9493 46.1796 90.694 46.0631 90.413C45.9465 90.132 45.8866 89.8309 45.8867 89.5268C45.8866 89.2227 45.9465 88.9216 46.0631 88.6406C46.1796 88.3597 46.3505 88.1044 46.566 87.8893C46.7815 87.6742 47.0373 87.5036 47.3189 87.3872C47.6004 87.2708 47.9022 87.2109 48.207 87.2109C48.5118 87.2109 48.8136 87.2708 49.0951 87.3872C49.3767 87.5036 49.6325 87.6742 49.848 87.8893C50.0634 88.1044 50.2343 88.3597 50.3509 88.6406C50.4674 88.9216 50.5274 89.2227 50.5272 89.5268Z" fill="#02AEF0"/>
<path d="M50.5272 95.3999C50.5274 95.704 50.4674 96.0051 50.3509 96.2861C50.2343 96.567 50.0634 96.8223 49.848 97.0374C49.6325 97.2525 49.3767 97.4231 49.0951 97.5394C48.8136 97.6558 48.5118 97.7158 48.207 97.7158C47.9022 97.7158 47.6004 97.6558 47.3189 97.5394C47.0373 97.4231 46.7815 97.2525 46.566 97.0374C46.3505 96.8223 46.1796 96.567 46.0631 96.2861C45.9465 96.0051 45.8866 95.704 45.8867 95.3999C45.8866 95.0958 45.9465 94.7947 46.0631 94.5137C46.1796 94.2327 46.3505 93.9774 46.566 93.7623C46.7815 93.5473 47.0373 93.3767 47.3189 93.2603C47.6004 93.1439 47.9022 93.084 48.207 93.084C48.5118 93.084 48.8136 93.1439 49.0951 93.2603C49.3767 93.3767 49.6325 93.5473 49.848 93.7623C50.0634 93.9774 50.2343 94.2327 50.3509 94.5137C50.4674 94.7947 50.5274 95.0958 50.5272 95.3999Z" fill="#02AEF0"/>
<path d="M56.4137 83.6538C56.4138 83.9579 56.3539 84.259 56.2374 84.54C56.1208 84.8209 55.9499 85.0762 55.7344 85.2913C55.519 85.5064 55.2632 85.677 54.9816 85.7934C54.7 85.9098 54.3982 85.9697 54.0935 85.9697C53.7887 85.9697 53.4869 85.9098 53.2053 85.7934C52.9238 85.677 52.6679 85.5064 52.4525 85.2913C52.237 85.0762 52.0661 84.8209 51.9496 84.54C51.833 84.259 51.7731 83.9579 51.7732 83.6538C51.7731 83.3497 51.833 83.0486 51.9496 82.7676C52.0661 82.4866 52.237 82.2313 52.4525 82.0162C52.6679 81.8012 52.9238 81.6306 53.2053 81.5142C53.4869 81.3978 53.7887 81.3379 54.0935 81.3379C54.3982 81.3379 54.7 81.3978 54.9816 81.5142C55.2632 81.6306 55.519 81.8012 55.7344 82.0162C55.9499 82.2313 56.1208 82.4866 56.2374 82.7676C56.3539 83.0486 56.4138 83.3497 56.4137 83.6538Z" fill="#02AEF0"/>
<path d="M56.4137 89.5273C56.4138 89.8314 56.3539 90.1325 56.2374 90.4135C56.1208 90.6945 55.9499 90.9498 55.7344 91.1648C55.519 91.3799 55.2632 91.5505 54.9816 91.6669C54.7 91.7833 54.3982 91.8432 54.0935 91.8432C53.7887 91.8432 53.4869 91.7833 53.2053 91.6669C52.9238 91.5505 52.6679 91.3799 52.4525 91.1648C52.237 90.9498 52.0661 90.6945 51.9496 90.4135C51.833 90.1325 51.7731 89.8314 51.7732 89.5273C51.7731 89.2232 51.833 88.9221 51.9496 88.6411C52.0661 88.3602 52.237 88.1048 52.4525 87.8898C52.6679 87.6747 52.9238 87.5041 53.2053 87.3877C53.4869 87.2713 53.7887 87.2114 54.0935 87.2114C54.3982 87.2114 54.7 87.2713 54.9816 87.3877C55.2632 87.5041 55.519 87.6747 55.7344 87.8898C55.9499 88.1048 56.1208 88.3602 56.2374 88.6411C56.3539 88.9221 56.4138 89.2232 56.4137 89.5273Z" fill="#02AEF0"/>
<path d="M56.4137 95.4004C56.4138 95.7044 56.3539 96.0056 56.2374 96.2865C56.1208 96.5675 55.9499 96.8228 55.7344 97.0379C55.519 97.2529 55.2632 97.4235 54.9816 97.5399C54.7 97.6563 54.3982 97.7162 54.0935 97.7162C53.7887 97.7162 53.4869 97.6563 53.2053 97.5399C52.9238 97.4235 52.6679 97.2529 52.4525 97.0379C52.237 96.8228 52.0661 96.5675 51.9496 96.2865C51.833 96.0056 51.7731 95.7044 51.7732 95.4004C51.7731 95.0963 51.833 94.7951 51.9496 94.5142C52.0661 94.2332 52.237 93.9779 52.4525 93.7628C52.6679 93.5478 52.9238 93.3772 53.2053 93.2608C53.4869 93.1444 53.7887 93.0845 54.0935 93.0845C54.3982 93.0845 54.7 93.1444 54.9816 93.2608C55.2632 93.3772 55.519 93.5478 55.7344 93.7628C55.9499 93.9779 56.1208 94.2332 56.2374 94.5142C56.3539 94.7951 56.4138 95.0963 56.4137 95.4004Z" fill="#02AEF0"/>
<path d="M56.4137 77.7807C56.4138 78.0848 56.3539 78.3859 56.2374 78.6669C56.1208 78.9479 55.9499 79.2032 55.7344 79.4183C55.519 79.6333 55.2632 79.8039 54.9816 79.9203C54.7 80.0367 54.3982 80.0966 54.0935 80.0966C53.7887 80.0966 53.4869 80.0367 53.2053 79.9203C52.9238 79.8039 52.6679 79.6333 52.4525 79.4183C52.237 79.2032 52.0661 78.9479 51.9496 78.6669C51.833 78.3859 51.7731 78.0848 51.7732 77.7807C51.7731 77.4766 51.833 77.1755 51.9496 76.8945C52.0661 76.6136 52.237 76.3583 52.4525 76.1432C52.6679 75.9281 52.9238 75.7575 53.2053 75.6411C53.4869 75.5248 53.7887 75.4648 54.0935 75.4648C54.3982 75.4648 54.7 75.5248 54.9816 75.6411C55.2632 75.7575 55.519 75.9281 55.7344 76.1432C55.9499 76.3583 56.1208 76.6136 56.2374 76.8945C56.3539 77.1755 56.4138 77.4766 56.4137 77.7807Z" fill="#02AEF0"/>
<path d="M56.4137 101.273C56.4138 101.577 56.3539 101.879 56.2374 102.16C56.1208 102.441 55.9499 102.696 55.7344 102.911C55.519 103.126 55.2632 103.297 54.9816 103.413C54.7 103.529 54.3982 103.589 54.0935 103.589C53.7887 103.589 53.4869 103.529 53.2053 103.413C52.9238 103.297 52.6679 103.126 52.4525 102.911C52.237 102.696 52.0661 102.441 51.9496 102.16C51.833 101.879 51.7731 101.577 51.7732 101.273C51.7731 100.969 51.833 100.668 51.9496 100.387C52.0661 100.106 52.237 99.8509 52.4525 99.6359C52.6679 99.4208 52.9238 99.2502 53.2053 99.1338C53.4869 99.0174 53.7887 98.9575 54.0935 98.9575C54.3982 98.9575 54.7 99.0174 54.9816 99.1338C55.2632 99.2502 55.519 99.4208 55.7344 99.6359C55.9499 99.8509 56.1208 100.106 56.2374 100.387C56.3539 100.668 56.4138 100.969 56.4137 101.273Z" fill="#02AEF0"/>
<path d="M62.3002 83.6538C62.3003 83.9579 62.2404 84.259 62.1238 84.54C62.0073 84.8209 61.8364 85.0762 61.6209 85.2913C61.4055 85.5064 61.1496 85.677 60.8681 85.7934C60.5865 85.9098 60.2847 85.9697 59.9799 85.9697C59.6752 85.9697 59.3734 85.9098 59.0918 85.7934C58.8102 85.677 58.5544 85.5064 58.3389 85.2913C58.1235 85.0762 57.9526 84.8209 57.836 84.54C57.7195 84.259 57.6596 83.9579 57.6597 83.6538C57.6596 83.3497 57.7195 83.0486 57.836 82.7676C57.9526 82.4866 58.1235 82.2313 58.3389 82.0162C58.5544 81.8012 58.8102 81.6306 59.0918 81.5142C59.3734 81.3978 59.6752 81.3379 59.9799 81.3379C60.2847 81.3379 60.5865 81.3978 60.8681 81.5142C61.1496 81.6306 61.4055 81.8012 61.6209 82.0162C61.8364 82.2313 62.0073 82.4866 62.1238 82.7676C62.2404 83.0486 62.3003 83.3497 62.3002 83.6538Z" fill="#02AEF0"/>
<path d="M62.3002 89.5273C62.3003 89.8314 62.2404 90.1325 62.1238 90.4135C62.0073 90.6945 61.8364 90.9498 61.6209 91.1648C61.4055 91.3799 61.1496 91.5505 60.8681 91.6669C60.5865 91.7833 60.2847 91.8432 59.9799 91.8432C59.6752 91.8432 59.3734 91.7833 59.0918 91.6669C58.8102 91.5505 58.5544 91.3799 58.3389 91.1648C58.1235 90.9498 57.9526 90.6945 57.836 90.4135C57.7195 90.1325 57.6596 89.8314 57.6597 89.5273C57.6596 89.2232 57.7195 88.9221 57.836 88.6411C57.9526 88.3602 58.1235 88.1048 58.3389 87.8898C58.5544 87.6747 58.8102 87.5041 59.0918 87.3877C59.3734 87.2713 59.6752 87.2114 59.9799 87.2114C60.2847 87.2114 60.5865 87.2713 60.8681 87.3877C61.1496 87.5041 61.4055 87.6747 61.6209 87.8898C61.8364 88.1048 62.0073 88.3602 62.1238 88.6411C62.2404 88.9221 62.3003 89.2232 62.3002 89.5273Z" fill="#02AEF0"/>
<path d="M62.3002 95.4004C62.3003 95.7044 62.2404 96.0056 62.1238 96.2865C62.0073 96.5675 61.8364 96.8228 61.6209 97.0379C61.4055 97.2529 61.1496 97.4235 60.8681 97.5399C60.5865 97.6563 60.2847 97.7162 59.9799 97.7162C59.6752 97.7162 59.3734 97.6563 59.0918 97.5399C58.8102 97.4235 58.5544 97.2529 58.3389 97.0379C58.1235 96.8228 57.9526 96.5675 57.836 96.2865C57.7195 96.0056 57.6596 95.7044 57.6597 95.4004C57.6596 95.0963 57.7195 94.7951 57.836 94.5142C57.9526 94.2332 58.1235 93.9779 58.3389 93.7628C58.5544 93.5478 58.8102 93.3772 59.0918 93.2608C59.3734 93.1444 59.6752 93.0845 59.9799 93.0845C60.2847 93.0845 60.5865 93.1444 60.8681 93.2608C61.1496 93.3772 61.4055 93.5478 61.6209 93.7628C61.8364 93.9779 62.0073 94.2332 62.1238 94.5142C62.2404 94.7951 62.3003 95.0963 62.3002 95.4004Z" fill="#02AEF0"/>
<path d="M68.1867 89.5273C68.1868 89.8314 68.1269 90.1325 68.0103 90.4135C67.8938 90.6945 67.7229 90.9498 67.5074 91.1648C67.2919 91.3799 67.0361 91.5505 66.7545 91.6669C66.473 91.7833 66.1712 91.8432 65.8664 91.8432C65.5616 91.8432 65.2598 91.7833 64.9783 91.6669C64.6967 91.5505 64.4409 91.3799 64.2254 91.1648C64.01 90.9498 63.8391 90.6945 63.7225 90.4135C63.606 90.1325 63.546 89.8314 63.5461 89.5273C63.546 89.2232 63.606 88.9221 63.7225 88.6411C63.8391 88.3602 64.01 88.1048 64.2254 87.8898C64.4409 87.6747 64.6967 87.5041 64.9783 87.3877C65.2598 87.2713 65.5616 87.2114 65.8664 87.2114C66.1712 87.2114 66.473 87.2713 66.7545 87.3877C67.0361 87.5041 67.2919 87.6747 67.5074 87.8898C67.7229 88.1048 67.8938 88.3602 68.0103 88.6411C68.1269 88.9221 68.1868 89.2232 68.1867 89.5273Z" fill="#02AEF0"/>
<path fill-rule="evenodd" clip-rule="evenodd" d="M35.7948 46.75C34.6791 55.3341 26.1412 61.1222 26.208 69.4119C26.1383 73.7453 29.8332 80.4033 37.1222 80.1543C40.9947 80.1026 44.1224 78.4894 46.0984 76.1139C49.7485 71.4046 48.6063 65.373 46.2612 60.3725C43.5935 55.1649 38.9554 51.0485 35.7948 46.75Z" fill="black"/>
<path fill-rule="evenodd" clip-rule="evenodd" d="M40.2888 57.9336C40.0711 59.6084 38.4054 60.7376 38.4184 62.355C38.4048 63.2004 39.1257 64.4994 40.5478 64.4509C41.3033 64.4408 41.9136 64.126 42.2991 63.6626C43.0112 62.7438 42.7596 61.567 42.3021 60.5914C41.7816 59.5754 40.9055 58.7722 40.2888 57.9336Z" fill="white"/>
<path d="M226.451 58.3413L220.029 77.1832V78.3468H225.154V82.7733H220.029V87.1931H211.522V82.7733H206.598V78.3468H211.522V77.1832L204.201 58.3413H212.47L215.881 68.6602L219.063 58.3413" fill="black"/>
<path d="M91.8972 51.4268H101.422V61.5274L107.767 51.4268H118.203L110.254 63.0913L116.894 72.8532H119.674V80.2425H111.932V77.1605H108.571L101.422 66.7841V77.1605H91.8972V51.4268Z" fill="#02AEF0"/>
<path d="M166.976 51.0278H179.543L184.393 66.9283L189.222 51.0278H201.747V77.1603H193.945V57.2312L187.893 77.1603H180.829L174.799 57.2312V77.1603H166.976V51.0278Z" fill="black"/>
<path d="M229.385 58.3413H237.232V64.4471H242.375V58.3413H250.222V76.7076H242.375V68.9511H237.232V76.7076H229.385V58.3413Z" fill="black"/>
<path d="M298.324 58.3413V76.7076H291.819V66.9341L285.259 76.7076H278.499V58.3413H285.005V68.1148L291.564 58.3413H298.324Z" fill="black"/>
<path d="M281.594 49.8599H284.5C284.649 50.7155 285.055 51.3695 285.719 51.8217C286.396 52.274 287.297 52.5001 288.421 52.5001C289.545 52.5001 290.439 52.274 291.103 51.8217C291.78 51.3695 292.193 50.7155 292.342 49.8599H295.247C295.166 51.6201 294.536 52.9707 293.358 53.9119C292.179 54.8409 290.534 55.3054 288.421 55.3054C286.308 55.3054 284.662 54.8409 283.484 53.9119C282.305 52.9707 281.675 51.6201 281.594 49.8599Z" fill="black"/>
<path d="M303.12 76.7076V51.3447H324.163V57.8767H312.761V76.7076H303.12Z" fill="#02AEF0"/>
<path d="M353.78 65.2615C354.9 65.2649 356.01 65.3618 357.046 65.2754C361.007 64.9314 360.95 61.877 356.952 61.6273C354.954 61.6303 352.287 62.3507 350.941 62.933V58.6857C353.727 58.1647 357.066 57.7744 360.01 57.8409C363.69 58.0168 368.656 58.1918 369.063 62.7198C369.063 64.8844 367.737 66.2454 365.084 66.803C368.076 67.4699 369.572 69.0332 369.572 71.4929C369.385 76.3198 364.189 76.7862 360.366 77.1618C357.003 77.408 354.098 77.0577 350.896 76.2649V70.8589C353.075 71.6236 355.432 72.7273 357.826 72.3493C361.646 71.6384 361.42 69.349 357.643 68.8259C356.357 68.7262 354.934 68.8856 353.78 68.8856V65.2615Z" fill="#02AEF0"/>
<path d="M336.984 57.8871C334.15 57.8584 331.348 58.2749 328.577 58.8221V63.3046C330.835 62.165 333.309 61.8889 335.798 61.7921C337.818 61.6314 340.81 62.3679 340.815 64.9546H336.984C333.47 64.9547 330.886 65.4614 329.238 66.4671C327.603 67.4729 326.785 69.0435 326.785 71.1971C326.785 72.9682 327.462 74.3996 328.77 75.5146C330.09 76.6188 331.789 77.1921 333.897 77.1921C335.459 77.1921 336.775 76.925 337.866 76.4221C338.956 75.9083 339.943 75.0897 340.815 73.9746V76.6971H348.257V66.2196C348.257 63.2789 347.439 61.1681 345.804 59.8671C344.18 58.5553 340.654 57.8872 336.984 57.8871ZM340.815 68.4471C340.954 69.8949 340.16 70.7853 339.312 71.9084C337.27 73.1643 335.459 72.6781 335.246 70.633C335.512 68.2305 337.788 68.1603 340.815 68.4471Z" fill="#02AEF0"/>
<path d="M148.274 65.2615C149.394 65.2649 150.504 65.3618 151.54 65.2754C155.502 64.9314 155.444 61.877 151.447 61.6273C149.448 61.6303 146.781 62.3507 145.435 62.933V58.6857C148.221 58.1647 151.56 57.7744 154.504 57.8409C158.185 58.0168 163.151 58.1918 163.558 62.7198C163.558 64.8844 162.231 66.2454 159.578 66.803C162.57 67.4699 164.066 69.0332 164.066 71.4929C163.879 76.3198 158.683 76.7862 154.86 77.1618C151.497 77.408 148.592 77.0577 145.391 76.2649V70.8589C147.569 71.6236 149.926 72.7273 152.32 72.3493C156.14 71.6384 155.914 69.349 152.137 68.8259C150.852 68.7262 149.428 68.8856 148.274 68.8856V65.2615Z" fill="#02AEF0"/>
<path d="M131.477 57.8871C128.644 57.8584 125.842 58.2749 123.071 58.8221V63.3046C125.329 62.165 127.803 61.8889 130.292 61.7921C132.312 61.6314 135.304 62.3679 135.309 64.9546H131.477C127.964 64.9547 125.38 65.4614 123.732 66.4671C122.097 67.4729 121.279 69.0435 121.279 71.1971C121.279 72.9682 121.955 74.3996 123.264 75.5146C124.584 76.6188 126.283 77.1921 128.39 77.1921C129.953 77.1921 131.269 76.925 132.359 76.4221C133.45 75.9083 134.436 75.0897 135.309 73.9746V76.6971H142.75V66.2196C142.75 63.2789 141.933 61.1681 140.297 59.8671C138.674 58.5553 135.148 57.8872 131.477 57.8871ZM135.309 68.4471C135.448 69.8949 134.654 70.7853 133.806 71.9084C131.764 73.1643 129.953 72.6781 129.74 70.633C130.006 68.2305 132.282 68.1603 135.309 68.4471Z" fill="#02AEF0"/>
<path d="M91.1021 82.6213H92.8275L95.0063 86.7208V82.6213H96.4709V88.5985H94.7455L92.5666 84.4989V88.5985H91.1021V82.6213ZM102.505 87.5095H100.089L99.7083 88.5985H98.1554L100.374 82.6213H102.216L104.435 88.5985H102.882L102.505 87.5095ZM100.475 86.4006H102.116L101.297 84.0225L100.475 86.4006ZM105.303 82.5961H110.825V83.7611H108.839V88.5732H107.294V83.7611H105.303V82.5961ZM112.318 82.5961H113.863V88.5732H112.318V82.5961ZM118.732 83.713C118.262 83.713 117.896 83.8865 117.637 84.2335C117.378 84.5805 117.248 85.0689 117.248 85.6988C117.248 86.326 117.378 86.8131 117.637 87.16C117.896 87.507 118.262 87.6805 118.732 87.6805C119.206 87.6805 119.572 87.507 119.832 87.16C120.091 86.8131 120.221 86.326 120.221 85.6988C120.221 85.0689 120.091 84.5805 119.832 84.2335C119.572 83.8865 119.206 83.713 118.732 83.713ZM118.732 82.5961C119.695 82.5961 120.45 82.871 120.996 83.4208C121.541 83.9706 121.814 84.7299 121.814 85.6988C121.814 86.6649 121.541 87.4229 120.996 87.9727C120.45 88.5225 119.695 88.7975 118.732 88.7975C117.772 88.7975 117.018 88.5225 116.469 87.9727C115.924 87.4229 115.651 86.6649 115.651 85.6988C115.651 84.7299 115.924 83.9706 116.469 83.4208C117.018 82.871 117.772 82.5961 118.732 82.5961ZM124.07 82.5961H125.796L127.975 86.6956V82.5961H129.439V88.5732H127.714L125.535 84.4737V88.5732H124.07V82.5961ZM135.422 87.4843H133.006L132.625 88.5732H131.072L133.291 82.5961H135.133L137.352 88.5732H135.799L135.422 87.4843ZM133.391 86.3753H135.032L134.214 83.9973L133.391 86.3753ZM139.06 82.5961H140.605V87.4082H143.317V88.5732H139.06V82.5961ZM157.32 88.2702C157.037 88.417 156.741 88.5277 156.433 88.6025C156.126 88.6772 155.805 88.7146 155.47 88.7146C154.473 88.7146 153.682 88.437 153.099 87.8818C152.516 87.324 152.224 86.5687 152.224 85.6159C152.224 84.6604 152.516 83.9051 153.099 83.3499C153.682 82.7921 154.473 82.5132 155.47 82.5132C155.805 82.5132 156.126 82.5506 156.433 82.6253C156.741 82.7 157.037 82.8108 157.32 82.9576V84.1946C157.034 83.9998 156.752 83.857 156.474 83.7663C156.195 83.6755 155.902 83.6302 155.595 83.6302C155.044 83.6302 154.61 83.8063 154.295 84.1586C153.979 84.5109 153.821 84.9967 153.821 85.6159C153.821 86.2324 153.979 86.7168 154.295 87.0691C154.61 87.4214 155.044 87.5976 155.595 87.5976C155.902 87.5976 156.195 87.5522 156.474 87.4615C156.752 87.3707 157.034 87.228 157.32 87.0331V88.2702ZM161.873 83.713C161.402 83.713 161.037 83.8865 160.778 84.2335C160.518 84.5805 160.389 85.0689 160.389 85.6988C160.389 86.326 160.518 86.8131 160.778 87.16C161.037 87.507 161.402 87.6805 161.873 87.6805C162.347 87.6805 162.713 87.507 162.973 87.16C163.232 86.8131 163.362 86.326 163.362 85.6988C163.362 85.0689 163.232 84.5805 162.973 84.2335C162.713 83.8865 162.347 83.713 161.873 83.713ZM161.873 82.5961C162.836 82.5961 163.591 82.871 164.136 83.4208C164.682 83.9706 164.955 84.7299 164.955 85.6988C164.955 86.6649 164.682 87.4229 164.136 87.9727C163.591 88.5225 162.836 88.7975 161.873 88.7975C160.913 88.7975 160.159 88.5225 159.61 87.9727C159.064 87.4229 158.792 86.6649 158.792 85.6988C158.792 84.7299 159.064 83.9706 159.61 83.4208C160.159 82.871 160.913 82.5961 161.873 82.5961ZM167.044 82.5961H169.01L170.375 85.7948L171.747 82.5961H173.709V88.5732H172.249V84.2015L170.868 87.4242H169.889L168.509 84.2015V88.5732H167.044V82.5961ZM175.85 82.5961H178.414C179.176 82.5961 179.761 82.7655 180.167 83.1045C180.577 83.4408 180.781 83.9212 180.781 84.5458C180.781 85.173 180.577 85.6561 180.167 85.995C179.761 86.3313 179.176 86.4995 178.414 86.4994H177.395V88.5732H175.85V82.5961ZM177.395 83.713V85.3825H178.249C178.549 85.3825 178.78 85.3104 178.943 85.1663C179.107 85.0195 179.188 84.8127 179.188 84.5458C179.188 84.2789 179.107 84.0733 178.943 83.9292C178.78 83.7851 178.549 83.713 178.249 83.713H177.395ZM186.2 87.5095H183.784L183.403 88.5985H181.85L184.069 82.6213H185.911L188.13 88.5985H186.577L186.2 87.5095ZM184.169 86.4006H185.811L184.992 84.0225L184.169 86.4006ZM189.802 82.6213H191.528L193.707 86.7208V82.6213H195.171V88.5985H193.446L191.267 84.4989V88.5985H189.802V82.6213ZM196.735 82.6213H198.425L199.789 84.7511L201.153 82.6213H202.846L200.563 86.0803V88.5985H199.018V86.0803L196.735 82.6213Z" fill="black"/>
<path d="M236.163 82.596L233.88 86.055V86.8237H234.771V87.5923H233.88V88.5732H232.335V87.5923H231.449V86.8237H232.335V86.055L230.052 82.596H231.742L233.106 84.7258L234.47 82.596H236.163ZM237.906 88.5732V87.4082C238.586 87.3334 238.994 87.0759 239.13 86.6355C239.267 86.1925 239.335 85.2223 239.335 83.725V82.596H243.6V88.5732H242.055V83.761H240.88V84.1253C240.88 85.5879 240.75 86.6582 240.491 87.3361C240.231 88.0114 239.37 88.4237 237.906 88.5732ZM253.747 82.596H259.268V83.761H257.282V88.5732H255.737V83.761H253.747V82.596ZM263.694 87.5243C264.018 87.5243 264.252 87.4642 264.396 87.3441C264.552 87.2133 264.629 87.0238 264.629 86.7756C264.629 86.5327 264.552 86.3472 264.396 86.2191C264.255 86.099 264.021 86.039 263.694 86.039H262.787V87.5243H263.694ZM266.174 86.7276C266.174 87.3628 265.979 87.8219 265.588 88.1048C265.157 88.417 264.564 88.5732 263.807 88.5732H261.243V82.596H262.787V84.874H263.807C264.564 84.874 265.157 85.0301 265.588 85.3424C265.979 85.6253 266.174 86.087 266.174 86.7276ZM266.704 82.596H268.248V88.5732H266.704V82.596ZM271.557 82.596H273.102V85.0621L275.517 82.596H277.267L274.887 85.0181L276.577 87.4082H277.399V88.5732V89.8583H275.858V88.5732H275.698L273.896 86.027L273.102 86.8357V88.5732H271.557V82.596ZM283.632 82.596H285.177V85.0621L287.592 82.596H289.342L286.962 85.0181L289.474 88.5732H287.773L285.971 86.027L285.177 86.8357V88.5732H283.632V82.596ZM295.191 83.713C294.72 83.713 294.355 83.8864 294.096 84.2334C293.836 84.5804 293.707 85.0688 293.707 85.6987C293.707 86.3259 293.836 86.813 294.096 87.16C294.355 87.5069 294.72 87.6804 295.191 87.6804C295.665 87.6804 296.031 87.5069 296.291 87.16C296.55 86.813 296.68 86.3259 296.68 85.6987C296.68 85.0688 296.55 84.5804 296.291 84.2334C296.031 83.8864 295.665 83.713 295.191 83.713ZM295.191 82.596C296.154 82.596 296.909 82.8709 297.454 83.4207C298 83.9705 298.273 84.7298 298.273 85.6987C298.273 86.6649 298 87.4229 297.454 87.9727C296.909 88.5225 296.154 88.7974 295.191 88.7974C294.231 88.7974 293.477 88.5225 292.928 87.9727C292.382 87.4229 292.11 86.6649 292.11 85.6987C292.11 84.7298 292.382 83.9705 292.928 83.4207C293.477 82.8709 294.231 82.596 295.191 82.596ZM301.971 82.596H303.937L305.302 85.7948L306.674 82.596H308.636V88.5732H307.176V84.2014L305.795 87.4242H304.816L303.436 84.2014V88.5732H301.971V82.596ZM317.361 82.596V88.5732H315.816V83.761H313.537V88.5732H311.992V82.596H317.361ZM324.523 87.4842H322.108L321.727 88.5732H320.174L322.393 82.596H324.235L326.454 88.5732H324.901L324.523 87.4842ZM322.493 86.3753H324.134L323.316 83.9972L322.493 86.3753ZM329.342 82.596H330.886V84.874H333.166V82.596H334.711V88.5732H333.166V86.039H330.886V88.5732H329.342V82.596ZM343.432 82.596V88.5732H341.967V84.4736L339.788 88.5732H338.063V82.596H339.527V86.6955L341.706 82.596H343.432ZM348.381 84.4736C348.381 84.7485 348.45 84.946 348.589 85.0661C348.731 85.1862 348.964 85.2463 349.288 85.2463H350.058V83.713H349.288C348.964 83.713 348.731 83.7717 348.589 83.8891C348.45 84.0066 348.381 84.2014 348.381 84.4736ZM346.555 88.5732L348.048 86.035C347.844 85.9202 347.592 85.72 347.289 85.4345C346.987 85.1462 346.836 84.8032 346.836 84.4056C346.836 83.8077 347.019 83.3567 347.386 83.0524C347.755 82.7481 348.334 82.596 349.123 82.596H351.603V88.5732H350.058V86.3112H349.532L348.2 88.5732H346.555ZM359.475 88.2409C359.192 88.3877 358.896 88.4984 358.589 88.5732C358.281 88.6479 357.96 88.6853 357.626 88.6853C356.628 88.6853 355.837 88.4077 355.254 87.8526C354.671 87.2947 354.379 86.5394 354.379 85.5866C354.379 84.6311 354.671 83.8758 355.254 83.3206C355.837 82.7628 356.628 82.4839 357.626 82.4839C357.96 82.4839 358.281 82.5213 358.589 82.596C358.896 82.6707 359.192 82.7815 359.475 82.9283V84.1653C359.189 83.9705 358.907 83.8277 358.629 83.737C358.35 83.6462 358.058 83.6009 357.75 83.6009C357.199 83.6009 356.765 83.777 356.45 84.1293C356.134 84.4816 355.976 84.9674 355.976 85.5866C355.976 86.2031 356.134 86.6875 356.45 87.0398C356.765 87.3922 357.199 87.5683 357.75 87.5683C358.058 87.5683 358.35 87.5229 358.629 87.4322C358.907 87.3414 359.189 87.1987 359.475 87.0038V88.2409ZM364.653 87.5243C364.977 87.5243 365.211 87.4642 365.355 87.3441C365.51 87.2133 365.588 87.0238 365.588 86.7756C365.588 86.5327 365.51 86.3472 365.355 86.2191C365.214 86.099 364.98 86.039 364.653 86.039H363.746V87.5243H364.653ZM367.133 86.7276C367.133 87.3628 366.938 87.8219 366.547 88.1048C366.116 88.417 365.523 88.5732 364.765 88.5732H362.201V82.596H363.746V84.874H364.765C365.523 84.874 366.116 85.0301 366.547 85.3424C366.938 85.6253 367.133 86.087 367.133 86.7276ZM367.663 82.596H369.207V88.5732H367.663V82.596Z" fill="black"/>
<path d="M246.361 82.5962H251.883V83.7612H249.896V88.5734H248.352V83.7612H246.361V82.5962Z" fill="black"/>
<path d="M263.777 57.8871C260.944 57.8584 258.142 58.2749 255.371 58.8221V63.3046C257.629 62.165 260.103 61.8889 262.592 61.7921C264.612 61.6314 267.604 62.3679 267.609 64.9546H263.777C260.264 64.9547 257.68 65.4614 256.032 66.4671C254.397 67.4729 253.579 69.0435 253.579 71.1971C253.579 72.9682 254.256 74.3996 255.564 75.5146C256.884 76.6188 258.583 77.1921 260.69 77.1921C262.253 77.1921 263.569 76.925 264.659 76.4221C265.75 75.9083 266.736 75.0897 267.609 73.9746V76.6971H275.051V66.2196C275.051 63.2789 274.233 61.1681 272.597 59.8671C270.974 58.5553 267.448 57.8872 263.777 57.8871ZM267.609 68.4471C267.748 69.8949 266.954 70.7853 266.106 71.9084C264.064 73.1643 262.253 72.6781 262.04 70.633C262.306 68.2305 264.582 68.1603 267.609 68.4471Z" fill="black"/>
</g>
<defs>
<clipPath id="clip0_788_8007">
<rect width="370" height="132" fill="white"/>
</clipPath>
</defs>
</svg>
