<svg width="375" height="77" viewBox="0 0 375 77" fill="none" xmlns="http://www.w3.org/2000/svg">
<path d="M1.85645 1.86865V75.1316H373.144V1.86865H1.85645V1.86865Z" fill="#135367"/>
<path fill-rule="evenodd" clip-rule="evenodd" d="M333.785 56.8299V44.7321C333.785 38.7628 339.751 35.4531 345.718 35.4531H354.932V44.2673C354.932 50.3843 348.505 56.8299 342.503 56.8299" fill="#FBE145"/>
<path fill-rule="evenodd" clip-rule="evenodd" d="M330.781 20.1831C324.742 20.1831 318.702 26.3652 318.702 32.3953V56.8153H334.031V45.0838C334.031 39.0392 340.073 35.6803 346.116 35.6803H354.932V20.1831" fill="#10BBD1"/>
<path d="M47.766 38.501C47.766 35.5924 46.4469 26.9186 37.5893 26.9186C28.5719 26.9186 27.3148 35.5924 27.3148 38.501C27.3148 41.4227 28.5719 50.1963 37.5893 50.1963C46.4469 50.1963 47.766 41.4227 47.766 38.501ZM55.0169 38.501C55.0169 43.5669 53.147 49.846 48.1644 53.6189L56.1245 63.3235L55.9749 63.7868H47.9645L42.2756 56.377C41.0155 56.6405 39.0982 56.8909 37.5893 56.8909C24.1374 56.8909 20.0552 46.1743 20.0552 38.501C20.0552 31.0535 24.1374 20.1719 37.5893 20.1719C50.9304 20.1719 55.0169 31.0535 55.0169 38.501Z" fill="white"/>
<path d="M129.709 42.3619H135.537L132.623 35.2677L129.709 42.3619ZM132.163 20.2222H133.083L149.612 56.9905H141.578L138.053 48.4296H127.204L123.729 56.9905H115.646" fill="white"/>
<path d="M177.062 38.4634C177.062 35.5547 175.755 26.8926 166.91 26.8926C157.919 26.8926 156.66 35.5547 156.66 38.4634C156.66 41.372 157.919 50.1341 166.91 50.1341C175.755 50.1341 177.062 41.372 177.062 38.4634ZM184.3 38.4634C184.3 43.5017 182.443 49.7707 177.462 53.5451L185.408 63.2366L185.258 63.6869H177.262L171.582 56.3031C170.323 56.5536 168.419 56.8041 166.91 56.8041C153.497 56.8041 149.425 46.1106 149.425 38.4634C149.425 31.0275 153.497 20.1719 166.91 20.1719C180.227 20.1719 184.3 31.0275 184.3 38.4634Z" fill="white"/>
<path d="M202.61 34.9163C208.087 36.7955 215.062 39.0396 214.615 46.6753C214.265 52.4781 209.146 56.917 201.81 56.917C196.528 56.917 192.519 55.6386 188.198 53.2932L191.313 47.3384C194.674 48.9686 198.039 50.247 201.463 50.247C204.514 50.247 206.728 48.9179 207.077 46.8244C207.477 44.2792 204.872 42.9154 201.463 41.8353C196.131 40.1573 189.007 38.4257 189.007 30.6916C189.007 24.1736 193.778 20.2979 200.403 20.2979C202.408 20.2979 207.279 20.7626 213.207 23.5583L210.642 29.613C208.934 28.9108 204.414 27.0171 200.902 27.0171C198.449 27.0171 196.231 27.8322 196.131 30.3282C196.231 32.7214 199.146 33.6885 202.61 34.9163Z" fill="white"/>
<path d="M257.436 42.3619H263.264L260.349 35.2677L257.436 42.3619ZM259.888 20.2222H260.81L277.326 56.9905H269.291L265.767 48.4296H254.919L251.445 56.9905H243.363" fill="white"/>
<path d="M299.247 20.2222V40.9069L277.614 20.3727L277.05 20.5856V42.1853L283.702 56.9919L284.314 56.7414V36.1928L305.998 57.2424L306.508 56.9919V20.2222" fill="white"/>
<path d="M228.702 27.0543H218.078V20.2207H246.835V27.0543H236.112V56.9904H228.702" fill="white"/>
<path d="M69.4009 42.3619L72.3137 35.2677L75.2308 42.3619H69.4009ZM85.6908 48.9682L72.7768 20.2222H71.8548L55.3391 56.9905H63.4229L66.8967 48.4296H77.7321L81.2332 56.8906" fill="white"/>
<path d="M86.2532 56.9298H111.201L114.265 50.1092H97.9085L114.574 20.8116L114.313 20.2354H88.1332V26.9908H103.14" fill="white"/>
</svg>
