<svg width="347" height="56" viewBox="0 0 347 56" fill="none" xmlns="http://www.w3.org/2000/svg">
<g clip-path="url(#clip0_788_7993)">
<path fill-rule="evenodd" clip-rule="evenodd" d="M1.07084 53.7237V43.1305C7.01114 45.0282 12.2675 45.977 16.8399 45.977C23.1529 45.977 26.3099 44.2833 26.3099 40.8983C26.3099 39.6363 25.8505 38.5758 24.9295 37.7172C23.9878 36.8064 21.5758 35.5437 17.6998 33.9261C10.7452 31.0236 6.21026 28.5483 4.10085 26.501C1.36683 23.7985 0 20.3906 0 16.2723C0 10.9689 1.99178 6.92669 5.97256 4.14887C9.90928 1.39537 15.0355 0.0200195 21.3592 0.0200195C24.8435 0.0200195 29.8864 0.670887 36.4825 1.97438V12.1646C31.5746 10.1747 27.0188 9.18183 22.8097 9.18183C16.8826 9.18183 13.9192 10.8337 13.9192 14.1447C13.9192 15.3823 14.5161 16.3917 15.7115 17.1743C16.7056 17.8076 19.4448 19.1453 23.9232 21.1915C30.3715 24.0983 34.6643 26.625 36.8032 28.7741C39.3411 31.3233 40.6125 34.622 40.6125 38.6653C40.6125 44.477 38.1221 48.9101 33.1447 51.9648C29.1123 54.4418 23.8833 55.6752 17.461 55.6752C12.0374 55.6752 6.57287 55.0268 1.07084 53.7237Z" fill="#009999"/>
<path fill-rule="evenodd" clip-rule="evenodd" d="M48.949 0.952148H63.7104V54.5913H48.949V0.952148Z" fill="#009999"/>
<path fill-rule="evenodd" clip-rule="evenodd" d="M77.2478 54.5913V0.952148H115.107V10.6539H91.4748V22.7657H112.046V31.6151H91.4748V44.344H115.716V54.5913H77.2478Z" fill="#009999"/>
<path fill-rule="evenodd" clip-rule="evenodd" d="M125.353 54.5914V0.952148H144.492L157.788 35.2252L171.418 0.952148H189.597V54.5914H175.602V16.6135L160.103 55.1359H150.953L135.753 16.6135V54.5914H125.353Z" fill="#009999"/>
<path fill-rule="evenodd" clip-rule="evenodd" d="M203.138 54.5913V0.952148H240.996V10.6539H217.366V22.7657H237.936V31.6151H217.366V44.344H241.609V54.5913H203.138Z" fill="#009999"/>
<path fill-rule="evenodd" clip-rule="evenodd" d="M251.322 54.5913V0.952148H268.431L286.581 36.8594V0.952148H296.979V54.5913H280.356L261.724 18.2009V54.5913H251.322Z" fill="#009999"/>
<path fill-rule="evenodd" clip-rule="evenodd" d="M307.458 53.7235V43.1304C313.348 45.028 318.604 45.9769 323.23 45.9769C329.544 45.9769 332.697 44.2831 332.697 40.8981C332.697 39.6362 332.25 38.5757 331.36 37.717C330.413 36.8062 327.991 35.5436 324.092 33.9259C317.158 31.0474 312.618 28.5732 310.49 26.5008C307.757 23.8223 306.393 20.4018 306.393 16.2356C306.393 10.955 308.379 6.9262 312.364 4.14839C316.295 1.39488 321.427 0.0195312 327.752 0.0195312C331.308 0.0195312 335.915 0.592563 341.566 1.74391L342.871 1.9739V12.1641C337.962 10.1742 333.393 9.18134 329.162 9.18134C323.257 9.18134 320.312 10.8332 320.312 14.1442C320.312 15.3818 320.906 16.3913 322.098 17.1738C323.045 17.7828 325.796 19.1212 330.349 21.1911C336.748 24.0978 341.032 26.6245 343.19 28.7736C345.732 31.3228 347 34.6215 347 38.6648C347 44.4765 344.524 48.9096 339.572 51.9643C335.516 54.4413 330.274 55.6747 323.853 55.6747C318.423 55.6751 312.956 55.0267 307.458 53.7235Z" fill="#009999"/>
</g>
<defs>
<clipPath id="clip0_788_7993">
<rect width="347" height="56" fill="white"/>
</clipPath>
</defs>
</svg>
