<svg width="20" height="20" viewBox="0 0 20 20" fill="none" xmlns="http://www.w3.org/2000/svg">
<path fill-rule="evenodd" clip-rule="evenodd" d="M10 20C15.5228 20 20 15.5228 20 10C20 4.47715 15.5228 0 10 0C4.47715 0 0 4.47715 0 10C0 15.5228 4.47715 20 10 20ZM7.49455 12.4362C7.1849 12.1645 6.71354 12.1934 6.43945 12.5017C6.16426 12.8113 6.19215 13.2854 6.50174 13.5606L6.77679 13.7719C6.93912 13.8849 7.17203 14.0306 7.46968 14.1749C8.06501 14.4635 8.92676 14.75 10 14.75C11.0733 14.75 11.935 14.4635 12.5303 14.1749C12.828 14.0306 13.0609 13.8849 13.2232 13.7719C13.3045 13.7154 13.3685 13.6668 13.4145 13.6302L13.4983 13.5606C13.8079 13.2854 13.8358 12.8113 13.5606 12.5017C13.2865 12.1934 12.8151 12.1645 12.5055 12.4362L12.3666 12.5406C12.2594 12.6152 12.0939 12.7195 11.8759 12.8251C11.44 13.0365 10.8018 13.25 10 13.25C9.19825 13.25 8.56 13.0365 8.12409 12.8251C7.90611 12.7195 7.74058 12.6152 7.63338 12.5406L7.49455 12.4362ZM15 8C15 8.55229 14.5523 9 14 9C13.4477 9 13 8.55229 13 8C13 7.44772 13.4477 7 14 7C14.5523 7 15 7.44772 15 8ZM6 9C6.55228 9 7 8.55229 7 8C7 7.44772 6.55228 7 6 7C5.44772 7 5 7.44772 5 8C5 8.55229 5.44772 9 6 9Z" fill="#846DFC"/>
</svg>
