<svg width="20" height="14" viewBox="0 0 20 14" fill="none" xmlns="http://www.w3.org/2000/svg">
<path d="M19.1303 4.8531C20.2899 6.07317 20.2899 7.92683 19.1303 9.1469C17.1745 11.2047 13.8155 14 10 14C6.18448 14 2.82549 11.2047 0.869706 9.1469C-0.289902 7.92683 -0.289902 6.07317 0.869705 4.8531C2.82549 2.79533 6.18448 0 10 0C13.8155 0 17.1745 2.79533 19.1303 4.8531Z" fill="#A392FD"/>
<path d="M13 7C13 8.65685 11.6569 10 10 10C8.34315 10 7 8.65685 7 7C7 5.34315 8.34315 4 10 4C11.6569 4 13 5.34315 13 7Z" fill="white"/>
</svg>
