<svg width="24" height="24" viewBox="0 0 24 24" fill="none" xmlns="http://www.w3.org/2000/svg">
<path fill-rule="evenodd" clip-rule="evenodd" d="M15.6377 3H8.3623C5.40551 3 3 5.40551 3 8.3623V15.6377C3 18.5945 5.40551 21 8.3623 21H15.6377C18.5945 21 21 18.5945 21 15.6377V8.3623C21 5.40551 18.5945 3 15.6377 3ZM19.1889 15.6376C19.1889 17.599 17.5989 19.1891 15.6375 19.1891H8.36204C6.40062 19.1891 4.81055 17.599 4.81055 15.6376V8.36217C4.81055 6.40072 6.40062 4.81068 8.36204 4.81068H15.6375C17.5989 4.81068 19.1889 6.40072 19.1889 8.36217V15.6376ZM7.3449 11.9999C7.3449 9.43294 9.43333 7.34451 12.0003 7.34451C14.5674 7.34451 16.6558 9.43291 16.6558 11.9999C16.6558 14.5669 14.5674 16.6554 12.0003 16.6554C9.43333 16.6554 7.3449 14.5669 7.3449 11.9999ZM12.0001 14.8447C10.429 14.8447 9.15545 13.5712 9.15545 12.0001C9.15545 10.429 10.4291 9.15545 12.0001 9.15545C13.5712 9.15545 14.8447 10.429 14.8447 12.0001C14.8447 13.5711 13.5711 14.8447 12.0001 14.8447ZM16.6648 8.49492C17.2809 8.49492 17.7803 7.99548 17.7803 7.37938C17.7803 6.76329 17.2809 6.26384 16.6648 6.26384C16.0487 6.26384 15.5492 6.76329 15.5492 7.37938C15.5492 7.99548 16.0487 8.49492 16.6648 8.49492Z" fill="white"/>
</svg>
