<svg width="200" height="48" viewBox="0 0 200 48" fill="none" xmlns="http://www.w3.org/2000/svg">
<path d="M149.569 36.2969C148.833 36.2969 148.264 36.0879 147.86 35.6699C147.481 35.2274 147.291 34.6249 147.291 33.8627V12.3973C147.291 11.6105 147.493 11.0204 147.896 10.627C148.299 10.209 148.869 10 149.604 10H158.182C160.934 10 163.058 10.7131 164.553 12.1392C166.048 13.5653 166.795 15.5569 166.795 18.1141C166.795 20.6712 166.048 22.6751 164.553 24.1258C163.058 25.552 160.934 26.265 158.182 26.265H151.847V33.8627C151.847 34.6249 151.657 35.2274 151.277 35.6699C150.898 36.0879 150.328 36.2969 149.569 36.2969ZM151.847 22.5399H157.47C159.084 22.5399 160.306 22.1711 161.136 21.4334C161.966 20.6712 162.382 19.5648 162.382 18.1141C162.382 16.6634 161.966 15.5692 161.136 14.8316C160.306 14.0939 159.084 13.7251 157.47 13.7251H151.847V22.5399Z" fill="#846DFC"/>
<path d="M177.79 36.3707C175.821 36.3707 174.124 35.9896 172.701 35.2274C171.277 34.4651 170.174 33.3832 169.391 31.9817C168.631 30.5802 168.252 28.9205 168.252 27.0026C168.252 25.134 168.62 23.4988 169.355 22.0973C170.114 20.6958 171.147 19.6016 172.452 18.8148C173.78 18.0034 175.287 17.5977 176.972 17.5977C178.205 17.5977 179.309 17.8067 180.282 18.2247C181.278 18.6427 182.12 19.2451 182.809 20.0319C183.52 20.8187 184.054 21.7777 184.41 22.9087C184.79 24.0152 184.98 25.2692 184.98 26.6707C184.98 27.1133 184.825 27.4575 184.517 27.7034C184.232 27.9247 183.817 28.0353 183.271 28.0353H171.846V25.3798H181.848L181.278 25.9331C181.278 24.802 181.112 23.8554 180.78 23.0931C180.471 22.3309 180.009 21.7531 179.392 21.3597C178.799 20.9417 178.051 20.7327 177.15 20.7327C176.153 20.7327 175.299 20.9786 174.587 21.4703C173.899 21.9375 173.365 22.6137 172.985 23.4988C172.629 24.3594 172.452 25.3921 172.452 26.5969V26.8551C172.452 28.8713 172.902 30.3835 173.804 31.3916C174.729 32.3751 176.082 32.8669 177.861 32.8669C178.478 32.8669 179.166 32.7931 179.926 32.6456C180.709 32.4735 181.444 32.1907 182.132 31.7973C182.631 31.5023 183.07 31.3793 183.449 31.4285C183.829 31.4531 184.125 31.5883 184.339 31.8342C184.576 32.0801 184.719 32.3874 184.766 32.7563C184.814 33.1005 184.742 33.457 184.553 33.8258C184.386 34.1947 184.09 34.5143 183.663 34.7848C182.832 35.3257 181.871 35.7314 180.78 36.0019C179.712 36.2478 178.716 36.3707 177.79 36.3707Z" fill="#846DFC"/>
<path d="M196.406 36.3707C194.864 36.3707 193.57 36.1002 192.526 35.5593C191.506 35.0184 190.747 34.2315 190.249 33.1988C189.75 32.1416 189.501 30.8384 189.501 29.2893V21.4334H187.65C187.081 21.4334 186.642 21.2859 186.334 20.9909C186.025 20.6712 185.871 20.2409 185.871 19.7C185.871 19.1345 186.025 18.7042 186.334 18.4091C186.642 18.1141 187.081 17.9665 187.65 17.9665H189.501V14.6103C189.501 13.848 189.691 13.2702 190.071 12.8768C190.474 12.4834 191.032 12.2867 191.743 12.2867C192.455 12.2867 193.001 12.4834 193.381 12.8768C193.76 13.2702 193.95 13.848 193.95 14.6103V17.9665H197.723C198.292 17.9665 198.731 18.1141 199.04 18.4091C199.348 18.7042 199.502 19.1345 199.502 19.7C199.502 20.2409 199.348 20.6712 199.04 20.9909C198.731 21.2859 198.292 21.4334 197.723 21.4334H193.95V29.0312C193.95 30.2114 194.199 31.0966 194.697 31.6867C195.196 32.2768 196.002 32.5718 197.118 32.5718C197.521 32.5718 197.877 32.535 198.185 32.4612C198.494 32.3874 198.767 32.3383 199.004 32.3137C199.289 32.2891 199.526 32.3874 199.716 32.6087C199.906 32.8054 200.001 33.2234 200.001 33.8627C200.001 34.3545 199.917 34.7971 199.751 35.1905C199.609 35.5593 199.336 35.8175 198.933 35.965C198.624 36.0633 198.221 36.1494 197.723 36.2232C197.224 36.3215 196.785 36.3707 196.406 36.3707Z" fill="#846DFC"/>
<path d="M127.572 18.7005C129.792 0.227425 99.6884 -7.33866 91.5961 12.51L98.1624 23.2693H103.839C104.35 27.6143 106.631 41.2598 120.537 41.2598C135.757 42.5779 138.708 28.56 138.578 27.2C138.34 24.7406 128.358 19.1918 128.358 19.1918L127.572 18.7005Z" fill="#846DFC"/>
<path fill-rule="evenodd" clip-rule="evenodd" d="M128.359 18.283C129.22 8.74926 121.905 2.19565 113.591 0.464893C105.092 -1.30452 95.1369 1.84418 90.9152 12.1993L90.7575 12.5859L97.7583 24.0571H103.19C103.512 26.4445 104.309 30.6006 106.539 34.3182C109.028 38.4669 113.289 42.0377 120.505 42.0476C128.357 42.7181 133.126 39.4236 135.891 35.7248C137.263 33.8893 138.132 31.9702 138.649 30.4206C138.908 29.6452 139.082 28.9558 139.187 28.4073C139.286 27.8915 139.34 27.4211 139.312 27.1221C139.259 26.5809 138.964 26.0761 138.643 25.6561C138.306 25.215 137.857 24.7603 137.355 24.3113C136.348 23.4113 135.045 22.465 133.772 21.6107C132.495 20.7535 131.227 19.9757 130.281 19.4129C129.807 19.1313 129.413 18.9029 129.137 18.7447C128.998 18.6656 128.89 18.604 128.815 18.562C128.778 18.541 128.749 18.5249 128.73 18.514L128.716 18.5063L128.359 18.283ZM92.4332 12.4419C96.3911 3.25037 105.395 0.360633 113.307 2.00773C121.363 3.68489 127.877 9.94409 126.836 18.6026L126.774 19.1169L127.997 19.8809L128.013 19.89L128.04 19.905C128.058 19.9152 128.086 19.9306 128.122 19.9508C128.193 19.9913 128.299 20.0513 128.435 20.1287C128.705 20.2836 129.092 20.5079 129.558 20.7849C130.491 21.3394 131.734 22.1025 132.982 22.9399C134.234 23.7803 135.471 24.6823 136.402 25.5145C136.869 25.9315 137.239 26.3138 137.494 26.6468C137.762 26.9982 137.831 27.205 137.839 27.2802C137.839 27.2802 137.84 27.2984 137.839 27.3375C137.838 27.3806 137.834 27.4389 137.826 27.513C137.811 27.6613 137.783 27.8566 137.737 28.0935C137.646 28.5667 137.492 29.1853 137.255 29.8947C136.78 31.3148 135.984 33.0728 134.732 34.7469C132.253 38.0628 127.945 41.1146 120.595 40.4781L120.565 40.4755H120.535C113.863 40.4755 110.039 37.2277 107.787 33.4731C105.505 29.6707 104.823 25.317 104.571 23.1736L104.49 22.4849H98.5624L92.4332 12.4419Z" fill="#846DFC"/>
<path d="M120.549 18.8208C121.027 18.8208 121.414 18.4081 121.414 17.8981C121.414 17.4736 121.738 17.1277 122.136 17.1277C122.535 17.1277 122.859 17.4736 122.859 17.8981C122.859 18.4071 123.245 18.8208 123.723 18.8208C124.202 18.8208 124.588 18.4081 124.588 17.8981C124.588 16.4556 123.488 15.2834 122.137 15.2834C120.786 15.2834 119.686 16.4566 119.686 17.8981C119.686 18.4071 120.071 18.8208 120.549 18.8208Z" fill="white"/>
<path d="M111.619 11.4666C108.676 11.4548 106.085 14.3683 105.475 20.6717C104.461 20.5272 103.296 20.426 102.006 20.426C100.717 20.426 99.5519 20.5272 98.5383 20.6717C97.9269 14.3683 95.2791 11.4538 92.3937 11.4666C88.5861 11.4823 85.2697 18.8617 84.2449 22.408C83.4487 25.1622 83.4172 27.548 83.4172 28.2083C83.4172 32.6821 84.8387 36.8022 87.2266 40.089C90.4275 44.8763 95.6888 48 101.636 48C101.76 48 101.883 47.999 102.006 47.9961C102.129 47.999 102.252 48 102.376 48C108.324 48 113.585 44.8763 116.786 40.089C119.174 36.8022 120.596 32.6821 120.596 28.2083C120.596 27.548 120.564 25.1622 119.768 22.408C118.743 18.8617 115.478 11.4666 111.619 11.4666Z" fill="#B2A4FD"/>
<path fill-rule="evenodd" clip-rule="evenodd" d="M111.616 13.0388L111.614 13.0388C110.658 13.0349 109.692 13.4848 108.847 14.6569C107.975 15.8661 107.234 17.8591 106.946 20.8326L106.79 22.4454L105.278 22.2299C104.322 22.0937 103.223 21.9982 102.006 21.9982C100.79 21.9982 99.6908 22.0937 98.735 22.2299L97.2227 22.4454L97.0663 20.8328C96.7786 17.8661 96.0259 15.8721 95.1468 14.6604C94.2902 13.4796 93.3211 13.0347 92.3998 13.0388C91.9089 13.0408 91.3072 13.2822 90.5951 13.9011C89.8876 14.5159 89.1783 15.4127 88.508 16.4838C87.1665 18.6274 86.1373 21.2161 85.6595 22.8694C84.9259 25.4069 84.897 27.6138 84.897 28.2083C84.897 32.3221 86.2028 36.1068 88.398 39.1284L88.4159 39.1531L88.4329 39.1785C91.3682 43.5686 96.1883 46.4278 101.636 46.4278C101.753 46.4278 101.865 46.4269 101.973 46.4243L102.006 46.4235L102.04 46.4243C102.148 46.4269 102.259 46.4278 102.376 46.4278C107.824 46.4278 112.645 43.5686 115.58 39.1785L115.597 39.1531L115.615 39.1284C117.81 36.1068 119.116 32.3221 119.116 28.2083C119.116 27.6138 119.087 25.4071 118.353 22.8696C117.874 21.2104 116.856 18.6177 115.522 16.4747C114.855 15.4037 114.149 14.5087 113.441 13.8963C112.731 13.2815 112.125 13.0388 111.619 13.0388H111.616ZM111.619 11.4666C108.907 11.4557 106.493 13.9295 105.654 19.2519C105.582 19.7045 105.522 20.1777 105.475 20.6717C105.014 20.6061 104.523 20.5495 104.003 20.5071C103.377 20.4562 102.71 20.426 102.006 20.426C101.302 20.426 100.635 20.4562 100.01 20.5071C99.4898 20.5495 98.9984 20.6061 98.5383 20.6717C98.4916 20.1908 98.4331 19.7295 98.3636 19.2879C97.5215 13.9406 95.059 11.4548 92.3937 11.4666C88.5861 11.4823 85.2697 18.8617 84.2449 22.408C83.4487 25.1622 83.4172 27.548 83.4172 28.2083C83.4172 32.6821 84.8387 36.8022 87.2266 40.089C90.4275 44.8763 95.6888 48 101.636 48C101.76 48 101.883 47.999 102.006 47.9961C102.129 47.999 102.252 48 102.376 48C108.324 48 113.585 44.8763 116.786 40.089C119.174 36.8022 120.596 32.6821 120.596 28.2083C120.596 27.548 120.564 25.1622 119.768 22.408C118.743 18.8617 115.478 11.4666 111.619 11.4666Z" fill="#B2A4FD"/>
<path d="M105.27 34.4726C104.787 34.4726 104.395 34.8893 104.395 35.4022C104.395 35.9151 104.018 36.2924 103.557 36.2924C103.095 36.2924 102.718 35.8925 102.718 35.4022V33.9774C103.229 34.0049 103.657 33.5676 103.656 33.0478C103.656 32.5536 103.267 32.1281 102.781 32.1183H100.904C100.418 32.1281 100.029 32.5526 100.029 33.0478C100.029 33.5676 100.457 34.0049 100.967 33.9774V35.4886C100.967 35.9799 100.591 36.2934 100.128 36.2934C99.6659 36.2934 99.2905 35.8935 99.2905 35.4031C99.2905 34.9128 98.8983 34.4736 98.4156 34.4736C97.9328 34.4736 97.5407 34.8902 97.5407 35.4031C97.5407 36.9193 98.7013 38.1525 100.129 38.1525C100.786 38.1525 101.385 37.8911 101.842 37.4617C102.299 37.8911 102.899 38.1525 103.556 38.1525C104.983 38.1525 106.143 36.9193 106.143 35.4031C106.143 34.8902 105.752 34.4726 105.27 34.4726Z" fill="white"/>
<path d="M93.6432 26.9408C92.0849 26.9408 90.8169 28.288 90.8169 29.9437C90.8169 30.5283 91.2636 31.0029 91.8139 31.0029C92.3642 31.0029 92.8108 30.6266 92.8108 30.042C92.8108 29.5536 93.1845 29.0593 93.6432 29.0593C94.1019 29.0593 94.4756 29.4563 94.4756 29.9437C94.4756 30.5283 94.9222 31.0029 95.4725 31.0029C96.0228 31.0029 96.4695 30.5283 96.4695 29.9437C96.4695 28.288 95.2015 26.9408 93.6432 26.9408Z" fill="white"/>
<path d="M108.661 30.9552C109.212 30.9552 109.658 30.4806 109.658 29.8959C109.658 29.4076 110.032 29.0116 110.492 29.0116C110.951 29.0116 111.324 29.4086 111.324 29.8959C111.324 30.4806 111.771 30.9552 112.321 30.9552C112.871 30.9552 113.318 30.4806 113.318 29.8959C113.318 28.2403 112.05 26.9914 110.492 26.9914C108.933 26.9914 107.665 28.2403 107.665 29.8959C107.665 30.4806 108.11 30.9552 108.661 30.9552Z" fill="white"/>
<path d="M2.27784 34.592C1.54229 34.592 0.972828 34.383 0.56946 33.965C0.18982 33.5224 0 32.92 0 32.1578V10.4342C0 9.6474 0.18982 9.04499 0.56946 8.627C0.972828 8.209 1.54229 8 2.27784 8C3.01339 8 3.57099 8.209 3.95063 8.627C4.354 9.04499 4.55568 9.6474 4.55568 10.4342V19.1384H17.4753V10.4342C17.4753 9.6474 17.6651 9.04499 18.0448 8.627C18.4481 8.209 19.0176 8 19.7531 8C20.4887 8 21.0463 8.209 21.4259 8.627C21.8293 9.04499 22.031 9.6474 22.031 10.4342V32.1578C22.031 32.92 21.8293 33.5224 21.4259 33.965C21.0463 34.383 20.4887 34.592 19.7531 34.592C19.0176 34.592 18.4481 34.383 18.0448 33.965C17.6651 33.5224 17.4753 32.92 17.4753 32.1578V23.0848H4.55568V32.1578C4.55568 32.92 4.36586 33.5224 3.98622 33.965C3.60658 34.383 3.03712 34.592 2.27784 34.592Z" fill="#846DFC"/>
<path d="M35.678 34.6658C33.7086 34.6658 32.0121 34.2846 30.5885 33.5224C29.1648 32.7602 28.0615 31.6783 27.2785 30.2768C26.5192 28.8753 26.1396 27.2156 26.1396 25.2977C26.1396 23.429 26.5073 21.7939 27.2429 20.3924C28.0022 18.9909 29.0343 17.8967 30.3393 17.1099C31.6681 16.2985 33.1748 15.8928 34.8594 15.8928C36.0932 15.8928 37.1966 16.1018 38.1694 16.5198C39.1659 16.9378 40.0083 17.5402 40.6964 18.327C41.4082 19.1138 41.9421 20.0727 42.298 21.2038C42.6776 22.3103 42.8674 23.5642 42.8674 24.9658C42.8674 25.4083 42.7132 25.7526 42.4048 25.9985C42.12 26.2198 41.7048 26.3304 41.1591 26.3304H29.7343V23.6749H39.7354L39.1659 24.2281C39.1659 23.0971 38.9999 22.1504 38.6677 21.3882C38.3592 20.626 37.8965 20.0482 37.2796 19.6547C36.6864 19.2367 35.939 19.0277 35.0374 19.0277C34.0408 19.0277 33.1866 19.2736 32.4748 19.7654C31.7867 20.2326 31.2528 20.9087 30.8732 21.7939C30.5173 22.6545 30.3393 23.6872 30.3393 24.892V25.1502C30.3393 27.1664 30.7901 28.6786 31.6918 29.6867C32.6172 30.6702 33.9696 31.162 35.7492 31.162C36.3661 31.162 37.0542 31.0882 37.8135 30.9407C38.5965 30.7685 39.332 30.4858 40.0201 30.0924C40.5184 29.7973 40.9574 29.6744 41.337 29.7236C41.7167 29.7481 42.0132 29.8834 42.2268 30.1293C42.4641 30.3751 42.6064 30.6825 42.6539 31.0513C42.7013 31.3955 42.6302 31.7521 42.4403 32.1209C42.2743 32.4897 41.9777 32.8094 41.5506 33.0798C40.7201 33.6208 39.7591 34.0265 38.6677 34.2969C37.5999 34.5428 36.6034 34.6658 35.678 34.6658Z" fill="#846DFC"/>
<path d="M52.3344 34.6658C50.365 34.6658 48.8821 34.0879 47.8855 32.9323C46.889 31.7521 46.3907 30.0309 46.3907 27.7688V10.3236C46.3907 9.56134 46.5805 8.98352 46.9602 8.59011C47.3398 8.1967 47.8855 8 48.5974 8C49.3092 8 49.8549 8.1967 50.2345 8.59011C50.6379 8.98352 50.8396 9.56134 50.8396 10.3236V27.5475C50.8396 28.6786 51.065 29.5146 51.5158 30.0555C51.9904 30.5964 52.6548 30.8669 53.5089 30.8669C53.6988 30.8669 53.8767 30.8669 54.0428 30.8669C54.2089 30.8423 54.375 30.8177 54.5411 30.7931C54.8733 30.744 55.0987 30.8423 55.2173 31.0882C55.336 31.3095 55.3953 31.7767 55.3953 32.4897C55.3953 33.1044 55.2766 33.5839 55.0394 33.9281C54.8021 34.2723 54.4106 34.4813 53.8649 34.5551C53.6276 34.5797 53.3784 34.6043 53.1174 34.6289C52.8564 34.6535 52.5954 34.6658 52.3344 34.6658Z" fill="#846DFC"/>
<path d="M59.9629 41.2308C59.2511 41.2308 58.7054 41.0341 58.3257 40.6407C57.9461 40.2472 57.7563 39.6694 57.7563 38.9072V18.2901C57.7563 17.5279 57.9461 16.9501 58.3257 16.5566C58.7054 16.1632 59.2392 15.9665 59.9273 15.9665C60.6391 15.9665 61.1849 16.1632 61.5645 16.5566C61.9442 16.9501 62.134 17.5279 62.134 18.2901V21.1669L61.7425 20.0604C62.0984 18.8065 62.8221 17.7983 63.9135 17.0361C65.0287 16.2739 66.3219 15.8928 67.793 15.8928C69.3116 15.8928 70.6403 16.2739 71.7792 17.0361C72.9418 17.7983 73.8435 18.8802 74.4841 20.2817C75.1248 21.6587 75.4451 23.3184 75.4451 25.2608C75.4451 27.1787 75.1248 28.8507 74.4841 30.2768C73.8435 31.6783 72.9537 32.7602 71.8148 33.5224C70.6759 34.2846 69.3353 34.6658 67.793 34.6658C66.3456 34.6658 65.0762 34.2969 63.9847 33.5593C62.8933 32.7971 62.1577 31.8135 61.7781 30.6087H62.2052V38.9072C62.2052 39.6694 62.0035 40.2472 61.6001 40.6407C61.2205 41.0341 60.6747 41.2308 59.9629 41.2308ZM66.5473 31.162C67.4252 31.162 68.1964 30.9407 68.8607 30.4981C69.5251 30.0555 70.0352 29.4039 70.3912 28.5433C70.7708 27.6582 70.9606 26.564 70.9606 25.2608C70.9606 23.2938 70.5572 21.8308 69.7505 20.8719C68.9438 19.8883 67.876 19.3966 66.5473 19.3966C65.6694 19.3966 64.8982 19.6179 64.2339 20.0604C63.5695 20.4784 63.0475 21.13 62.6679 22.0152C62.3119 22.8758 62.134 23.9577 62.134 25.2608C62.134 27.2033 62.5373 28.6786 63.3441 29.6867C64.1508 30.6702 65.2186 31.162 66.5473 31.162Z" fill="#846DFC"/>
</svg>
