<svg width="134" height="33" viewBox="0 0 134 33" fill="none" xmlns="http://www.w3.org/2000/svg">
<path d="M100.064 24.698C99.5721 24.698 99.1911 24.5587 98.9213 24.28C98.6673 23.985 98.5403 23.5834 98.5403 23.0752V8.76497C98.5403 8.24043 98.6752 7.84702 98.9451 7.58475C99.2149 7.30608 99.5959 7.16675 100.088 7.16675H105.827C107.668 7.16675 109.089 7.64212 110.089 8.59286C111.089 9.54359 111.589 10.8713 111.589 12.5761C111.589 14.2809 111.089 15.6168 110.089 16.584C109.089 17.5347 107.668 18.0101 105.827 18.0101H101.588V23.0752C101.588 23.5834 101.461 23.985 101.207 24.28C100.953 24.5587 100.572 24.698 100.064 24.698ZM101.588 15.5267H105.35C106.43 15.5267 107.247 15.2808 107.803 14.789C108.358 14.2809 108.636 13.5433 108.636 12.5761C108.636 11.609 108.358 10.8795 107.803 10.3878C107.247 9.89602 106.43 9.65014 105.35 9.65014H101.588V15.5267Z" fill="#846DFC"/>
<path d="M118.945 24.7472C117.627 24.7472 116.492 24.4931 115.54 23.985C114.587 23.4768 113.849 22.7556 113.325 21.8212C112.817 20.8869 112.563 19.7804 112.563 18.5018C112.563 17.256 112.809 16.166 113.302 15.2316C113.81 14.2973 114.5 13.5678 115.373 13.0433C116.262 12.5024 117.27 12.2319 118.397 12.2319C119.223 12.2319 119.961 12.3712 120.612 12.6499C121.278 12.9286 121.842 13.3302 122.302 13.8547C122.778 14.3792 123.136 15.0185 123.374 15.7726C123.628 16.5102 123.755 17.3462 123.755 18.2806C123.755 18.5756 123.651 18.8051 123.445 18.969C123.255 19.1165 122.977 19.1903 122.612 19.1903H114.968V17.42H121.659L121.278 17.7888C121.278 17.0348 121.167 16.4037 120.945 15.8955C120.739 15.3874 120.429 15.0021 120.016 14.7399C119.619 14.4612 119.119 14.3219 118.516 14.3219C117.85 14.3219 117.278 14.4858 116.802 14.8136C116.341 15.1251 115.984 15.5759 115.73 16.166C115.492 16.7397 115.373 17.4282 115.373 18.2314V18.4035C115.373 19.7476 115.675 20.7558 116.278 21.4278C116.897 22.0835 117.802 22.4113 118.992 22.4113C119.405 22.4113 119.866 22.3622 120.373 22.2638C120.897 22.1491 121.389 21.9606 121.85 21.6983C122.183 21.5016 122.477 21.4196 122.731 21.4524C122.985 21.4688 123.183 21.559 123.326 21.7229C123.485 21.8868 123.58 22.0917 123.612 22.3376C123.644 22.5671 123.596 22.8048 123.469 23.0506C123.358 23.2965 123.159 23.5096 122.874 23.6899C122.318 24.0506 121.675 24.321 120.945 24.5013C120.231 24.6653 119.564 24.7472 118.945 24.7472Z" fill="#846DFC"/>
<path d="M131.399 24.7472C130.367 24.7472 129.502 24.5669 128.804 24.2063C128.121 23.8456 127.613 23.3211 127.28 22.6326C126.946 21.9278 126.78 21.059 126.78 20.0263V14.789H125.541C125.16 14.789 124.867 14.6907 124.66 14.494C124.454 14.2809 124.351 13.994 124.351 13.6334C124.351 13.2564 124.454 12.9695 124.66 12.7728C124.867 12.5761 125.16 12.4778 125.541 12.4778H126.78V10.2403C126.78 9.7321 126.907 9.34689 127.161 9.08462C127.43 8.82235 127.804 8.69121 128.28 8.69121C128.756 8.69121 129.121 8.82235 129.375 9.08462C129.629 9.34689 129.756 9.7321 129.756 10.2403V12.4778H132.28C132.661 12.4778 132.955 12.5761 133.161 12.7728C133.367 12.9695 133.471 13.2564 133.471 13.6334C133.471 13.994 133.367 14.2809 133.161 14.494C132.955 14.6907 132.661 14.789 132.28 14.789H129.756V19.8542C129.756 20.641 129.923 21.2311 130.256 21.6245C130.589 22.0179 131.129 22.2146 131.875 22.2146C132.145 22.2146 132.383 22.1901 132.59 22.1409C132.796 22.0917 132.978 22.0589 133.137 22.0425C133.328 22.0261 133.486 22.0917 133.613 22.2392C133.74 22.3704 133.804 22.649 133.804 23.0752C133.804 23.4031 133.748 23.6981 133.637 23.9604C133.542 24.2063 133.359 24.3784 133.09 24.4767C132.883 24.5423 132.613 24.5997 132.28 24.6489C131.947 24.7144 131.653 24.7472 131.399 24.7472Z" fill="#846DFC"/>
<path d="M85.3479 12.967C86.8329 0.651616 66.6932 -4.39244 61.2793 8.84002L65.6723 16.0128H69.4701C69.8116 18.9096 71.338 28.0066 80.6413 28.0066C90.8237 28.8852 92.7981 19.54 92.7108 18.6334C92.5518 16.9937 85.8739 13.2945 85.8739 13.2945L85.3479 12.967Z" fill="#846DFC"/>
<path fill-rule="evenodd" clip-rule="evenodd" d="M85.8741 12.6887C86.4502 6.33284 81.5565 1.96377 75.9945 0.809928C70.3083 -0.369677 63.6482 1.72945 60.8237 8.63286L60.7183 8.8906L65.402 16.538H69.0356C69.2515 18.1296 69.7841 20.9004 71.2763 23.3788C72.9414 26.1446 75.7924 28.5251 80.6197 28.5317C85.8727 28.9788 89.0633 26.7824 90.9134 24.3165C91.8315 23.0928 92.4124 21.8135 92.7588 20.7804C92.9321 20.2635 93.0482 19.8039 93.1186 19.4382C93.1847 19.0944 93.2211 18.7808 93.2019 18.5814C93.1669 18.2206 92.969 17.8841 92.7544 17.6041C92.5289 17.31 92.2289 17.0069 91.8927 16.7075C91.2189 16.1075 90.3473 15.4766 89.4957 14.9071C88.6412 14.3357 87.7933 13.8171 87.1602 13.442C86.8433 13.2542 86.5795 13.1019 86.3946 12.9965C86.3021 12.9437 86.2294 12.9026 86.1795 12.8747C86.1546 12.8607 86.1354 12.8499 86.1224 12.8427L86.1132 12.8376L85.8741 12.6887ZM61.8393 8.79457C64.4872 2.66691 70.511 0.740422 75.8042 1.83849C81.1939 2.95659 85.5516 7.12939 84.8556 12.9018L84.8142 13.2446L85.6321 13.754L85.643 13.76L85.661 13.77C85.6732 13.7768 85.6915 13.787 85.7156 13.8005C85.7636 13.8275 85.8345 13.8675 85.925 13.9191C86.1059 14.0224 86.365 14.1719 86.6767 14.3566C87.3006 14.7263 88.1322 15.235 88.967 15.7933C89.8048 16.3535 90.6325 16.9549 91.2555 17.5096C91.5677 17.7876 91.8155 18.0425 91.9857 18.2646C92.1653 18.4988 92.2116 18.6366 92.217 18.6868C92.217 18.6868 92.2176 18.699 92.2168 18.725C92.2158 18.7538 92.2132 18.7926 92.2081 18.842C92.1979 18.9409 92.1789 19.0711 92.1485 19.229C92.0878 19.5445 91.9845 19.9568 91.8259 20.4298C91.5084 21.3765 90.9756 22.5485 90.1382 23.6646C88.4797 25.8752 85.5977 27.9097 80.6801 27.4854L80.6601 27.4836H80.6399C76.1763 27.4836 73.618 25.3184 72.1111 22.8154C70.5849 20.2805 70.1284 17.378 69.9599 15.9491L69.9057 15.4899H65.9399L61.8393 8.79457Z" fill="#846DFC"/>
<path d="M80.6496 13.0472C80.9688 13.0472 81.2281 12.7721 81.2281 12.4321C81.2281 12.1491 81.4446 11.9185 81.7113 11.9185C81.978 11.9185 82.1945 12.1491 82.1945 12.4321C82.1945 12.7714 82.4532 13.0472 82.773 13.0472C83.0929 13.0472 83.3516 12.7721 83.3516 12.4321C83.3516 11.4704 82.6159 10.6889 81.7119 10.6889C80.8079 10.6889 80.0723 11.4711 80.0723 12.4321C80.0723 12.7714 80.3297 13.0472 80.6496 13.0472Z" fill="white"/>
<path d="M74.6751 8.14441C72.7063 8.13654 70.9726 10.0788 70.5642 14.2811C69.8861 14.1848 69.1065 14.1174 68.244 14.1174C67.3815 14.1174 66.6019 14.1848 65.9237 14.2811C65.5148 10.0788 63.7433 8.13589 61.8129 8.14441C59.2656 8.15489 57.0468 13.0745 56.3612 15.4386C55.8285 17.2748 55.8075 18.8653 55.8075 19.3055C55.8075 22.2881 56.7585 25.0348 58.356 27.226C60.4975 30.4175 64.0174 32.5 67.9965 32.5C68.0794 32.5 68.1617 32.4993 68.244 32.4974C68.3263 32.4993 68.4086 32.5 68.4915 32.5C72.4705 32.5 75.9905 30.4175 78.1319 27.226C79.7295 25.0348 80.6805 22.2881 80.6805 19.3055C80.6805 18.8653 80.6594 17.2748 80.1267 15.4386C79.4411 13.0745 77.2566 8.14441 74.6751 8.14441Z" fill="#B2A4FD"/>
<path fill-rule="evenodd" clip-rule="evenodd" d="M74.6732 9.19252L74.6713 9.19251C74.032 9.18996 73.3857 9.4899 72.8204 10.2713C72.2372 11.0774 71.7416 12.4061 71.549 14.3884L71.4445 15.4636L70.4326 15.3199C69.7932 15.2291 69.0577 15.1655 68.244 15.1655C67.4302 15.1655 66.6948 15.2291 66.0553 15.3199L65.0436 15.4636L64.939 14.3886C64.7465 12.4107 64.2429 11.0814 63.6548 10.2736C63.0817 9.48642 62.4334 9.18979 61.817 9.19251C61.4886 9.19386 61.086 9.35482 60.6096 9.76738C60.1363 10.1773 59.6617 10.7751 59.2133 11.4892C58.3158 12.9183 57.6272 14.644 57.3076 15.7462C56.8168 17.4379 56.7975 18.9092 56.7975 19.3055C56.7975 22.0481 57.6711 24.5712 59.1397 26.5856L59.1517 26.602L59.1631 26.619C61.1268 29.5457 64.3516 31.4519 67.9965 31.4519C68.0747 31.4519 68.1491 31.4513 68.2216 31.4495L68.244 31.449L68.2663 31.4495C68.3388 31.4513 68.4133 31.4519 68.4915 31.4519C72.1364 31.4519 75.3611 29.5457 77.3249 26.619L77.3362 26.602L77.3483 26.5856C78.8169 24.5712 79.6905 22.0481 79.6905 19.3055C79.6905 18.9092 79.6712 17.4381 79.1804 15.7464C78.8596 14.6403 78.1786 12.9118 77.2862 11.4831C76.8401 10.7691 76.3674 10.1725 75.8942 9.76418C75.4191 9.35431 75.0133 9.19252 74.6751 9.19252H74.6732ZM74.6751 8.14441C72.8606 8.13716 71.2458 9.78636 70.6841 13.3346C70.6364 13.6363 70.5962 13.9518 70.5642 14.2811C70.2564 14.2374 69.9276 14.1996 69.5797 14.1714C69.1612 14.1375 68.7149 14.1174 68.244 14.1174C67.773 14.1174 67.3268 14.1375 66.9083 14.1714C66.5603 14.1996 66.2316 14.2374 65.9237 14.2811C65.8925 13.9605 65.8534 13.653 65.8069 13.3586C65.2435 9.79371 63.596 8.13654 61.8129 8.14441C59.2656 8.15489 57.0468 13.0745 56.3612 15.4386C55.8285 17.2748 55.8075 18.8653 55.8075 19.3055C55.8075 22.2881 56.7585 25.0348 58.356 27.226C60.4975 30.4175 64.0174 32.5 67.9965 32.5C68.0794 32.5 68.1617 32.4993 68.244 32.4974C68.3263 32.4993 68.4086 32.5 68.4915 32.5C72.4705 32.5 75.9905 30.4175 78.1319 27.226C79.7295 25.0348 80.6805 22.2881 80.6805 19.3055C80.6805 18.8653 80.6594 17.2748 80.1267 15.4386C79.4411 13.0745 77.2566 8.14441 74.6751 8.14441Z" fill="#B2A4FD"/>
<path d="M70.4271 23.4817C70.1041 23.4817 69.8417 23.7595 69.8417 24.1014C69.8417 24.4434 69.5899 24.6949 69.2812 24.6949C68.9724 24.6949 68.72 24.4283 68.72 24.1014V23.1516C69.0621 23.1699 69.348 22.8784 69.3474 22.5319C69.3474 22.2024 69.0875 21.9187 68.7621 21.9122H67.5067C67.1812 21.9187 66.9213 22.2017 66.9213 22.5319C66.9213 22.8784 67.2072 23.1699 67.5487 23.1516V24.1591C67.5487 24.4866 67.2969 24.6956 66.9875 24.6956C66.6782 24.6956 66.427 24.429 66.427 24.1021C66.427 23.7752 66.1646 23.4824 65.8417 23.4824C65.5187 23.4824 65.2563 23.7602 65.2563 24.1021C65.2563 25.1129 66.0328 25.935 66.9882 25.935C67.4275 25.935 67.8284 25.7607 68.134 25.4745C68.4397 25.7607 68.8413 25.935 69.2806 25.935C70.2353 25.935 71.0118 25.1129 71.0118 24.1021C71.0118 23.7602 70.75 23.4817 70.4271 23.4817Z" fill="white"/>
<path d="M62.6489 18.4606C61.6063 18.4606 60.758 19.3587 60.758 20.4625C60.758 20.8522 61.0569 21.1686 61.425 21.1686C61.7931 21.1686 62.092 20.9177 62.092 20.528C62.092 20.2024 62.342 19.8729 62.6489 19.8729C62.9557 19.8729 63.2057 20.1375 63.2057 20.4625C63.2057 20.8522 63.5046 21.1686 63.8727 21.1686C64.2409 21.1686 64.5397 20.8522 64.5397 20.4625C64.5397 19.3587 63.6914 18.4606 62.6489 18.4606Z" fill="white"/>
<path d="M72.6963 21.1368C73.0645 21.1368 73.3633 20.8204 73.3633 20.4306C73.3633 20.1051 73.6133 19.8411 73.9208 19.8411C74.2283 19.8411 74.4776 20.1057 74.4776 20.4306C74.4776 20.8204 74.7765 21.1368 75.1446 21.1368C75.5128 21.1368 75.8116 20.8204 75.8116 20.4306C75.8116 19.3268 74.9633 18.4942 73.9208 18.4942C72.8782 18.4942 72.0299 19.3268 72.0299 20.4306C72.0299 20.8204 72.3275 21.1368 72.6963 21.1368Z" fill="white"/>
<path d="M1.52392 23.5612C1.03182 23.5612 0.65084 23.4219 0.380979 23.1433C0.126993 22.8482 0 22.4466 0 21.9384V7.45607C0 6.93152 0.126993 6.52991 0.380979 6.25125C0.65084 5.97258 1.03182 5.83325 1.52392 5.83325C2.01602 5.83325 2.38906 5.97258 2.64304 6.25125C2.9129 6.52991 3.04783 6.93152 3.04783 7.45607V13.2588H11.6913V7.45607C11.6913 6.93152 11.8183 6.52991 12.0723 6.25125C12.3421 5.97258 12.7231 5.83325 13.2152 5.83325C13.7073 5.83325 14.0804 5.97258 14.3343 6.25125C14.6042 6.52991 14.7391 6.93152 14.7391 7.45607V21.9384C14.7391 22.4466 14.6042 22.8482 14.3343 23.1433C14.0804 23.4219 13.7073 23.5612 13.2152 23.5612C12.7231 23.5612 12.3421 23.4219 12.0723 23.1433C11.8183 22.8482 11.6913 22.4466 11.6913 21.9384V15.8898H3.04783V21.9384C3.04783 22.4466 2.92084 22.8482 2.66686 23.1433C2.41287 23.4219 2.03189 23.5612 1.52392 23.5612Z" fill="#846DFC"/>
<path d="M23.8692 23.6104C22.5517 23.6104 21.4167 23.3563 20.4642 22.8482C19.5118 22.34 18.7736 21.6188 18.2498 20.6844C17.7418 19.7501 17.4878 18.6436 17.4878 17.3651C17.4878 16.1193 17.7339 15.0292 18.226 14.0948C18.734 13.1605 19.4245 12.4311 20.2976 11.9065C21.1865 11.3656 22.1945 11.0951 23.3216 11.0951C24.147 11.0951 24.8852 11.2344 25.536 11.5131C26.2027 11.7918 26.7663 12.1934 27.2266 12.7179C27.7028 13.2425 28.06 13.8817 28.2981 14.6358C28.5521 15.3734 28.6791 16.2094 28.6791 17.1438C28.6791 17.4388 28.5759 17.6683 28.3696 17.8322C28.1791 17.9798 27.9013 18.0535 27.5362 18.0535H19.8928V16.2832H26.5837L26.2027 16.652C26.2027 15.898 26.0916 15.2669 25.8694 14.7587C25.663 14.2506 25.3535 13.8654 24.9407 13.6031C24.5439 13.3244 24.0439 13.1851 23.4406 13.1851C22.7739 13.1851 22.2025 13.349 21.7262 13.6768C21.2659 13.9883 20.9087 14.4391 20.6547 15.0292C20.4166 15.6029 20.2976 16.2914 20.2976 17.0946V17.2667C20.2976 18.6109 20.5992 19.619 21.2024 20.291C21.8215 20.9467 22.7263 21.2746 23.9169 21.2746C24.3296 21.2746 24.7899 21.2254 25.2979 21.127C25.8218 21.0123 26.3139 20.8238 26.7742 20.5615C27.1076 20.3648 27.4012 20.2828 27.6552 20.3156C27.9092 20.332 28.1076 20.4222 28.2505 20.5861C28.4092 20.75 28.5045 20.9549 28.5362 21.2008C28.568 21.4303 28.5204 21.668 28.3934 21.9138C28.2823 22.1597 28.0838 22.3728 27.7981 22.5531C27.2425 22.9138 26.5996 23.1842 25.8694 23.3645C25.1551 23.5285 24.4883 23.6104 23.8692 23.6104Z" fill="#846DFC"/>
<path d="M35.0127 23.6104C33.6951 23.6104 32.703 23.2252 32.0363 22.4548C31.3696 21.668 31.0362 20.5205 31.0362 19.0125V7.3823C31.0362 6.87415 31.1632 6.48893 31.4172 6.22666C31.6712 5.96439 32.0363 5.83325 32.5125 5.83325C32.9888 5.83325 33.3539 5.96439 33.6078 6.22666C33.8777 6.48893 34.0126 6.87415 34.0126 7.3823V18.8649C34.0126 19.619 34.1634 20.1763 34.465 20.5369C34.7825 20.8975 35.227 21.0779 35.7985 21.0779C35.9255 21.0779 36.0445 21.0779 36.1556 21.0779C36.2668 21.0615 36.3779 21.0451 36.489 21.0287C36.7112 20.9959 36.862 21.0615 36.9414 21.2254C37.0208 21.3729 37.0605 21.6844 37.0605 22.1597C37.0605 22.5695 36.9811 22.8892 36.8224 23.1187C36.6636 23.3482 36.4017 23.4875 36.0366 23.5367C35.8778 23.5531 35.7112 23.5694 35.5365 23.5858C35.3619 23.6022 35.1873 23.6104 35.0127 23.6104Z" fill="#846DFC"/>
<path d="M40.1163 27.9871C39.6401 27.9871 39.275 27.856 39.021 27.5937C38.767 27.3314 38.64 26.9462 38.64 26.4381V12.6933C38.64 12.1852 38.767 11.8 39.021 11.5377C39.275 11.2754 39.6321 11.1443 40.0925 11.1443C40.5687 11.1443 40.9338 11.2754 41.1878 11.5377C41.4418 11.8 41.5688 12.1852 41.5688 12.6933V14.6112L41.3069 13.8736C41.545 13.0376 42.0291 12.3655 42.7593 11.8573C43.5054 11.3492 44.3706 11.0951 45.3548 11.0951C46.3707 11.0951 47.2597 11.3492 48.0216 11.8573C48.7994 12.3655 49.4027 13.0867 49.8313 14.0211C50.2599 14.939 50.4742 16.0455 50.4742 17.3405C50.4742 18.619 50.2599 19.7337 49.8313 20.6844C49.4027 21.6188 48.8074 22.34 48.0454 22.8482C47.2835 23.3563 46.3866 23.6104 45.3548 23.6104C44.3864 23.6104 43.5372 23.3645 42.807 22.8728C42.0768 22.3646 41.5847 21.7089 41.3307 20.9057H41.6164V26.4381C41.6164 26.9462 41.4815 27.3314 41.2116 27.5937C40.9576 27.856 40.5925 27.9871 40.1163 27.9871ZM44.5214 21.2746C45.1087 21.2746 45.6246 21.127 46.0691 20.832C46.5136 20.5369 46.8549 20.1025 47.093 19.5288C47.347 18.9387 47.474 18.2092 47.474 17.3405C47.474 16.0291 47.2041 15.0538 46.6644 14.4145C46.1247 13.7588 45.4103 13.431 44.5214 13.431C43.934 13.431 43.4181 13.5785 42.9736 13.8736C42.5292 14.1522 42.1799 14.5866 41.926 15.1767C41.6878 15.7504 41.5688 16.4717 41.5688 17.3405C41.5688 18.6354 41.8386 19.619 42.3784 20.291C42.9181 20.9467 43.6324 21.2746 44.5214 21.2746Z" fill="#846DFC"/>
</svg>
