<svg width="89" height="88" viewBox="0 0 89 88" fill="none" xmlns="http://www.w3.org/2000/svg">
<g clip-path="url(#clip0_1125_5806)">
<path d="M80.1967 44.5496C80.1967 58.3587 69.0029 69.5543 55.1937 69.5543C46.0679 69.5543 38.0843 64.6656 33.7178 57.3652C35.7779 56.1432 43.4301 51.2747 46.888 41.2013C50.1994 31.5551 47.5283 23.3596 46.6789 21.0338C48.7066 20.2483 51.6589 19.5464 55.1939 19.5464C69.0028 19.5466 80.1967 30.7404 80.1967 44.5496Z" fill="#C6C6C6"/>
<path d="M51.7096 34.9401C51.7096 41.4047 48.8589 47.4389 43.6797 51.9293C40.8113 54.4153 37.4135 56.2567 33.7182 57.365C31.4766 53.6166 30.1895 49.2343 30.1895 44.5493C30.1895 33.7291 37.0612 24.5164 46.6793 21.0337C49.9479 25.0423 51.7096 29.8567 51.7096 34.9401Z" fill="#A8A8A8"/>
<path d="M4.43224 13.9877C4.43224 13.9877 -1.37336 22.8714 5.1261 30.6518C7.57532 33.5837 23.156 20.5681 20.7067 17.6362C14.2075 9.85597 4.43224 13.9877 4.43224 13.9877Z" fill="#A8A8A8"/>
<path d="M46.0357 13.9877C46.0357 13.9877 51.8413 22.8714 45.3419 30.6518C42.8927 33.5837 27.312 20.5681 29.7612 17.6362C36.2607 9.85597 46.0357 13.9877 46.0357 13.9877Z" fill="#B7B7B7"/>
<path d="M46.3977 34.9403C46.3977 44.4646 38.0315 52.2924 27.3209 53.1989C25.5736 49.3651 22.9527 42.2541 23.1285 33.0662C23.2655 25.901 25.0513 20.2046 26.4976 16.623C37.5994 17.188 46.3977 25.1735 46.3977 34.9403Z" fill="#C6C6C6"/>
<path d="M27.3213 53.1987C26.6343 53.2589 25.9384 53.289 25.2337 53.289C13.5458 53.289 4.06934 45.0751 4.06934 34.9399C4.06934 24.8048 13.5458 16.5894 25.2337 16.5894C25.6586 16.5894 26.08 16.6 26.4978 16.623C25.4621 21.039 24.6369 26.4075 24.5714 32.5268C24.4795 40.9267 25.8499 47.9932 27.3213 53.1987Z" fill="#B7B7B7"/>
<path d="M59.5599 49.4383L55.3422 60.1365H39.7891C39.3149 58.84 38.7063 56.6711 38.8008 53.9478C38.9084 50.8494 39.8754 48.4906 40.5185 47.202C41.7081 47.1206 42.9458 47.0815 44.2279 47.0815C50.1155 47.0817 55.4858 47.9722 59.5599 49.4383Z" fill="#FFB3C2"/>
<path d="M39.7895 60.1361H33.1161L28.8984 49.4379C32.0979 48.2871 36.0978 47.4902 40.5191 47.2017C40.275 48.7659 40.0717 50.4388 39.9328 52.211C39.7078 55.0808 39.6887 57.7381 39.7895 60.1361Z" fill="#FF899F"/>
<path d="M84.6306 46.4722L75.349 70.018C74.1378 73.0901 71.1721 75.1086 67.8699 75.1086H42.1586C41.3009 73.7343 40.1231 71.4674 39.5502 68.4442C38.8622 64.8131 39.3732 61.8124 39.7894 60.1362H55.3426L60.7288 46.4723H84.6306V46.4722Z" fill="#B2A4FD"/>
<path d="M42.1584 75.1084H20.5888C17.2866 75.1084 14.319 73.0899 13.1079 70.0178L3.82617 46.4722H27.7278L33.1157 60.1361H39.7891C40.0354 65.9755 41.027 71.0396 42.1584 75.1084Z" fill="#A392FD"/>
<path d="M88.2288 46.4724C88.2288 48.4591 86.6194 50.0702 84.631 50.0702H63.1798L58.6896 61.4571C58.1478 62.8311 56.8216 63.7341 55.3431 63.7341H40.0396C39.6948 63.2438 38.9318 62.019 38.8352 60.2688C38.733 58.4142 39.4385 57.0513 39.7384 56.5384H52.8943L57.3828 45.1515C57.9245 43.7775 59.2526 42.8745 60.7292 42.8745H84.6308C86.6194 42.8745 88.2288 44.4839 88.2288 46.4724Z" fill="#EBEBF9"/>
<path d="M40.0392 63.7341H33.1161C31.6376 63.7341 30.3097 62.8311 29.7678 61.4571L25.2793 50.0702H3.82638C1.83967 50.0702 0.228516 48.4589 0.228516 46.4724C0.228516 44.4839 1.83967 42.8745 3.82638 42.8745H27.728C29.2065 42.8745 30.5344 43.7775 31.0763 45.1515L35.5648 56.5384H39.7381C39.7364 56.5544 39.7364 56.5721 39.7364 56.5879C39.7063 59.0969 39.8215 61.4838 40.0392 63.7341Z" fill="#DEDDF5"/>
<path d="M30.4349 34.6121C29.7015 34.6121 29.107 35.2066 29.107 35.94C29.107 36.6418 28.5362 37.2126 27.8344 37.2126C27.1326 37.2126 26.5618 36.6416 26.5618 35.94V33.9043C27.3377 33.9441 27.9865 33.3189 27.986 32.5764C27.9855 31.8697 27.3966 31.263 26.6581 31.2485H23.8098C23.0712 31.2631 22.4824 31.8697 22.4819 32.5764C22.4813 33.3189 23.1302 33.9442 23.906 33.9043V35.94C23.906 36.6418 23.3352 37.2126 22.6335 37.2126C21.9317 37.2126 21.3609 36.6416 21.3609 35.94C21.3609 35.2065 20.7664 34.6121 20.033 34.6121C19.2996 34.6121 18.7051 35.2066 18.7051 35.94C18.7051 38.1063 20.4675 39.8686 22.6336 39.8686C23.6303 39.8686 24.5407 39.4949 25.2341 38.881C25.9274 39.4948 26.838 39.8686 27.8347 39.8686C30.0009 39.8686 31.7633 38.1062 31.7633 35.94C31.7629 35.2066 31.1684 34.6121 30.4349 34.6121Z" fill="#454545"/>
<path d="M14.1656 30.0103C12.0679 30.0103 10.3613 31.717 10.3613 33.8145C10.3613 34.5481 10.9558 35.1424 11.6892 35.1424C12.4226 35.1424 13.0171 34.5479 13.0171 33.8145C13.0171 33.1813 13.5322 32.6662 14.1654 32.6662C14.7986 32.6662 15.3137 33.1813 15.3137 33.8145C15.3137 34.5481 15.9083 35.1424 16.6416 35.1424C17.375 35.1424 17.9695 34.5479 17.9695 33.8145C17.9699 31.717 16.2633 30.0103 14.1656 30.0103Z" fill="#454545"/>
<path d="M33.8253 35.1424C34.5587 35.1424 35.1532 34.5479 35.1532 33.8145C35.1532 33.1813 35.6683 32.6662 36.3015 32.6662C36.9347 32.6662 37.4498 33.1813 37.4498 33.8145C37.4498 34.5481 38.0443 35.1424 38.7777 35.1424C39.5111 35.1424 40.1056 34.5479 40.1056 33.8145C40.1056 31.717 38.3991 30.0103 36.3014 30.0103C34.2036 30.0103 32.4971 31.717 32.4971 33.8145C32.4972 34.5479 33.0918 35.1424 33.8253 35.1424Z" fill="#454545"/>
</g>
<defs>
<clipPath id="clip0_1125_5806">
<rect width="88" height="88" fill="white" transform="translate(0.228516)"/>
</clipPath>
</defs>
</svg>
