<svg width="184" height="184" viewBox="0 0 184 184" fill="none" xmlns="http://www.w3.org/2000/svg">
<g clip-path="url(#clip0_2495_9823)">
<path d="M158.561 138.575C164.603 138.575 169.502 143.473 169.502 149.516V151.176C169.502 167.362 156.255 180.51 140.037 180.353C123.974 180.196 111.147 166.866 111.147 150.804V143.882H133.031V150.997C133.031 154.947 136.098 158.317 140.044 158.466C144.194 158.623 147.619 155.29 147.619 151.176V149.516C147.619 143.473 152.518 138.575 158.561 138.575Z" fill="#D97C41"/>
<path d="M134.854 146.533C134.854 171.538 116.403 180.816 91.2006 183.274C80.18 169.385 69.162 169.387 58.1464 183.27C32.9481 180.816 14.4971 171.538 14.4971 146.533C14.4971 116.32 41.4387 74.585 74.6751 74.585C107.912 74.585 134.854 116.32 134.854 146.533Z" fill="#DF8A57"/>
<path d="M42.6697 180.578L54.3347 139.104L34.9223 132.539C34.9223 132.539 29.0749 170.689 42.6697 180.578Z" fill="#D97C41"/>
<path d="M106.681 180.578L95.0166 139.103L114.429 132.539C114.429 132.539 120.276 170.688 106.681 180.578Z" fill="#D97C41"/>
<path d="M91.2007 161.716V183.274C85.9488 183.785 80.4051 184 74.6756 184C68.9421 184 63.3984 183.785 58.1465 183.271V161.716C69.1649 167.927 80.1826 167.927 91.2007 161.716Z" fill="#D97C41"/>
<path d="M63.734 169.291C58.1612 165.227 50.1359 163.707 41.0596 163.277C42.1499 165.848 43.379 168.38 44.7432 170.998C42.9377 172.756 41.8509 175.003 41.8509 177.457C41.8509 183.085 47.5661 184 54.6159 184C60.6193 184 63.734 181.933 63.734 176.305V169.291Z" fill="#DF8A57"/>
<path d="M63.7348 157.255V146.179C53.3603 146.068 44.2707 147.802 37.541 152.926C38.4783 156.613 39.6527 159.976 41.0607 163.277C50.0412 162.859 57.8126 161.091 63.7348 157.255Z" fill="#DF8A57"/>
<path d="M34.9219 132.539C34.9984 134.76 35.1188 136.853 35.283 138.841C43.9048 143.816 53.508 145.912 63.7344 146.179V132.539H34.9219Z" fill="#DF8A57"/>
<path d="M35.2832 138.841C35.7281 144.202 36.4832 148.768 37.5408 152.926L63.7346 146.179L35.2832 138.841Z" fill="#767678"/>
<path d="M63.734 157.257L41.0596 163.277L63.734 169.293V157.257Z" fill="#767678"/>
<path d="M85.6172 169.291C91.19 165.227 99.2152 163.707 108.292 163.277C107.201 165.848 105.972 168.38 104.608 170.998C106.414 172.756 107.5 175.003 107.5 177.457C107.5 183.085 101.785 184 94.7352 184C88.7319 184 85.6172 181.933 85.6172 176.305V169.291Z" fill="#DF8A57"/>
<path d="M85.6172 157.255V146.179C95.9916 146.068 105.081 147.802 111.811 152.926C110.874 156.613 109.699 159.976 108.291 163.277C99.3108 162.859 91.5393 161.091 85.6172 157.255Z" fill="#DF8A57"/>
<path d="M114.43 132.539C114.353 134.76 114.233 136.853 114.069 138.841C105.447 143.816 95.8436 145.912 85.6172 146.179V132.539H114.43Z" fill="#DF8A57"/>
<path d="M114.069 138.841C113.624 144.202 112.869 148.768 111.811 152.926L85.6172 146.179L114.069 138.841Z" fill="#767678"/>
<path d="M85.6182 157.257L108.293 163.277L85.6182 169.293V157.257Z" fill="#767678"/>
<path d="M114.192 6.70814C98.1204 14.6809 89.0254 24.4954 81.8379 34.0458C85.0273 38.9171 93.3796 43.8082 102.327 47.0649C111.275 50.3215 120.818 51.9434 126.392 50.2619C127.025 38.326 126.366 24.9615 119.179 8.52334C118.339 6.60141 116.071 5.77592 114.192 6.70814Z" fill="#EAAA83"/>
<path d="M114.72 15.7539C114.41 15.7539 114.094 15.7007 113.785 15.5882C112.366 15.0715 111.633 13.5017 112.15 12.0822L115.892 1.80047C116.409 0.380937 117.977 -0.35111 119.398 0.165312C120.817 0.682093 121.55 2.25184 121.033 3.67137L117.291 13.9531C116.887 15.0639 115.838 15.7539 114.72 15.7539Z" fill="#EAAA83"/>
<path d="M35.1609 6.70814C51.2325 14.6809 60.3276 24.4954 67.5151 34.0458C64.3256 38.9171 55.9734 43.8082 47.0257 47.0649C38.078 50.3215 28.5355 51.9434 22.9612 50.2619C22.328 38.326 22.9867 24.9615 30.1735 8.52334C31.0141 6.60141 33.2817 5.77592 35.1609 6.70814Z" fill="#E4996D"/>
<path d="M34.6328 15.754C33.5155 15.754 32.4665 15.0643 32.0622 13.9535L28.32 3.6718C27.8033 2.25227 28.5353 0.682521 29.9552 0.16574C31.3744 -0.351042 32.9441 0.381005 33.4613 1.8009L37.2034 12.0826C37.7202 13.5021 36.9882 15.0719 35.5683 15.5887C35.2592 15.7008 34.9433 15.754 34.6328 15.754Z" fill="#E4996D"/>
<path d="M133.03 74.1477C133.03 96.4865 121.545 110.864 100.778 116.929C100.778 116.929 66.4703 95.9607 54.806 87.7224C52.5923 80.9094 51.8994 73.4038 51.8994 65.4638C51.8994 43.7159 61.4405 24.623 73.1223 21.0889C73.6549 21.895 74.2601 22.6353 74.6759 22.6353C75.5988 22.6353 77.4111 19.043 77.4111 19.043C79.9752 19.1486 82.4589 19.4041 84.866 19.7944C84.866 19.7944 86.398 24.2183 87.1491 24.3678C88.1923 24.5795 90.2275 20.9139 90.2275 20.9139C117.325 27.8872 133.03 52.5748 133.03 74.1477Z" fill="#EAAA83"/>
<path d="M48.5842 116.932C27.8137 110.871 16.3213 96.4901 16.3213 74.1477C16.3213 52.5748 32.026 27.8836 59.1279 20.9139C59.1279 20.9139 61.6773 23.8938 62.4467 23.726C63.4569 23.5107 64.489 19.7944 64.489 19.7944C66.8925 19.4041 69.3798 19.149 71.9403 19.043C71.9403 19.043 72.4801 20.1153 73.122 21.0889C69.5113 26.3261 60.8784 41.1226 60.8784 62.8706C60.8784 69.1219 61.7829 75.1579 63.4752 80.8583C62.7993 88.8692 48.5842 116.932 48.5842 116.932Z" fill="#E4996D"/>
<path d="M100.774 116.932C98.6296 117.56 96.3903 118.096 94.0526 118.537C69.7768 117.352 59.8099 101.851 63.4791 80.8598C73.9085 74.952 84.4328 77.4101 95.0595 88.2475C105.592 100.013 105.534 110.397 100.774 116.932Z" fill="#FFF8E6"/>
<path d="M94.0547 118.536C88.1865 119.667 81.7163 120.232 74.6776 120.232C64.8339 120.232 56.1025 119.127 48.5859 116.931C43.8191 110.403 43.7533 100.027 54.2974 88.2463C57.3503 85.0586 60.41 82.5933 63.4773 80.8572C68.28 97.102 79.4332 110.618 94.0547 118.536Z" fill="#FFEAB7"/>
<path d="M45.6602 82.1952C51.5731 82.1952 56.3664 78.378 56.3664 73.6694C56.3664 68.9607 51.5731 65.1436 45.6602 65.1436C39.7474 65.1436 34.9541 68.9607 34.9541 73.6694C34.9541 78.378 39.7474 82.1952 45.6602 82.1952Z" fill="white"/>
<path d="M103.691 82.1952C109.604 82.1952 114.398 78.378 114.398 73.6694C114.398 68.9607 109.604 65.1436 103.691 65.1436C97.7786 65.1436 92.9854 68.9607 92.9854 73.6694C92.9854 78.378 97.7786 82.1952 103.691 82.1952Z" fill="white"/>
<path d="M51.8993 68.1975C50.3885 68.1975 49.1641 66.9727 49.1641 65.4623V61.0858C49.1641 59.575 50.3888 58.3506 51.8993 58.3506C53.4101 58.3506 54.6345 59.5753 54.6345 61.0858V65.4623C54.6348 66.9727 53.4101 68.1975 51.8993 68.1975Z" fill="#666667"/>
<path d="M97.451 68.1975C95.9402 68.1975 94.7158 66.9727 94.7158 65.4623V61.0858C94.7158 59.575 95.9402 58.3506 97.451 58.3506C98.9618 58.3506 100.186 59.5753 100.186 61.0858V65.4623C100.187 66.9727 98.9622 68.1975 97.451 68.1975Z" fill="#666667"/>
<path d="M81.9713 100.424C81.7241 100.424 81.4728 100.391 81.2234 100.32L81.1483 100.299C75.725 98.7496 71.9404 93.6767 71.9404 87.9605V80.0499C71.9404 78.5391 73.1652 77.3147 74.6756 77.3147C76.1864 77.3147 77.4108 78.5395 77.4108 80.0499V87.9605C77.4108 91.2466 79.5635 94.1565 82.6458 95.0366L82.7163 95.0567C84.1696 95.4689 85.0134 96.9815 84.6012 98.4348C84.2598 99.6387 83.1637 100.424 81.9713 100.424Z" fill="#666667"/>
<path d="M67.3803 100.424C66.1879 100.424 65.0918 99.6387 64.75 98.4348C64.3378 96.9815 65.1816 95.4689 66.6349 95.0567L66.7101 95.0355C69.7877 94.1568 71.9404 91.2466 71.9404 87.9605V80.0499C71.9404 78.5391 73.1651 77.3147 74.6756 77.3147C76.1864 77.3147 77.4108 78.5395 77.4108 80.0499V87.9605C77.4108 93.6767 73.6262 98.7496 68.2076 100.297L68.1278 100.32C67.8787 100.391 67.6275 100.424 67.3803 100.424Z" fill="#666667"/>
<path d="M66.0938 74.4915C66.0938 78.5201 69.9358 83.2448 74.6753 83.2448C79.4147 83.2448 83.2568 78.5201 83.2568 74.4915C83.2568 70.4629 79.4147 68.656 74.6753 68.656C69.9358 68.656 66.0938 70.4629 66.0938 74.4915Z" fill="#B8866B"/>
<path d="M77.4108 19.0427V42.6691C77.4108 44.1788 76.189 45.4043 74.6756 45.4043C73.1655 45.4043 71.9404 44.1788 71.9404 42.6691V19.0427C72.8414 19.006 73.7531 18.988 74.6756 18.988C75.5981 18.988 76.5099 19.0064 77.4108 19.0427Z" fill="#B8866B"/>
<path d="M90.227 20.9136L88.3305 35.721C88.1555 37.1031 86.9775 38.1097 85.6208 38.1097C85.5076 38.1097 85.3912 38.1025 85.2708 38.0878C83.7719 37.8945 82.7142 36.5231 82.9076 35.0241L84.8406 19.9394C84.8478 19.8919 84.855 19.8409 84.8662 19.7935C86.7 20.0896 88.4872 20.4651 90.227 20.9136Z" fill="#B8866B"/>
<path d="M64.0841 38.0881C63.9637 38.1028 63.8469 38.11 63.734 38.11C62.3774 38.11 61.1994 37.1034 61.0243 35.7212L59.1279 20.9139C60.8677 20.4618 62.6548 20.0898 64.4891 19.7944C64.4999 19.8419 64.5074 19.8929 64.5146 19.9403L66.4477 35.0251C66.641 36.5237 65.5834 37.8947 64.0841 38.0881Z" fill="#B8866B"/>
<path d="M106.07 36.7834C102.414 35.453 99.4409 34.0324 97.124 32.7135C100.615 28.9491 104.743 25.2374 109.97 21.7443C111.003 21.0536 112.401 21.5621 112.749 22.756C114.508 28.7917 115.284 34.2883 115.539 39.4159C112.916 38.9368 109.725 38.1138 106.07 36.7834Z" fill="#FFEAB7"/>
<path d="M43.2836 36.7834C46.9392 35.453 49.9123 34.0324 52.2292 32.7135C48.7382 28.9491 44.6104 25.2374 39.3837 21.7443C38.3498 21.0536 36.9522 21.5621 36.6043 22.756C34.8451 28.7917 34.0692 34.2883 33.8145 39.4159C36.4368 38.9368 39.6281 38.1138 43.2836 36.7834Z" fill="#FCE3A0"/>
</g>
<defs>
<clipPath id="clip0_2495_9823">
<rect width="184" height="184" fill="white"/>
</clipPath>
</defs>
</svg>
