<svg width="42" height="42" viewBox="0 0 42 42" fill="none" xmlns="http://www.w3.org/2000/svg">
<circle cx="21" cy="21" r="21" fill="#A392FD"/>
<path fill-rule="evenodd" clip-rule="evenodd" d="M11.25 30C11.25 29.5858 11.5858 29.25 12 29.25H30C30.4142 29.25 30.75 29.5858 30.75 30C30.75 30.4142 30.4142 30.75 30 30.75H12C11.5858 30.75 11.25 30.4142 11.25 30Z" fill="white"/>
<path d="M16.3196 26.9881L19.7523 26.4977C20.2475 26.427 20.7064 26.1976 21.06 25.8439L27.6883 19.2156C27.6883 19.2156 26.0537 19.2156 24.419 17.581C22.7844 15.9464 22.7844 14.3118 22.7844 14.3118L16.1562 20.94C15.8025 21.2937 15.5731 21.7526 15.5023 22.2477L15.0119 25.6804C14.903 26.4433 15.5568 27.0971 16.3196 26.9881Z" fill="#E0DBFE"/>
<path d="M29.3227 14.3117L27.6881 12.6771C26.7853 11.7743 25.3216 11.7743 24.4188 12.6771L22.7842 14.3117C22.7842 14.3117 22.7842 15.9463 24.4188 17.581C26.0534 19.2156 27.6881 19.2156 27.6881 19.2156L29.3227 17.581C30.2255 16.6782 30.2255 15.2145 29.3227 14.3117Z" fill="white"/>
</svg>
