<svg width="46" height="48" viewBox="0 0 46 48" fill="none" xmlns="http://www.w3.org/2000/svg">
<path d="M13.22 42.2007C11.7356 42.9776 10.8394 44.1122 10.4211 45.5375C11.2305 45.8794 12.12 46.0687 13.0529 46.0687C16.7867 46.0687 19.8135 43.0419 19.8135 39.3081V38.3423H15.9503V39.3081C15.9503 40.1078 15.6259 40.8321 15.1014 41.3565C14.6136 41.8442 13.9531 42.1591 13.22 42.2007Z" fill="#636363"/>
<path d="M10.156 38.8851C8.86825 38.2785 7.5805 38.2785 6.29285 38.8851V39.3081C6.29285 40.8833 6.83172 42.332 7.73378 43.4813C9.32369 43.1413 10.2454 42.1478 10.354 40.3588C10.2256 40.0333 10.156 39.6789 10.156 39.3081V38.8851Z" fill="#636363"/>
<path d="M10.1558 32.6075C8.91339 31.9363 7.62264 31.9807 6.29261 32.6075V35.5049C7.58036 36.3887 8.86811 36.3887 10.1558 35.5049V32.6075Z" fill="#636363"/>
<path d="M8.68492 24.8257C7.20854 25.1973 6.34033 26.2035 6.11879 27.8844C6.23083 28.1277 6.29261 28.3992 6.29261 28.6841V29.2269C7.70073 30.1427 8.98848 30.1427 10.1558 29.2269V28.6841C10.1559 27.2025 9.59954 25.8504 8.68492 24.8257Z" fill="#636363"/>
<path d="M0.497589 24.8212C0.497589 25.8883 1.36196 26.7528 2.42921 26.7528H2.65619C4.66394 25.8035 5.65234 24.5595 5.75537 23.0596C5.30818 22.9485 4.84178 22.8896 4.36075 22.8896H2.42912C1.89597 22.8896 1.41306 23.106 1.06347 23.4556C0.713871 23.8051 0.497589 24.288 0.497589 24.8212Z" fill="#636363"/>
<path d="M10.1558 35.5049H6.29261V38.8851H10.1558V35.5049Z" fill="#A8A8A8"/>
<path d="M7.73349 43.4812C7.90159 43.6947 8.08121 43.8975 8.27237 44.0887C8.88465 44.7001 9.6129 45.1955 10.4213 45.5374L13.2202 42.2006C13.1652 42.2035 13.1102 42.2055 13.0532 42.2055C11.8237 42.2055 10.773 41.4396 10.3537 40.3589L7.73349 43.4812Z" fill="#A8A8A8"/>
<path d="M2.65607 26.7528H4.36073C5.14204 26.7528 5.81526 27.2164 6.11845 27.8847L8.68457 24.826C7.9206 23.9704 6.90557 23.3425 5.75535 23.0596L2.65607 26.7528Z" fill="#A8A8A8"/>
<path d="M10.1558 29.2271H6.29261V32.6073H10.1558V29.2271Z" fill="#A8A8A8"/>
<path d="M21.0928 47.0933C22.3512 47.4352 23.7285 47.6651 25.1916 47.8071C28.1686 46.1172 31.0851 46.151 33.9446 47.8071C35.4077 47.6641 36.784 47.4352 38.0425 47.0933C41.1707 44.3254 42.49 33.6823 42.8193 28.6041C39.9616 23.3821 35.093 19.0264 29.5677 19.0264C24.0423 19.0264 19.1738 23.3821 16.316 28.6041C15.5472 32.1911 17.6178 43.9545 21.0928 47.0933Z" fill="#EBEBEB"/>
<path d="M13.632 38.0785C13.632 43.2484 16.6106 45.8802 21.0927 47.0932C22.2788 46.2017 21.3168 39.9839 19.0405 34.3727C19.0405 34.3727 18.207 30.3773 16.316 28.604C14.621 31.6993 13.632 35.1009 13.632 38.0785Z" fill="#A8A8A8"/>
<path d="M45.5034 38.0785C45.5034 43.2484 42.5249 45.8802 38.0427 47.0932C36.8567 46.2017 37.8186 39.9839 40.095 34.3727C40.095 34.3727 40.9284 30.3773 42.8194 28.604C44.5144 31.6993 45.5034 35.1009 45.5034 38.0785Z" fill="#9C9C9C"/>
<path d="M38.0431 47.0941L34.9542 36.1114L40.0947 34.373C40.0947 34.373 41.6431 44.4753 38.0431 47.0941Z" fill="#EBEBEB"/>
<path d="M21.0922 47.0936L24.1812 36.1109L19.0407 34.3726C19.0406 34.3725 17.4922 44.4748 21.0922 47.0936Z" fill="#EBEBEB"/>
<path d="M25.1919 42.0991V47.8079C26.5826 47.9431 28.0506 48.0001 29.5678 48.0001C31.086 48.0001 32.554 47.9431 33.9448 47.807V42.0991C31.0271 43.7439 28.1095 43.7439 25.1919 42.0991Z" fill="#A8A8A8"/>
<path d="M21.6407 44.5563C20.0962 41.5907 19.2024 39.0512 19.0402 34.3726H26.6699V45.9621C26.6699 47.4527 25.8452 47.9999 24.2554 47.9999C22.3885 47.9999 20.8751 47.7573 20.8751 46.2668C20.8751 45.6176 21.1623 45.022 21.6407 44.5563Z" fill="#EBEBEB"/>
<path d="M40.0942 34.3726C39.932 39.0512 39.0382 41.5907 37.4937 44.5563C37.9721 45.022 38.2593 45.6176 38.2593 46.2668C38.2593 47.7573 36.7459 47.9999 34.879 47.9999C33.2892 47.9999 32.4645 47.4527 32.4645 45.9621V34.3726H40.0942Z" fill="#EBEBEB"/>
<path d="M38.0703 12.8334C35.5914 11.9312 34.4129 8.91629 35.386 6.24292C36.4261 3.38495 39.1741 1.36641 41.0683 0.262696C42.109 -0.343679 43.4466 0.143164 43.854 1.2766C44.5956 3.33966 45.4032 6.65232 44.363 9.51029C43.39 12.1837 40.5492 13.7357 38.0703 12.8334Z" fill="#919191"/>
<path d="M39.5379 10.194C40.2799 10.1939 41.2405 9.61872 41.6406 8.5195C42.1403 7.14653 41.986 5.49766 41.6744 4.11906C41.597 3.77678 41.1908 3.62894 40.9115 3.84137C39.7867 4.69713 38.6086 5.86103 38.109 7.234C37.6757 8.42416 38.121 9.76853 39.0616 10.1109C39.2151 10.1668 39.3708 10.1939 39.5378 10.1939C39.5378 10.194 39.5379 10.194 39.5379 10.194Z" fill="#FF938A"/>
<path d="M21.0659 12.8334C23.5448 11.9312 24.7232 8.91629 23.7502 6.24292C22.71 3.38495 19.962 1.36641 18.0678 0.262696C17.0272 -0.343679 15.6896 0.143164 15.2821 1.2766C14.5406 3.33966 13.733 6.65232 14.7732 9.51029C15.7462 12.1837 18.5869 13.7357 21.0659 12.8334Z" fill="#A8A8A8"/>
<path d="M19.5985 10.1939C19.7658 10.1939 19.9217 10.1668 20.0751 10.1109C21.0158 9.76853 21.4611 8.42416 21.0278 7.23391C20.5281 5.86103 19.3501 4.69713 18.2253 3.84137C17.946 3.62894 17.5398 3.77678 17.4624 4.11906C17.1508 5.49766 16.9965 7.14644 17.4962 8.51941C17.8962 9.61872 18.8567 10.1939 19.5985 10.1939Z" fill="#FF938A"/>
<path d="M14.5832 16.8007C14.5832 19.5291 15.5664 22.3221 17.3975 24.6448C22.6026 24.8073 30.4685 18.0191 30.8047 13.7429C30.4551 10.8668 30.6821 7.00456 29.5018 4.08594C20.0322 4.08603 14.5832 9.02122 14.5832 16.8007Z" fill="#A8A8A8"/>
<path d="M29.5016 4.08594V11.1932H29.5026C30.3566 17.2515 31.4911 19.7046 37.6877 20.5827C38.2846 18.7602 38.5811 16.8479 38.5811 15.1076C38.5811 11.3187 36.2805 7.23059 32.6047 4.27906C31.6254 4.15062 30.59 4.08594 29.5026 4.08594H29.5016Z" fill="#9C9C9C"/>
<path d="M32.6048 4.2793C34.519 7.24039 35.6307 10.7685 35.6307 14.5573C35.6307 16.0562 35.4569 17.5155 35.1275 18.914C36.2176 22.088 38.8044 24.4488 41.6071 24.645C43.4392 22.3222 44.4224 19.5291 44.4224 16.8008C44.4223 9.91573 40.1525 5.25767 32.6048 4.2793Z" fill="#919191"/>
<path d="M35.5989 16.4118C35.9991 16.4118 36.3232 16.0875 36.3232 15.6874V14.5285C36.3232 14.1285 35.999 13.8042 35.5989 13.8042C35.1988 13.8042 34.8746 14.1285 34.8746 14.5285V15.6874C34.8746 16.0875 35.1989 16.4118 35.5989 16.4118Z" fill="#666667"/>
<path d="M23.5364 16.4118C23.9366 16.4118 24.2607 16.0875 24.2607 15.6874V14.5285C24.2607 14.1285 23.9365 13.8042 23.5364 13.8042C23.1364 13.8042 22.8121 14.1285 22.8121 14.5285V15.6874C22.8121 16.0875 23.1364 16.4118 23.5364 16.4118Z" fill="#666667"/>
<path d="M17.3969 24.6451C19.6192 27.4633 23.0941 29.588 27.5813 30.0622C33.5373 28.2389 36.0854 24.2304 35.127 18.914V18.9131C34.676 18.6726 34.2095 18.4524 33.7315 18.2583C32.6363 17.814 31.9167 16.7536 31.9167 15.5714V13.6079C31.9167 12.9415 31.6464 12.3369 31.2098 11.9003C30.7733 11.4638 30.1687 11.1934 29.5022 11.1934C28.1684 11.1934 27.0877 12.2741 27.0877 13.6079V15.5714C27.0877 16.7535 26.3681 17.814 25.273 18.2583C21.5807 19.7542 18.6273 22.8207 17.3969 24.6451Z" fill="#EBEBEB"/>
<path d="M27.5812 30.0622C28.2022 30.1289 28.8425 30.1626 29.5021 30.1626C34.924 30.1626 39.076 27.8534 41.6064 24.6451C40.5364 23.0573 38.1595 20.5279 35.1269 18.9131C34.0501 23.4939 31.3111 27.4343 27.5812 30.0622Z" fill="#DDDDDD"/>
<path d="M27.5703 27.1445C27.6352 27.1445 27.7013 27.1357 27.767 27.1172L27.7895 27.1109C29.2244 26.701 30.2266 25.3577 30.2266 23.8441V21.7492C30.2266 21.3492 29.9023 21.0249 29.5023 21.0249C29.1022 21.0249 28.7779 21.3492 28.7779 21.7492V23.8441C28.7779 24.7142 28.2079 25.4848 27.3917 25.7179L27.3743 25.7228C26.9892 25.8313 26.765 26.2314 26.8735 26.6164C26.9635 26.9357 27.254 27.1445 27.5703 27.1445Z" fill="#666667"/>
<path d="M31.434 27.1446C31.7492 27.1446 32.0393 26.9372 32.1301 26.6191C32.2401 26.2344 32.0173 25.8334 31.6327 25.7236L31.6102 25.7172C30.7965 25.4848 30.2264 24.7142 30.2264 23.8441V21.7492C30.2264 21.3492 29.9021 21.0249 29.5021 21.0249C29.1021 21.0249 28.7778 21.3492 28.7778 21.7492V23.8441C28.7778 25.3577 29.78 26.701 31.2149 27.1109L31.2347 27.1165C31.3011 27.1355 31.3681 27.1446 31.434 27.1446Z" fill="#666667"/>
<path d="M31.4907 21.6471C31.4907 22.5805 30.6005 23.6753 29.5023 23.6753C28.4041 23.6753 27.5138 22.5805 27.5138 21.6471C27.5138 20.7136 28.4041 20.2949 29.5023 20.2949C30.6005 20.295 31.4907 20.7137 31.4907 21.6471Z" fill="#FFAAA1"/>
</svg>
