<svg width="134" height="134" viewBox="0 0 134 134" fill="none" xmlns="http://www.w3.org/2000/svg">
<g clip-path="url(#clip0_2495_9876)">
<path d="M24.2793 104.101C19.4412 100.016 14.9063 94.8306 11.2498 88.8093C10.6917 87.8901 11.5171 86.7398 12.5666 86.9787C12.8133 87.0349 13.0603 87.0938 13.3075 87.1553C13.9637 87.3186 14.4804 86.5968 14.1048 86.0349C11.1179 81.5662 8.6524 76.5238 6.95792 71.1912C6.6162 70.1158 7.77449 69.1811 8.74879 69.7513C9.37686 70.1189 10.0037 70.5247 10.6082 70.9583C11.1754 71.3653 11.9397 70.8403 11.7562 70.1673C10.5144 65.6138 10.1608 63.09 10.1851 58.9372C10.1918 57.7932 11.6261 57.2801 12.3602 58.1581C14.9547 61.262 16.4244 63.1002 19.0531 66.5314C19.4674 67.0721 20.3231 66.8165 20.3828 66.138C20.4441 65.4415 20.5586 64.7497 20.7168 64.0869C20.966 63.0432 22.3269 62.7793 22.9373 63.6621C25.3638 67.1719 27.7231 70.5724 30.0044 73.8712C30.595 74.7251 31.8984 74.502 32.1969 73.5079C32.2186 73.4359 32.2406 73.3642 32.263 73.2924C32.5367 72.4192 33.6454 72.1407 34.2961 72.7846C39.4428 77.8769 43.9962 84.1349 46.6707 91.8285C46.9922 90.5047 52.3185 99.997 52.9669 98.7965C66.6132 113.053 72.6103 108.466 73.4551 118.791C70.4209 122.717 63.0911 125.11 53.2735 123.535C44.0366 122.094 32.5448 117.057 22.7604 107.605C22.0679 106.937 22.3727 105.756 23.3088 105.529C23.5195 105.478 23.7319 105.431 23.9459 105.387C24.5539 105.261 24.753 104.501 24.2793 104.101Z" fill="#FFEAB7"/>
<path d="M48.8379 108.771C48.8379 125.608 61.2744 131.856 78.261 133.511C85.6875 128.307 93.114 128.307 100.54 133.509C117.524 131.856 129.961 125.608 129.961 108.771C129.961 88.4265 111.802 60.324 89.3993 60.324C66.9971 60.324 48.8379 88.4263 48.8379 108.771Z" fill="#FFF8E6"/>
<path d="M110.972 131.696L103.11 103.768L116.194 99.3481C116.194 99.3479 120.136 125.036 110.972 131.696Z" fill="#FFEAB7"/>
<path d="M67.827 131.695L75.6895 103.768L62.6051 99.3479C62.6049 99.3477 58.6637 125.036 67.827 131.695Z" fill="#FFEAB7"/>
<path d="M78.2605 118.995V133.511C81.8005 133.855 85.5369 134 89.3991 134C93.2634 134 97 133.855 100.54 133.509V118.995C93.1133 123.177 85.687 123.177 78.2605 118.995Z" fill="#FFEAB7"/>
<path d="M69.2233 125.243C65.292 117.702 63.0169 111.245 62.6041 99.3479H82.0244V128.818C82.0244 132.609 79.9252 134 75.8786 134C71.1268 134 67.2747 133.383 67.2747 129.593C67.2747 127.942 68.0056 126.427 69.2233 125.243Z" fill="#FFF8E6"/>
<path d="M116.194 99.3477C115.781 111.245 113.506 117.702 109.575 125.243C110.793 126.427 111.524 127.942 111.524 129.593C111.524 133.383 107.672 134 102.92 134C98.8732 134 96.774 132.608 96.774 128.818V99.3477H116.194Z" fill="#FFF8E6"/>
<path d="M61.7898 84.7014C60.9419 87.862 60.8353 91.2185 61.596 94.6733C61.7461 95.3549 62.4257 95.7821 63.1032 95.6119C64.7471 95.199 66.3174 94.7458 67.8177 94.2571C68.5889 94.0058 69.3764 94.5663 69.4186 95.3754C69.5776 98.411 70.4371 101.537 72.08 104.661C72.3566 105.187 72.9734 105.442 73.5399 105.262C75.7289 104.566 77.845 103.661 79.4039 102.706C79.9735 102.357 80.7178 102.529 81.0772 103.091C83.2019 106.418 84.5752 107.823 88.6378 111.02C89.0847 111.371 89.7152 111.371 90.1621 111.02C94.2245 107.823 95.598 106.418 97.7228 103.091C98.0821 102.529 98.8266 102.357 99.396 102.706C100.955 103.661 103.071 104.566 105.26 105.262C105.826 105.442 106.443 105.187 106.72 104.661C108.363 101.537 109.222 98.4113 109.381 95.3754C109.424 94.5663 110.211 94.0058 110.982 94.2568C112.482 94.7455 114.053 95.1987 115.697 95.6116C116.374 95.7818 117.054 95.3546 117.204 94.6731C117.965 91.2181 117.858 87.8615 117.01 84.7012C116.776 83.8279 117.522 83.0052 118.412 83.1688C119.695 83.4048 121.016 83.6139 122.374 83.7943C123.146 83.8968 123.818 83.2646 123.766 82.4887C122.796 68.1499 107.844 57.1219 89.3997 55.1311C70.9559 57.1217 56.0038 68.1499 55.0338 82.4887C54.9813 83.2646 55.654 83.8968 56.4255 83.7943C57.784 83.6139 59.1045 83.4048 60.3876 83.1688C61.2779 83.0055 62.0241 83.8282 61.7898 84.7014Z" fill="#FFEAB7"/>
<path d="M122.235 80.2696C121.929 80.1596 121.606 80.0312 121.277 79.8844C120.788 79.6678 120.252 80.0734 120.331 80.6018C120.691 82.9961 121.336 84.827 121.864 86.0251C122.158 86.691 121.519 87.39 120.829 87.157C120.349 86.9937 119.813 86.7864 119.271 86.5259C118.904 86.3497 118.465 86.5405 118.34 86.9277C117.874 88.3789 117.282 89.7365 116.581 91.0024H60.3509C59.6495 89.7365 59.0581 88.377 58.5916 86.9277C58.4666 86.5405 58.0297 86.3497 57.6605 86.5259C57.1188 86.7864 56.5843 86.9937 56.1032 87.157C55.4127 87.39 54.7736 86.691 55.0674 86.0251C55.5963 84.827 56.241 82.9959 56.6009 80.5998C56.6799 80.0714 56.1436 79.6678 55.6552 79.8842C55.3264 80.031 55.0032 80.1594 54.6964 80.2694C53.9746 80.53 53.3136 79.7612 53.6753 79.0842C54.6285 77.3008 55.9176 74.1233 56.4852 69.2907C56.9112 65.6433 58.0187 63.0857 59.2161 61.3208C60.362 63.9023 116.57 63.9041 117.716 61.3208C118.913 63.0857 120.021 65.6433 120.447 69.2907C121.014 74.1233 122.303 77.3008 123.257 79.0842C123.618 79.7615 122.957 80.5302 122.235 80.2696Z" fill="#FFEAB7"/>
<path d="M117.716 61.3211C116.57 63.9043 114.761 66.616 112.299 69.4414C111.379 70.4964 110.018 71.1 108.565 71.1C107.97 71.1 107.369 71.001 106.794 70.8083C104.853 73.0393 102.714 74.6024 101.482 75.4097C100.598 75.9913 99.5623 76.3014 98.4954 76.3014C97.9003 76.3014 97.3145 76.2042 96.7581 76.017C94.8187 78.2407 92.6848 79.802 91.4544 80.6074C90.5618 81.1908 89.5298 81.4971 88.4665 81.4971C87.4031 81.4971 86.3711 81.1908 85.4822 80.6091C84.2481 79.8018 82.116 78.2425 80.1748 76.0168C79.6184 76.204 79.0325 76.3012 78.4376 76.3012C77.3706 76.3012 76.3347 75.9912 75.4441 75.404C74.2172 74.6004 72.0796 73.0373 70.1385 70.8081C69.5637 71.0006 68.9631 71.0998 68.3681 71.0998C66.9153 71.0998 65.5546 70.4963 64.6344 69.4395C62.1716 66.616 60.3627 63.9023 59.2168 61.3209C61.0772 58.5743 63.1598 57.7471 63.2478 57.712C68.9079 48.0689 78.0941 40.7815 88.4667 40.7815C98.8392 40.7815 108.025 48.0689 113.685 57.712C113.773 57.7472 115.856 58.5745 117.716 61.3211Z" fill="#FCE3A0"/>
<path d="M106.049 15.6348C115.28 15.3297 127.212 22.2396 129.676 26.255C134.645 34.3546 129.016 44.1214 124.937 48.2307C124.318 48.8548 123.358 48.9759 122.597 48.5362C110.657 41.6443 112.923 23.2638 106.049 15.6348Z" fill="#CC9E83"/>
<path d="M70.8835 15.6348C61.6524 15.3297 49.7205 22.2396 47.2568 26.255C42.2874 34.3546 47.9168 44.1214 51.9952 48.2307C52.6145 48.8548 53.5739 48.9759 54.3355 48.5362C66.2753 41.6443 64.0095 23.2638 70.8835 15.6348Z" fill="#B8866B"/>
<path d="M115.088 39.9085C115.088 54.6502 106.031 59.2222 102.642 67.6637C102.642 67.6637 95.8639 67.6674 88.4813 67.6637V67.6252C82.9571 63.9997 70.502 40.4203 70.502 30.8104C70.502 23.3377 76.444 16.7971 88.09 14.5C95.1275 14.4193 102.2 16.5566 107.338 20.9068C112.201 25.0236 115.088 31.5698 115.088 39.9085Z" fill="#FFD9A0"/>
<path d="M88.4517 67.6641C81.0691 67.6678 74.2906 67.6641 74.2906 67.6641C70.9022 59.2226 61.8447 54.6506 61.8447 39.9089C61.8447 31.5704 64.7316 25.0242 69.5948 20.907C74.5496 16.7111 81.3042 14.5736 88.09 14.5002C78.891 16.9624 72.3384 23.338 72.3384 30.8106C72.3384 40.4207 83.1718 48.2107 96.5361 48.2107C103.948 48.2107 88.4608 67.642 88.4517 67.6641Z" fill="#FDCB89"/>
<path d="M113.382 49.9368C107.671 45.4419 98.6352 42.5393 88.4664 42.5393C78.2976 42.5393 69.2622 45.4417 63.5506 49.9368C61.492 51.5569 58.6215 56.9581 67.4036 67.0306C67.8993 67.5994 68.8324 67.5095 69.4642 67.0931C69.6037 66.9994 69.7562 66.8986 69.9159 66.7866C70.5532 66.3426 71.4438 66.4913 71.8938 67.1205C73.7321 69.6854 76.1416 71.4742 77.4638 72.3401C78.0551 72.7291 78.8192 72.7291 79.4123 72.3401C79.574 72.2356 79.7521 72.1162 79.943 71.9823C80.5783 71.5401 81.4692 71.6888 81.9209 72.318C83.7592 74.881 86.1687 76.6717 87.4909 77.5376C88.0824 77.9239 88.8499 77.9239 89.4413 77.5376C90.7636 76.6717 93.1731 74.881 95.0114 72.318C95.4631 71.6886 96.3537 71.5401 96.9893 71.9823C97.1802 72.1162 97.3585 72.2356 97.52 72.3401C98.1131 72.7291 98.8771 72.7291 99.4685 72.3401C100.791 71.4742 103.2 69.6854 105.038 67.1205C105.488 66.4911 106.379 66.3426 107.016 66.7866C107.176 66.8986 107.329 66.9994 107.468 67.0931C108.1 67.5097 109.033 67.5994 109.529 67.0306C118.311 56.9583 115.441 51.5569 113.382 49.9368Z" fill="#FFEAB7"/>
<path d="M88.4666 67.072C84.9955 67.072 82.2658 64.1084 82.5541 60.6528L83.1618 53.3668C83.3118 51.569 85.0686 50.3561 86.8049 50.8518L88.0728 51.2137C88.33 51.287 88.6028 51.287 88.86 51.2137L90.1279 50.8518C91.8642 50.3561 93.6211 51.569 93.771 53.3668L94.3787 60.6528C94.6671 64.1084 91.9375 67.072 88.4666 67.072Z" fill="#FFA1AC"/>
<path d="M76.9974 35.4118C76.2366 35.4118 75.6201 34.7957 75.6201 34.0358V31.8342C75.6201 31.0741 76.2367 30.4583 76.9974 30.4583C77.7581 30.4583 78.3747 31.0743 78.3747 31.8342V34.0358C78.3747 34.7957 77.7583 35.4118 76.9974 35.4118Z" fill="#666667"/>
<path d="M99.9349 35.4118C99.1741 35.4118 98.5576 34.7957 98.5576 34.0358V31.8342C98.5576 31.0741 99.1743 30.4583 99.9349 30.4583C100.696 30.4583 101.312 31.0743 101.312 31.8342V34.0358C101.312 34.7957 100.696 35.4118 99.9349 35.4118Z" fill="#666667"/>
<path d="M107.705 52.2374C106.93 51.8613 105.962 51.4412 104.88 51.0449C104.247 50.8137 103.667 51.4816 103.979 52.0796C104.407 52.898 104.743 53.7033 104.996 54.4501C105.29 55.2958 105.479 56.0682 105.602 56.727C105.753 57.5361 104.851 58.1268 104.177 57.6554C103.617 57.2627 102.941 56.826 102.192 56.395C101.571 56.0372 100.851 56.6812 101.152 57.3288C101.791 58.7085 102.164 60.0919 102.346 61.2807C102.451 61.9339 102.5 62.5282 102.517 63.0511C102.544 63.8785 101.551 64.3134 100.958 63.7355C99.8963 62.7008 98.3445 61.3982 96.6584 60.455C96.2673 60.2367 95.8045 60.1724 95.3692 60.2789C93.5161 60.7339 91.3123 60.4882 89.3455 59.4037C88.7982 59.101 88.1314 59.101 87.5842 59.4018C87.3399 59.5377 87.0902 59.6588 86.8386 59.7687C81.4781 58.551 78.3505 55.8857 76.9971 52.1705C75.4307 47.8681 77.3738 42.0993 80.4899 39.2275C83.9004 38.4202 86.5723 38.9267 88.4659 39.6971C90.7559 38.7652 94.1865 38.2184 98.6823 39.9173C103.083 41.6987 106.05 45.2617 107.644 48.166C108.26 49.2723 108.682 50.2832 108.97 51.1144C109.237 51.8834 108.436 52.5915 107.705 52.2374Z" fill="#FFF8E6"/>
<path d="M86.8388 59.7688C85.0721 60.5376 83.1823 60.6771 81.5606 60.2806C81.1254 60.1741 80.6626 60.2367 80.2713 60.4568C78.5872 61.3998 77.0354 62.7008 75.974 63.7353C75.3809 64.3132 74.3872 63.8785 74.4148 63.0509C74.4314 62.528 74.481 61.9335 74.5856 61.2805C74.7675 60.0915 75.1402 58.7083 75.7793 57.3286C76.0806 56.681 75.3606 56.0369 74.7398 56.3948C73.9906 56.826 73.3147 57.2627 72.7546 57.6552C72.0806 58.1266 71.1789 57.5359 71.3295 56.7268C71.4525 56.068 71.6417 55.2956 71.9356 54.4499C72.1891 53.7031 72.5252 52.8978 72.953 52.0794C73.2652 51.4812 72.6849 50.8135 72.0513 51.0447C70.9696 51.441 70.0018 51.8613 69.2269 52.2372C68.4959 52.5913 67.6952 51.8832 67.9615 51.1143C68.2498 50.2832 68.6723 49.2723 69.2875 48.166C70.8815 45.2616 73.8494 41.6987 78.2496 39.9172C79.0283 39.6219 79.7757 39.3961 80.4901 39.2273C78.8188 42.6636 78.5655 47.0999 80.1319 51.4023C81.4853 55.1179 83.9444 58.0368 86.8388 59.7688Z" fill="#FFF1CF"/>
<path d="M110.728 20.6463C114.25 23.6313 116.933 28.0915 118.083 33.8414C118.281 34.8377 116.994 35.4193 116.38 34.612C112.235 29.1483 102.64 19.8703 90.1461 29.2804C83.0842 25.2236 79.4805 20.6739 79.4805 14.4965C79.4805 10.7501 81.9283 5.79644 85.5311 4.05343C86.0122 4.60748 86.4511 5.1927 86.846 5.8C87.6119 6.98147 89.3198 6.98147 90.0857 5.8C91.7734 3.1984 94.3005 0.996809 97.3748 -0.12251C98.17 -0.410488 98.9211 0.411415 98.5667 1.17829C98.4105 1.51577 98.247 1.89013 98.0855 2.29191C97.7678 3.07356 98.5465 3.84399 99.3343 3.53767C101.342 2.75602 103.516 2.33038 105.738 2.38915C106.579 2.41123 106.98 3.44043 106.379 4.02761C105.7 4.69172 104.891 5.55957 104.087 6.55405C103.648 7.09706 103.915 7.9227 104.594 8.08975C110 9.41993 116.068 14.6121 118.718 18.7163C119.198 19.4593 118.493 20.3932 117.644 20.1492C116.074 19.6959 113.835 19.2007 111.448 18.9658C110.515 18.874 110.013 20.0409 110.728 20.6463Z" fill="#FFF1CF"/>
<path d="M90.1461 29.2807C89.5915 29.699 89.0314 30.1521 88.4658 30.6456C75.153 19.0392 64.8797 28.9063 60.551 34.6122C59.9375 35.4195 58.6503 34.8379 58.8485 33.8416C59.9981 28.0917 62.6813 23.6317 66.2037 20.6465C66.918 20.041 66.4167 18.8741 65.4838 18.9658C63.0965 19.2007 60.8578 19.696 59.2876 20.1493C58.439 20.3932 57.7338 19.4593 58.2131 18.7163C60.8631 14.6121 66.931 9.41999 72.3376 8.08981C73.0171 7.92275 73.2835 7.09729 72.8444 6.5541C72.04 5.55981 71.232 4.69195 70.5524 4.02766C69.9518 3.44067 70.3522 2.41129 71.1933 2.3892C73.4154 2.33061 75.5899 2.75607 77.5972 3.53773C78.385 3.84405 79.1637 3.07362 78.846 2.29196C78.6843 1.89018 78.521 1.51583 78.3649 1.17834C78.0105 0.41147 78.7615 -0.410611 79.5568 -0.122455C81.9149 0.736135 83.9497 2.22963 85.5309 4.05331C83.632 6.97957 82.5319 10.4674 82.5319 14.2137C82.5321 20.3916 85.5273 25.87 90.1461 29.2807Z" fill="#FFEAB7"/>
<path d="M82.957 48.1134C82.957 50.6972 85.4237 53.7277 88.4664 53.7277C91.5091 53.7277 93.9758 50.6974 93.9758 48.1134C93.9758 45.5296 91.5091 44.3706 88.4664 44.3706C85.4237 44.3706 82.957 45.5296 82.957 48.1134Z" fill="#666667"/>
<path d="M95.767 21.5247C93.245 22.4875 91.104 24.3922 89.5299 26.6953C89.0168 27.4462 87.9155 27.4462 87.4022 26.6953C85.8281 24.392 83.6871 22.4873 81.1651 21.5247C80.5248 21.2802 79.9344 21.9787 80.2702 22.5757C81.9768 25.6093 85.0649 32.6665 82.4301 40.5394H94.5016C91.8668 32.6665 94.955 25.6093 96.6615 22.5757C96.9977 21.9787 96.4073 21.2804 95.767 21.5247Z" fill="#FFF8E6"/>
</g>
<defs>
<clipPath id="clip0_2495_9876">
<rect width="134" height="134" fill="white" transform="matrix(-1 0 0 1 134 0)"/>
</clipPath>
</defs>
</svg>
