<svg width="88" height="88" viewBox="0 0 88 88" fill="none" xmlns="http://www.w3.org/2000/svg">
<g clip-path="url(#clip0_2581_9784)">
<path d="M11.9978 71.4163C8.70961 68.5443 5.63752 64.9645 3.13588 60.8414C2.7306 60.1735 3.32185 59.3462 4.08343 59.5203L4.12141 59.5291C4.76611 59.6764 5.26902 58.9652 4.9086 58.4107C2.88425 55.2967 1.21037 51.813 0.0436745 48.1379C-0.20245 47.3628 0.632175 46.6889 1.33394 47.1C1.53177 47.2158 1.72943 47.337 1.92554 47.4626C2.60152 47.8959 3.46072 47.2767 3.26135 46.4989C2.55924 43.7589 2.35247 42.0111 2.36829 39.3017C2.3731 38.4774 3.40572 38.1076 3.93423 38.7403C5.626 40.766 6.65382 42.0439 8.2373 44.1025C8.70876 44.7154 9.68621 44.4734 9.81356 43.7108C9.84742 43.5083 9.88696 43.3079 9.93199 43.1109C10.1106 42.3298 11.158 42.1661 11.559 42.8598C13.2017 45.7019 14.492 49.0258 16.0213 51.7174C16.3682 52.3279 17.2521 52.3207 17.5768 51.698C17.6875 51.4855 17.8044 51.2893 17.9256 51.1079C18.2112 50.6805 18.803 50.5878 19.2062 50.9068C24.6093 55.1803 31.7295 65.7168 32.4916 70.9177C32.7231 69.9633 39.3807 67.2161 39.8477 66.3505C49.6767 76.6288 47.3318 75.0125 47.9404 82.4564C45.755 85.2872 40.4756 87.0121 33.4043 85.8765C26.701 84.8298 18.3492 81.1512 11.2676 74.2373C10.8407 73.8205 11.0289 73.0983 11.6066 72.9489L11.6368 72.941C12.3267 72.7623 12.5345 71.8852 11.9978 71.4163Z" fill="#EAAA83"/>
<path d="M84.111 21.715C86.3339 17.0202 87.3696 10.8602 87.513 3.59918C87.5561 1.4131 85.6129 -0.277974 83.4493 0.038104C75.8703 1.14532 70.0878 3.36835 66.2828 6.75549C67.0794 11.8411 78.9642 21.8136 84.111 21.715Z" fill="#E4996D"/>
<path d="M29.1573 69.8105C29.1573 79.2868 34.6162 84.11 42.8318 86.3375C42.8318 86.3375 49.8381 83.5044 50.3498 83.6744L66.3969 83.6727C66.9086 83.5044 72.1341 85.7228 73.9132 86.3375C82.1291 84.1117 87.5879 79.2868 87.5879 69.8105C87.5879 55.1427 74.5084 34.8813 58.3726 34.8813C42.2387 34.8813 29.1573 55.1425 29.1573 69.8105Z" fill="#DF8A57"/>
<path d="M73.9119 86.339L68.249 66.204L77.6733 63.0171C77.6733 63.0169 80.5119 81.5378 73.9119 86.339Z" fill="#D97C41"/>
<path d="M42.8351 86.3387L48.498 66.2038L39.0738 63.0168C39.0738 63.0167 36.2351 81.5376 42.8351 86.3387Z" fill="#D97C41"/>
<path d="M50.3512 77.1814V87.6476C52.9009 87.8954 55.5921 87.9999 58.3739 87.9999C61.1573 87.9999 63.8487 87.8954 66.3984 87.6458V77.1814C61.0492 80.1968 55.7002 80.1968 50.3512 77.1814Z" fill="#D97C41"/>
<path d="M63.6864 80.859C66.3919 78.8861 70.288 78.148 74.6943 77.9392C74.165 79.1875 73.5682 80.4163 72.906 81.6876C73.7824 82.541 74.31 83.6317 74.31 84.8235C74.31 87.5556 71.5354 87.9999 68.1129 87.9999C65.1984 87.9999 63.6863 86.996 63.6863 84.2639V80.859H63.6864Z" fill="#DF8A57"/>
<path d="M63.6857 75.0161V69.6386C68.7223 69.5848 73.1352 70.4267 76.4023 72.9142C75.9472 74.7043 75.3771 76.3368 74.6937 77.9393C70.3338 77.7367 66.5608 76.878 63.6857 75.0161Z" fill="#DF8A57"/>
<path d="M77.6738 63.0164C77.6367 64.0947 77.5783 65.111 77.4985 66.0761C73.3127 68.4914 68.6507 69.5091 63.686 69.6385V63.0164H77.6738Z" fill="#DF8A57"/>
<path d="M53.0614 80.859C50.3559 78.8861 46.4598 78.148 42.0534 77.9392C42.5828 79.1875 43.1796 80.4163 43.8418 81.6876C42.9654 82.541 42.4378 83.6317 42.4378 84.8235C42.4378 87.5556 45.2123 87.9999 48.6349 87.9999C51.5494 87.9999 53.0615 86.996 53.0615 84.2639V80.859H53.0614Z" fill="#DF8A57"/>
<path d="M53.0615 75.0161V69.6386C48.0249 69.5848 43.612 70.4267 40.3448 72.9142C40.8 74.7043 41.3701 76.3368 42.0534 77.9393C46.4134 77.7367 50.1864 76.878 53.0615 75.0161Z" fill="#DF8A57"/>
<path d="M39.0737 63.0164C39.1108 64.0947 39.1692 65.111 39.249 66.0761C43.4348 68.4914 48.0967 69.5091 53.0615 69.6385V63.0164H39.0737Z" fill="#DF8A57"/>
<path d="M32.6356 21.715C30.4128 17.0202 29.377 10.8602 29.2337 3.59918C29.1906 1.4131 31.1338 -0.277974 33.2973 0.038104C40.8763 1.14532 46.6589 3.36835 50.4639 6.75549C49.6672 11.8411 37.7824 21.8136 32.6356 21.715Z" fill="#EAAA83"/>
<path d="M40.5659 57.092C40.8404 57.2373 41.1697 57.2213 41.4353 57.0603C41.7151 56.8867 42.1135 56.6301 42.5844 56.2901C42.9865 55.9979 43.5494 56.1007 43.8292 56.5115C45.6352 59.1621 48.1867 60.9078 49.2224 61.5489C49.5057 61.7243 49.8652 61.7243 50.1502 61.5489C50.4281 61.3753 50.8159 61.1241 51.2693 60.7965C51.4871 60.6406 51.7509 60.5981 51.9917 60.6566C51.9669 60.6495 51.9403 60.6442 51.9138 60.6406C58.8419 58.6011 61.6199 54.7217 60.1313 49.128C41.7978 38.4209 38.467 36.2531 28.8975 32.2805C28.1203 41.4024 30.0324 51.5429 40.5659 57.092Z" fill="#F2C7AE"/>
<path d="M51.9136 60.6401C52.1491 60.6756 52.3705 60.8048 52.5157 61.0191C54.0667 63.2944 56.1686 64.9021 57.3867 65.7184C57.9834 66.1168 58.7606 66.1168 59.3591 65.7184C60.5773 64.9021 62.6773 63.2944 64.2283 61.0191C64.5081 60.6083 65.0729 60.5038 65.4749 60.796C65.9282 61.1236 66.3178 61.3751 66.5957 61.5485C66.879 61.7238 67.2385 61.7238 67.5235 61.5485C68.5575 60.9076 71.109 59.1617 72.915 56.511C73.1949 56.1002 73.7579 55.9976 74.1617 56.2896C74.6309 56.6296 75.031 56.8864 75.3108 57.0598C75.5746 57.2209 75.904 57.2368 76.1784 57.0916C86.7099 51.5428 88.6224 41.4042 87.8467 32.2837C80.526 36.3602 69.3667 41.0586 60.1312 49.1276C57.9303 53.4073 55.1521 57.2867 51.9136 60.6401Z" fill="#EFB899"/>
<path d="M28.8972 32.2784C31.5903 43.4352 42.7754 49.1524 58.3727 49.1524C58.9673 49.1524 59.5527 49.1411 60.1336 49.1241C67.7941 42.711 71.4717 33.9336 71.4717 25.2991C71.4717 16.1945 62.9967 2.323 59.5271 0.446301C59.2455 1.05543 58.6931 2.16024 58.3726 2.15319C57.93 2.16385 57.0447 0.0532227 57.0447 0.0532227C55.7291 0.127645 54.4207 0.263941 53.1405 0.467613C53.1405 0.467613 52.673 2.33555 52.2676 2.4153C51.802 2.50554 50.5306 0.981004 50.5306 0.981004C50.5095 0.986332 50.4863 0.99166 50.4651 0.996988C40.8222 3.3271 34.4321 10.5264 32.6367 15.957C31.5248 19.3175 29.4726 25.5199 28.8972 32.2784Z" fill="#EAAA83"/>
<path d="M65.8096 25.3537C65.8096 33.989 63.7486 42.0967 60.1329 49.126C60.3613 49.119 60.5897 49.1119 60.8199 49.103C60.9862 49.0977 61.1509 49.0906 61.3157 49.0817C75.3656 48.3983 85.3254 42.7216 87.8467 32.2838C87.273 25.5218 85.2227 19.3193 84.1089 15.9569C82.3135 10.5264 75.9234 3.32703 66.2805 0.996916C66.2592 0.991588 66.2361 0.98626 66.215 0.980932C66.215 0.980932 64.7419 1.94412 64.6745 1.94412L63.6051 0.467369C62.325 0.263697 61.0165 0.1274 59.7008 0.0529785C59.7008 0.0529785 59.6336 0.214025 59.5272 0.446057C63.5166 7.73235 65.8096 16.2491 65.8096 25.3537Z" fill="#E4996D"/>
<path d="M80.8769 14.9334C79.7686 14.2624 78.4428 13.3377 76.9798 12.1102C75.3504 10.7429 74.1203 9.47758 73.2422 8.43636C75.0716 7.50669 77.2572 6.73721 79.787 6.13289C80.9633 5.85188 82.0755 6.7965 81.9729 8.00152C81.7536 10.5774 81.3877 12.8917 80.8769 14.9334Z" fill="#FDC4B5"/>
<path d="M69.4309 27.6895C70.1644 27.6895 70.7588 27.095 70.7588 26.3616V24.2368C70.7588 23.5033 70.1643 22.9089 69.4309 22.9089C68.6973 22.9089 68.103 23.5035 68.103 24.2368V26.3616C68.1028 27.095 68.6973 27.6895 69.4309 27.6895Z" fill="#666667"/>
<path d="M47.3166 27.6895C48.0502 27.6895 48.6445 27.095 48.6445 26.3616V24.2368C48.6445 23.5033 48.05 22.9089 47.3166 22.9089C46.5832 22.9089 45.9887 23.5035 45.9887 24.2368V26.3616C45.9885 27.095 46.5831 27.6895 47.3166 27.6895Z" fill="#666667"/>
<path d="M57.0444 0.0531094V13.8198C57.0444 14.5528 57.6394 15.1477 58.3723 15.1477C59.1053 15.1477 59.7002 14.5528 59.7002 13.8198V0.0531094C59.2593 0.0283594 58.8149 0.0106562 58.3723 0C57.9297 0.0106562 57.4852 0.0283594 57.0444 0.0531094Z" fill="#767678"/>
<path d="M63.5164 11.5959C63.5731 11.603 63.6297 11.6066 63.6864 11.6066C64.345 11.6066 64.9153 11.1179 65.0019 10.4468L66.2148 0.98092C65.3632 0.777248 64.4903 0.605545 63.6049 0.467529C63.5996 0.488842 63.5979 0.509982 63.5943 0.531295L62.3672 10.1104C62.2734 10.838 62.7887 11.5021 63.5164 11.5959Z" fill="#767678"/>
<path d="M50.531 0.98092L51.7439 10.4468C51.8307 11.1178 52.4009 11.6066 53.0595 11.6066C53.1162 11.6066 53.1727 11.603 53.2295 11.5959C53.9572 11.5021 54.4725 10.8381 54.3786 10.1104L53.1516 0.531295C53.148 0.509982 53.1463 0.488842 53.1409 0.467529C52.2556 0.605545 51.3828 0.77742 50.531 0.98092Z" fill="#767678"/>
<path d="M35.8702 14.9334C36.9784 14.2624 38.3043 13.3377 39.7673 12.1102C41.3967 10.7429 42.6268 9.47758 43.5049 8.43636C41.6754 7.50669 39.4899 6.73721 36.9601 6.13289C35.7837 5.85188 34.6715 6.7965 34.7741 8.00152C34.9933 10.5774 35.3594 12.8917 35.8702 14.9334Z" fill="#FAD5CB"/>
<path d="M46.4465 41.468C48.8351 47.7713 53.6051 50.9232 58.3734 50.9232C58.6426 50.9232 58.9099 50.9125 59.179 50.8931C65.8954 46.6693 68.8363 40.5803 65.3957 32.0023C63.1559 31.0586 60.6681 30.3733 58.3734 30.3733C55.6078 30.3733 52.5623 31.3684 50.0036 32.6132C46.7157 34.2121 45.1504 38.0472 46.4465 41.468Z" fill="#FFF8E6"/>
<path d="M59.179 50.8932C63.6728 50.5586 68.0464 47.4176 70.3003 41.4681C71.5965 38.0473 70.0312 34.2121 66.7432 32.6133C66.3077 32.4008 65.8579 32.1955 65.3957 32.0024C64.5388 38.8582 62.3716 45.2573 59.179 50.8932Z" fill="#FFEAB7"/>
<path d="M54.8322 40.5583C54.9531 40.5583 55.0758 40.5416 55.1978 40.5069L55.2294 40.4978C57.8648 39.7453 59.7021 37.2825 59.7021 34.5074V30.667C59.7021 29.9335 59.1076 29.3391 58.3742 29.3391C57.6409 29.3391 57.0463 29.9336 57.0463 30.667V34.5074C57.0463 36.1027 56.0013 37.5154 54.5048 37.9427L54.4682 37.953C53.763 38.1546 53.3546 38.8895 53.5562 39.5947C53.7226 40.1781 54.2544 40.5583 54.8322 40.5583Z" fill="#666667"/>
<path d="M61.9155 40.5583C62.4953 40.5583 63.0281 40.1757 63.1931 39.5899C63.3919 38.884 62.981 38.1506 62.2749 37.9518L62.2433 37.9428C60.7468 37.5154 59.7016 36.1029 59.7016 34.5074V30.667C59.7016 29.9335 59.1071 29.3391 58.3737 29.3391C57.6401 29.3391 57.0458 29.9336 57.0458 30.667V34.5074C57.0458 37.2825 58.8831 39.7455 61.5139 40.4965L61.5549 40.5081C61.6752 40.5419 61.7964 40.5583 61.9155 40.5583Z" fill="#666667"/>
<path d="M62.0195 30.4794C62.0195 32.1908 60.3874 34.1978 58.3741 34.1978C56.3607 34.1978 54.7286 32.1908 54.7286 30.4794C54.7286 28.7681 56.3607 28.0005 58.3741 28.0005C60.3874 28.0005 62.0195 28.7681 62.0195 30.4794Z" fill="#B8866B"/>
</g>
<defs>
<clipPath id="clip0_2581_9784">
<rect width="88" height="88" fill="white" transform="matrix(-1 0 0 1 88 0)"/>
</clipPath>
</defs>
</svg>
