<svg width="88" height="88" viewBox="0 0 88 88" fill="none" xmlns="http://www.w3.org/2000/svg">
<path d="M64.6911 54.7536V72.3012C64.6911 75.1913 62.3483 77.5341 59.4582 77.5341C56.5681 77.5341 54.2253 75.1913 54.2253 72.3012V70.5568H47.248V72.3012C47.248 79.0447 52.7147 84.5115 59.4584 84.5115C66.2019 84.5115 71.6687 79.0449 71.6687 72.3012V53.9339C71.6687 51.4309 73.4413 49.2784 75.8979 48.7981L82.0911 47.5876C83.4392 47.3241 83.3927 45.3797 82.0333 45.181L76.6705 44.3976C70.3547 43.475 64.6911 48.3712 64.6911 54.7536Z" fill="#E4996D"/>
<path d="M18.2976 24.8257C22.7041 23.2219 24.7987 17.8627 23.0692 13.1107C20.8485 7.00911 14.2487 3.05994 11.1587 1.49536C10.2605 1.04058 9.16568 1.43915 8.77002 2.36487C7.4086 5.54955 4.89132 12.8171 7.11212 18.9187C8.84169 23.6705 13.8912 26.4294 18.2976 24.8257Z" fill="#FDC4B5"/>
<path d="M15.6789 26.5959C14.1284 26.5959 12.5614 26.1975 11.0855 25.4096C8.68251 24.1269 6.83485 21.9806 5.88318 19.3658C4.83783 16.4938 4.64482 13.1144 5.30946 9.3218C5.84708 6.25452 6.83399 3.56571 7.56738 1.85039C7.89755 1.07799 8.53951 0.470237 9.32876 0.183034C10.118 -0.104169 11.0006 -0.0515755 11.75 0.328096C13.4144 1.1708 15.8988 2.59616 18.2822 4.60022C21.2292 7.07814 23.2536 9.79102 24.2991 12.663C25.2507 15.2776 25.215 18.1094 24.1987 20.6367C23.1558 23.2303 21.2191 25.1546 18.7456 26.0549C17.7523 26.4165 16.7192 26.5959 15.6789 26.5959ZM18.2981 24.8256H18.2998H18.2981ZM10.3736 2.61524C10.3107 2.61524 10.2583 2.62916 10.2239 2.64171C10.1579 2.66577 10.0377 2.72833 9.97346 2.87889C8.78683 5.65467 6.25254 12.7304 8.34202 18.4711C9.83768 22.5808 14.1916 24.9275 17.8507 23.5962C21.509 22.2647 23.3361 17.6675 21.8402 13.5578C19.7509 7.81738 13.2613 4.02599 10.5681 2.66233C10.4984 2.6271 10.4315 2.61524 10.3736 2.61524Z" fill="#E4996D"/>
<path d="M43.1974 24.8257C38.7908 23.2219 36.6962 17.8627 38.4258 13.1107C40.6466 7.00911 47.2462 3.05994 50.3364 1.49536C51.2344 1.04058 52.3294 1.43915 52.7251 2.36487C54.0865 5.54955 56.6038 12.8171 54.383 18.9187C52.6532 23.6705 47.6037 26.4294 43.1974 24.8257Z" fill="#FAD5CB"/>
<path d="M45.8167 26.596C44.7762 26.596 43.7436 26.4168 42.7501 26.0551C42.75 26.0551 42.7499 26.0551 42.7499 26.0551C40.2765 25.1548 38.34 23.2305 37.2969 20.6369C36.2806 18.1097 36.2448 15.2779 37.1965 12.6633C38.2418 9.79128 40.2662 7.07841 43.2132 4.60048C45.5967 2.59625 48.081 1.17106 49.7454 0.328359C50.495 -0.0511408 51.3777 -0.104078 52.1666 0.183297C52.9557 0.4705 53.5977 1.07825 53.928 1.85066C54.6614 3.56614 55.6483 6.25495 56.1859 9.32206C56.8506 13.1147 56.6577 16.4939 55.6124 19.3661C54.6607 21.9807 52.8131 24.127 50.4101 25.4099C48.9344 26.1974 47.3672 26.596 45.8167 26.596ZM43.6451 23.5963C47.3031 24.9276 51.6579 22.5808 53.1539 18.471C55.2432 12.7307 52.7089 5.65477 51.5223 2.87881C51.4578 2.72825 51.3379 2.66569 51.2719 2.64162C51.2057 2.61756 51.0735 2.58834 50.9274 2.66242C48.2343 4.02591 41.7448 7.8173 39.6553 13.5579C38.1597 17.6678 39.9867 22.2648 43.6451 23.5963Z" fill="#EAAA83"/>
<path d="M42.6863 86.2628C41.4043 86.6971 40.0558 87.0443 38.6534 87.3093C38.6534 87.3093 32.5239 83.4353 30.748 83.4353C28.9722 83.4353 22.8426 87.3093 22.8426 87.3093C21.4403 87.0441 20.0918 86.6971 18.8098 86.2628C11.5972 78.2001 10.5713 61.6616 10.5713 46.5026C15.1885 37.4704 22.5077 30.4373 30.7479 30.4373C38.9881 30.4373 46.3072 37.4704 50.9244 46.5026C51.7034 62.4308 48.0167 80.1545 42.6863 86.2628Z" fill="#FFF1CF"/>
<path d="M56.0407 66.5446C56.0407 77.5269 50.6351 83.5745 42.6879 86.2644C38.1754 83.2919 43.94 74.5844 48.0166 63.3876C48.0166 63.3876 47.4655 49.7433 50.9245 46.5024C54.136 52.7802 56.0407 60.0261 56.0407 66.5446Z" fill="#EAAA83"/>
<path d="M5.45508 66.5446C5.45508 77.5269 10.8607 83.5745 18.8079 86.2644C23.3205 83.2919 17.5558 74.5844 13.4792 63.3876C13.4792 63.3876 14.0303 49.7433 10.5713 46.5024C7.35997 52.7802 5.45508 60.0261 5.45508 66.5446Z" fill="#EAAA83"/>
<path d="M51.3606 37.2837C50.4099 39.7433 49.0563 42.0161 47.3294 43.4901C41.4912 48.6237 43.9227 52.4716 35.4297 54.0032V54.0015C23.2869 51.4476 19.2217 41.0179 19.2217 30.9183C19.2217 25.3348 21.2825 20.4554 26.525 14.9565C27.8192 14.175 29.2166 13.4093 30.7236 12.6697H30.7724C50.2843 23.9727 51.3169 37.1634 51.3606 37.2837Z" fill="#FFF8E6"/>
<path d="M35.4294 54.0012V54.003C35.3614 54.0135 35.2933 54.0257 35.2235 54.0379C32.2616 54.5471 29.2284 54.549 26.2664 54.0396C17.5448 52.5377 20.0375 48.653 14.1659 43.4899C12.4391 42.0159 11.0854 39.743 10.1348 37.2835C10.1348 36.0486 11.0261 24.3038 26.5244 14.9561C23.7108 19.3256 22.0782 24.5273 22.0782 30.1108C22.0782 40.2107 27.4177 49.0648 35.4294 54.0012Z" fill="#FFEAB7"/>
<path d="M52.9882 29.162C52.9882 31.5186 52.4299 34.5189 51.3607 37.2837C51.3169 37.1627 49.3872 31.6142 43.128 26.6351C38.1266 22.6567 30.7725 19.2593 30.7725 12.6694C44.8734 12.6763 52.9882 18.2791 52.9882 29.162Z" fill="#EAAA83"/>
<path d="M19.8552 36.0024C19.1326 36.0024 18.5469 35.4166 18.5469 34.6941V32.8859C18.5469 32.1634 19.1326 31.5776 19.8552 31.5776C20.5777 31.5776 21.1635 32.1634 21.1635 32.8859V34.6941C21.1635 35.4166 20.5777 36.0024 19.8552 36.0024Z" fill="#666667"/>
<path d="M41.6413 36.0024C40.9188 36.0024 40.333 35.4166 40.333 34.6941V32.8859C40.333 32.1634 40.9188 31.5776 41.6413 31.5776C42.3639 31.5776 42.9496 32.1634 42.9496 32.8859V34.6941C42.9496 35.4166 42.3639 36.0024 41.6413 36.0024Z" fill="#666667"/>
<path d="M34.238 48.8649C34.1197 48.8649 33.9996 48.8488 33.8803 48.8149L33.8444 48.8048C31.2504 48.0638 29.4404 45.6377 29.4404 42.9038V39.1203C29.4404 38.3978 30.0262 37.812 30.7487 37.812C31.4713 37.812 32.0571 38.3978 32.0571 39.1203V42.9038C32.0571 44.4754 33.0866 45.8671 34.5608 46.2882L34.5944 46.2978C35.2895 46.495 35.6932 47.2184 35.4959 47.9135C35.3325 48.4891 34.8081 48.8649 34.238 48.8649Z" fill="#666667"/>
<path d="M27.2591 48.865C26.6899 48.865 26.1662 48.4905 26.0018 47.9159C25.8033 47.2212 26.2057 46.4971 26.9004 46.2986L26.9387 46.2878C28.4107 45.8673 29.4402 44.4757 29.4402 42.9041V39.1206C29.4402 38.398 30.026 37.8123 30.7485 37.8123C31.4711 37.8123 32.0568 38.398 32.0568 39.1206V42.9041C32.0568 45.6377 30.2468 48.0641 27.6553 48.8043L27.6194 48.8145C27.4992 48.8485 27.3782 48.865 27.2591 48.865Z" fill="#666667"/>
<path d="M27.1572 38.3109C27.1572 39.9968 28.7651 41.9741 30.7486 41.9741C32.732 41.9741 34.3399 39.9968 34.3399 38.3109C34.3399 36.625 32.732 35.8689 30.7486 35.8689C28.7651 35.8689 27.1572 36.625 27.1572 38.3109Z" fill="#FFAAA1"/>
<path d="M44.1709 85.7296C40.4548 82.8922 39.2289 75.4483 38.208 67.6258L47.8413 63.3877C48.8866 66.9019 51.0866 81.052 44.1709 85.7296Z" fill="#E4996D"/>
<path d="M38.6532 87.3091C36.1658 87.7818 33.5092 87.9999 30.748 87.9999C27.9868 87.9999 25.3301 87.7818 22.8428 87.3091L26.3489 71.5752C27.3866 72.4265 28.9724 72.9689 30.748 72.9689C32.5236 72.9689 34.1094 72.4265 35.1471 71.5752L38.6532 87.3091Z" fill="#FCE3A0"/>
<path d="M17.3237 85.7296C21.0398 82.8922 22.2657 75.4483 23.2866 67.6258L13.6533 63.3877C12.608 66.9019 10.408 81.052 17.3237 85.7296Z" fill="#E4996D"/>
<path d="M43.3188 81.7807C46.1083 76.4244 47.7226 71.8379 48.0156 63.3877H34.2354V84.3197C34.2354 87.0117 35.7248 88 38.5962 88C41.968 88 44.7013 87.5621 44.7013 84.87C44.7013 83.6975 44.1828 82.6215 43.3188 81.7807Z" fill="#FFF1CF"/>
<path d="M13.4785 63.3877C13.7716 71.8378 15.3858 76.4244 18.1753 81.7807C17.3113 82.6217 16.7926 83.6975 16.7926 84.87C16.7926 87.5621 19.5259 88 22.8978 88C25.7691 88 27.2586 87.0117 27.2586 84.3197V63.3877H13.4785Z" fill="#FFF1CF"/>
<path d="M30.7232 12.6694C30.7232 17.4175 26.9048 20.5085 22.8999 23.3535C21.0935 19.4269 22.4902 15.8235 28.105 12.7392C28.9527 12.6938 29.8265 12.6694 30.7232 12.6694Z" fill="#EAAA83"/>
<path d="M28.1053 12.7393C25.6719 15.8198 23.8719 19.4235 22.9003 23.3536C21.3477 24.4577 19.7658 25.5235 18.3685 26.6347C12.1081 31.6147 10.1788 37.1634 10.1353 37.2839C9.06606 34.5191 8.50781 31.5188 8.50781 29.1623C8.50781 18.9718 15.6229 13.4108 28.1053 12.7393Z" fill="#E4996D"/>
</svg>
