<svg width="88" height="96" viewBox="0 0 88 96" fill="none" xmlns="http://www.w3.org/2000/svg">
<g clip-path="url(#clip0_4182_16572)">
<path d="M9.81047 63.2051C6.23923 63.2051 3.56723 71.438 3.56723 74.9739V75.945C3.56723 85.4161 11.3957 93.1096 20.9808 93.0179C30.4733 92.9262 38.0537 85.1259 38.0537 75.7274V71.6768H25.1212V75.8405C25.1212 78.1517 23.3085 80.1236 20.9763 80.2111C18.5235 80.3028 16.4995 78.3524 16.4995 75.945V74.9739C16.4997 71.438 13.3817 63.2051 9.81047 63.2051Z" fill="#FFBE73"/>
<path d="M37.5634 94.3149C39.8876 94.9553 42.4314 95.3859 45.1337 95.6518C50.6322 92.4864 56.0188 92.5496 61.3001 95.6518C64.0025 95.384 66.5444 94.9553 68.8688 94.3149C74.6465 89.1298 77.0831 69.1931 77.6914 59.6805C72.4132 49.8985 63.4212 41.7393 53.2161 41.7393C43.0111 41.7393 34.0191 49.8985 28.7409 59.6805C27.3209 66.3997 31.1453 88.4351 37.5634 94.3149Z" fill="#FFF1CF"/>
<path d="M23.7838 77.4279C23.7838 87.1124 29.285 92.0422 37.5634 94.3145C39.7539 92.6446 37.9772 80.9973 33.7729 70.4863C33.7729 70.4863 32.2336 63.0019 28.7409 59.6802C25.6103 65.4784 23.7838 71.8503 23.7838 77.4279Z" fill="#FDCB89"/>
<path d="M82.6484 77.4279C82.6484 87.1124 77.1472 92.0422 68.8688 94.3145C66.6783 92.6446 68.455 80.9973 72.6593 70.4863C72.6593 70.4863 74.1986 63.0019 77.6913 59.6802C80.8219 65.4784 82.6484 71.8503 82.6484 77.4279Z" fill="#FDCB89"/>
<path d="M68.8702 94.3161L63.1652 73.7431L72.6595 70.4868C72.6595 70.4866 75.5193 89.4105 68.8702 94.3161Z" fill="#FFBE73"/>
<path d="M37.5624 94.3156L43.2676 73.7426L33.7733 70.4863C33.7731 70.4862 30.9133 89.41 37.5624 94.3156Z" fill="#FFBE73"/>
<path d="M45.1349 84.9595V95.6533C47.7036 95.9066 50.4148 96.0133 53.2171 96.0133C56.0212 96.0133 58.7326 95.9066 61.3013 95.6516V84.9595C55.9124 88.0405 50.5237 88.0405 45.1349 84.9595Z" fill="#FFEAB7"/>
<path d="M38.577 89.5628C35.7243 84.0076 34.0734 79.2505 33.7739 70.4863H47.8657V92.1961C47.8657 94.9882 46.3425 96.0133 43.4062 96.0133C39.9582 96.0133 37.163 95.559 37.163 92.7669C37.163 91.5508 37.6934 90.4351 38.577 89.5628Z" fill="#FFF1CF"/>
<path d="M72.6602 70.4863C72.3604 79.2504 70.7098 84.0074 67.8571 89.5628C68.7407 90.4351 69.271 91.5508 69.271 92.7669C69.271 95.559 66.4758 96.0133 63.0279 96.0133C60.0915 96.0133 58.5683 94.9882 58.5683 92.1961V70.4863H72.6602Z" fill="#FFF1CF"/>
<path d="M32.2771 46.7413C32.8756 47.3208 50.5012 65.3291 53.8101 65.3291C59.7 65.3291 74.0872 47.4742 74.6211 46.9582C70.3615 37.9128 63.0364 30.4194 53.8101 30.4194C44.5852 30.4194 36.538 37.6974 32.2771 46.7413Z" fill="#FFEAB7"/>
<path d="M34.2213 55.4737C34.8184 58.705 38.792 66.4225 42.6029 70.5111H65.0178C70.2905 64.228 72.8022 58.7049 73.3993 55.4737C73.8121 53.2358 70.2199 53.1213 68.8152 52.2838C63.9461 55.2861 58.1292 56.4436 53.8104 56.4436C50.5015 56.4436 46.8625 55.7648 43.5646 54.5299C41.8778 53.8994 40.3024 53.1309 38.8689 52.2466C37.4682 53.1185 33.8017 53.2027 34.2213 55.4737Z" fill="#FFF1CF"/>
<path d="M25.8646 70.5108C26.2953 71.5278 32.0671 70.5108 33.1692 70.5108L33.1693 65.4426C32.9591 60.4448 34.9871 54.6634 38.8691 52.2463C38.8691 52.2463 37.3826 49.0012 36.0866 47.5637C35.4015 47.0297 32.279 46.7427 32.279 46.7427C31.129 49.181 24.7164 67.7978 25.8646 70.5108Z" fill="#FDCB89"/>
<path d="M32.2776 46.7409C32.876 47.3204 33.5186 47.8763 34.2038 48.4103C35.4998 49.8479 37.0738 51.138 38.8692 52.2459C39.4621 51.8761 39.8955 51.367 39.8955 50.4895C39.8955 48.2654 37.1604 44.9721 34.3964 42.8804C33.6135 44.1167 32.905 45.4095 32.2776 46.7409Z" fill="#FDC072"/>
<path d="M80.567 70.809C75.9469 72.0016 74.5252 70.5108 73.4231 70.5108L73.423 65.4426C73.6332 60.4448 71.6052 54.6633 67.7231 52.2463C67.7231 52.2463 69.2097 49.0012 70.5057 47.5636C71.1908 47.0296 74.3238 46.3618 74.3238 46.3618C75.4738 48.8001 81.7152 68.096 80.567 70.809Z" fill="#FDCB89"/>
<path d="M66.6939 50.4897C66.6939 51.3976 67.1576 51.9121 67.7835 52.2832C69.557 51.1905 71.2253 50.361 72.6287 48.7467C73.2313 48.2666 74.0873 47.474 74.6211 46.9579C73.9937 45.6265 73.4129 44.1195 72.6287 42.8818C69.8646 44.9737 66.6939 48.2656 66.6939 50.4897Z" fill="#FDC072"/>
<path d="M32.9603 18.9732C31.9439 15.2567 31.8722 10.7171 32.5346 5.53793C32.8793 2.84249 35.6953 1.21217 38.1953 2.26043C42.9991 4.27472 46.8836 6.60682 49.585 9.3478C48.2096 13.3764 37.127 19.793 32.9603 18.9732Z" fill="#FFD9A0"/>
<path d="M36.3195 14.2917C37.3889 13.8986 38.7284 13.2944 40.2626 12.406C41.7972 11.5177 42.9886 10.6566 43.8628 9.92432C42.3205 8.84834 40.4779 7.81534 38.3446 6.8307C37.4876 6.43508 36.4945 7.01017 36.4075 7.95209C36.1909 10.2982 36.1615 12.4146 36.3195 14.2917Z" fill="#FFF1CF"/>
<path d="M73.5201 18.9732C74.5366 15.2567 74.6083 10.7171 73.9459 5.53793C73.6012 2.84249 70.7852 1.21217 68.2851 2.26043C63.4813 4.27472 59.5968 6.60682 56.8955 9.3478C58.2708 13.3764 69.3534 19.793 73.5201 18.9732Z" fill="#FDCB89"/>
<path d="M70.1608 14.2917C69.0915 13.8986 67.752 13.2944 66.2177 12.406C64.6832 11.5177 63.4918 10.6566 62.6176 9.92432C64.1598 8.84834 66.0024 7.81534 68.1358 6.8307C68.9928 6.43508 69.9859 7.01017 70.0728 7.95209C70.2894 10.2982 70.3188 12.4146 70.1608 14.2917Z" fill="#FFEAB7"/>
<path d="M27.9939 34.3652C27.9939 42.9414 34.0971 47.9001 40.895 50.4539C73.0688 32.4331 63.4311 14.7432 55.7002 7.73267C55.7002 7.73267 55.6974 7.73816 55.7002 7.73267C54.8981 7.66236 54.0781 7.62646 53.2402 7.62646C37.4252 7.62646 27.9939 20.5005 27.9939 34.3652Z" fill="#FFD9A0"/>
<path d="M40.8948 50.4541C45.1859 52.067 49.7537 52.721 53.24 52.721C62.2489 52.721 78.4863 48.3543 78.4863 34.3654C78.4863 21.2361 70.0277 8.99398 55.6999 7.73291C59.8782 14.8246 63.0289 34.1474 42.2664 37.954C38.322 38.6783 38.0261 44.8566 40.8948 50.4541Z" fill="#FDCB89"/>
<path d="M31.5002 36.8131C31.5002 49.127 44.7549 54.1284 53.2396 54.1284C55.5014 54.1284 58.1018 53.7738 60.6992 53.0178C66.3996 49.5349 75.5026 37.6405 64.6589 31.7522C62.298 33.0615 58.2985 34.5515 53.2396 34.5515C47.3386 34.5515 42.8811 32.5248 40.7802 31.1202C37.9405 29.2231 34.1322 29.7418 32.5363 32.7675C31.8635 34.0426 31.5002 35.4016 31.5002 36.8131Z" fill="#FFF8E6"/>
<path d="M60.6993 53.018C67.848 50.9429 74.979 45.8449 74.979 36.8133C74.979 35.4018 74.6157 34.0428 73.943 32.768C72.3471 29.7423 68.5388 29.2236 65.6992 31.1207C65.3992 31.3207 65.0525 31.5346 64.6591 31.7525C70.9636 38.3693 64.1472 49.8972 60.6993 53.018Z" fill="#FFF1CF"/>
<path d="M56.794 18.9883C56.5626 17.6748 57.5886 16.3951 59.0855 16.1299C60.5824 15.8647 61.9835 16.7145 62.2149 18.028C62.4462 19.3415 61.4203 20.6212 59.9234 20.8864C58.4264 21.1516 57.0254 20.3018 56.794 18.9883Z" fill="#FFF8E6"/>
<path d="M46.5293 20.875C45.0324 20.6098 44.0065 19.3301 44.2379 18.0166C44.4692 16.7031 45.8703 15.8533 47.3672 16.1185C48.8641 16.3837 49.8901 17.6634 49.6587 18.9769C49.4273 20.2903 48.0263 21.1402 46.5293 20.875Z" fill="#FFF8E6"/>
<path d="M64.6122 37.5295C57.0311 40.507 49.4497 40.507 41.8686 37.5295C40.8836 37.1427 39.84 37.964 40.0018 39.0124C42.1979 53.243 64.2829 53.243 66.4789 39.0124C66.6408 37.964 65.5972 37.1426 64.6122 37.5295Z" fill="#858586"/>
<path d="M61.8319 28.9683C62.4019 28.9683 62.8638 28.505 62.8638 27.9335V26.2779C62.8638 25.7064 62.4018 25.2432 61.8319 25.2432C61.262 25.2432 60.8001 25.7064 60.8001 26.2779V27.9335C60.8001 28.505 61.262 28.9683 61.8319 28.9683Z" fill="#666667"/>
<path d="M44.6484 28.9683C45.2184 28.9683 45.6802 28.505 45.6802 27.9335V26.2779C45.6802 25.7064 45.2182 25.2432 44.6484 25.2432C44.0785 25.2432 43.6165 25.7064 43.6165 26.2779V27.9335C43.6165 28.505 44.0784 28.9683 44.6484 28.9683Z" fill="#666667"/>
<path d="M53.2403 54.1284C55.9519 54.1284 58.0843 51.8043 57.8592 49.0945L57.3844 43.381C57.2673 41.9713 55.8948 41.0201 54.5384 41.4088L53.5478 41.6926C53.3469 41.7501 53.1338 41.7501 52.9328 41.6926L51.9423 41.4088C50.5858 41.0201 49.2134 41.9711 49.0963 43.381L48.6215 49.0945C48.3962 51.8043 50.5286 54.1284 53.2403 54.1284Z" fill="#FFA1AC"/>
<path d="M49.1127 31.3152C47.2873 33.7767 44.3055 36.9521 44.3055 36.9521C44.0907 42.6708 49.4737 45.9929 53.2401 42.7416C57.0192 45.9955 62.3839 42.6615 62.1747 36.9521C62.1747 36.9521 59.5124 34.0049 57.6851 31.5421C53.5201 26.2225 53.2774 25.9953 49.1127 31.3152Z" fill="#FFF1CF"/>
<path d="M44.3046 36.9524C46.1743 35.8113 48.4761 35.0236 51.0117 34.7297C55.134 33.3943 57.4196 31.1057 57.1671 27.7097C53.7744 24.9861 50.383 25.7892 46.9915 30.1215C45.17 32.5773 44.3817 34.9173 44.3046 36.9524Z" fill="#FFD9A0"/>
<path d="M51.0122 34.7295C51.7373 34.6454 52.4815 34.6012 53.2397 34.6012C56.6504 34.6012 59.7708 35.4855 62.1743 36.9522C62.0973 34.9158 61.3089 32.5758 59.4874 30.1213C58.7143 29.1334 57.941 28.329 57.1677 27.7095C55.968 30.3862 54.006 32.8351 51.0122 34.7295Z" fill="#FDCB89"/>
<path d="M57.3677 35.2477C57.3677 37.1908 55.5197 39.4697 53.2403 39.4697C50.9608 39.4697 49.1129 37.1909 49.1129 35.2477C49.1129 33.3046 50.9607 32.4331 53.2401 32.4331C55.5196 32.4331 57.3677 33.3046 57.3677 35.2477Z" fill="#666667"/>
</g>
<defs>
<clipPath id="clip0_4182_16572">
<rect width="88" height="96" fill="white" transform="matrix(-1 0 0 1 88 0)"/>
</clipPath>
</defs>
</svg>
