<svg width="88" height="120" viewBox="0 0 88 120" fill="none" xmlns="http://www.w3.org/2000/svg">
<g clip-path="url(#clip0_4166_15474)">
<path d="M70.1237 95.94L56.2513 103.034C53.9665 104.202 51.166 103.29 49.996 100.998C48.826 98.7055 49.7297 95.9001 52.0145 94.7318L53.3935 94.0266L50.5689 88.4921L49.1899 89.1972C43.8588 91.9232 41.75 98.4695 44.48 103.819C47.2099 109.168 53.7447 111.294 59.076 108.568L73.5964 101.143C75.5752 100.132 77.9945 100.668 79.3687 102.422L82.8328 106.845C83.5869 107.808 85.1052 106.985 84.712 105.827L83.1603 101.256C81.3329 95.8732 75.1694 93.3599 70.1237 95.94Z" fill="#666667"/>
<path d="M54.4402 117.782C52.8052 118.336 51.0853 118.779 49.2968 119.118C49.2968 119.118 41.4794 114.172 39.2146 114.172C36.9498 114.172 29.1324 119.118 29.1324 119.118C27.3439 118.779 25.624 118.336 23.989 117.782C14.7904 107.489 13.4819 86.376 13.4819 67.0241C19.3706 55.4936 28.7051 46.5151 39.2144 46.5151C49.7236 46.5151 59.0582 55.4936 64.9468 67.0241C65.9403 87.3579 61.2384 109.984 54.4402 117.782Z" fill="#FFF1CF"/>
<path d="M71.4721 92.6097C71.4721 106.63 64.5779 114.35 54.4424 117.784C48.6873 113.989 56.0393 102.873 61.2384 88.5795C61.2384 88.5795 60.5356 71.1612 64.9471 67.0239C69.0429 75.0381 71.4721 84.2882 71.4721 92.6097Z" fill="#919191"/>
<path d="M6.95703 92.6097C6.95703 106.63 13.8512 114.35 23.9867 117.784C29.7419 113.989 22.3898 102.873 17.1907 88.5795C17.1907 88.5795 17.8935 71.1612 13.482 67.0239C9.38646 75.0381 6.95703 84.2882 6.95703 92.6097Z" fill="#919191"/>
<path d="M56.3338 117.102C51.5944 113.48 50.0311 103.977 48.729 93.9904L61.0149 88.5801C62.3481 93.0662 65.1539 111.13 56.3338 117.102Z" fill="#666667"/>
<path d="M49.2969 119.118C46.1245 119.722 42.7363 120 39.2148 120C35.6933 120 32.3051 119.722 29.1328 119.118L33.6043 99.0322C34.9279 100.119 36.9502 100.811 39.2148 100.811C41.4794 100.811 43.5018 100.119 44.8253 99.0322L49.2969 119.118Z" fill="#FCE3A0"/>
<path d="M22.094 117.102C26.8334 113.48 28.3967 103.977 29.6988 93.9904L17.4129 88.5801C16.0797 93.0662 13.2739 111.13 22.094 117.102Z" fill="#666667"/>
<path d="M55.2473 112.061C58.8049 105.223 60.8637 99.3676 61.2374 88.5801H43.6626V115.302C43.6626 118.738 45.5622 120 49.2242 120C53.5245 120 57.0105 119.441 57.0105 116.004C57.0105 114.507 56.3492 113.134 55.2473 112.061Z" fill="#FFF1CF"/>
<path d="M17.1899 88.5801C17.5637 99.3674 19.6224 105.223 23.1801 112.061C22.0782 113.134 21.4166 114.507 21.4166 116.004C21.4166 119.441 24.9026 120 29.2029 120C32.8649 120 34.7645 118.738 34.7645 115.302V88.5801H17.1899Z" fill="#FFF1CF"/>
<path d="M25.6801 29.5816C31.2023 28.607 34.782 22.725 33.732 16.764C32.3311 8.81184 24.8812 2.61599 21.7473 0.322239C20.9818 -0.238029 19.9062 -0.0482477 19.3782 0.740374C17.2169 3.96877 12.3334 12.3414 13.7343 20.2935C14.7843 26.2547 20.158 30.5563 25.6801 29.5816Z" fill="#FFF1CF"/>
<path d="M57.3898 56.2598C56.9665 57.1338 56.5176 57.9786 56.0459 58.7907C55.6595 59.4553 55.3611 60.1799 55.1595 60.9447C52.8963 69.5421 46.6227 75.3192 39.549 75.3192H39.5319C32.447 75.3192 26.1732 69.5419 23.91 60.9447C23.7083 60.1799 23.41 59.4553 23.0236 58.7907C22.5519 57.9786 22.1029 57.1338 21.6797 56.2598C25.6775 47.4876 32.1857 40.8511 39.5348 40.8511C46.884 40.8511 53.3921 47.4876 57.3898 56.2598Z" fill="#FFEAB7"/>
<path d="M60.4638 49.4834C59.4914 51.6755 58.2921 53.7643 56.8843 55.6559C56.2271 56.5374 55.7083 57.5192 55.3565 58.561C53.3116 64.6233 47.8189 68.9275 41.4239 69.4216C41.4239 69.4216 40.7283 67.7538 40.308 67.7538C40.0962 67.7538 39.7458 68.1779 39.4507 68.5969C22.4573 55.666 23.0912 20.0402 39.0537 12.0211C39.4223 12.0094 39.7959 12.0044 40.1728 12.0044C40.4513 12.0044 40.7283 12.0078 41.0018 12.0144L60.4638 49.4834Z" fill="#FFF8E6"/>
<path d="M39.4508 68.5973C39.1607 69.0113 38.922 69.422 38.922 69.422C32.527 68.9277 27.0343 64.6237 24.9894 58.5614C24.6374 57.5196 24.1186 56.5378 23.4616 55.6563C19.1666 49.8894 16.8213 42.2795 16.8213 35.5477C16.8213 20.3978 24.9211 12.4173 39.0538 12.0215C26.9577 21.4997 23.8669 49.2867 39.4508 68.5973Z" fill="#FFF1CF"/>
<path d="M41.4237 59.3102V69.4213C41.01 69.4547 40.5931 69.4698 40.1728 69.4698C39.7525 69.4698 39.3354 69.4547 38.9219 69.4213V59.3102C38.9219 58.619 39.4822 58.0581 40.1728 58.0581C40.8634 58.0579 41.4237 58.619 41.4237 59.3102Z" fill="#858586"/>
<path d="M63.5244 35.5471C63.5244 40.0717 62.4652 44.9919 60.4637 49.4831C48.4026 48.8438 38.7949 37.3619 38.7949 23.2939C38.7949 19.2552 39.5855 15.4301 41.0016 12.0142C55.3131 12.308 63.5244 20.2937 63.5244 35.5471Z" fill="#919191"/>
<path d="M33.5015 55.9803C33.5015 59.1153 36.4886 62.7921 40.1733 62.7921C43.8581 62.7921 46.8452 59.1153 46.8452 55.9803C46.8452 52.8452 43.8581 51.439 40.1733 51.439C36.4886 51.439 33.5015 52.8452 33.5015 55.9803Z" fill="#666667"/>
<path d="M29.7573 37.8832C29.0662 37.8832 28.5063 37.3226 28.5063 36.6311V34.6276C28.5063 33.9361 29.0664 33.3755 29.7573 33.3755C30.4481 33.3755 31.0082 33.9361 31.0082 34.6276V36.6311C31.0082 37.3226 30.4483 37.8832 29.7573 37.8832Z" fill="#666667"/>
<path d="M50.5903 37.8832C49.8992 37.8832 49.3394 37.3226 49.3394 36.6311V34.6276C49.3394 33.9361 49.8994 33.3755 50.5903 33.3755C51.2812 33.3755 51.8412 33.9361 51.8412 34.6276V36.6311C51.8412 37.3226 51.2813 37.8832 50.5903 37.8832Z" fill="#666667"/>
<path d="M24.1057 24.711C24.341 24.711 24.5783 24.6902 24.811 24.649C27.5125 24.1722 29.3782 20.8941 28.8041 17.6338C28.1222 13.7633 25.2731 10.2432 23.0031 7.97177C22.8232 7.79188 22.644 7.61652 22.4659 7.44619C22.0562 7.05415 21.3877 7.17213 21.1367 7.6807C21.0276 7.90192 20.919 8.12801 20.8115 8.35863C19.4545 11.27 17.98 15.5531 18.6618 19.4238C19.1843 22.3885 21.5755 24.711 24.1057 24.711Z" fill="#EC9EB0"/>
<path d="M54.6667 29.5816C49.1446 28.607 45.5649 22.725 46.6149 16.764C48.0157 8.81184 55.4656 2.61599 58.5995 0.322239C59.365 -0.238029 60.4406 -0.0482477 60.9686 0.740374C63.13 3.96877 68.0134 12.3414 66.6125 20.2935C65.5625 26.2547 60.1888 30.5563 54.6667 29.5816Z" fill="#919191"/>
<path d="M56.2414 24.7114C56.0062 24.7114 55.7688 24.6907 55.5361 24.6495C52.8346 24.1727 50.9689 20.8946 51.5431 17.6343C52.2249 13.7638 55.074 10.2436 57.344 7.97226C57.5239 7.79237 57.7031 7.61701 57.8812 7.44668C58.2909 7.05463 58.9594 7.17262 59.2104 7.68119C59.3195 7.90241 59.4282 8.1285 59.5357 8.35912C60.8926 11.2705 62.3672 15.5536 61.6854 19.4243C61.1629 22.389 58.7716 24.7114 56.2414 24.7114Z" fill="#F1B3C1"/>
</g>
<defs>
<clipPath id="clip0_4166_15474">
<rect width="88" height="120" fill="white"/>
</clipPath>
</defs>
</svg>
