<svg width="20" height="20" viewBox="0 0 20 20" fill="none" xmlns="http://www.w3.org/2000/svg">
<g clip-path="url(#clip0_3707_11678)">
<path d="M10.548 4.40005L10 4.96208L9.45197 4.40006C7.74723 2.65183 4.9833 2.65183 3.27856 4.40006C1.6196 6.10135 1.56863 8.84311 3.16314 10.608L7.74421 15.6786C8.96123 17.0256 11.0388 17.0256 12.2558 15.6786L16.8369 10.608C18.4314 8.84309 18.3804 6.10133 16.7214 4.40005C15.0167 2.65182 12.2528 2.65182 10.548 4.40005Z" fill="#E54949"/>
<path fill-rule="evenodd" clip-rule="evenodd" d="M13.3999 5.6C13.3999 5.26863 13.6685 5 13.9999 5C15.2149 5 16.1999 5.98497 16.1999 7.2C16.1999 7.53137 15.9313 7.8 15.5999 7.8C15.2685 7.8 14.9999 7.53137 14.9999 7.2C14.9999 6.64771 14.5522 6.2 13.9999 6.2C13.6685 6.2 13.3999 5.93137 13.3999 5.6Z" fill="#E54949"/>
</g>
<defs>
<clipPath id="clip0_3707_11678">
<rect width="19.2" height="19.2" fill="white" transform="translate(0.399902 0.399902)"/>
</clipPath>
</defs>
</svg>
