<svg width="88" height="88" viewBox="0 0 88 88" fill="none" xmlns="http://www.w3.org/2000/svg">
<g clip-path="url(#clip0_4182_16620)">
<path d="M58.8654 24.715C61.0882 20.0202 62.1239 13.8602 62.2673 6.59918C62.3104 4.4131 60.3672 2.72203 58.2036 3.0381C50.6246 4.14532 44.8421 6.36835 41.0371 9.75549C41.8338 14.8411 53.7186 24.8136 58.8654 24.715Z" fill="#EAAA83"/>
<path d="M55.6318 17.9334C54.5235 17.2624 53.1977 16.3377 51.7347 15.1102C50.1053 13.7429 48.8752 12.4776 47.9971 11.4364C49.8265 10.5067 52.0121 9.73721 54.5419 9.13289C55.7182 8.85188 56.8304 9.7965 56.7278 11.0015C56.5087 13.5774 56.1426 15.8917 55.6318 17.9334Z" fill="#FAD5CB"/>
<path d="M5.53153 24.715C3.30867 20.0202 2.27295 13.8602 2.12961 6.59918C2.08647 4.4131 4.02969 2.72203 6.19325 3.0381C13.7723 4.14532 19.5548 6.36835 23.3598 9.75549C22.5631 14.8411 10.6783 24.8136 5.53153 24.715Z" fill="#E4996D"/>
<path d="M8.76572 17.9334C9.87397 17.2624 11.1998 16.3377 12.6628 15.1102C14.2922 13.7429 15.5223 12.4776 16.4004 11.4364C14.571 10.5067 12.3854 9.73721 9.85558 9.13289C8.67927 8.85188 7.56707 9.7965 7.66968 11.0015C7.88882 13.5774 8.25491 15.8917 8.76572 17.9334Z" fill="#FDC4B5"/>
<path d="M82.5157 44.9639H78.9743C73.107 44.9639 68.3506 49.7203 68.3506 55.5876V75.0645C68.3506 77.9982 65.9723 80.3763 63.0388 80.3763C60.105 80.3763 57.727 77.9981 57.727 75.0645V73.2939H50.6445V75.0645C50.6445 81.9098 56.1937 87.4589 63.039 87.4589C69.8842 87.4589 75.4334 81.9098 75.4334 75.0645V55.5876C75.4334 53.6319 77.0189 52.0463 78.9747 52.0463H82.516C84.4718 52.0463 86.0573 50.4608 86.0573 48.505C86.057 46.5492 84.4714 44.9639 82.5157 44.9639Z" fill="#EAAA83"/>
<path d="M61.4148 72.8105C61.4148 82.2887 55.9542 87.1118 47.7386 89.3375C43.6717 88.5896 40.7323 86.5044 40.2223 86.6744L24.1752 86.6727C23.6635 86.5044 18.9387 88.9045 16.6589 89.3375C8.44313 87.1118 2.98438 82.2868 2.98438 72.8105C2.98438 58.1427 16.0639 37.8813 32.1997 37.8813C48.3334 37.8815 61.4148 58.1427 61.4148 72.8105Z" fill="#DF8A57"/>
<path d="M16.6603 89.339L22.3233 69.204L12.899 66.0171C12.899 66.0169 10.0603 84.5378 16.6603 89.339Z" fill="#D97C41"/>
<path d="M47.7373 89.339L42.0742 69.204L51.4985 66.0171C51.4986 66.0169 54.3373 84.5378 47.7373 89.339Z" fill="#D97C41"/>
<path d="M40.2211 80.1816V90.6478C37.6713 90.8956 34.9801 91.0001 32.1983 91.0001C29.415 91.0001 26.7236 90.8956 24.1738 90.6461V80.1816C29.5231 83.197 34.872 83.197 40.2211 80.1816Z" fill="#D97C41"/>
<path d="M46.731 84.6869C49.5626 79.2499 51.2013 74.5942 51.4986 66.0166H37.5107V87.2641C37.5107 89.9968 39.0227 91 41.9374 91C45.3599 91 48.1345 90.5554 48.1345 87.8227C48.1345 86.6325 47.6079 85.5406 46.731 84.6869Z" fill="#DF8A57"/>
<path d="M12.8994 66.0166C13.1969 74.594 14.8354 79.2498 17.6671 84.6869C16.79 85.5406 16.2635 86.6325 16.2635 87.8227C16.2635 90.5554 19.0381 91 22.4606 91C25.3753 91 26.8873 89.9968 26.8873 87.2641V66.0166H12.8994Z" fill="#DF8A57"/>
<path d="M60.527 33.3911C60.527 50.8849 44.0638 53.061 35.7895 49.4986C34.9857 49.1516 34.1464 48.9267 33.2965 48.8222C23.359 44.564 18.1113 36.754 18.1113 27.9453C18.1113 19.3931 21.7635 10.0268 32.8185 4.42383C50.1901 4.80625 60.527 21.1969 60.527 33.3911Z" fill="#EAAA83"/>
<path d="M33.2968 48.8221C31.7156 48.6291 30.0991 48.8539 28.6046 49.4985C20.3306 53.0609 3.86719 50.8848 3.86719 33.391C3.86719 21.0516 14.4537 4.41479 32.1989 4.4165C32.406 4.4165 32.6131 4.41822 32.8187 4.42355C27.6183 10.0683 24.4081 17.8166 24.4081 26.3687C24.4083 35.1777 27.815 43.1365 33.2968 48.8221Z" fill="#E4996D"/>
<path d="M18.1117 35.3602C20.9823 35.3602 23.3094 33.5071 23.3094 31.2211C23.3094 28.9352 20.9823 27.082 18.1117 27.082C15.2411 27.082 12.9141 28.9352 12.9141 31.2211C12.9141 33.5071 15.2411 35.3602 18.1117 35.3602Z" fill="#FFA1AC"/>
<path d="M46.2846 35.3602C49.1552 35.3602 51.4823 33.5071 51.4823 31.2211C51.4823 28.9352 49.1552 27.082 46.2846 27.082C43.414 27.082 41.0869 28.9352 41.0869 31.2211C41.0869 33.5071 43.414 35.3602 46.2846 35.3602Z" fill="#FFA1AC"/>
<path d="M21.1404 28.5642C20.4068 28.5642 19.8125 27.9697 19.8125 27.2363V25.1116C19.8125 24.378 20.407 23.7837 21.1404 23.7837C21.8738 23.7837 22.4683 24.3782 22.4683 25.1116V27.2363C22.4683 27.9699 21.8738 28.5642 21.1404 28.5642Z" fill="#666667"/>
<path d="M43.2547 28.5642C42.5211 28.5642 41.9268 27.9697 41.9268 27.2363V25.1116C41.9268 24.378 42.5213 23.7837 43.2547 23.7837C43.9881 23.7837 44.5826 24.3782 44.5826 25.1116V27.2363C44.5826 27.9699 43.9881 28.5642 43.2547 28.5642Z" fill="#666667"/>
<path d="M41.0512 42.5256C41.0512 44.8097 37.5966 48.2324 33.1559 48.675C29.2102 46.7123 27.1802 43.8203 27.3519 40.0556C28.7435 39.898 30.4097 39.8696 32.198 39.8696C37.0884 39.8698 41.0512 40.0822 41.0512 42.5256Z" fill="#FFF8E6"/>
<path d="M33.1557 48.675C32.8424 48.7068 32.5218 48.7228 32.1978 48.7228C27.3092 48.7228 23.3447 44.9708 23.3447 42.5257C23.3447 40.9764 24.9384 40.3248 27.3516 40.0557C28.8195 43.2783 30.7919 46.1892 33.1557 48.675Z" fill="#FFE7AE"/>
<path d="M42.42 41.8277C43.2561 39.5296 41.6984 36.8533 38.9408 35.85C36.1832 34.8467 33.2699 35.8963 32.4338 38.1944C31.5977 40.4925 33.1554 43.1688 35.913 44.1721C38.6706 45.1754 41.5839 44.1258 42.42 41.8277Z" fill="#FFF8E6"/>
<path d="M29.3646 43.7902C24.979 42.2534 23.8708 39.5192 25.7525 35.7693C28.4225 34.9336 31.1653 35.9888 31.9726 38.2075C32.7163 40.2489 31.5672 42.5913 29.3646 43.7902Z" fill="#FFEAB7"/>
<path d="M29.3651 43.7899C29.0906 43.9405 28.8003 44.0715 28.4957 44.183C25.7388 45.1869 22.8262 44.1369 21.9904 41.8405C21.1548 39.5422 22.7111 36.8668 25.468 35.8646C25.5618 35.8309 25.6574 35.7974 25.7529 35.769C26.5992 38.6445 27.8245 41.3411 29.3651 43.7899Z" fill="#FFEAB7"/>
<path d="M35.74 45.329C35.6192 45.329 35.4965 45.3123 35.3744 45.2776L35.338 45.2673C32.7075 44.5162 30.8701 42.0532 30.8701 39.2781V35.4378C30.8701 34.7042 31.4646 34.1099 32.198 34.1099C32.9314 34.1099 33.5259 34.7044 33.5259 35.4378V39.2781C33.5259 40.8737 34.5709 42.2861 36.0674 42.7134L36.1041 42.7237C36.8093 42.9253 37.2176 43.6603 37.016 44.3655C36.8496 44.9486 36.318 45.329 35.74 45.329Z" fill="#666667"/>
<path d="M28.6568 45.329C28.0789 45.329 27.5471 44.9488 27.3806 44.3655C27.179 43.6601 27.5874 42.9253 28.2926 42.7237L28.3338 42.7122C29.8255 42.2861 30.8707 40.8737 30.8707 39.2781V35.4378C30.8707 34.7042 31.4652 34.1099 32.1986 34.1099C32.9322 34.1099 33.5265 34.7044 33.5265 35.4378V39.2781C33.5265 42.0532 31.6892 44.5162 29.0584 45.2673L29.0222 45.2776C28.9005 45.3123 28.7776 45.329 28.6568 45.329Z" fill="#666667"/>
<path d="M28.0322 33.3506C28.0322 35.3064 29.8974 37.6 32.1985 37.6C34.4994 37.6 36.3647 35.3064 36.3647 33.3506C36.3647 31.3948 34.4995 30.5176 32.1985 30.5176C29.8974 30.5178 28.0322 31.3948 28.0322 33.3506Z" fill="#66666A"/>
</g>
<defs>
<clipPath id="clip0_4182_16620">
<rect width="88" height="88" fill="white"/>
</clipPath>
</defs>
</svg>
