<svg width="124" height="124" viewBox="0 0 124 124" fill="none" xmlns="http://www.w3.org/2000/svg">
<path d="M82.9468 30.5984C86.079 23.983 87.5385 15.303 87.7404 5.07158C87.8012 1.99119 85.0631 -0.391691 82.0144 0.053692C71.3349 1.61386 63.1867 4.74632 57.8252 9.51911C58.9477 16.6852 75.6945 30.7374 82.9468 30.5984Z" fill="#A8A8A8"/>
<path d="M78.3898 21.0423C76.8282 20.0968 74.9599 18.7938 72.8984 17.0641C70.6025 15.1375 68.8692 13.3546 67.6318 11.8874C70.2097 10.5774 73.2893 9.49311 76.8541 8.64158C78.5116 8.24561 80.0788 9.57667 79.9342 11.2746C79.6254 14.9043 79.1096 18.1654 78.3898 21.0423Z" fill="#FAD5CB"/>
<path d="M7.79461 30.5984C4.6624 23.983 3.20298 15.303 3.00099 5.07158C2.9402 1.99119 5.67838 -0.391691 8.72703 0.053692C19.4065 1.61386 27.5547 4.74632 32.9162 9.51911C31.7937 16.6852 15.0469 30.7374 7.79461 30.5984Z" fill="#9C9C9C"/>
<path d="M12.3516 21.0423C13.9132 20.0968 15.7814 18.7938 17.8429 17.0641C20.1389 15.1375 21.8722 13.3546 23.1095 11.8874C20.5317 10.5774 17.452 9.49311 13.8873 8.64158C12.2297 8.24561 10.6626 9.57667 10.8071 11.2746C11.1159 14.9043 11.6318 18.1654 12.3516 21.0423Z" fill="#FDC4B5"/>
<path d="M116.272 59.1306H111.282C103.014 59.1306 96.3117 65.8329 96.3117 74.1005V101.545C96.3117 105.679 92.9606 109.03 88.8269 109.03C84.693 109.03 81.3421 105.679 81.3421 101.545V99.0501H71.3623V101.545C71.3623 111.191 79.1816 119.01 88.8272 119.01C98.4728 119.01 106.292 111.191 106.292 101.545V74.1005C106.292 71.3446 108.526 69.1104 111.282 69.1104H116.272C119.028 69.1104 121.262 66.8763 121.262 64.1204C121.262 61.3646 119.027 59.1306 116.272 59.1306Z" fill="#919191"/>
<path d="M86.5389 98.3689C86.5389 111.725 78.8444 118.521 67.2678 121.657C61.5372 120.603 57.3953 117.665 56.6767 117.905L34.0649 117.902C33.3439 117.665 26.6861 121.047 23.4738 121.657C11.897 118.521 4.20508 111.722 4.20508 98.3689C4.20508 77.7007 22.6353 49.1506 45.3721 49.1506C68.106 49.1509 86.5389 77.7007 86.5389 98.3689Z" fill="#919191"/>
<path d="M23.4757 121.659L31.4553 93.287L18.1757 88.7964C18.1757 88.7961 14.1757 114.894 23.4757 121.659Z" fill="#858586"/>
<path d="M67.265 121.659L59.2852 93.287L72.5648 88.7964C72.565 88.7961 76.565 114.894 67.265 121.659Z" fill="#858586"/>
<path d="M56.6756 108.756V123.503C53.0827 123.853 49.2905 124 45.3707 124C41.4487 124 37.6563 123.853 34.0635 123.501V108.756C41.6011 113.005 49.1382 113.005 56.6756 108.756Z" fill="#858586"/>
<path d="M65.8476 115.104C69.8377 107.443 72.1467 100.883 72.5657 88.7961H52.8555V118.736C52.8555 122.586 54.986 124 59.093 124C63.9157 124 67.8253 123.373 67.8253 119.523C67.8253 117.846 67.0833 116.307 65.8476 115.104Z" fill="#919191"/>
<path d="M18.1758 88.7961C18.595 100.883 20.9038 107.443 24.8938 115.104C23.6579 116.307 22.9161 117.846 22.9161 119.523C22.9161 123.373 26.8257 124 31.6484 124C35.7554 124 37.886 122.586 37.886 118.736V88.7961H18.1758Z" fill="#919191"/>
<path d="M85.289 42.8237C85.289 67.474 62.0908 70.5403 50.4317 65.5205C49.299 65.0315 48.1164 64.7147 46.9188 64.5675C32.916 58.5673 25.5215 47.5623 25.5215 35.1499C25.5215 23.0992 30.6677 9.90117 46.2452 2.0061C70.7234 2.54497 85.289 25.6409 85.289 42.8237Z" fill="#A8A8A8"/>
<path d="M46.9192 64.5674C44.6911 64.2954 42.4133 64.6122 40.3075 65.5204C28.6486 70.5402 5.4502 67.4739 5.4502 42.8236C5.4502 25.4362 20.3675 1.99343 45.3721 1.99585C45.664 1.99585 45.9558 1.99827 46.2455 2.00578C38.9176 9.9597 34.3943 20.8778 34.3943 32.9285C34.3945 45.3411 39.1949 56.5559 46.9192 64.5674Z" fill="#9C9C9C"/>
<path d="M25.5222 45.5983C29.5672 45.5983 32.8462 42.9871 32.8462 39.766C32.8462 36.5448 29.5672 33.9336 25.5222 33.9336C21.4773 33.9336 18.1982 36.5448 18.1982 39.766C18.1982 42.9871 21.4773 45.5983 25.5222 45.5983Z" fill="#FFA1AC"/>
<path d="M65.2205 45.5983C69.2654 45.5983 72.5445 42.9871 72.5445 39.766C72.5445 36.5448 69.2654 33.9336 65.2205 33.9336C61.1755 33.9336 57.8965 36.5448 57.8965 39.766C57.8965 42.9871 61.1755 45.5983 65.2205 45.5983Z" fill="#FFA1AC"/>
<path d="M29.7901 36.0226C28.7564 36.0226 27.9189 35.1849 27.9189 34.1514V31.1575C27.9189 30.1239 28.7567 29.2864 29.7901 29.2864C30.8235 29.2864 31.6612 30.1241 31.6612 31.1575V34.1514C31.6612 35.1851 30.8235 36.0226 29.7901 36.0226Z" fill="#666667"/>
<path d="M60.9512 36.0226C59.9176 36.0226 59.0801 35.1849 59.0801 34.1514V31.1575C59.0801 30.1239 59.9178 29.2864 60.9512 29.2864C61.9846 29.2864 62.8224 30.1241 62.8224 31.1575V34.1514C62.8224 35.1851 61.9846 36.0226 60.9512 36.0226Z" fill="#666667"/>
<path d="M57.8441 55.6952C57.8441 58.9136 52.9764 63.7365 46.719 64.3601C41.1591 61.5946 38.2986 57.5196 38.5405 52.2147C40.5015 51.9926 42.8493 51.9526 45.3693 51.9526C52.2602 51.9529 57.8441 52.2522 57.8441 55.6952Z" fill="#B7B7B7"/>
<path d="M46.7191 64.3601C46.2776 64.4049 45.8259 64.4274 45.3694 64.4274C38.4808 64.4274 32.8945 59.1404 32.8945 55.6951C32.8945 53.512 35.1401 52.5939 38.5406 52.2146C40.6089 56.7556 43.3883 60.8573 46.7191 64.3601Z" fill="#A8A8A8"/>
<path d="M59.773 54.7119C60.9512 51.4737 58.7563 47.7025 54.8706 46.2888C50.9848 44.8751 46.8798 46.3541 45.7016 49.5923C44.5234 52.8305 46.7184 56.6016 50.6041 58.0154C54.4898 59.4291 58.5949 57.9501 59.773 54.7119Z" fill="#C6C6C6"/>
<path d="M41.3778 57.4765C35.1982 55.3111 33.6365 51.4584 36.288 46.1744C40.0504 44.9968 43.9152 46.4836 45.0528 49.61C46.1007 52.4865 44.4814 55.7873 41.3778 57.4765Z" fill="#C6C6C6"/>
<path d="M41.3776 57.4765C40.9909 57.6886 40.5818 57.8732 40.1526 58.0304C36.268 59.445 32.1638 57.9655 30.9861 54.7296C29.8086 51.4911 32.0016 47.7212 35.8863 46.309C36.0185 46.2615 36.1532 46.2143 36.2878 46.1743C37.4803 50.2261 39.2069 54.0258 41.3776 57.4765Z" fill="#B7B7B7"/>
<path d="M50.3612 59.6455C50.1909 59.6455 50.018 59.622 49.846 59.573L49.7947 59.5585C46.088 58.5002 43.499 55.0296 43.499 51.1192V45.7078C43.499 44.6742 44.3367 43.8367 45.3702 43.8367C46.4036 43.8367 47.2413 44.6744 47.2413 45.7078V51.1192C47.2413 53.3675 48.7138 55.3578 50.8225 55.9598L50.8741 55.9744C51.8678 56.2585 52.4432 57.2941 52.1592 58.2878C51.9247 59.1095 51.1756 59.6455 50.3612 59.6455Z" fill="#666667"/>
<path d="M40.3796 59.6455C39.5653 59.6455 38.816 59.1097 38.5813 58.2878C38.2973 57.2938 38.8727 56.2585 39.8664 55.9744L39.9245 55.9582C42.0265 55.3578 43.4992 53.3675 43.4992 51.1192V45.7078C43.4992 44.6742 44.3369 43.8367 45.3703 43.8367C46.404 43.8367 47.2415 44.6744 47.2415 45.7078V51.1192C47.2415 55.0296 44.6525 58.5002 40.9456 59.5585L40.8945 59.573C40.723 59.622 40.5498 59.6455 40.3796 59.6455Z" fill="#666667"/>
<path d="M39.5 42.7666C39.5 45.5225 42.1282 48.7545 45.3706 48.7545C48.6128 48.7545 51.2412 45.5225 51.2412 42.7666C51.2412 40.0108 48.613 38.7747 45.3706 38.7747C42.1282 38.7749 39.5 40.0108 39.5 42.7666Z" fill="#66666A"/>
</svg>
