<svg width="48" height="48" viewBox="0 0 48 48" fill="none" xmlns="http://www.w3.org/2000/svg">
<path d="M41.1705 39.1989C43.0713 37.5925 44.8529 35.5532 46.2894 33.1853C46.5087 32.8238 46.1844 32.3714 45.7721 32.4654C45.6752 32.4875 45.5781 32.5106 45.481 32.5348C45.2232 32.599 45.0202 32.3152 45.1678 32.0942C46.3413 30.3369 47.3099 28.3539 47.9756 26.2568C48.1099 25.8339 47.6548 25.4663 47.272 25.6905C47.0253 25.8351 46.779 25.9946 46.5415 26.1652C46.3187 26.3252 46.0184 26.1188 46.0905 25.8541C46.5784 24.0634 46.7173 23.0709 46.7077 21.4377C46.7051 20.9878 46.1416 20.7861 45.8532 21.1314C44.8339 22.352 44.2565 23.0749 43.2237 24.4242C43.061 24.6369 42.7248 24.5364 42.7013 24.2695C42.6772 23.9956 42.6322 23.7235 42.5701 23.4629C42.4722 23.0525 41.9376 22.9487 41.6977 23.2959C40.7444 24.6761 39.8175 26.0134 38.9212 27.3107C38.6892 27.6465 38.1772 27.5588 38.0599 27.1678C38.0513 27.1395 38.0427 27.1113 38.0339 27.0831C37.9264 26.7397 37.4908 26.6302 37.2351 26.8834C35.2131 28.886 33.4242 31.347 32.3735 34.3726C32.2472 33.852 30.1546 37.585 29.8999 37.1128C24.5386 42.7192 22.1825 40.9156 21.8506 44.9759C23.0426 46.52 25.9223 47.4609 29.7794 46.8415C33.4084 46.2748 37.9232 44.2939 41.7672 40.5771C42.0393 40.314 41.9196 39.8497 41.5518 39.7606C41.469 39.7405 41.3856 39.7219 41.3015 39.7045C41.0626 39.655 40.9844 39.3562 41.1705 39.1989Z" fill="#FFD9A0"/>
<path d="M34.3384 38.0786C34.3384 44.7001 29.4515 47.1571 22.7789 47.808C19.8615 45.3474 16.9438 45.3474 14.0259 47.8071C7.35325 47.1571 2.46729 44.7001 2.46729 38.0786C2.46729 30.078 9.60157 19.0264 18.4029 19.0264C27.2031 19.0264 34.3384 30.0779 34.3384 38.0786Z" fill="#FDCB89"/>
<path d="M9.92714 47.0941L13.0161 36.1114L7.87561 34.373C7.87552 34.373 6.32714 44.4753 9.92714 47.0941Z" fill="#FFF8E6"/>
<path d="M26.8779 47.0936L23.7891 36.1109L28.9296 34.3726C28.9296 34.3725 30.4778 44.4748 26.8779 47.0936Z" fill="#FFF8E6"/>
<path d="M22.7784 42.0986V47.8074C21.3876 47.9426 19.9196 47.9996 18.4024 47.9996C16.8842 47.9996 15.4162 47.9426 14.0254 47.8065V42.0986C16.943 43.7434 19.8607 43.7434 22.7784 42.0986Z" fill="#FFF8E6"/>
<path d="M26.329 44.5563C27.8736 41.5907 28.7673 39.0512 28.9296 34.3726H21.2998V45.9621C21.2998 47.4527 22.1245 47.9999 23.7143 47.9999C25.5812 47.9999 27.0946 47.7573 27.0946 46.2668C27.0946 45.6176 26.8074 45.022 26.329 44.5563Z" fill="#FDCB89"/>
<path d="M7.87598 34.3726C8.03826 39.0512 8.93198 41.5907 10.4765 44.5563C9.9981 45.022 9.71095 45.6176 9.71095 46.2668C9.71095 47.7573 11.2244 47.9999 13.0912 47.9999C14.681 47.9999 15.5057 47.4527 15.5057 45.9621V34.3726H7.87598Z" fill="#FDCB89"/>
<path d="M29.2498 28.6132C29.5829 29.8562 29.6248 31.1762 29.3259 32.5348C29.2669 32.8028 28.9999 32.9708 28.7338 32.9039C28.0879 32.7415 27.471 32.5633 26.8816 32.3711C26.5786 32.2723 26.2692 32.4927 26.2526 32.8109C26.1902 34.0047 25.8525 35.2338 25.207 36.4624C25.0983 36.6692 24.856 36.7698 24.6334 36.699C23.7735 36.4251 22.9421 36.0694 22.3296 35.6937C22.1058 35.5564 21.8134 35.6239 21.6723 35.8453C20.8375 37.1537 20.298 37.7062 18.7019 38.9632C18.5263 39.1015 18.2786 39.1015 18.103 38.9632C16.507 37.7062 15.9674 37.1537 15.1326 35.8453C14.9914 35.6239 14.6989 35.5564 14.4753 35.6937C13.8628 36.0694 13.0315 36.4251 12.1714 36.699C11.9489 36.7698 11.7065 36.6692 11.5979 36.4624C10.9525 35.2339 10.6147 34.0048 10.5523 32.8109C10.5357 32.4927 10.2263 32.2723 9.92332 32.371C9.33391 32.5632 8.71694 32.7414 8.0711 32.9038C7.80494 32.9707 7.53794 32.8027 7.47897 32.5347C7.1801 31.176 7.222 29.856 7.5551 28.6131C7.64716 28.2697 7.354 27.9462 7.00441 28.0105C6.50022 28.1033 5.98141 28.1855 5.44778 28.2565C5.1446 28.2968 4.88041 28.0482 4.90103 27.743C5.28213 22.1042 11.1564 17.7673 18.4025 16.9844C25.6487 17.7672 31.5229 22.1042 31.904 27.743C31.9247 28.0482 31.6604 28.2968 31.3573 28.2565C30.8236 28.1855 30.3048 28.1033 29.8007 28.0105C29.4508 27.9463 29.1577 28.2698 29.2498 28.6132Z" fill="#FFF8E6"/>
<path d="M4.61556 11.7216C2.97681 9.41028 1.83709 6.19943 1.07228 2.31256C0.842032 1.14237 1.72572 0.0499024 2.91784 0.0147461C7.09394 -0.108348 10.4107 0.538059 12.7754 1.99709C12.8292 4.80453 7.38953 11.2872 4.61556 11.7216Z" fill="#FDCB89"/>
<path d="M35.5464 17.4994C35.4189 17.4588 35.2895 17.4211 35.1571 17.3865C34.795 17.2928 34.4627 17.6356 34.5747 17.993C35.0074 19.3654 34.7679 20.8885 34.3893 22.1556C34.1875 22.8327 33.2883 22.9669 32.8914 22.3826C32.8856 22.3729 32.8788 22.3633 32.8721 22.3536C32.5118 21.8292 31.7517 21.7809 31.3403 22.2667C29.5864 24.3364 26.9478 25.7078 23.5347 26.3626C15.0572 25.366 10.7188 18.0913 10.7188 11.7219C10.7188 7.22414 14.7709 2.17748 19.4069 0.0292969C22.7833 0.223453 25.646 1.39298 27.9117 3.11789C30.3987 5.01277 32.1642 7.57795 33.0952 10.2629C34.7245 11.2875 36.1317 14.1473 36.7652 16.3107C36.9825 17.0514 36.2814 17.7361 35.5464 17.4994Z" fill="#FFD9A0"/>
<path d="M23.535 26.3628C21.9821 26.6612 20.2678 26.8109 18.4028 26.8109C12.44 26.8109 8.01661 25.2782 5.46501 22.2669C5.05354 21.781 4.29351 21.8293 3.93323 22.3538C3.92648 22.3634 3.91973 22.3731 3.91298 22.3827C3.51698 22.9671 2.61783 22.8328 2.41504 22.1558C2.03648 20.8886 1.79695 19.3656 2.22961 17.9932C2.34258 17.6358 2.01032 17.293 1.64723 17.3866C1.51589 17.4214 1.38651 17.4591 1.25901 17.4996C0.524013 17.7362 -0.177144 17.0515 0.0401689 16.3106C0.673731 14.1473 2.08092 11.2895 3.70926 10.2648C5.57029 4.89518 10.772 0.000488281 18.4028 0.000488281C18.7427 0.000488281 19.077 0.0101445 19.4072 0.029457C16.5224 3.03883 14.7492 7.12324 14.7492 11.6209C14.7492 17.9904 18.3033 23.5292 23.535 26.3628Z" fill="#FDCB89"/>
<path d="M32.1895 11.7216C33.8283 9.41028 34.968 6.19943 35.7328 2.31256C35.963 1.14237 35.0793 0.0499024 33.8872 0.0147461C29.7111 -0.108348 26.3943 0.538059 24.0297 1.99709C23.9759 4.80453 29.4154 11.2872 32.1895 11.7216Z" fill="#FFD9A0"/>
<path d="M31.0946 7.77232C30.5629 7.30685 29.9382 6.68463 29.2686 5.88673C28.5229 4.99798 27.9819 4.20176 27.6089 3.5592C28.6797 3.23304 29.9266 3.02679 31.3428 2.94176C32.0013 2.9022 32.5092 3.51504 32.34 4.15254C31.9782 5.51538 31.5624 6.72391 31.0946 7.77232Z" fill="#FAD5CB"/>
<path d="M10.7189 16.738C12.2847 16.738 13.554 15.7272 13.554 14.4803C13.554 13.2335 12.2847 12.2227 10.7189 12.2227C9.1531 12.2227 7.88379 13.2335 7.88379 14.4803C7.88379 15.7272 9.1531 16.738 10.7189 16.738Z" fill="white"/>
<path d="M26.0861 16.738C27.6518 16.738 28.9212 15.7272 28.9212 14.4803C28.9212 13.2335 27.6518 12.2227 26.0861 12.2227C24.5203 12.2227 23.251 13.2335 23.251 14.4803C23.251 15.7272 24.5203 16.738 26.0861 16.738Z" fill="white"/>
<path d="M12.3708 13.0314C11.9708 13.0314 11.6465 12.7071 11.6465 12.3071V11.1481C11.6465 10.7481 11.9708 10.4238 12.3708 10.4238C12.7708 10.4238 13.0951 10.7481 13.0951 11.1481V12.3071C13.0951 12.707 12.7708 13.0314 12.3708 13.0314Z" fill="#666667"/>
<path d="M24.4333 13.0314C24.0333 13.0314 23.709 12.7071 23.709 12.3071V11.1481C23.709 10.7481 24.0333 10.4238 24.4333 10.4238C24.8334 10.4238 25.1576 10.7481 25.1576 11.1481V12.3071C25.1576 12.707 24.8333 13.0314 24.4333 13.0314Z" fill="#666667"/>
<path d="M20.3345 21.5654C20.2706 21.5654 20.2056 21.5569 20.141 21.539L20.112 21.5307C18.6804 21.1219 17.6782 19.7785 17.6782 18.2649V16.1701C17.6782 15.7701 18.0025 15.4458 18.4025 15.4458C18.8026 15.4458 19.1268 15.7701 19.1268 16.1701V18.2649C19.1268 19.135 19.6968 19.9057 20.5131 20.1386L20.5272 20.1427C20.9128 20.2493 21.1389 20.6484 21.0322 21.034C20.9435 21.355 20.6521 21.5654 20.3345 21.5654Z" fill="#666667"/>
<path d="M16.4708 21.5658C16.1558 21.5658 15.866 21.3588 15.7748 21.0409C15.6646 20.6564 15.8869 20.2553 16.2715 20.145L16.2918 20.1392C17.1084 19.9058 17.6783 19.1354 17.6783 18.2655V17.0168C17.6783 16.6168 18.0026 16.2925 18.4026 16.2925C18.8027 16.2925 19.1269 16.6168 19.1269 17.0168V18.2655C19.1269 19.7787 18.1249 21.1219 16.6904 21.532L16.6707 21.5376C16.604 21.5567 16.5368 21.5658 16.4708 21.5658Z" fill="#666667"/>
<path d="M5.70984 7.77232C6.24159 7.30685 6.86625 6.68463 7.53581 5.88673C8.28159 4.99798 8.82253 4.20176 9.19556 3.5592C8.12475 3.23304 6.87787 3.02679 5.46169 2.94176C4.80319 2.9022 4.29525 3.51504 4.46447 4.15254C4.82625 5.51538 5.24212 6.72391 5.70984 7.77232Z" fill="#FDC4B5"/>
<path d="M16.4141 14.9879C16.4141 15.9214 17.3043 17.0161 18.4025 17.0161C19.5007 17.0161 20.3909 15.9214 20.3909 14.9879C20.3909 14.0544 19.5007 13.6357 18.4025 13.6357C17.3043 13.6358 16.4141 14.0545 16.4141 14.9879Z" fill="#FFAAA1"/>
</svg>
