<svg width="112" height="120" viewBox="0 0 112 120" fill="none" xmlns="http://www.w3.org/2000/svg">
<g clip-path="url(#clip0_4166_15433)">
<path d="M88.6177 91.2044C93.003 87.4449 97.1134 82.672 100.428 77.13C100.934 76.2839 100.185 75.2253 99.2342 75.4451C99.0105 75.4969 98.7867 75.5511 98.5626 75.6077C97.9678 75.758 97.4995 75.0936 97.84 74.5765C100.547 70.4635 102.782 65.8225 104.318 60.9144C104.628 59.9246 103.578 59.0643 102.695 59.5891C102.125 59.9274 101.557 60.3009 101.009 60.7C100.495 61.0745 99.8024 60.5914 99.9687 59.972C101.094 55.7809 101.415 53.458 101.393 49.6358C101.387 48.5828 100.087 48.1106 99.4213 48.9187C97.0695 51.7755 95.7374 53.4674 93.3547 56.6255C92.9792 57.1231 92.2036 56.8879 92.1495 56.2634C92.0939 55.6223 91.9901 54.9856 91.8467 54.3756C91.6209 53.415 90.3874 53.1721 89.8341 53.9846C87.6347 57.215 85.4962 60.3448 83.4284 63.381C82.8931 64.167 81.7117 63.9616 81.4411 63.0466C81.4214 62.9804 81.4015 62.9143 81.3812 62.8483C81.1331 62.0446 80.1282 61.7883 79.5384 62.3809C74.8734 67.0679 70.7461 72.8277 68.3219 79.9089C68.0306 78.6905 63.2027 87.4272 62.6151 86.3222C50.246 99.4434 44.8101 95.2223 44.0444 104.725C46.7946 108.339 53.4384 110.541 62.3371 109.091C70.7096 107.765 81.1258 103.129 89.9944 94.43C90.6221 93.8143 90.3459 92.7276 89.4974 92.5191C89.3064 92.4722 89.1139 92.4285 88.9199 92.3877C88.3688 92.2721 88.1884 91.5726 88.6177 91.2044Z" fill="#FFF1CF"/>
<path d="M59.7712 117.878C56.8679 118.678 53.6904 119.216 50.3147 119.548C43.4463 115.593 36.7177 115.672 30.1206 119.548C26.7449 119.213 23.5697 118.678 20.6662 117.878C13.449 111.399 10.4053 86.4901 9.64551 74.605C16.2387 62.3832 27.471 52.189 40.2186 52.189C52.9662 52.189 64.1985 62.3832 70.7917 74.605C72.5655 83.0001 67.7883 110.531 59.7712 117.878Z" fill="#FFF1CF"/>
<path d="M76.9847 96.7793C76.9847 108.879 70.1129 115.039 59.772 117.878C57.0357 115.791 59.2551 101.239 64.5069 88.1062C64.5069 88.1062 66.4297 78.7552 70.7925 74.605C74.7031 81.8494 76.9847 89.8104 76.9847 96.7793Z" fill="#FDCB89"/>
<path d="M3.45361 96.7793C3.45361 108.879 10.3254 115.039 20.6664 117.878C23.4027 115.791 21.1833 101.239 15.9315 88.1062C15.9315 88.1062 14.0087 78.7552 9.64584 74.605C5.73528 81.8494 3.45361 89.8104 3.45361 96.7793Z" fill="#FDCB89"/>
<path d="M20.6652 117.88L27.7916 92.1753L15.9319 88.1069C15.9319 88.1067 12.3596 111.75 20.6652 117.88Z" fill="#FFBE73"/>
<path d="M59.7726 117.879L52.646 92.1748L64.5057 88.1064C64.5059 88.1062 68.0782 111.75 59.7726 117.879Z" fill="#FFBE73"/>
<path d="M50.3152 106.189V119.551C47.1065 119.867 43.7198 120 40.2193 120C36.7167 120 33.3298 119.867 30.1211 119.548V106.189C36.8525 110.039 43.5838 110.039 50.3152 106.189Z" fill="#FFEAB7"/>
<path d="M58.5068 111.941C62.0702 105 64.1323 99.0566 64.5065 88.1064H46.9038V115.231C46.9038 118.719 48.8065 120 52.4744 120C56.7814 120 60.273 119.433 60.273 115.944C60.273 114.425 59.6105 113.031 58.5068 111.941Z" fill="#FFF1CF"/>
<path d="M15.9321 88.1064C16.3065 99.0563 18.3684 105 21.9319 111.941C20.8281 113.031 20.1656 114.425 20.1656 115.944C20.1656 119.433 23.6572 120 27.9642 120C31.6321 120 33.5348 118.719 33.5348 115.231V88.1064H15.9321Z" fill="#FFF1CF"/>
<path d="M14.9353 71.8971C14.1668 74.8061 14.0701 77.8955 14.7597 81.0752C14.8957 81.7025 15.5117 82.0957 16.1258 81.9391C17.6158 81.559 19.0392 81.1419 20.399 80.6921C21.0981 80.4609 21.8119 80.9767 21.8501 81.7214C21.9942 84.5154 22.7733 87.3922 24.2624 90.2676C24.5131 90.7516 25.0722 90.9871 25.5857 90.8212C27.5698 90.1803 29.4878 89.3478 30.9009 88.4684C31.4172 88.1472 32.0918 88.3052 32.4175 88.8232C34.3434 91.8854 35.5881 93.1786 39.2705 96.1205C39.6756 96.4441 40.2471 96.4441 40.6522 96.1205C44.3344 93.1786 45.5793 91.8854 47.5052 88.8232C47.8309 88.3052 48.5058 88.1472 49.0218 88.4684C50.4349 89.3478 52.3527 90.1803 54.337 90.8212C54.8505 90.9871 55.4096 90.7516 55.6603 90.2676C57.1492 87.3924 57.9285 84.5157 58.0726 81.7214C58.1109 80.9767 58.8246 80.4609 59.5237 80.6919C60.8835 81.1417 62.3069 81.5588 63.797 81.9388C64.411 82.0955 65.027 81.7023 65.1631 81.075C65.8526 77.895 65.7559 74.8057 64.9874 71.8969C64.775 71.0932 65.4514 70.336 66.2579 70.4865C67.4212 70.7037 68.6181 70.8961 69.8493 71.0622C70.5487 71.1566 71.1583 70.5747 71.1107 69.8605C70.2314 56.6631 56.6788 46.513 39.9611 44.6807C23.2435 46.5128 9.69085 56.6631 8.81162 69.8605C8.76403 70.5747 9.37376 71.1566 10.073 71.0622C11.3044 70.8961 12.5013 70.7037 13.6643 70.4865C14.4713 70.3362 15.1477 71.0934 14.9353 71.8971Z" fill="#FFEAB7"/>
<path d="M59.7517 61.6762C54.7815 64.4324 51.559 70.4649 49.6803 76.1123C49.2576 76.2418 48.8142 76.3083 48.3641 76.3083C47.9052 76.3083 47.4549 76.2401 47.0271 76.107C45.3468 78.3068 43.5217 79.8486 42.421 80.6747C41.6222 81.2749 40.6752 81.5917 39.6815 81.5917C38.6878 81.5917 37.7406 81.2749 36.942 80.6747C35.8413 79.8488 34.0162 78.3069 32.3359 76.107C31.908 76.2401 31.4577 76.3083 30.9989 76.3083C30.5486 76.3083 30.1053 76.2418 29.6827 76.1123C27.8039 70.4649 24.5815 64.4326 19.6113 61.6762C23.9448 53.6313 31.3164 47.4238 39.6815 47.4238C48.0466 47.4238 55.4181 53.6311 59.7517 61.6762Z" fill="#FFD9A0"/>
<path d="M66.0133 40.7258C60.6325 43.8863 53.9245 43.6798 57.9287 38.3518L50.4536 20.79L60.5956 22.1322C60.8786 22.351 61.0287 22.4735 61.0287 22.4735C65.5244 28.9171 64.5927 34.0904 68.8487 38.8172C69.33 39.3528 69.87 40.7258 66.0133 40.7258Z" fill="#FFD9A0"/>
<path d="M13.3479 40.7258C18.7287 43.8863 25.4366 43.6798 21.4325 38.3518L28.9075 20.79L18.7655 22.1322C18.4825 22.351 18.3325 22.4735 18.3325 22.4735C13.8367 28.9171 14.7684 34.0904 10.5125 38.8172C10.0312 39.3528 9.49112 40.7258 13.3479 40.7258Z" fill="#FDCB89"/>
<path d="M54.1342 32.5001C48.1745 30.2997 45.3414 22.9467 47.6807 16.4268C50.8433 7.61225 60.5722 2.07171 64.4119 0.177077C65.2895 -0.25594 66.3443 0.133418 66.7422 1.0375C68.4831 4.99258 72.4251 15.5808 69.2627 24.3954C66.9234 30.9153 60.0939 34.7005 54.1342 32.5001Z" fill="#FFD9A0"/>
<path d="M57.6622 27.8782C57.0562 27.8782 56.4647 27.7733 55.904 27.5662C52.691 26.3799 51.1521 22.1007 52.5436 18.2219C54.2593 13.4404 58.753 9.70599 62.4458 7.31548C62.9246 7.00562 63.5625 7.24175 63.7321 7.79147C63.8873 8.29499 64.0392 8.82059 64.1832 9.36454C65.1451 12.9958 65.9635 18.2394 64.3993 22.5993C63.3017 25.6583 60.4685 27.8782 57.6622 27.8782Z" fill="#F1B3C1"/>
<path d="M25.2282 32.5001C31.188 30.2997 34.021 22.9467 31.6818 16.4268C28.5192 7.61225 18.7903 2.07171 14.9506 0.177077C14.0729 -0.25594 13.0181 0.133418 12.6202 1.0375C10.8792 4.99258 6.93717 15.5807 10.0998 24.3954C12.439 30.9153 19.2685 34.7005 25.2282 32.5001Z" fill="#FDCB89"/>
<path d="M21.6906 27.8782C22.2966 27.8782 22.8881 27.7733 23.4487 27.5662C26.6618 26.3799 28.2007 22.1007 26.8091 18.2219C25.0935 13.4404 20.5998 9.70599 16.9069 7.31548C16.4282 7.00562 15.7903 7.24175 15.6207 7.79147C15.4655 8.29499 15.3136 8.82059 15.1696 9.36454C14.2077 12.9958 13.3893 18.2394 14.9535 22.5993C16.0511 25.6583 18.8843 27.8782 21.6906 27.8782Z" fill="#EC9EB0"/>
<path d="M62.1085 32.4913C62.1085 34.4147 61.8619 36.3922 61.3806 38.3523C58.1183 40.3315 52.7032 42.6925 45.7543 43.6217C41.3094 41.4265 35.9331 39.2465 35.0292 38.508C30.7715 35.0254 28.3394 28.6693 28.3394 22.1277C28.3394 18.687 32.8314 15.576 37.6876 12.2469C38.338 12.2155 39.0038 12.1997 39.6819 12.1997C53.9176 12.1997 62.1085 19.0931 62.1085 32.4913Z" fill="#FFD9A0"/>
<path d="M45.7539 43.6213C43.8407 43.8751 41.8119 44.0221 39.6815 44.0221C29.8051 44.0221 22.1439 40.8754 17.9828 38.3519C17.5016 36.3919 17.2549 34.4143 17.2549 32.491C17.2549 19.7315 24.6834 12.8714 37.6874 12.2466C36.3349 15.0414 35.5655 18.2719 35.5655 21.7126C35.5655 28.2543 38.3499 34.0347 42.6075 37.5173C43.5113 38.2558 44.8483 40.704 45.7539 43.6213Z" fill="#FDCB89"/>
<path d="M66.2414 53.9517C66.6605 56.1761 68.0958 58.5753 69.0879 60.0279C69.4949 60.6264 69.0016 61.4262 68.2926 61.3229C66.897 61.1199 65.3615 60.5825 64.2145 59.8074C63.7417 59.4889 63.1 59.6569 62.8222 60.1592C60.9952 63.4738 58.832 65.9396 57.7433 67.0788C57.3396 67.5006 56.691 67.5478 56.2287 67.1943C55.9716 66.9966 55.6645 66.7516 55.3264 66.4576C55.0107 66.1863 54.5328 66.2773 54.3275 66.6431C52.6335 69.6531 50.2182 71.699 49.0485 72.5774C48.6414 72.8837 48.0841 72.8837 47.677 72.5774C47.3959 72.3657 47.0422 72.0873 46.6436 71.7426C46.3296 71.4696 45.85 71.5624 45.6466 71.9264C43.9526 74.9365 41.5356 76.984 40.3659 77.8626C39.9605 78.1689 39.4015 78.1689 38.9961 77.8626C37.8264 76.984 35.4095 74.9365 33.7154 71.9264C33.5342 71.6043 33.1375 71.4943 32.8304 71.6657C20.7045 61.1829 20.3855 50.542 22.1261 42.2187C23.2888 36.6501 27.3225 31.1514 32.701 28.4238C35.023 30.3908 36.3755 34.7502 35.0282 38.5075C34.3156 40.4956 33.2064 42.1633 31.9142 43.3604C34.3104 43.7734 36.9086 44.0219 39.6808 44.0219C42.4531 44.0219 45.0513 43.7734 47.4474 43.3604C46.1553 42.1633 45.0461 40.4956 44.3335 38.5075C42.5757 33.6091 45.4118 27.6854 48.9966 27.3772C57.0547 26.6877 58.126 39.3737 66.0133 40.7265C66.8431 42.669 68.4733 44.566 69.6274 45.7579C70.1311 46.2777 69.7741 47.1561 69.0547 47.1702C68.3681 47.1842 67.5762 47.1439 66.8345 46.9795C66.4222 46.8867 66.091 47.3138 66.2824 47.6953C67.1554 49.4313 68.589 51.0781 69.6309 52.1492C70.1363 52.6671 69.7914 53.5474 69.0719 53.5685C68.3664 53.5877 67.5573 53.5493 66.8431 53.3672C66.4949 53.2778 66.1724 53.593 66.2414 53.9517Z" fill="#FFF8E6"/>
<path d="M32.8312 71.6657C32.7932 71.6867 32.7553 71.7112 32.719 71.7426C32.3204 72.0873 31.9668 72.3657 31.6856 72.5774C31.2785 72.8837 30.7212 72.8837 30.3141 72.5774C29.1444 71.6988 26.7293 69.6531 25.0351 66.6431C24.8298 66.2773 24.352 66.1863 24.0362 66.4576C23.6981 66.7516 23.391 66.9966 23.1339 67.1943C22.6716 67.5478 22.023 67.5006 21.6193 67.0788C20.5308 65.9394 18.3674 63.4737 16.5404 60.1592C16.2626 59.6569 15.6209 59.4889 15.1482 59.8074C14.0009 60.5827 12.4656 61.1199 11.07 61.3229C10.361 61.4261 9.86766 60.6264 10.2748 60.0279C11.2668 58.5753 12.7021 56.1761 13.1212 53.9517C13.1902 53.593 12.8677 53.278 12.5192 53.3672C11.805 53.5491 10.9958 53.5877 10.2903 53.5685C9.57092 53.5474 9.22595 52.6673 9.73135 52.1492C10.7733 51.0781 12.2069 49.4313 13.0799 47.6953C13.2713 47.3138 12.9402 46.8867 12.5277 46.9795C11.7859 47.1439 10.9942 47.1842 10.3076 47.1702C9.58817 47.1563 9.23114 46.2777 9.73486 45.7579C10.889 44.566 12.5192 42.669 13.349 40.7265C21.2363 39.3737 22.3075 26.6877 30.3657 27.3772C31.2006 27.4489 31.9959 27.8252 32.7016 28.4236C29.4617 31.6367 26.8551 36.2516 25.6924 41.8201C23.952 50.1438 25.4357 60.5949 32.8312 71.6657Z" fill="#FFF1CF"/>
<path d="M28.9081 37.5609C28.1935 37.5609 27.6143 36.9733 27.6143 36.2484V34.1484C27.6143 33.4235 28.1935 32.8359 28.9081 32.8359C29.6226 32.8359 30.2018 33.4235 30.2018 34.1484V36.2484C30.2018 36.9733 29.6226 37.5609 28.9081 37.5609Z" fill="#666667"/>
<path d="M50.4535 37.5609C49.7389 37.5609 49.1597 36.9733 49.1597 36.2484V34.1484C49.1597 33.4235 49.7389 32.8359 50.4535 32.8359C51.168 32.8359 51.7472 33.4235 51.7472 34.1484V36.2484C51.7474 36.9733 51.1682 37.5609 50.4535 37.5609Z" fill="#666667"/>
<path d="M39.6802 57.5601C36.2801 57.5601 33.6063 54.6122 33.8886 51.1751L34.484 43.928C34.6308 42.1399 36.3518 40.9334 38.0525 41.4264L39.2946 41.7863C39.5466 41.8594 39.8137 41.8594 40.0657 41.7863L41.3078 41.4264C43.0086 40.9334 44.7294 42.1397 44.8763 43.928L45.4716 51.1751C45.7541 54.6122 43.0803 57.5601 39.6802 57.5601Z" fill="#FFA1AC"/>
<path d="M46.3082 38.7606C53.68 47.1172 45.0999 51.646 39.6798 47.7128C34.2369 51.6526 25.6901 47.1013 33.0514 38.7606C37.5244 34.1313 41.9427 34.1337 46.3082 38.7606Z" fill="#FFF1CF"/>
<path d="M35.9258 43.8274C35.9258 45.6155 37.6067 47.7125 39.6806 47.7125C41.7542 47.7125 43.4353 45.6155 43.4353 43.8274C43.4353 42.0393 41.7542 41.2373 39.6806 41.2373C37.6069 41.2373 35.9258 42.0393 35.9258 43.8274Z" fill="#666667"/>
</g>
<defs>
<clipPath id="clip0_4166_15433">
<rect width="112" height="120" fill="white" transform="matrix(-1 0 0 1 112 0)"/>
</clipPath>
</defs>
</svg>
