<svg width="88" height="88" viewBox="0 0 88 88" fill="none" xmlns="http://www.w3.org/2000/svg">
<g clip-path="url(#clip0_2581_9637)">
<path d="M61.9317 77.3674C64.6532 78.7917 66.2961 80.8719 67.063 83.4849C65.5792 84.1118 63.9485 84.4588 62.2382 84.4588C55.3929 84.4588 49.8438 78.9096 49.8438 72.0644V70.2937H56.9262V72.0644C56.9262 73.5305 57.5211 74.8584 58.4825 75.8198C59.3768 76.7139 60.5878 77.2912 61.9317 77.3674Z" fill="#B7B7B7"/>
<path d="M67.5495 71.2889C69.9104 70.1768 72.2713 70.1768 74.632 71.2889V72.0644C74.632 74.9522 73.644 77.6082 71.9903 79.7152C69.0754 79.0918 67.3856 77.2705 67.1865 73.9907C67.422 73.394 67.5495 72.7441 67.5495 72.0644V71.2889Z" fill="#B7B7B7"/>
<path d="M67.5498 59.7796C69.8275 58.549 72.1939 58.6305 74.6323 59.7796V65.0914C72.2714 66.7119 69.9105 66.7119 67.5498 65.0914V59.7796Z" fill="#B7B7B7"/>
<path d="M70.2464 45.5137C72.953 46.195 74.5448 48.0397 74.9509 51.1213C74.7455 51.5674 74.6323 52.065 74.6323 52.5874V53.5825C72.0507 55.2616 69.6898 55.2616 67.5498 53.5825V52.5874C67.5496 49.8712 68.5695 47.3923 70.2464 45.5137Z" fill="#B7B7B7"/>
<path d="M85.2565 45.505C85.2565 47.4615 83.6718 49.0463 81.7151 49.0463H81.299C77.6182 47.3059 75.8061 45.0253 75.6172 42.2755C76.437 42.0718 77.2921 41.9639 78.174 41.9639H81.7153C82.6928 41.9639 83.5781 42.3606 84.219 43.0015C84.8599 43.6422 85.2565 44.5276 85.2565 45.505Z" fill="#B7B7B7"/>
<path d="M67.5498 65.0916H74.6323V71.2887H67.5498V65.0916Z" fill="#919191"/>
<path d="M71.9906 79.7153C71.6825 80.1066 71.3531 80.4784 71.0027 80.829C69.8802 81.9498 68.545 82.8582 67.063 83.485L61.9316 77.3674C62.0325 77.3728 62.1334 77.3764 62.2379 77.3764C64.4919 77.3764 66.4183 75.9723 67.1869 73.991L71.9906 79.7153Z" fill="#919191"/>
<path d="M81.2993 49.0462H78.1741C76.7417 49.0462 75.5075 49.8962 74.9516 51.1215L70.2471 45.5139C71.6477 43.9452 73.5086 42.7941 75.6173 42.2754L81.2993 49.0462Z" fill="#919191"/>
<path d="M67.5498 53.5825H74.6323V59.7796H67.5498V53.5825Z" fill="#919191"/>
<path d="M61.1756 66.2692C61.1756 66.2993 61.1756 66.3294 61.1739 66.3595C60.3122 67.1831 57.7078 68.164 57.7078 70.0348C57.7078 71.2888 57.9899 71.9896 60.0087 73.3233C57.2094 81.1388 49.6117 85.7709 39.983 87.3679C39.983 82.1924 23.9359 82.1907 23.9359 87.3662C14.3089 85.7709 6.71113 81.1388 3.9118 73.3233C6.02123 72.1267 6.25996 72.0329 6.81065 70.5207C7.44985 68.7625 3.73477 67.5265 2.74684 66.3595C2.74512 66.3294 2.74512 66.2993 2.74512 66.2692C2.74512 64.4154 2.95412 62.4995 3.35252 60.5678C3.64643 60.7307 6.36773 59.5933 7.17691 57.3694C7.9861 55.1455 6.36171 53.6228 6.01384 52.6212C10.8794 42.1603 20.671 33.1106 31.9606 33.1106C43.2502 33.1106 53.0416 42.1603 57.9074 52.6212C57.4323 53.9937 55.7007 55.0403 56.5099 57.2642C57.319 59.4881 58.8119 59.5816 60.5685 60.5678C60.9666 62.4995 61.1756 64.4154 61.1756 66.2692Z" fill="#C6C6C6"/>
<path d="M44.4523 83.5683C44.4523 84.5332 44.4009 85.4806 44.3018 86.405C42.9189 86.798 41.4758 87.1203 39.9832 87.3664H23.9361C22.4436 87.1186 21.0022 86.798 19.6193 86.405C19.5201 85.4806 19.4688 84.5334 19.4688 83.5683C19.4688 73.4989 25.0621 65.3362 31.9605 65.3362C38.8588 65.3362 44.4523 73.4987 44.4523 83.5683Z" fill="#FFF8E6"/>
<path d="M47.034 85.5036L40.5957 65.1414L50.4204 64.0349C50.4206 64.0349 56.1719 77.4088 47.034 85.5036Z" fill="#B7B7B7"/>
<path d="M16.8875 85.5036L23.3258 65.1414L13.5009 64.0349C13.5009 64.0349 7.7498 77.4088 16.8875 85.5036Z" fill="#B7B7B7"/>
<path d="M39.9827 77.1816V87.368C37.4329 87.7894 34.7417 88.0001 31.96 88.0001C29.1767 88.0001 26.4853 87.7894 23.9355 87.3663V77.1816C29.2846 80.197 34.6337 80.197 39.9827 77.1816Z" fill="#FFEAB7"/>
<path d="M27.4464 80.8593C24.7409 78.8863 20.8448 78.1483 16.4385 77.9395C16.9679 79.1878 17.5646 80.4165 18.2268 81.6879C17.3504 82.5412 16.8228 83.632 16.8228 84.8237C16.8228 87.5559 19.5974 88.0002 23.0199 88.0002C25.9344 88.0002 27.4466 86.9962 27.4466 84.2641V80.8593H27.4464Z" fill="#C6C6C6"/>
<path d="M27.4462 75.0163V69.6389C22.4096 69.5851 17.9967 70.4269 14.7295 72.9145C15.1846 74.7045 15.7547 76.337 16.4381 77.9396C20.7981 77.7369 24.5711 76.8783 27.4462 75.0163Z" fill="#C6C6C6"/>
<path d="M13.458 63.0166C13.4951 64.0949 13.5536 65.1112 13.6333 66.0763C17.8192 68.4917 22.4811 69.5094 27.4459 69.6388V63.0166H13.458Z" fill="#C6C6C6"/>
<path d="M13.6338 66.0764C13.8498 68.6793 14.2163 70.8961 14.7298 72.9146L27.4465 69.639L13.6338 66.0764Z" fill="#919191"/>
<path d="M27.4452 75.0171L16.4375 77.9397L27.4452 80.8602V75.0171Z" fill="#919191"/>
<path d="M36.4758 80.8593C39.1812 78.8863 43.0773 78.1483 47.4837 77.9395C46.9543 79.1878 46.3575 80.4165 45.6953 81.6879C46.5717 82.5412 47.0994 83.632 47.0994 84.8237C47.0994 87.5559 44.3248 88.0002 40.9022 88.0002C37.9877 88.0002 36.4756 86.9962 36.4756 84.2641V80.8593H36.4758Z" fill="#C6C6C6"/>
<path d="M36.4756 75.0163V69.6389C41.5122 69.5851 45.9251 70.4269 49.1923 72.9145C48.7372 74.7045 48.167 76.337 47.4837 77.9396C43.1237 77.7369 39.3507 76.8783 36.4756 75.0163Z" fill="#C6C6C6"/>
<path d="M50.4635 63.0166C50.4263 64.0949 50.3679 65.1112 50.2881 66.0763C46.1023 68.4917 41.4404 69.5094 36.4756 69.6388V63.0166H50.4635Z" fill="#C6C6C6"/>
<path d="M50.2881 66.0764C50.0721 68.6793 49.7057 70.8961 49.1921 72.9146L36.4756 69.6389L50.2881 66.0764Z" fill="#919191"/>
<path d="M36.4756 75.0171L47.4835 77.9397L36.4756 80.8602V75.0171Z" fill="#919191"/>
<path d="M60.5686 60.5677C60.2747 60.7307 59.9612 60.8723 59.6319 60.9926C56.8503 62.0055 53.9394 61.021 53.1302 58.7971C52.321 56.5732 53.9181 53.949 56.6997 52.9363C57.1017 52.7894 57.5053 52.6849 57.9073 52.6211C59.1168 55.2222 60.0216 57.91 60.5686 60.5677Z" fill="#919191"/>
<path d="M61.1761 66.3595C61.1674 68.9109 60.76 71.2323 60.0093 73.3233C58.0068 73.6844 56.1422 72.9302 55.5916 71.4181C54.9524 69.6598 56.3353 67.5421 58.6795 66.6871C59.5311 66.3772 60.3934 66.2763 61.1761 66.3595Z" fill="#919191"/>
<path d="M3.35254 60.5677C3.64645 60.7307 3.95995 60.8723 4.28926 60.9926C7.07088 62.0055 9.98176 61.021 10.7909 58.7971C11.6001 56.5732 10.0031 53.949 7.22145 52.9363C6.81943 52.7894 6.41587 52.6849 6.01385 52.6211C4.80454 55.2222 3.89979 57.91 3.35254 60.5677Z" fill="#919191"/>
<path d="M2.74512 66.3595C2.75388 68.9109 3.16123 71.2323 3.91198 73.3233C5.91449 73.6844 7.77899 72.9302 8.32968 71.4181C8.96888 69.6598 7.58598 67.5421 5.24177 66.6871C4.38996 66.3772 3.52766 66.2763 2.74512 66.3595Z" fill="#919191"/>
<path d="M16.3726 23.528C20.9173 21.8739 23.0778 16.3465 21.2939 11.4453C19.3869 6.20574 14.3489 2.50509 10.8762 0.481609C8.96836 -0.630079 6.51605 0.262468 5.76908 2.34044C4.40955 6.12272 2.92902 12.1959 4.83597 17.4355C6.61986 22.3367 11.8278 25.1821 16.3726 23.528Z" fill="#B7B7B7"/>
<path d="M13.6821 18.6887C12.3217 18.6885 10.5607 17.6341 9.8271 15.6188C8.91101 13.1017 9.19391 10.0788 9.76523 7.55137C9.90702 6.92386 10.6518 6.65281 11.1638 7.04228C13.2259 8.61115 15.3857 10.745 16.3018 13.2621C17.096 15.444 16.2798 17.9087 14.5552 18.5364C14.2738 18.6389 13.9884 18.6885 13.6823 18.6885C13.6823 18.6887 13.6821 18.6887 13.6821 18.6887Z" fill="#FDC4B5"/>
<path d="M47.5477 23.528C43.003 21.8739 40.8425 16.3465 42.6264 11.4453C44.5335 6.20574 49.5714 2.50509 53.0441 0.481609C54.9519 -0.630079 57.4042 0.262468 58.1512 2.34044C59.5107 6.12272 60.9913 12.1959 59.0843 17.4355C57.3002 22.3367 52.0923 25.1821 47.5477 23.528Z" fill="#C6C6C6"/>
<path d="M50.2382 18.6888C49.9315 18.6888 49.6457 18.6391 49.3643 18.5367C47.6397 17.909 46.8235 15.4443 47.6177 13.2622C48.5338 10.7452 50.6936 8.6114 52.7558 7.04252C53.2678 6.65305 54.0125 6.9241 54.1543 7.55161C54.7256 10.079 55.0085 13.1018 54.0925 15.6189C53.3591 17.6343 51.5982 18.6888 50.2382 18.6888Z" fill="#FAD5CB"/>
<path d="M58.245 34.8386C57.8252 37.6521 56.9241 40.4923 55.5802 43.1711C55.5802 43.1711 55.5802 43.1729 55.5785 43.1729C48.6731 52.8493 26.0499 42.0804 23.5267 41.0835C21.5276 36.9775 20.46 32.4181 20.46 27.8145C20.46 20.4061 26.2109 11.4734 30.742 7.40447C30.9918 8.06842 31.6097 9.61066 31.9603 9.61066C32.4082 9.61066 33.2882 7.10352 33.2882 7.10352C34.5152 7.13892 35.7034 7.22744 36.8489 7.36734C36.8489 7.36734 37.0402 9.98431 37.4615 10.0498C37.9147 10.1223 39.4747 7.78345 39.4747 7.78345C49.9549 9.86933 56.4886 16.5162 58.1176 26.2263L53.8204 28.1596L58.245 34.8386Z" fill="#C6C6C6"/>
<path d="M30.7416 7.40496C26.6124 12.9115 24.1708 19.7497 24.1708 27.158C24.1708 31.5847 25.0419 35.8058 26.6248 39.6621C26.7487 44.0001 25.1946 44.9844 20.9026 46.925C16.5574 48.8887 11.7941 46.3285 8.34316 43.1768L8.34145 43.1751C6.99584 40.4943 6.09452 37.6543 5.6748 34.839L7.35385 28.9846L5.80234 26.2266C7.43137 16.5166 13.9649 9.86964 24.4453 7.78394C24.4453 7.78394 25.7732 9.86793 26.2106 9.79883C26.648 9.72802 27.0712 7.36783 27.0712 7.36783C28.2167 7.22793 29.4049 7.13941 30.6319 7.104C30.7256 7.13769 30.9079 7.30768 30.7416 7.40496Z" fill="#B7B7B7"/>
<path d="M20.9031 35.3997C20.1695 35.3997 19.5752 34.8052 19.5752 34.0718V31.947C19.5752 31.2137 20.1697 30.6191 20.9031 30.6191C21.6367 30.6191 22.231 31.2137 22.231 31.947V34.0718C22.231 34.8052 21.6365 35.3997 20.9031 35.3997Z" fill="#666667"/>
<path d="M43.0174 35.3997C42.2838 35.3997 41.6895 34.8052 41.6895 34.0718V31.947C41.6895 31.2137 42.284 30.6191 43.0174 30.6191C43.7507 30.6191 44.3453 31.2137 44.3453 31.947V34.0718C44.3453 34.8052 43.7507 35.3997 43.0174 35.3997Z" fill="#666667"/>
<path d="M55.5803 43.1713C52.7562 48.7966 47.9736 53.719 41.5658 56.2314C32.1841 54.9697 26.0833 49.7949 26.6252 39.662C28.2984 39.0919 30.0938 38.7803 31.9583 38.7803C36.3229 38.7803 40.2891 40.4801 43.2424 43.198C46.7536 46.4309 52.1311 46.3283 55.5803 43.1713Z" fill="#FFF8E6"/>
<path d="M41.5658 56.2315C38.6832 57.3629 35.4712 58.0056 31.9602 58.0056C20.6458 58.0056 12.4372 51.3286 8.3418 43.1748C11.7927 46.3282 17.1665 46.4293 20.6742 43.1996C22.3651 41.6432 24.3872 40.4216 26.6252 39.6619C29.5362 46.7656 34.8552 52.6264 41.5658 56.2315Z" fill="#FFEAB7"/>
<path d="M35.5017 49.7467C35.3809 49.7467 35.2582 49.73 35.1362 49.6953L35.0997 49.685C32.4692 48.9335 30.6318 46.4707 30.6318 43.6958V39.8552C30.6318 39.1219 31.2264 38.5273 31.9597 38.5273C32.6933 38.5273 33.2877 39.1219 33.2877 39.8552V43.6958C33.2877 45.2911 34.3327 46.7038 35.8292 47.1312L35.8658 47.1416C36.571 47.343 36.9794 48.0781 36.7777 48.7833C36.6114 49.3665 36.0798 49.7467 35.5017 49.7467Z" fill="#666667"/>
<path d="M28.4321 49.7423C27.8528 49.7423 27.3164 49.3638 27.1497 48.7808C26.9483 48.0756 27.3487 47.3427 28.0539 47.1413L28.0746 47.1355C29.5871 46.7035 30.6321 45.2909 30.6321 43.6956V39.855C30.6321 39.1216 31.2266 38.5271 31.96 38.5271C32.6935 38.5271 33.2879 39.1216 33.2879 39.855V43.6956C33.2879 46.4705 31.4505 48.9333 28.8198 49.6847L28.7994 49.6906C28.677 49.7256 28.5536 49.7423 28.4321 49.7423Z" fill="#666667"/>
<path d="M28.3145 37.4658C28.3145 39.1771 29.9466 41.1841 31.9599 41.1841C33.9733 41.1841 35.6054 39.1771 35.6054 37.4658C35.6054 35.7544 33.9733 34.9868 31.9599 34.9868C29.9466 34.9868 28.3145 35.7544 28.3145 37.4658Z" fill="#FF938A"/>
<path d="M33.2876 7.10383V18.5014C33.2876 19.2344 32.6928 19.8293 31.9597 19.8293C31.2267 19.8293 30.6318 19.2344 30.6318 18.5014V7.10383C31.0693 7.08974 31.5118 7.08252 31.9597 7.08252C32.4076 7.08252 32.8504 7.08957 33.2876 7.10383Z" fill="#858586"/>
<path d="M39.4739 7.78386L38.5922 16.336C38.5214 17.0194 37.946 17.5276 37.2731 17.5276C37.227 17.5276 37.181 17.524 37.1349 17.5206C36.4055 17.4444 35.8759 16.7929 35.9503 16.0634L36.848 7.36792C37.7494 7.47397 38.624 7.61387 39.4739 7.78386Z" fill="#858586"/>
<path d="M26.7844 17.5203C26.7383 17.5239 26.6922 17.5273 26.6462 17.5273C25.9752 17.5273 25.3978 17.0191 25.327 16.3357L24.4453 7.78354C25.2952 7.61356 26.1699 7.47365 27.0712 7.36743L27.9689 16.0629C28.0449 16.7925 27.5138 17.4441 26.7844 17.5203Z" fill="#858586"/>
<path d="M58.5199 31.2268C58.5199 32.4166 58.4278 33.626 58.2454 34.8389C54.8755 31.0549 51.3472 28.2071 47.9091 26.7181C47.076 26.3574 47.2681 25.1305 48.1701 25.0274C51.1118 24.6912 54.594 25.0032 58.1179 26.2267C58.3854 27.813 58.5199 29.4826 58.5199 31.2268Z" fill="#919191"/>
<path d="M5.40137 31.2268C5.40137 32.4166 5.49349 33.626 5.67585 34.8389C9.0458 31.0549 12.5741 28.2071 16.0122 26.7181C16.8453 26.3574 16.6532 25.1305 15.7512 25.0274C12.8095 24.6912 9.32734 25.0032 5.80338 26.2267C5.53595 27.813 5.40137 29.4826 5.40137 31.2268Z" fill="#919191"/>
</g>
<defs>
<clipPath id="clip0_2581_9637">
<rect width="88" height="88" fill="white"/>
</clipPath>
</defs>
</svg>
