<svg width="88" height="88" viewBox="0 0 88 88" fill="none" xmlns="http://www.w3.org/2000/svg">
<g clip-path="url(#clip0_2581_9702)">
<path d="M61.9307 77.3674C64.6522 78.7917 66.2952 80.8719 67.0621 83.4849C65.5783 84.1118 63.9475 84.4588 62.2372 84.4588C55.3919 84.4588 49.8428 78.9096 49.8428 72.0644V70.2937H56.9252V72.0644C56.9252 73.5305 57.5201 74.8584 58.4816 75.8198C59.3758 76.7139 60.5868 77.2912 61.9307 77.3674Z" fill="#FFBE73"/>
<path d="M67.5485 71.2889C69.9094 70.1768 72.2703 70.1768 74.631 71.2889V72.0644C74.631 74.9522 73.6431 77.6082 71.9893 79.7152C69.0745 79.0918 67.3846 77.2705 67.1855 73.9907C67.421 73.394 67.5485 72.7441 67.5485 72.0644V71.2889Z" fill="#FFBE73"/>
<path d="M67.5488 59.7796C69.8265 58.549 72.1929 58.6305 74.6313 59.7796V65.0914C72.2704 66.7119 69.9095 66.7119 67.5488 65.0914V59.7796Z" fill="#FFBE73"/>
<path d="M70.2454 45.5137C72.9521 46.195 74.5438 48.0397 74.9499 51.1213C74.7445 51.5674 74.6313 52.065 74.6313 52.5874V53.5825C72.0497 55.2616 69.6888 55.2616 67.5488 53.5825V52.5874C67.5487 49.8712 68.5686 47.3923 70.2454 45.5137Z" fill="#FFBE73"/>
<path d="M85.2555 45.505C85.2555 47.4615 83.6708 49.0463 81.7142 49.0463H81.2981C77.6172 47.3059 75.8051 45.0253 75.6162 42.2755C76.4361 42.0718 77.2911 41.9639 78.173 41.9639H81.7143C82.6918 41.9639 83.5771 42.3606 84.218 43.0015C84.859 43.6422 85.2555 44.5276 85.2555 45.505Z" fill="#FFBE73"/>
<path d="M67.5488 65.0916H74.6313V71.2887H67.5488V65.0916Z" fill="#919191"/>
<path d="M71.9897 79.7153C71.6815 80.1066 71.3522 80.4784 71.0017 80.829C69.8792 81.9498 68.5441 82.8582 67.062 83.485L61.9307 77.3674C62.0316 77.3728 62.1324 77.3764 62.2369 77.3764C64.4909 77.3764 66.4173 75.9723 67.1859 73.991L71.9897 79.7153Z" fill="#919191"/>
<path d="M81.2983 49.0462H78.1731C76.7407 49.0462 75.5065 49.8962 74.9507 51.1215L70.2461 45.5139C71.6467 43.9452 73.5076 42.7941 75.6163 42.2754L81.2983 49.0462Z" fill="#919191"/>
<path d="M67.5488 53.5825H74.6313V59.7796H67.5488V53.5825Z" fill="#919191"/>
<path d="M47.4971 86.3375C45.19 86.9643 42.665 87.3857 39.9825 87.6459C34.5246 84.5479 29.1778 84.6098 23.9354 87.6459C21.253 87.3838 18.7298 86.9643 16.4226 86.3375C10.6875 81.2628 8.26884 61.7506 7.66504 52.4406C12.9043 42.8668 21.8299 34.8813 31.9597 34.8813C42.0895 34.8813 51.0152 42.8668 56.2544 52.4406C57.664 59.0167 53.8678 80.5829 47.4971 86.3375Z" fill="#FFF1CF"/>
<path d="M61.175 69.8105C61.175 79.2888 55.7144 84.1136 47.497 86.3375C45.3226 84.7032 47.0863 73.3039 51.2596 63.0167C51.2596 63.0167 52.7875 55.6917 56.2544 52.4407C59.3619 58.1155 61.175 64.3516 61.175 69.8105Z" fill="#FDCB89"/>
<path d="M2.74414 69.8105C2.74414 79.2888 8.20478 84.1136 16.4221 86.3375C18.5965 84.7032 16.8329 73.3039 12.6596 63.0167C12.6596 63.0167 11.1316 55.6917 7.66475 52.4407C4.55725 58.1155 2.74414 64.3516 2.74414 69.8105Z" fill="#9C9C9C"/>
<path d="M16.4211 86.339L22.084 66.204L12.6598 63.0171C12.6598 63.0169 9.82107 81.5378 16.4211 86.339Z" fill="#919191"/>
<path d="M47.4981 86.3387L41.835 66.2038L51.2592 63.0168C51.2594 63.0167 54.0981 81.5376 47.4981 86.3387Z" fill="#FFBE73"/>
<path d="M39.9817 77.1814V87.6476C37.4319 87.8954 34.7407 87.9999 31.9591 87.9999C29.1757 87.9999 26.4843 87.8954 23.9346 87.6458V77.1814C29.2837 80.1968 34.6326 80.1968 39.9817 77.1814Z" fill="#FCE3A0"/>
<path d="M46.4917 81.6869C49.3234 76.2499 50.962 71.5942 51.2594 63.0166H37.2715V84.2641C37.2715 86.9968 38.7835 88 41.6981 88C45.1207 88 47.8952 87.5554 47.8952 84.8227C47.8952 83.6325 47.3688 82.5406 46.4917 81.6869Z" fill="#FFF1CF"/>
<path d="M12.6602 63.0166C12.9577 71.594 14.5962 76.2498 17.4278 81.6869C16.5507 82.5406 16.0243 83.6325 16.0243 84.8227C16.0243 87.5554 18.7988 88 22.2214 88C25.136 88 26.648 86.9968 26.648 84.2641V63.0166H12.6602Z" fill="#FFF1CF"/>
<path d="M16.3716 23.528C20.9163 21.8739 23.0768 16.3465 21.2929 11.4453C19.3859 6.20574 14.3479 2.50509 10.8752 0.481609C8.96739 -0.630079 6.51507 0.262468 5.76811 2.34044C4.40857 6.12272 2.92804 12.1959 4.835 17.4355C6.61889 22.3367 11.8269 25.1821 16.3716 23.528Z" fill="#919191"/>
<path d="M13.6811 18.6887C12.3207 18.6885 10.5597 17.6341 9.82612 15.6188C8.91003 13.1017 9.19294 10.0788 9.76425 7.55137C9.90605 6.92386 10.6508 6.65281 11.1628 7.04228C13.225 8.61115 15.3847 10.745 16.3008 13.2621C17.0951 15.444 16.2788 17.9087 14.5542 18.5364C14.2729 18.6389 13.9874 18.6885 13.6813 18.6885C13.6813 18.6887 13.6811 18.6887 13.6811 18.6887Z" fill="#FF938A"/>
<path d="M47.5467 23.528C43.002 21.8739 40.8415 16.3465 42.6254 11.4453C44.5326 6.20574 49.5704 2.50509 53.0431 0.481609C54.9509 -0.630079 57.4033 0.262468 58.1502 2.34044C59.5098 6.12272 60.9903 12.1959 59.0833 17.4355C57.2994 22.3367 52.0915 25.1821 47.5467 23.528Z" fill="#FDCB89"/>
<path d="M50.2372 18.6888C49.9306 18.6888 49.6447 18.6391 49.3634 18.5367C47.6388 17.909 46.8225 15.4443 47.6168 13.2622C48.5329 10.7452 50.6926 8.6114 52.7548 7.04252C53.2668 6.65305 54.0116 6.9241 54.1534 7.55161C54.7247 10.079 55.0076 13.1018 54.0915 15.6189C53.3581 17.6343 51.5972 18.6888 50.2372 18.6888Z" fill="#FFAAA1"/>
<path d="M59.4317 30.8018C59.4317 35.8039 57.6293 40.9244 54.2722 45.1828C44.7296 45.4806 30.3087 33.0355 29.6924 25.196C30.3333 19.923 29.9172 12.8423 32.0809 7.49146C49.4419 7.49163 59.4317 16.5395 59.4317 30.8018Z" fill="#FDCB89"/>
<path d="M32.0811 7.4917V20.5217H32.0794C30.5138 31.6286 28.4338 36.1259 17.0733 37.7357C15.979 34.3944 15.4355 30.8887 15.4355 27.698C15.4355 20.7519 19.6532 13.2569 26.3922 7.84576C28.1876 7.61029 30.0858 7.4917 32.0794 7.4917H32.0811Z" fill="#9C9C9C"/>
<path d="M26.3921 7.8457C22.8828 13.2744 20.8447 19.7425 20.8447 26.6887C20.8447 29.4366 21.1633 32.112 21.7671 34.6759C19.7685 40.4949 15.0262 44.8231 9.88797 45.1828C6.52902 40.9244 4.72656 35.8038 4.72656 30.8018C4.72673 18.1792 12.5546 9.63939 26.3921 7.8457Z" fill="#919191"/>
<path d="M20.9021 30.0879C20.1686 30.0879 19.5742 29.4934 19.5742 28.76V26.6353C19.5742 25.9019 20.1687 25.3074 20.9021 25.3074C21.6357 25.3074 22.23 25.9019 22.23 26.6353V28.76C22.23 29.4934 21.6355 30.0879 20.9021 30.0879Z" fill="#666667"/>
<path d="M43.0164 30.0879C42.2828 30.0879 41.6885 29.4934 41.6885 28.76V26.6353C41.6885 25.9019 42.283 25.3074 43.0164 25.3074C43.7498 25.3074 44.3443 25.9019 44.3443 26.6353V28.76C44.3443 29.4934 43.7498 30.0879 43.0164 30.0879Z" fill="#666667"/>
<path d="M54.273 45.183C50.1989 50.3497 43.8282 54.2451 35.6017 55.1144C24.6824 51.7716 20.0108 44.4228 21.7679 34.6761V34.6744C22.5948 34.2335 23.45 33.8298 24.3264 33.4738C26.3342 32.6593 27.6534 30.7152 27.6534 28.5479V24.9481C27.6534 23.7264 28.1491 22.618 28.9495 21.8176C29.7497 21.0173 30.8582 20.5215 32.08 20.5215C34.5253 20.5215 36.5067 22.5029 36.5067 24.9481V28.5479C36.5067 30.715 37.8258 32.6593 39.8337 33.4738C46.6028 36.2164 52.0174 41.8383 54.273 45.183Z" fill="#FFF8E6"/>
<path d="M35.6017 55.1141C34.4632 55.2363 33.2893 55.2982 32.08 55.2982C22.1398 55.2982 14.5278 51.0646 9.88867 45.1827C11.8505 42.2718 16.208 37.6346 21.7678 34.6741C23.742 43.0722 28.7635 50.2963 35.6017 55.1141Z" fill="#FFEAB7"/>
<path d="M35.6209 49.7659C35.5018 49.7659 35.3806 49.7498 35.2601 49.7159L35.2189 49.7042C32.5883 48.9528 30.751 46.49 30.751 43.7151V39.8745C30.751 39.1411 31.3455 38.5466 32.0789 38.5466C32.8123 38.5466 33.4068 39.1411 33.4068 39.8745V43.7151C33.4068 45.3104 34.4518 46.7231 35.9483 47.1505L35.9801 47.1595C36.6862 47.3583 37.0971 48.0919 36.8983 48.7978C36.7333 49.3832 36.2006 49.7659 35.6209 49.7659Z" fill="#666667"/>
<path d="M28.5376 49.7659C27.9598 49.7659 27.428 49.3857 27.2614 48.8023C27.0598 48.0971 27.4682 47.362 28.1734 47.1606L28.2147 47.1489C29.7064 46.7228 30.7515 45.3102 30.7515 43.7148V39.8743C30.7515 39.1409 31.3461 38.5464 32.0794 38.5464C32.8128 38.5464 33.4074 39.1409 33.4074 39.8743V43.7148C33.4074 46.4898 31.57 48.9526 28.9393 49.704L28.903 49.7143C28.7813 49.7492 28.6584 49.7659 28.5376 49.7659Z" fill="#666667"/>
<path d="M28.4336 39.6867C28.4336 41.3981 30.0657 43.4051 32.0791 43.4051C34.0924 43.4051 35.7245 41.3981 35.7245 39.6867C35.7245 37.9754 34.0924 37.2078 32.0791 37.2078C30.0657 37.2079 28.4336 37.9755 28.4336 39.6867Z" fill="#FFAAA1"/>
</g>
<defs>
<clipPath id="clip0_2581_9702">
<rect width="88" height="88" fill="white" transform="matrix(-1 0 0 1 88 0)"/>
</clipPath>
</defs>
</svg>
