<svg width="20" height="20" viewBox="0 0 20 20" fill="none" xmlns="http://www.w3.org/2000/svg">
<path d="M13 2.6C13 2.03995 13 1.75992 12.891 1.54601C12.7951 1.35785 12.6422 1.20487 12.454 1.10899C12.2401 1 11.9601 1 11.4 1H8.6C8.03995 1 7.75992 1 7.54601 1.10899C7.35785 1.20487 7.20487 1.35785 7.10899 1.54601C7 1.75992 7 2.03995 7 2.6V5.4C7 5.96005 7 6.24008 6.89101 6.45399C6.79513 6.64215 6.64215 6.79513 6.45399 6.89101C6.24008 7 5.96005 7 5.4 7H2.6C2.03995 7 1.75992 7 1.54601 7.10899C1.35785 7.20487 1.20487 7.35785 1.10899 7.54601C1 7.75992 1 8.03995 1 8.6V11.4C1 11.9601 1 12.2401 1.10899 12.454C1.20487 12.6422 1.35785 12.7951 1.54601 12.891C1.75992 13 2.03995 13 2.6 13H5.4C5.96005 13 6.24008 13 6.45399 13.109C6.64215 13.2049 6.79513 13.3578 6.89101 13.546C7 13.7599 7 14.0399 7 14.6V17.4C7 17.9601 7 18.2401 7.10899 18.454C7.20487 18.6422 7.35785 18.7951 7.54601 18.891C7.75992 19 8.03995 19 8.6 19H11.4C11.9601 19 12.2401 19 12.454 18.891C12.6422 18.7951 12.7951 18.6422 12.891 18.454C13 18.2401 13 17.9601 13 17.4V14.6C13 14.0399 13 13.7599 13.109 13.546C13.2049 13.3578 13.3578 13.2049 13.546 13.109C13.7599 13 14.0399 13 14.6 13H17.4C17.9601 13 18.2401 13 18.454 12.891C18.6422 12.7951 18.7951 12.6422 18.891 12.454C19 12.2401 19 11.9601 19 11.4V8.6C19 8.03995 19 7.75992 18.891 7.54601C18.7951 7.35785 18.6422 7.20487 18.454 7.10899C18.2401 7 17.9601 7 17.4 7L14.6 7C14.0399 7 13.7599 7 13.546 6.89101C13.3578 6.79513 13.2049 6.64215 13.109 6.45399C13 6.24008 13 5.96005 13 5.4V2.6Z" fill="white" stroke="white" stroke-width="1.8" stroke-linecap="round" stroke-linejoin="round"/>
</svg>
