<svg width="76" height="76" viewBox="0 0 76 76" fill="none" xmlns="http://www.w3.org/2000/svg">
<path d="M27.7164 24.6089C23.9241 24.6089 20.8499 21.5401 20.8499 17.7546C20.8499 13.9691 23.9241 10.9004 27.7164 10.9004C31.5087 10.9004 34.583 13.9691 34.583 17.7546C34.583 21.5401 31.5087 24.6089 27.7164 24.6089Z" fill="#FFD4BD"/>
<path d="M25.0913 41.4375L28.1083 76H47.6712C48.8496 72.7455 49.9822 68.9096 50.8076 64.5516C52.0685 57.8955 52.2398 51.9922 52.0232 47.2897C48.4755 43.6777 43.5346 41.4375 38.0711 41.4375H25.0913Z" fill="#B2A4FD"/>
<path d="M25.3162 27.7794C25.3162 39.0433 33.9009 48.304 44.8942 49.402C47.2383 46.2399 50.525 40.9071 52.1402 33.6144C55.0406 20.5183 50.6128 9.8501 48.8502 6.12016C48.2676 6.0743 47.6804 6.0498 47.0856 6.0498C35.063 6.0498 25.3162 15.7784 25.3162 27.7794Z" fill="#FFD4BD"/>
<path d="M3.54419 61.1039V72.4595C3.54419 74.4153 5.13142 75.9996 7.09035 75.9996H16.059C17.5313 73.5472 19.3893 69.7569 20.2934 64.824C21.7659 56.7901 19.8797 50.2457 18.7412 47.1211C18.3634 47.0905 17.9827 47.0752 17.5974 47.0752C9.83674 47.0752 3.54419 53.3571 3.54419 61.1039Z" fill="#7A8FA5"/>
<path d="M47.6718 76.0002H54.0867C56.0441 76.0002 57.6299 74.4145 57.6299 72.4572V60.996C57.6299 55.6576 55.4906 50.8178 52.0238 47.29C49.6475 47.9935 47.2712 48.6969 44.8948 49.4019C46.2146 53.0138 47.6138 58.0157 48.0741 64.0911C48.4241 68.7183 48.1367 72.7676 47.6718 76.0002Z" fill="#A392FD"/>
<path d="M67.7242 43.2896C63.9319 43.2896 60.8577 40.2208 60.8577 36.4353C60.8577 32.6498 63.9319 29.5811 67.7242 29.5811C71.5166 29.5811 74.5908 32.6498 74.5908 36.4353C74.5908 40.2208 71.5166 43.2896 67.7242 43.2896Z" fill="#FFD4BD"/>
<path d="M44.8942 49.401C45.6144 49.4728 46.3455 49.5095 47.0856 49.5095C59.1094 49.5095 68.8564 39.7809 68.8564 27.7784C68.8564 16.3708 60.0483 7.01526 48.8502 6.11914C49.705 9.09027 50.5415 12.5738 50.9696 16.6888C52.3687 30.1426 48.4938 41.6466 44.8942 49.401Z" fill="#FFBF9D"/>
<path d="M25.3163 11.3314C27.2324 13.3377 29.9543 14.37 29.9543 14.37C33.3612 12.2429 38.8755 11.1771 44.691 11.8102C44.2734 13.3729 44.2016 15.26 44.567 17.2296C45.4311 21.8661 48.3961 25.2118 51.2114 24.7425C51.9934 22.5167 52.934 18.8939 52.6284 14.4284C52.1265 7.09593 48.5743 2.01462 46.9879 0.00195312C39.2715 0.0340156 30.2005 3.98542 25.3163 11.3314Z" fill="#FFAA75"/>
<path d="M50.97 16.6894C51.259 19.4618 51.3233 22.1516 51.2117 24.742C51.2316 24.7405 51.25 24.7359 51.2697 24.7328C52.8938 24.4316 54.1095 22.9177 54.6875 20.8013C55.7549 24.1227 58.0609 26.3384 60.2521 25.9317C61.8088 25.6427 62.9434 24.0997 63.3991 21.9834C65.6226 24.9822 67.3062 28.7149 68.1503 33.2902C70.1107 33.7673 72.4917 34.1817 74.183 34.1068C74.6571 32.076 74.917 29.9535 74.917 27.779C74.9168 12.4368 62.4557 0 47.0858 0C47.0538 0 47.0201 0 46.988 0.00148437C48.138 4.00187 50.2054 9.33865 50.97 16.6894Z" fill="#FF8C42"/>
<path d="M16.0593 75.9996H28.1091C30.066 75.9996 31.6523 74.4133 31.6523 72.4564V61.1039C31.6523 53.741 25.9684 47.7022 18.7415 47.1211C18.9434 49.0524 19.0764 51.0602 19.1238 53.1414C19.3332 62.3822 17.781 70.1964 16.0593 75.9996Z" fill="#6A829A"/>
<path d="M10.1259 63.3993C10.1259 70.3325 10.6933 74.0378 11.6491 75.9997H16.0591C17.4203 73.6172 19.0494 70.1048 19.9093 65.6177C21.3232 58.239 19.904 52.1519 18.9111 48.9822C18.4767 48.8262 18.0302 48.7451 17.573 48.7451C12.8049 48.7453 10.1259 55.3069 10.1259 63.3993Z" fill="#A7B6C5"/>
<path d="M4.01714 59.3726L5.13101 59.9479C7.79264 61.3226 11.0667 60.2831 12.4438 57.6263C13.8208 54.9696 12.7797 51.7015 10.1181 50.3268L9.00419 49.7514C6.34256 48.3768 3.06847 49.4163 1.69142 52.073C0.314216 54.7299 1.3555 57.9979 4.01714 59.3726Z" fill="#FFD4BD"/>
<path d="M16.0585 75.9998H23.4964C24.4522 74.0379 25.0195 70.3328 25.0195 63.3994C25.0195 56.2061 22.3848 50.2225 18.9104 48.9824C19.0189 50.3342 19.0909 51.7212 19.123 53.1418C19.3324 62.3825 17.7802 70.1967 16.0585 75.9998Z" fill="#97AABB"/>
<path d="M40.6454 56.5773C36.6792 58.618 31.0226 59.3801 25.8199 57.9266C23.3484 57.236 20.6819 58.3097 19.4757 60.5708C17.8579 63.6038 19.4488 67.3756 22.7778 68.319C26.7328 69.4452 31.051 69.78 35.1973 69.3038C38.9771 68.8747 42.505 67.8242 45.5726 66.2457C48.8476 64.5607 49.5408 60.1871 46.9368 57.5853C45.278 55.9277 42.7318 55.5038 40.6454 56.5773Z" fill="#FFD4BD"/>
<path d="M6.13516 22.2559C6.13516 22.2559 13.0455 23.4039 15.5995 28.8742C16.8198 31.4881 6.3455 36.3604 5.12534 33.7466C2.57133 28.2762 6.13516 22.2559 6.13516 22.2559Z" fill="#7A8FA5"/>
<path d="M29.0606 22.2559C29.0606 22.2559 22.1503 23.4039 19.5962 28.8742C18.3759 31.4881 28.8503 36.3604 30.0704 33.7466C32.6245 28.2762 29.0606 22.2559 29.0606 22.2559Z" fill="#7A8FA5"/>
<path d="M2.55626 42.5828C2.55626 49.5558 9.29073 53.027 17.5971 53.027C18.1109 53.027 18.6187 53.0132 19.1186 52.9872C19.8287 50.4638 20.9753 45.058 19.3318 38.578C18.0834 33.6556 15.7454 30.1644 14.2099 28.2178C7.53367 29.9579 2.55626 36.5883 2.55626 42.5828Z" fill="#6A829A"/>
<path d="M14.2098 28.2182C16.554 34.3441 18.8661 42.7973 19.1183 52.9878C26.7107 52.5857 32.6377 49.1252 32.6377 42.5833C32.6377 35.6117 25.9032 27.7793 17.5968 27.7793C16.4316 27.7794 15.2984 27.9338 14.2098 28.2182Z" fill="#5B778F"/>
<path d="M26.1479 41.9275C25.5189 41.9275 25.0011 41.4098 25.0011 40.7807V39.1408C25.0535 37.6266 27.2424 37.626 27.2949 39.1408V40.7807C27.2949 41.4098 26.7772 41.9275 26.1479 41.9275Z" fill="#333333"/>
<path d="M9.04736 41.9275C8.41828 41.9275 7.90053 41.4098 7.90053 40.7807V39.1408C7.95293 37.6266 10.1418 37.626 10.1943 39.1408V40.7807C10.1942 41.4098 9.67644 41.9275 9.04736 41.9275Z" fill="#333333"/>
<path d="M19.5515 47.3206C18.801 47.3206 18.1116 47.0548 17.5724 46.6127C15.5888 48.2783 12.4442 46.8116 12.467 44.1979C12.467 43.5646 12.9805 43.0511 13.6138 43.0511C14.2472 43.0511 14.7607 43.5646 14.7607 44.1979C14.7607 44.6548 15.134 45.0267 15.5931 45.0267C16.0521 45.0267 16.4254 44.6548 16.4254 44.1979V41.9274H16.1025C15.469 41.9274 14.9557 41.414 14.9557 40.7806C14.9557 40.1472 15.4692 39.6338 16.1025 39.6338H19.0921C19.7256 39.6338 20.2389 40.1472 20.2389 40.7806C20.2389 41.414 19.7255 41.9274 19.0921 41.9274H18.7192V44.1979C18.7192 44.6548 19.0925 45.0267 19.5516 45.0267C20.0108 45.0267 20.3841 44.6548 20.3841 44.1979C20.3841 43.5644 20.8975 43.0511 21.5309 43.0511C22.1643 43.0511 22.6777 43.5646 22.6777 44.1979C22.6776 45.92 21.2751 47.3206 19.5515 47.3206Z" fill="#333333"/>
<path d="M54.6689 33.2087C54.9275 32.6352 55.6122 32.3759 56.1858 32.6344C56.7594 32.893 57.0187 33.5778 56.7601 34.1513L55.9299 35.9928C55.8962 36.0702 55.8389 36.1782 55.7414 36.2839C55.4442 36.6059 54.8856 36.7845 54.4129 36.5671C53.8886 36.3261 53.612 35.6632 53.8385 35.0503L54.6689 33.2087Z" fill="#333333"/>
<path d="M35.4687 24.5847C35.7273 24.0112 36.412 23.7518 36.9856 24.0104C37.5592 24.269 37.8185 24.9537 37.5599 25.5273L36.7297 27.3688C36.6961 27.4461 36.6387 27.5542 36.5413 27.6599C36.2442 27.9819 35.6854 28.1604 35.2128 27.9431C34.6885 27.7021 34.4121 27.0393 34.6385 26.4262L35.4687 24.5847Z" fill="#333333"/>
<path d="M42.445 28.92C43.0511 28.7356 43.6916 29.0784 43.8754 29.6846C44.0881 30.3855 44.5926 30.9595 45.2602 31.2592C45.9281 31.5594 46.6941 31.5555 47.3617 31.2491C47.9374 30.9852 48.6181 31.2374 48.8825 31.813C49.1467 32.3885 48.8942 33.0696 48.3186 33.3338C47.6773 33.6281 46.9878 33.7755 46.2986 33.7755C45.624 33.7755 44.9492 33.6342 44.3201 33.3517C43.0475 32.7801 42.0854 31.6863 41.6803 30.3505C41.4967 29.7443 41.8388 29.1038 42.445 28.92Z" fill="#333333"/>
</svg>
