<svg width="274" height="241" viewBox="0 0 274 241" fill="none" xmlns="http://www.w3.org/2000/svg">
<path d="M139.217 34.5316C139.217 34.5316 193.011 9.97097 188.576 70.7498L161.477 81.569L139.217 34.5316Z" fill="#454545"/>
<path d="M92.8782 25.0145C92.8782 25.0145 64.6264 -5.24274 28.8747 27.419C-6.8771 60.0808 19.1523 83.4081 32.1853 74.679L92.8782 25.0145Z" fill="#454545"/>
<path d="M172.141 130.979L170.072 87.5595C168.978 64.5986 156.101 43.828 136.013 32.6232C109.854 18.0323 77.1016 22.6249 56.1321 44.0042C33.8267 66.7459 9.85197 104.207 1.93298 163.552C-0.238621 179.825 -0.483953 194.758 0.715693 208.418C2.29739 226.424 17.4247 240.216 35.5137 240.216H155.092L158.909 202.715L175.97 183.598L172.141 130.979Z" fill="#EBEBF9"/>
<path d="M17.2549 208.418C16.0553 194.758 16.3006 179.825 18.4722 163.552C26.3912 104.207 50.3659 66.7459 72.6718 44.0043C83.4312 33.0342 97.2949 26.4964 111.777 24.6896C91.6682 22.1787 70.9567 28.8905 56.1326 44.0043C33.8267 66.7459 9.85197 104.207 1.93298 163.552C-0.238621 179.825 -0.483953 194.758 0.715693 208.418C2.29739 226.424 17.4247 240.216 35.5137 240.216H52.0529C33.964 240.216 18.8366 226.424 17.2549 208.418Z" fill="#DEDDF5"/>
<path d="M109.22 240.216C128.063 212.171 125.27 170.543 125.131 168.649C124.964 166.374 122.98 164.667 120.706 164.831C118.428 164.998 116.717 166.978 116.884 169.254C116.918 169.714 119.97 215.003 98.9062 240.216H109.22Z" fill="#DEDDF5"/>
<path d="M194.481 78.1538C188.681 67.4746 176.45 62.0055 162.928 62.6313C161.115 62.7151 159.452 63.6168 158.394 65.0899C150.499 76.077 148.422 89.3046 154.222 99.9838C160.422 111.401 173.972 116.863 188.592 115.29C197.88 103.899 200.681 89.5706 194.481 78.1538Z" fill="#A8A8A8"/>
<path d="M273.952 99.3212C273.868 97.5094 272.966 95.8479 271.491 94.7903C260.496 86.9018 247.258 84.8266 236.57 90.6218C225.144 96.8175 219.678 110.356 221.252 124.964C232.652 134.245 246.991 137.044 258.417 130.849C269.105 125.054 274.578 112.832 273.952 99.3212Z" fill="#B7B7B7"/>
<path d="M250.02 222.863C248.945 180.305 221.243 165.213 221.243 165.213H166.884C166.884 165.213 139.182 180.305 138.107 222.863C137.867 232.382 145.563 240.215 155.092 240.215H233.035C242.564 240.215 250.261 232.382 250.02 222.863Z" fill="#C6C6C6"/>
<path d="M154.646 222.864C155.722 180.306 183.423 165.214 183.423 165.214H166.884C166.884 165.214 139.182 180.306 138.107 222.864C137.867 232.383 145.563 240.216 155.092 240.216H171.632C162.103 240.216 154.406 232.382 154.646 222.864Z" fill="#B7B7B7"/>
<path d="M202.59 179.371C230.991 179.371 254.015 156.365 254.015 127.986C254.015 99.6073 230.991 76.6016 202.59 76.6016C174.188 76.6016 151.164 99.6073 151.164 127.986C151.164 156.365 174.188 179.371 202.59 179.371Z" fill="#C6C6C6"/>
<path d="M179.453 239.297C169.363 227.185 173.347 203.747 173.4 203.438C173.8 201.193 172.304 199.048 170.057 198.647C167.809 198.246 165.66 199.741 165.26 201.988C165.078 203.002 161.31 224.898 170.078 240.215H180.028C179.879 239.893 179.691 239.583 179.453 239.297Z" fill="#B7B7B7"/>
<path d="M208.099 240.215H218.049C226.817 224.899 223.049 203.002 222.867 201.988C222.466 199.743 220.323 198.25 218.074 198.648C215.827 199.047 214.329 201.191 214.726 203.437C214.768 203.673 218.78 227.166 208.674 239.297C208.435 239.583 208.247 239.893 208.099 240.215Z" fill="#B7B7B7"/>
<path d="M198.198 240.216V202.715C198.198 200.433 196.348 198.583 194.064 198.583C191.779 198.583 189.929 200.433 189.929 202.715V240.216H198.198Z" fill="#B7B7B7"/>
<path d="M79.6235 240.043C77.8897 198.424 82.4562 176.496 85.1146 170.711C86.0821 168.659 85.2122 166.208 83.1618 165.225C81.1038 164.239 78.6334 165.106 77.6455 167.164C77.2954 167.894 69.1007 185.652 71.3545 240.215H79.6219C79.6219 240.158 79.6258 240.101 79.6235 240.043Z" fill="#DEDDF5"/>
<path d="M56.8136 240.215C35.7228 215.378 44.0509 170.277 44.1545 169.733C44.5867 167.493 43.1202 165.327 40.8786 164.894C38.6337 164.461 36.4676 165.928 36.0348 168.167C35.9367 168.676 33.635 180.805 34.2497 196.417C34.9438 214.04 39.1569 229.005 46.5141 240.215H56.8136Z" fill="#DEDDF5"/>
<path d="M238.928 15.1626C228.758 -14.8241 177.873 2.43637 216.207 57.382C216.658 58.0277 217.404 58.4067 218.192 58.3896C285.208 56.9386 269.164 5.69203 238.928 15.1626Z" fill="#E85B5B"/>
<path d="M71.2496 58.346C69.0405 57.7759 66.7829 59.1035 66.2118 61.3125L64.5887 67.5869C64.017 69.7959 65.3462 72.0501 67.5569 72.6208C69.7589 73.1887 72.0214 71.8732 72.5948 69.6549L74.2179 63.3804C74.7896 61.1709 73.4609 58.9173 71.2496 58.346Z" fill="#454545"/>
<path d="M136.602 75.2249C134.393 74.6548 132.136 75.9824 131.564 78.1914L129.941 84.4653C129.263 87.0896 131.252 89.6313 133.948 89.6313C135.788 89.6313 137.466 88.3952 137.948 86.5327L139.571 80.2588C140.142 78.0498 138.814 75.7962 136.602 75.2249Z" fill="#454545"/>
<path d="M115.121 86.2872C112.912 85.716 110.655 87.0441 110.083 89.2531C109.838 90.2034 109.236 91.0011 108.39 91.4996C105.573 93.1572 102.148 90.5615 102.962 87.4138L103.925 83.6921L105.803 84.1768C108.007 84.7459 110.268 83.4266 110.84 81.2109C111.412 79.0019 110.083 76.7478 107.872 76.1765L96.1116 73.139C93.9025 72.5689 91.6449 73.8959 91.0738 76.1055C90.5021 78.3145 91.8313 80.5686 94.042 81.1393L95.9192 81.6241L94.9561 85.3458C94.7102 86.2966 94.1087 87.0943 93.2625 87.5923C90.4646 89.2399 87.0134 86.6833 87.8348 83.5064C88.4065 81.2974 87.0773 79.0433 84.8666 78.4726C82.6547 77.9013 80.3999 79.2289 79.8282 81.4385C77.2569 91.3784 87.6237 99.6387 96.7043 95.1194C102.51 103.519 115.534 101.199 118.09 91.3206C118.661 89.1116 117.332 86.8579 115.121 86.2872Z" fill="#454545"/>
<path d="M177.036 107.25C174.827 106.679 172.57 108.006 171.999 110.215L170.538 115.861C169.859 118.485 171.848 121.027 174.545 121.027C176.384 121.027 178.063 119.791 178.545 117.929L180.005 112.283C180.576 110.074 179.248 107.82 177.036 107.25Z" fill="#454545"/>
<path d="M235.844 122.438C233.633 121.868 231.377 123.195 230.806 125.404L229.346 131.05C228.667 133.674 230.656 136.216 233.352 136.216C235.192 136.216 236.871 134.98 237.352 133.118L238.813 127.472C239.384 125.263 238.055 123.009 235.844 122.438Z" fill="#454545"/>
<path d="M216.515 132.393C214.306 131.823 212.048 133.15 211.477 135.359C211.283 136.107 210.81 136.736 210.144 137.127C207.936 138.428 205.226 136.403 205.871 133.911C206.443 131.702 205.114 129.448 202.903 128.877C200.694 128.306 198.436 129.634 197.865 131.843C197.465 133.387 195.883 134.319 194.337 133.92C192.791 133.521 191.859 131.94 192.258 130.395C192.83 128.186 191.501 125.932 189.289 125.361C187.081 124.791 184.823 126.118 184.251 128.327C181.916 137.355 191.137 145.168 199.691 141.259C205.217 148.769 217.13 146.525 219.483 137.427C220.055 135.217 218.725 132.964 216.515 132.393Z" fill="#454545"/>
</svg>
