<svg width="76" height="76" viewBox="0 0 76 76" fill="none" xmlns="http://www.w3.org/2000/svg">
<g clip-path="url(#clip0_3731_11293)">
<path d="M2.40447 42.6253C4.59556 48.207 6.08201 53.9826 5.4412 59.3053C5.20756 61.2465 6.51396 63.0489 8.42984 63.4477C16.2233 65.0695 26.2701 64.7577 31.079 63.7974C31.8141 62.0892 23.1424 44.1654 17.4321 37.014C16.4443 35.7766 1.86089 41.2409 2.40447 42.6253Z" fill="#516980"/>
<path d="M45.1959 45.1729C50.1138 50.3198 45.1959 68.409 45.1959 68.409L42.9077 76.5536H27.7557C26.5599 74.132 25.0246 70.1446 24.9711 65.0998C24.8564 54.1929 31.7607 46.8595 33.4365 45.1728C33.4365 45.1729 42.2816 42.123 45.1959 45.1729Z" fill="#FFB3C2"/>
<path d="M27.7555 76.5538H18.8971C17.1201 76.5538 15.6797 75.1145 15.6797 73.3394V62.9137C15.6797 58.3625 17.3955 54.2099 20.2183 51.0703C23.5733 51.3316 26.9298 51.5928 30.2864 51.8541C28.9789 54.983 27.4391 59.7023 27.0552 65.6026C26.7844 69.7674 27.1561 73.4738 27.7555 76.5538Z" fill="#FF899F"/>
<path d="M58.8569 76.5538H61.5222C63.2991 76.5538 64.7396 75.1146 64.7396 73.3394V63.0298C64.7396 56.9096 60.4192 51.798 54.659 50.5732C53.9148 51.7815 50.1483 58.1682 52.187 66.1365C53.6745 71.95 57.4243 75.3703 58.8569 76.5538Z" fill="#C6C6C6"/>
<path d="M58.8575 68.826V76.5536H52.8418C52.0705 75.0137 50.7131 71.7563 51.0321 67.5553C51.2121 65.1853 51.8676 63.2797 52.4441 61.9814C56.0256 62.2138 58.8575 65.1884 58.8575 68.826Z" fill="#B7B7B7"/>
<path d="M54.6595 50.5732C54.1857 52.2 53.738 53.9791 53.3545 55.9002C52.921 58.0714 52.6322 60.1099 52.4439 61.9817C51.0932 63.1673 49.0366 65.2687 47.4192 68.4445C45.7429 71.736 45.2725 74.7401 45.1269 76.5538H42.9074C40.8842 76.5538 39.2441 74.9137 39.2441 72.8905V63.0298C39.2441 57.6092 42.6343 52.98 47.4115 51.1421C49.8276 50.9525 52.2436 50.7629 54.6595 50.5732Z" fill="#B7B7B7"/>
<path d="M52.8417 76.554H45.127V68.8265C45.127 65.0377 48.2006 61.9668 51.9929 61.9668C52.1443 61.9668 52.2957 61.9714 52.444 61.9821C52.2865 63.5909 52.1871 65.3004 52.1703 67.1017C52.1368 70.6004 52.4182 73.7766 52.8417 76.554Z" fill="#A8A8A8"/>
<path d="M6.52448 46.8551C9.96444 46.8551 12.7531 44.069 12.7531 40.6321C12.7531 37.1953 9.96444 34.4092 6.52448 34.4092C3.08453 34.4092 0.295898 37.1953 0.295898 40.6321C0.295898 44.069 3.08453 46.8551 6.52448 46.8551Z" fill="#FFD4BD"/>
<path d="M44.991 32.7731C44.991 41.9275 38.7504 49.6276 30.2865 51.8537C28.5294 48.7537 26.4827 44.2393 25.4986 38.5129C23.4871 26.8092 27.1743 17.3821 29.0204 13.4053C38.4658 16.7401 44.991 24.5531 44.991 32.7731Z" fill="#FFD4BD"/>
<path d="M30.2864 51.8542C28.6778 52.2774 26.988 52.5035 25.2448 52.5035C14.3388 52.5035 5.49707 43.6698 5.49707 32.7736C5.49707 19.9207 20.1392 10.6533 25.2448 13.0452C27.2167 13.9691 27.9751 16.7312 28.2511 19.4941C27.3036 22.6576 26.4263 26.7856 26.2966 31.6471C26.0577 40.6043 28.4727 47.6982 30.2864 51.8542Z" fill="#FFBF9D"/>
<path d="M49.6265 27.7206C39.245 27.7864 28.2518 19.4935 28.2518 19.4935C28.2458 19.518 28.2397 19.5438 28.2334 19.5683C27.8539 18.607 27.1059 16.3329 27.5913 13.4607C28.0477 10.7594 29.3579 8.93408 30.0119 8.13281C38.9361 10.2305 48.2716 17.8221 49.6265 27.7206Z" fill="#5B778F"/>
<path d="M68.4031 62.5429L67.3927 63.0653C64.9784 64.3133 62.0086 63.3696 60.7595 60.9575C59.5104 58.5454 60.4549 55.5782 62.8691 54.3302L63.8795 53.8078C66.2938 52.5598 69.2636 53.5035 70.5127 55.9156C71.762 58.3278 70.8173 61.2949 68.4031 62.5429Z" fill="#FFD4BD"/>
<path d="M44.8718 23.3565C44.8718 23.3565 39.1744 28.6379 42.5553 36.6525C43.8294 39.6726 57.2894 34.0048 56.0153 30.9847C52.6342 22.9701 44.8718 23.3565 44.8718 23.3565Z" fill="#A8A8A8"/>
<path d="M75.8648 33.3068C75.8648 33.3068 77.4164 40.9155 69.9954 45.4622C67.199 47.1754 59.5633 34.7349 62.3597 33.0216C69.7807 28.475 75.8648 33.3068 75.8648 33.3068Z" fill="#B7B7B7"/>
<path d="M30.0114 8.13327C29.3339 11.2484 28.6627 15.103 28.233 19.5687C25.1747 32.1898 7.22074 38.8143 0.665148 38.5178C0.237055 36.6753 0 34.7472 0 32.7735C0 18.8445 11.302 7.55273 25.2451 7.55273C26.7864 7.55273 28.3921 7.75283 30.0114 8.13327Z" fill="#516980"/>
<path d="M50.2421 62.4585C49.1365 60.4785 46.8153 59.493 44.6331 60.1165C40.0495 61.3298 34.307 60.5091 30.0173 58.1823C28.0878 57.1358 25.7036 57.4637 24.1515 59.016C21.8228 61.3446 22.3802 65.2677 25.2759 66.8361C31.886 70.4166 40.5206 71.4918 47.2937 69.5795C50.346 68.7149 51.7864 65.2269 50.2421 62.4585Z" fill="#FFD4BD"/>
<path d="M70.5161 47.5237C68.8012 53.726 61.2821 57.0892 53.4673 55.349C52.9035 53.1274 51.9844 48.1774 53.6702 42.2822C55.1702 37.0372 58.02 33.5841 59.581 31.9355C67.3889 34.3558 72.2593 41.2262 70.5161 47.5237Z" fill="#C6C6C6"/>
<path d="M59.5812 31.9357C58.3303 34.3756 57.1163 37.1898 56.0993 40.369C54.2139 46.2632 53.6066 51.4883 53.4675 55.3491C52.1245 55.1145 50.9202 54.6462 49.7242 54.1283C43.236 51.2011 39.4299 45.0563 41.0004 39.376C42.7864 32.921 50.8406 29.5111 58.991 31.7614C59.147 31.8042 59.303 31.8501 59.4559 31.8974C59.4972 31.9097 59.5399 31.9235 59.5812 31.9357Z" fill="#B7B7B7"/>
<path d="M20.6231 37.6022C19.8784 37.262 19.0454 37.232 18.2783 37.5177C17.511 37.8033 16.9008 38.3705 16.5604 39.1146C16.2199 39.8587 16.1899 40.6907 16.4759 41.4574C16.6478 41.9186 17.0856 42.2034 17.5508 42.2034C17.6838 42.2034 17.8191 42.1801 17.9511 42.131C18.5446 41.91 18.8465 41.2502 18.6253 40.6572C18.4766 40.2586 18.6804 39.8136 19.0792 39.665C19.2725 39.5932 19.4822 39.6007 19.6697 39.6862C19.8573 39.7719 20.0001 39.9254 20.0721 40.1183C20.2933 40.7115 20.9539 41.013 21.5473 40.7921C22.1409 40.5711 22.4428 39.9113 22.2217 39.3183C21.9356 38.5517 21.3678 37.9422 20.6231 37.6022Z" fill="#333333"/>
<path d="M34.3515 31.5338C33.5842 31.8194 32.974 32.3865 32.6336 33.1307C32.2931 33.8748 32.2631 34.7068 32.5492 35.4735C32.7211 35.9346 33.1588 36.2195 33.624 36.2195C33.757 36.2195 33.8924 36.1962 34.0244 36.1471C34.618 35.926 34.9197 35.2662 34.6986 34.6732C34.55 34.2747 34.7536 33.8297 35.1525 33.6811C35.5515 33.5323 35.9969 33.736 36.1455 34.1345C36.3667 34.7276 37.0274 35.0292 37.6207 34.8082C38.2143 34.5871 38.5161 33.9273 38.2949 33.3343C37.7046 31.7518 35.9353 30.944 34.3515 31.5338Z" fill="#333333"/>
<path d="M30.4801 37.7133C29.8877 37.4906 29.226 37.7898 29.0027 38.3819C28.8442 38.8027 28.5123 39.1337 28.0922 39.2902C27.672 39.4468 27.2041 39.4134 26.8084 39.1987C26.2517 38.8968 25.5555 39.103 25.2533 39.6593C24.9513 40.2155 25.1576 40.9111 25.7144 41.2129C26.2851 41.5224 26.9172 41.6793 27.5514 41.6793C28.0046 41.6793 28.459 41.5993 28.893 41.4376C29.9347 41.0497 30.7571 40.2304 31.1494 39.1894C31.3725 38.5971 31.073 37.9363 30.4801 37.7133Z" fill="#333333"/>
<path d="M50.5847 42.8097C50.014 44.3881 50.835 46.1359 52.4148 46.7062C52.7553 46.8291 53.1037 46.8873 53.4466 46.8873C53.7837 46.8873 54.1147 46.8291 54.4282 46.7224C54.7768 47.2915 55.3119 47.7515 55.9874 47.9954C56.3254 48.1174 56.6753 48.1781 57.0243 48.1781C57.4656 48.1781 57.9051 48.081 58.3164 47.8882C59.0529 47.5428 59.6109 46.9315 59.8873 46.1669C60.1024 45.5717 59.7939 44.9149 59.1983 44.6999C58.6021 44.485 57.945 44.7933 57.7299 45.3884C57.6616 45.5772 57.5239 45.7283 57.3419 45.8135C57.1599 45.8989 56.9555 45.9081 56.7667 45.8401C56.5776 45.7718 56.4265 45.6341 56.3411 45.4524C56.2558 45.2707 56.2463 45.0666 56.3146 44.8778C56.5298 44.2825 56.2214 43.6257 55.6257 43.4108C55.0296 43.1955 54.3724 43.5038 54.1573 44.0991C54.0163 44.489 53.5841 44.6913 53.1941 44.5509C52.8039 44.41 52.6011 43.9782 52.742 43.5884C52.9572 42.9932 52.6488 42.3365 52.0531 42.1214C51.4571 41.9059 50.8 42.2145 50.5847 42.8097Z" fill="#333333"/>
<path d="M46.0711 40.7497C46.6668 40.9649 47.3242 40.6565 47.5393 40.0612C47.6634 39.7184 48.0432 39.5405 48.3864 39.664C48.7296 39.788 48.9079 40.1675 48.7839 40.5104C48.5688 41.1056 48.8773 41.7623 49.473 41.9774C49.6017 42.0239 49.7332 42.0459 49.8625 42.0459C50.332 42.0459 50.7725 41.7557 50.9413 41.289C51.4948 39.7577 50.6983 38.0619 49.1656 37.5087C47.6331 36.9558 45.9357 37.7516 45.382 39.2828C45.1668 39.8779 45.4752 40.5348 46.0711 40.7497Z" fill="#333333"/>
<path d="M61.2762 46.2369C61.872 46.452 62.5293 46.1437 62.7444 45.5485C62.8683 45.2057 63.2482 45.0273 63.5915 45.1513C63.9347 45.2752 64.113 45.6548 63.989 45.9977C63.7739 46.5929 64.0824 47.2497 64.6781 47.4647C64.8068 47.5111 64.9383 47.5331 65.0676 47.5331C65.5371 47.5331 65.9776 47.2429 66.1464 46.7762C66.6999 45.2449 65.9034 43.5492 64.3706 42.996C62.8379 42.4432 61.1406 43.2388 60.587 44.7701C60.372 45.3652 60.6803 46.022 61.2762 46.2369Z" fill="#333333"/>
</g>
<defs>
<clipPath id="clip0_3731_11293">
<rect width="76" height="76" fill="white"/>
</clipPath>
</defs>
</svg>
