<svg width="76" height="66" viewBox="0 0 76 66" fill="none" xmlns="http://www.w3.org/2000/svg">
<g clip-path="url(#clip0_1518_7187)">
<path d="M65.5331 22.1455V59.2978C65.5331 62.8374 62.6627 65.7061 59.1211 65.7061H52.379L43.8095 63.7834L43.2789 63.6642C39.592 58.1423 33.4707 46.9199 33.4952 31.8811C33.5136 20.8342 36.8395 12.268 39.1547 7.47363L65.5331 22.1455Z" fill="#B2A4FD"/>
<path d="M43.8091 63.7838L43.2785 63.6646L37.1832 62.2967L22.7997 65.7065H16.8787C13.3386 65.7065 10.4668 62.8378 10.4668 59.2982V22.146L37.9997 6.83203L39.1543 7.47387C37.3819 14.1237 36.125 22.0832 36.336 31.0667C36.6678 45.1565 40.4877 56.4265 43.8091 63.7838Z" fill="#A392FD"/>
<path d="M49.9142 10.2344L61.859 17.5173V3.73606C61.859 1.83502 60.3179 0.293945 58.4169 0.293945H53.3562C51.4551 0.293945 49.9141 1.83502 49.9141 3.73606V10.2344H49.9142Z" fill="#DEDDF5"/>
<path d="M42.3152 39.2011C42.3152 38.2484 42.0785 37.2733 41.6508 36.3352C41.6729 36.2962 41.6934 36.2558 41.71 36.2124C43.7628 30.8666 40.9287 27.887 40.9287 27.887C40.9287 27.887 38.1556 28.1057 36.0286 31.1561C34.8896 30.7097 33.6485 30.4508 32.3482 30.4508C31.0414 30.4508 29.7947 30.7121 28.6511 31.1626C26.6123 28.1311 23.8932 27.8447 23.8932 27.8447C23.8932 27.8447 20.98 30.7471 22.8885 36.1462C22.9202 36.2362 22.9649 36.3171 23.0201 36.39C22.6082 37.3112 22.3811 38.267 22.3811 39.2011C22.3811 42.2583 24.7966 44.8879 28.264 46.066C25.03 47.6368 22.8 51.0035 22.8 54.8436V65.7061H36.3981L41.8968 54.6683C41.8968 50.8701 39.6754 47.5923 36.4613 46.0562C39.9129 44.8735 42.3152 42.25 42.3152 39.2011Z" fill="#C6C6C6"/>
<path d="M52.7293 50.8739C52.7293 50.31 52.6297 49.7638 52.4456 49.2438C55.0396 44.5664 52.9965 41.2338 52.9965 41.2338C52.9965 41.2338 49.2923 40.7466 46.1177 44.712C45.5596 44.6231 44.9814 44.5756 44.3883 44.5756C43.7951 44.5756 43.217 44.6231 42.6588 44.712C39.484 40.7465 35.7801 41.2338 35.7801 41.2338C35.7801 41.2338 33.737 44.5665 36.3309 49.2438C36.1469 49.7639 36.0473 50.31 36.0473 50.8739C36.0473 52.7371 37.1194 54.4106 38.8223 55.5638C37.3277 57.0149 36.3977 59.0439 36.3977 61.2911V65.7064H52.3788V61.2911C52.3788 59.0439 51.4489 57.0149 49.9542 55.5638C51.6573 54.4108 52.7293 52.7371 52.7293 50.8739Z" fill="#EBEBF9"/>
<path d="M75.3259 27.7208C74.3778 29.3836 72.6391 30.3174 70.8515 30.3174C69.9891 30.3174 69.1143 30.1004 68.31 29.6434L38.0015 12.3886C37.7522 11.4828 37.3015 9.37069 38.0001 6.83152C38.682 4.35276 40.0951 2.79016 40.7663 2.13184L73.4021 20.7086C75.8702 22.1149 76.7311 25.2526 75.3259 27.7208Z" fill="#EBEBF9"/>
<path d="M40.766 2.13242C39.7337 5.18904 38.7673 8.62166 38.0012 12.389C37.9997 12.389 7.68979 29.6438 7.68979 29.6438C5.22172 31.0483 2.08078 30.1878 0.675377 27.7213C-0.731514 25.253 0.131056 22.1154 2.59913 20.7092L35.4552 2.00699C37.0334 1.10835 38.9677 1.10835 40.5458 2.00699L40.766 2.13242Z" fill="#DEDDF5"/>
</g>
<defs>
<clipPath id="clip0_1518_7187">
<rect width="76" height="66" fill="white"/>
</clipPath>
</defs>
</svg>
