<svg width="265" height="264" viewBox="0 0 265 264" fill="none" xmlns="http://www.w3.org/2000/svg">
<g clip-path="url(#clip0_1405_7200)">
<path d="M191.086 147.444V191.086H71.9141V147.444C71.9141 114.847 98.0721 88.3608 130.54 87.8486C130.861 87.8379 131.178 87.8379 131.5 87.8379C147.955 87.8379 162.849 94.5082 173.633 105.295C184.417 116.082 191.086 130.984 191.086 147.444Z" fill="#C6C6C6"/>
<path d="M138.947 191.272H71.7266V147.505C71.7266 114.813 97.9665 88.251 130.536 87.7373L137.92 135.866C137.92 135.866 121.572 161.757 138.947 191.272Z" fill="#A8A8A8"/>
<path d="M256.833 162.376C255.484 168.071 252.557 173.268 248.418 177.412L228.175 197.671C223.698 202.149 220.665 207.864 219.458 214.077L215.055 236.803L182.55 221.646C166.593 214.205 160.449 193.622 168.821 175.67C171.108 170.764 174.24 166.568 177.908 163.207C184.164 157.481 189.282 150.633 192.865 142.948L206.355 114.03C209.493 107.283 216.765 103.779 223.756 105.102C225.031 105.346 226.302 105.748 227.535 106.325C227.556 106.336 227.578 106.346 227.599 106.351C227.609 106.357 227.62 106.367 227.63 106.367C227.704 106.409 227.784 106.452 227.863 106.489C228.128 105.165 228.403 103.848 228.689 102.53C228.985 101.164 229.292 99.8098 229.604 98.4599C232.88 84.3452 237.035 71.151 239.654 63.3288C241.131 58.9256 245.201 55.9196 249.842 55.7928C249.942 55.7871 250.048 55.7871 250.149 55.7871C255.812 55.7871 260.596 60.0845 261.152 65.758C265.904 114.311 260.395 147.372 256.833 162.376Z" fill="#FFD4BD"/>
<path d="M240.84 125.732L227.371 154.623C226.693 156.068 225.264 156.914 223.767 156.914C223.206 156.914 222.635 156.793 222.095 156.544C220.105 155.618 219.248 153.252 220.174 151.267L233.648 122.376C236.438 116.391 233.844 109.277 227.864 106.489C228.129 105.165 228.404 103.848 228.689 102.53C228.986 101.164 229.293 99.8099 229.605 98.46L231.214 99.2752C236.029 101.519 239.687 105.51 241.507 110.506C243.322 115.502 243.089 120.911 240.84 125.732Z" fill="#FFBF9D"/>
<path d="M6.16516 162.376C7.51458 168.071 10.441 173.268 14.5801 177.412L34.8234 197.671C39.3006 202.149 42.3333 207.864 43.5399 214.077L47.9431 236.803L80.4488 221.646C96.4055 214.205 102.55 193.622 94.1772 175.67C91.8908 170.764 88.7579 166.568 85.0903 163.207C78.8348 157.481 73.7166 150.633 70.1337 142.948L56.6437 114.03C53.5052 107.283 46.2336 103.779 39.2425 105.102C37.9671 105.346 36.6968 105.748 35.4635 106.325C35.4424 106.336 35.4208 106.346 35.3998 106.351C35.389 106.357 35.3787 106.367 35.3679 106.367C35.2939 106.409 35.2143 106.452 35.1352 106.489C34.8707 105.165 34.5954 103.848 34.3098 102.53C34.0134 101.164 33.7062 99.8098 33.3944 98.4599C30.1182 84.3452 25.9636 71.151 23.3444 63.3288C21.8676 58.9256 17.7978 55.9196 13.1567 55.7928C13.0561 55.7871 12.9503 55.7871 12.8496 55.7871C7.18685 55.7871 2.40251 60.0845 1.84672 65.758C-2.90577 114.311 2.60336 147.372 6.16516 162.376Z" fill="#FFBF9D"/>
<path d="M22.1596 125.732L35.6286 154.623C36.3061 156.068 37.7351 156.914 39.2325 156.914C39.7934 156.914 40.3646 156.793 40.9045 156.544C42.8945 155.618 43.7518 153.252 42.8256 151.267L29.351 122.376C26.5617 116.391 29.1553 109.277 35.1354 106.489C34.8709 105.165 34.5956 103.848 34.31 102.53C34.0136 101.164 33.7064 99.8099 33.3946 98.46L31.7858 99.2752C26.9701 101.519 23.3128 105.51 21.4923 110.506C19.6775 115.502 19.9102 120.911 22.1596 125.732Z" fill="#FFAC89"/>
<path d="M231.125 223.091V255.062C231.125 259.444 227.568 263.001 223.186 263.001H167.335C162.948 263.001 159.396 259.445 159.396 255.062V223.091C159.396 214.322 166.504 207.214 175.274 207.214H215.247C224.011 207.214 231.125 214.322 231.125 223.091Z" fill="#B2A4FD"/>
<path d="M103.603 223.091V255.062C103.603 259.444 100.052 263.001 95.6643 263.001H39.8138C35.4317 263.001 31.875 259.445 31.875 255.062V223.091C31.875 214.322 38.9883 207.214 47.7521 207.214H87.7255C96.4949 207.214 103.603 214.322 103.603 223.091Z" fill="#A392FD"/>
<path d="M207.212 239.092C211.613 239.092 215.181 235.523 215.181 231.122C215.181 226.72 211.613 223.152 207.212 223.152C202.81 223.152 199.242 226.72 199.242 231.122C199.242 235.523 202.81 239.092 207.212 239.092Z" fill="#EBEBF9"/>
<path d="M55.788 239.092C60.1895 239.092 63.7576 235.523 63.7576 231.122C63.7576 226.72 60.1895 223.152 55.788 223.152C51.3865 223.152 47.8184 226.72 47.8184 231.122C47.8184 235.523 51.3865 239.092 55.788 239.092Z" fill="#DEDDF5"/>
<path d="M150.794 110.091C151.725 120.758 152.427 133.649 152.36 148.27C152.301 161.263 153.588 191.086 153.588 191.086H140.135H133.408C133.408 191.086 129.766 174.125 128.738 162.925C126.372 137.152 129.581 115.891 131.684 105.09C133.408 104.554 135.175 104.275 136.974 104.275C141.903 104.275 146.58 106.353 150.794 110.091Z" fill="#B7B7B7"/>
<path d="M99.3721 3.79023L67.3771 35.3885C64.1047 27.3605 63.2351 15.8122 63.9066 9.45019C64.2889 4.51228 68.2041 0.597139 73.1424 0.214301C79.5625 -0.471557 91.2797 0.438436 99.3721 3.79023Z" fill="#A8A8A8"/>
<path d="M72.9989 46.1927C70.5659 42.6455 68.7394 38.9981 67.377 35.3892C69.6475 30.475 72.9413 24.9441 77.7456 19.5616C84.8204 11.6403 92.737 6.779 99.3719 3.79102C103.88 5.52608 108.45 7.99759 112.8 11.4635L72.9989 46.1927Z" fill="#A8A8A8"/>
<path d="M166.197 3.78925L198.192 35.3875C201.465 27.3595 202.334 15.8113 201.663 9.44921C201.28 4.51131 197.365 0.596162 192.427 0.213325C186.006 -0.472533 174.289 0.437456 166.197 3.78925Z" fill="#A8A8A8"/>
<path d="M198.193 35.3883C196.831 39.0023 195 42.6496 192.567 46.2014L152.766 11.4672C157.121 7.9966 161.686 5.52974 166.198 3.79004C172.834 6.77756 180.75 11.6394 187.825 19.5606C192.628 24.9435 195.922 30.474 198.193 35.3883Z" fill="#A8A8A8"/>
<path d="M195.792 63.6178C195.448 95.6703 165.619 118.099 134.073 118.587C121.646 115.976 101.251 108.218 90.9204 84.6363C80.8483 61.6377 86.7273 30.1323 108.493 12.8791C109.231 12.6095 109.974 12.3431 110.726 12.0977L132.782 17.2314L154.837 12.0977C178.761 19.8969 195.792 40.0262 195.792 63.6178Z" fill="#C6C6C6"/>
<path d="M134.074 118.577C133.643 118.587 133.213 118.587 132.783 118.587C103.307 118.744 75.0842 99.7138 70.4377 71.3806C70.1175 68.9713 69.9551 66.5142 69.9551 64.019C69.9551 59.0333 70.6098 54.2049 71.8335 49.6062C76.8434 32.9655 90.568 19.4085 108.494 12.8691C89.7884 32.8894 84.2096 61.0315 94.2822 84.0295C104.612 107.611 127.262 116.364 134.074 118.577Z" fill="#B7B7B7"/>
<path d="M132.782 8.63184C125.022 8.63184 117.592 9.85877 110.727 12.0973V23.7537C110.727 35.9344 120.601 45.8093 132.782 45.8093C144.962 45.8093 154.837 35.9349 154.837 23.7537V12.0973C147.973 9.85831 140.542 8.63184 132.782 8.63184Z" fill="#A8A8A8"/>
<path d="M103.372 61.3896C97.7672 61.3896 93.207 65.9498 93.207 71.555C93.207 73.5351 94.8122 75.1402 96.7922 75.1402C98.7723 75.1402 100.377 73.5351 100.377 71.555C100.377 69.9035 101.721 68.5601 103.372 68.5601C105.024 68.5601 106.367 69.9035 106.367 71.555C106.367 73.5351 107.972 75.1402 109.953 75.1402C111.933 75.1402 113.538 73.5351 113.538 71.555C113.537 65.9498 108.978 61.3896 103.372 61.3896Z" fill="#454545"/>
<path d="M155.613 75.1402C157.593 75.1402 159.198 73.5351 159.198 71.555C159.198 69.9035 160.541 68.5601 162.193 68.5601C163.844 68.5601 165.188 69.9035 165.188 71.555C165.188 73.5351 166.793 75.1402 168.773 75.1402C170.753 75.1402 172.358 73.5351 172.358 71.555C172.358 65.9498 167.798 61.3896 162.193 61.3896C156.588 61.3896 152.027 65.9498 152.027 71.555C152.027 73.5351 153.632 75.1402 155.613 75.1402Z" fill="#454545"/>
<path d="M146.837 74.2054C144.857 74.2054 143.252 75.8105 143.252 77.7906C143.252 79.6853 141.711 81.2264 139.816 81.2264C137.921 81.2264 136.38 79.6848 136.38 77.7906V72.2944C138.475 72.4016 140.227 70.7139 140.225 68.7092C140.224 66.8011 138.634 65.163 136.64 65.124H128.95C126.956 65.1635 125.366 66.8011 125.365 68.7092C125.363 70.7139 127.115 72.4021 129.21 72.2944V77.7906C129.21 79.6853 127.669 81.2264 125.774 81.2264C123.879 81.2264 122.338 79.6848 122.338 77.7906C122.338 75.8101 120.733 74.2054 118.753 74.2054C116.773 74.2054 115.168 75.8105 115.168 77.7906C115.168 83.6394 119.926 88.3973 125.775 88.3973C128.466 88.3973 130.924 87.3884 132.796 85.7309C134.668 87.388 137.126 88.3973 139.817 88.3973C145.665 88.3973 150.424 83.639 150.424 77.7906C150.423 75.8105 148.818 74.2054 146.837 74.2054Z" fill="#454545"/>
</g>
<defs>
<clipPath id="clip0_1405_7200">
<rect width="265" height="263" fill="white" transform="translate(0 0.5)"/>
</clipPath>
</defs>
</svg>
