<svg width="88" height="74" viewBox="0 0 88 74" fill="none" xmlns="http://www.w3.org/2000/svg">
<path d="M88.0004 24.1861C88.021 38.3104 74.1562 54.7858 59.4665 65.6635L44.8061 63.943L34.7191 64.9605C31.6264 64.1589 28.5526 61.8002 25.9557 59.0554C20.6157 53.4112 10.5375 42.5115 10.0975 27.2339C9.73486 14.6547 15.0943 4.54418 20.191 0.727525C21.3667 0.547056 22.5732 0.452525 23.7985 0.450806C32.2941 0.438775 39.7549 4.87985 43.983 11.5673C48.1903 4.8661 55.6375 0.402681 64.1348 0.39065C77.2963 0.371744 87.9815 11.0242 88.0004 24.1861Z" fill="#FD7A6E"/>
<path d="M34.7185 64.9605L28.4968 65.5878C22.5072 61.1639 16.6602 55.8154 11.8358 50.0766C5.03488 42.0348 -0.201984 32.3929 0.00598494 23.9093C0.184735 12.1569 8.87284 2.46176 20.1905 0.727539C17.1483 4.8008 11.0744 14.252 11.437 26.8312C11.877 42.1087 21.5326 52.311 26.8726 57.9552C29.4697 60.6999 32.1318 63.0149 34.7185 64.9605Z" fill="#F85647"/>
<path d="M59.4645 65.663C56.4651 67.885 53.4303 69.8734 50.4718 71.559L50.4473 63.3363L50.4718 54.0781C55.1159 56.187 58.5543 60.4894 59.4645 65.663Z" fill="#C6C6C6"/>
<path d="M35.9414 54.88C36.552 54.516 37.0881 54.2534 37.4783 54.0762C37.9006 56.5288 38.2261 59.4882 38.2213 62.8452C38.2167 66.1401 37.8947 69.0491 37.4783 71.4685C36.0361 70.6415 34.538 69.7324 33.0025 68.7277C31.5008 67.745 29.994 66.6959 28.4961 65.5884C28.9086 63.3133 29.8099 61.2062 31.0883 59.3844C31.7239 58.4784 33.2744 56.4699 35.9414 54.88Z" fill="#A8A8A8"/>
<path d="M50.4718 54.0781C50.9095 56.6502 51.2399 59.7584 51.2084 63.2841C51.1804 66.4168 50.8728 69.2038 50.4718 71.5607C49.5595 72.2001 47.8354 73.2157 45.4614 73.5196C44.1951 73.6818 43.0987 73.5959 42.274 73.4605C41.4427 71.7539 40.5842 69.5183 40.1008 66.8177C38.9885 60.6032 40.4975 55.4765 41.4862 52.8722C42.2971 52.743 43.1276 52.6758 43.9737 52.6758C46.2914 52.6758 48.4906 53.1768 50.4718 54.0781Z" fill="#B7B7B7"/>
<path d="M42.2741 73.4601C41.1692 73.2707 40.0875 72.9024 39.0693 72.3536C38.5416 72.0684 38.0105 71.7745 37.4775 71.4701C37.4775 68.6091 37.4775 65.7479 37.4775 62.8869C37.4775 59.9499 37.4775 57.0131 37.4775 54.0761C38.0349 53.8229 38.6858 53.5668 39.4245 53.3439C40.0936 53.1421 40.7815 52.9836 41.4845 52.8721C40.7604 56.4062 40.2167 61.2309 40.9126 66.8436C41.2189 69.3135 41.7146 71.5301 42.2741 73.4601Z" fill="#A8A8A8"/>
<path d="M31.6262 15.5314L19.7758 27.2349C18.5637 24.2615 18.2416 19.9842 18.4904 17.6278C18.632 15.7988 20.0821 14.3487 21.9112 14.2069C24.2891 13.9529 28.6289 14.29 31.6262 15.5314Z" fill="#A8A8A8"/>
<path d="M21.8577 31.2362C20.9565 29.9223 20.28 28.5714 19.7754 27.2347C20.6164 25.4146 21.8363 23.366 23.6158 21.3724C26.2362 18.4385 29.1684 16.638 31.6258 15.5312C33.2954 16.1739 34.9882 17.0893 36.5994 18.373L21.8577 31.2362Z" fill="#A8A8A8"/>
<path d="M56.377 15.5304L68.2274 27.2339C69.4395 24.2605 69.7615 19.9832 69.5128 17.6268C69.3712 15.7979 67.9211 14.3478 66.092 14.206C63.714 13.9519 59.3741 14.289 56.377 15.5304Z" fill="#A8A8A8"/>
<path d="M68.2281 27.2347C67.7234 28.5733 67.0452 29.9242 66.1441 31.2398L51.4023 18.3747C53.0154 17.0893 54.7063 16.1756 56.3776 15.5312C58.8352 16.6378 61.7673 18.4385 64.3877 21.3724C66.1669 23.3662 67.3869 25.4146 68.2281 27.2347Z" fill="#A8A8A8"/>
<path d="M67.3389 37.6897C67.2113 49.5614 56.163 57.8688 44.479 58.0495C39.8763 57.0823 32.3223 54.2087 28.496 45.4746C24.7654 36.9563 26.9429 25.2872 35.0045 18.8969C35.278 18.797 35.5532 18.6983 35.8318 18.6074L44.0008 20.5089L52.1697 18.6074C61.0309 21.4961 67.3389 28.9517 67.3389 37.6897Z" fill="#C6C6C6"/>
<path d="M44.479 58.046C44.3196 58.0496 44.1603 58.0496 44.001 58.0496C33.0836 58.108 22.6302 51.0594 20.9092 40.5653C20.7906 39.6729 20.7305 38.7628 20.7305 37.8386C20.7305 35.992 20.973 34.2037 21.4262 32.5004C23.2818 26.3369 28.3652 21.3156 35.0047 18.8936C28.0764 26.3088 26.0101 36.7321 29.7408 45.2502C33.567 53.9844 41.956 57.2263 44.479 58.046Z" fill="#B7B7B7"/>
<path d="M44.0001 17.3242C41.126 17.3242 38.3738 17.7787 35.8311 18.6078V22.9251C35.8311 27.4367 39.4884 31.0942 43.9999 31.0942C48.5115 31.0942 52.169 27.4368 52.169 22.9251V18.6078C49.6264 17.7785 46.8742 17.3242 44.0001 17.3242Z" fill="#A8A8A8"/>
<path d="M33.1079 36.8652C31.0318 36.8652 29.3428 38.5542 29.3428 40.6303C29.3428 41.3637 29.9373 41.9582 30.6707 41.9582C31.4041 41.9582 31.9986 41.3637 31.9986 40.6303C31.9986 40.0186 32.4962 39.521 33.1079 39.521C33.7196 39.521 34.2171 40.0186 34.2171 40.6303C34.2171 41.3637 34.8117 41.9582 35.5451 41.9582C36.2784 41.9582 36.873 41.3637 36.873 40.6303C36.8728 38.5542 35.1839 36.8652 33.1079 36.8652Z" fill="#454545"/>
<path d="M52.4568 41.9582C53.1902 41.9582 53.7847 41.3637 53.7847 40.6303C53.7847 40.0186 54.2823 39.521 54.894 39.521C55.5055 39.521 56.0033 40.0186 56.0033 40.6303C56.0033 41.3637 56.5978 41.9582 57.3312 41.9582C58.0646 41.9582 58.6591 41.3637 58.6591 40.6303C58.6591 38.5542 56.9701 36.8652 54.894 36.8652C52.8179 36.8652 51.1289 38.5542 51.1289 40.6303C51.1289 41.3637 51.7232 41.9582 52.4568 41.9582Z" fill="#454545"/>
<path d="M49.2063 41.6116C48.473 41.6116 47.8784 42.2062 47.8784 42.9395C47.8784 43.6413 47.3076 44.2121 46.6059 44.2121C45.9041 44.2121 45.3333 43.6411 45.3333 42.9395V40.9039C46.1092 40.9436 46.758 40.3185 46.7575 39.576C46.757 38.8692 46.1681 38.2625 45.4296 38.248H42.5813C41.8427 38.2627 41.2539 38.8692 41.2533 39.576C41.2528 40.3185 41.9017 40.9437 42.6775 40.9039V42.9395C42.6775 43.6413 42.1067 44.2121 41.4049 44.2121C40.7032 44.2121 40.1324 43.6411 40.1324 42.9395C40.1324 42.206 39.5379 41.6116 38.8045 41.6116C38.0711 41.6116 37.4766 42.2062 37.4766 42.9395C37.4766 45.1059 39.239 46.8681 41.4051 46.8681C42.4018 46.8681 43.3122 46.4944 44.0056 45.8805C44.6989 46.4943 45.6095 46.8681 46.6062 46.8681C48.7724 46.8681 50.5348 45.1057 50.5348 42.9395C50.5344 42.2062 49.9399 41.6116 49.2063 41.6116Z" fill="#454545"/>
</svg>
