<svg width="360" height="645" viewBox="0 0 360 645" fill="none" xmlns="http://www.w3.org/2000/svg">
<g clip-path="url(#clip0_6218_15286)">
<path d="M0 0L360 0V645H0L0 0Z" fill="white"/>
<mask id="path-2-inside-1_6218_15286" fill="white">
<path d="M-114.201 62.2168H420.06V97.8342H-114.201V62.2168Z"/>
</mask>
<path d="M-114.201 62.2168H420.06V97.8342H-114.201V62.2168Z" fill="white"/>
<path d="M-114.201 62.2168H420.06H-114.201ZM420.06 98.1125H-114.201V97.556H420.06V98.1125ZM-114.201 97.8342V62.2168V97.8342ZM420.06 62.2168V97.8342V62.2168Z" fill="#EBEBEB" mask="url(#path-2-inside-1_6218_15286)"/>
<rect x="-2.31445" y="-72" width="571.827" height="205.635" transform="rotate(11.0172 -2.31445 -72)" fill="#E0DBFE"/>
<path d="M-227.041 51.1309L264.011 -65.7292L310.12 128.021L-180.933 244.881L-227.041 51.1309Z" fill="#E0DBFE"/>
<path d="M239.175 196.977C240.542 193.852 253.554 187.459 255.362 187.417C269.713 187.085 289.137 194.068 289.057 194.151C288.944 194.27 276.678 204.956 257.18 205.236C253.371 205.291 235.343 205.743 239.175 196.977Z" fill="#F6F4FF"/>
<path d="M257.471 163.71L287.036 160.38L292.725 177.644L288.933 194.154L271.445 190.802L253.422 187.184L257.471 163.71Z" fill="#A392FD"/>
<path d="M269.752 177.203C275.373 173.084 285.015 174.279 288.574 179.828C292.133 185.377 288.919 194.154 288.919 194.154L264.594 189.43C264.594 189.43 264.13 181.322 269.752 177.203Z" fill="#846DFC"/>
<path d="M298.141 192.353L295.235 192.782C294.679 192.864 294.162 192.48 294.08 191.925C293.998 191.369 294.382 190.852 294.938 190.77L297.844 190.341C298.4 190.259 298.917 190.643 298.999 191.199C299.081 191.754 298.697 192.271 298.141 192.353Z" fill="#EDBCB9"/>
<path opacity="0.08" d="M297.844 190.341L294.938 190.77C294.382 190.852 293.998 191.369 294.08 191.925C294.162 192.48 294.679 192.864 295.235 192.782L296.167 192.644C297.171 192.109 297.935 191.366 298.327 190.388C298.177 190.335 298.012 190.317 297.844 190.341Z" fill="black"/>
<path d="M290.766 193.442L287.86 193.871C287.304 193.953 286.787 193.569 286.705 193.013C286.623 192.458 287.007 191.941 287.563 191.859L290.469 191.43C291.025 191.348 291.542 191.732 291.624 192.287C291.706 192.843 291.322 193.36 290.766 193.442Z" fill="#EDBCB9"/>
<path d="M289.203 191.257C284.393 191.967 279.902 188.634 279.192 183.827L278.935 182.083C278.899 181.841 279.067 181.615 279.309 181.579C279.552 181.543 279.778 181.711 279.813 181.953L280.071 183.698C280.709 188.02 284.748 191.018 289.074 190.379C289.316 190.343 289.542 190.511 289.578 190.753C289.614 190.996 289.446 191.221 289.203 191.257Z" fill="#EDBCB9"/>
<path opacity="0.08" d="M290.469 191.43L287.563 191.859C287.395 191.884 287.242 191.949 287.114 192.043C287.772 192.866 288.717 193.356 289.834 193.579L290.766 193.441C291.322 193.359 291.706 192.842 291.624 192.287C291.542 191.732 291.025 191.348 290.469 191.43Z" fill="black"/>
<path d="M298.454 187.262C298.958 190.674 296.382 192.387 292.968 192.891C289.553 193.395 286.593 192.499 286.089 189.087C285.585 185.675 287.945 182.501 291.359 181.996C294.774 181.492 297.95 183.85 298.454 187.262Z" fill="#E8E8E8"/>
<path opacity="0.08" d="M291.359 181.996C288.932 182.355 287.039 184.062 286.327 186.244C287.97 186.765 289.939 186.813 292.024 186.505C294.109 186.197 295.981 185.582 297.403 184.609C296.091 182.725 293.785 181.638 291.359 181.996Z" fill="black"/>
<path d="M282.605 178.456C285.758 177.991 287.936 175.06 287.471 171.91C287.006 168.759 284.074 166.583 280.921 167.048C277.769 167.514 275.59 170.445 276.055 173.595C276.52 176.745 279.453 178.922 282.605 178.456Z" fill="#E8E8E8"/>
<path d="M282.206 175.747C283.862 175.503 285.006 173.964 284.761 172.31C284.517 170.656 282.977 169.513 281.322 169.758C279.667 170.002 278.523 171.541 278.767 173.195C279.011 174.849 280.551 175.992 282.206 175.747Z" fill="#EDBCB9"/>
<path opacity="0.08" d="M287.148 170.675C283.57 171.694 280.995 174.776 280.558 178.392C281.214 178.532 281.904 178.56 282.606 178.456C285.758 177.991 287.937 175.06 287.472 171.909C287.408 171.478 287.298 171.065 287.148 170.675Z" fill="black"/>
<path d="M298.718 176.077C301.87 175.612 304.049 172.681 303.584 169.531C303.119 166.381 300.186 164.204 297.033 164.67C293.881 165.135 291.702 168.066 292.167 171.216C292.632 174.366 295.565 176.543 298.718 176.077Z" fill="#E8E8E8"/>
<path d="M298.317 173.369C299.972 173.125 301.116 171.586 300.872 169.932C300.628 168.278 299.088 167.135 297.433 167.379C295.777 167.624 294.633 169.163 294.878 170.817C295.122 172.471 296.662 173.613 298.317 173.369Z" fill="#EDBCB9"/>
<path d="M299.916 177.096C300.656 182.108 296.873 184.624 291.857 185.365C286.841 186.105 282.492 184.79 281.752 179.778C281.012 174.765 284.478 170.102 289.494 169.361C294.51 168.621 299.176 172.084 299.916 177.096Z" fill="#E8E8E8"/>
<path d="M287.905 178.743C287.662 178.779 287.436 178.611 287.401 178.369C287.373 178.183 287.199 178.054 287.013 178.082C286.827 178.109 286.698 178.283 286.726 178.469C286.762 178.711 286.594 178.937 286.351 178.972C286.109 179.008 285.883 178.841 285.847 178.598C285.748 177.928 286.213 177.303 286.884 177.204C287.554 177.105 288.18 177.569 288.279 178.239C288.315 178.482 288.147 178.707 287.905 178.743Z" fill="#4A5058"/>
<path d="M295.28 177.655C295.037 177.691 294.811 177.523 294.776 177.281C294.748 177.095 294.574 176.966 294.388 176.993C294.202 177.021 294.073 177.194 294.101 177.38C294.137 177.623 293.969 177.848 293.726 177.884C293.484 177.92 293.258 177.752 293.222 177.51C293.123 176.84 293.588 176.214 294.259 176.115C294.929 176.016 295.555 176.481 295.654 177.151C295.69 177.393 295.522 177.619 295.28 177.655Z" fill="#4A5058"/>
<path d="M290.718 182.947C290.957 182.911 291.167 182.996 291.188 183.137C291.227 183.405 291.891 183.307 291.852 183.039C291.831 182.898 292.008 182.756 292.247 182.721C292.486 182.686 292.696 182.771 292.717 182.911C292.774 183.298 292.283 183.693 291.623 183.79C290.964 183.888 290.38 183.652 290.323 183.264C290.302 183.124 290.479 182.982 290.718 182.947Z" fill="#4A5058"/>
<path d="M288.192 181.139L286.028 181.459C285.785 181.494 285.56 181.327 285.524 181.084C285.488 180.842 285.656 180.616 285.898 180.581L288.062 180.261C288.305 180.225 288.53 180.393 288.566 180.635C288.602 180.878 288.434 181.103 288.192 181.139Z" fill="#4A5058"/>
<path d="M286.968 183.971C286.822 183.993 286.669 183.941 286.565 183.821C286.406 183.635 286.427 183.355 286.613 183.195L288.333 181.72C288.519 181.56 288.8 181.582 288.959 181.767C289.119 181.953 289.098 182.234 288.912 182.393L287.191 183.869C287.126 183.925 287.048 183.959 286.968 183.971Z" fill="#4A5058"/>
<path d="M296.308 179.941L294.144 180.26C293.901 180.296 293.676 180.129 293.64 179.886C293.604 179.644 293.772 179.418 294.014 179.382L296.178 179.063C296.421 179.027 296.647 179.195 296.682 179.437C296.718 179.679 296.551 179.905 296.308 179.941Z" fill="#4A5058"/>
<path d="M296.135 182.618C296.055 182.63 295.97 182.62 295.891 182.585L293.818 181.669C293.593 181.57 293.492 181.308 293.591 181.084C293.69 180.86 293.953 180.758 294.177 180.857L296.25 181.773C296.474 181.872 296.576 182.134 296.477 182.358C296.413 182.503 296.281 182.596 296.135 182.618Z" fill="#4A5058"/>
<path d="M291.343 181.885C292.241 181.752 292.861 180.918 292.729 180.021C292.596 179.124 291.761 178.504 290.864 178.637C289.966 178.769 289.346 179.604 289.478 180.501C289.61 181.398 290.445 182.017 291.343 181.885Z" fill="#EDBCB9"/>
<path d="M290.126 188.617C289.934 188.769 289.687 188.853 289.423 188.834C288.344 188.759 287.422 188.208 287.021 187.729C286.661 187.298 286.719 186.657 287.15 186.297C287.579 185.938 288.22 185.995 288.58 186.422C288.676 186.523 289.092 186.773 289.565 186.806C290.126 186.845 290.548 187.331 290.509 187.891C290.488 188.188 290.342 188.446 290.126 188.617Z" fill="white"/>
<path d="M293.007 187.465C293.048 187.738 293.198 187.994 293.445 188.16C293.911 188.474 294.543 188.351 294.857 187.885C295.124 187.49 295.551 187.256 295.684 187.225C296.238 187.129 296.606 186.604 296.509 186.05C296.413 185.497 295.884 185.127 295.33 185.223C294.714 185.329 293.775 185.853 293.17 186.749C293.023 186.968 292.972 187.223 293.007 187.465Z" fill="white"/>
<path d="M253.701 187.177L239.439 184.307L242.328 143.061C242.515 140.389 245.002 138.486 247.63 139.003L304.426 150.197C306.674 150.64 308.219 152.718 307.996 154.998L303.89 197.008L290.75 194.529C289.722 186.209 298.35 162.762 274.009 163.326C255.4 163.757 253.739 178.832 253.701 187.177Z" fill="#E0DBFE"/>
<path d="M255.226 187.56L253.408 187.184L254.84 177.45C256.332 167.307 265.464 160.079 275.678 160.955C287.033 161.93 295.102 172.44 293.11 183.661L291.157 194.659L288.919 194.155C289.18 187.42 298.437 166.513 275.034 165.543C256.507 164.775 255.568 183.456 255.226 187.56Z" fill="#E0DBFE"/>
<ellipse cx="258.885" cy="214.329" rx="2.82058" ry="2.61911" transform="rotate(-37.7987 258.885 214.329)" fill="#FAFAFA"/>
<circle cx="263.137" cy="214.723" r="2.61911" transform="rotate(-37.7987 263.137 214.723)" fill="#FAFAFA"/>
<circle cx="266.6" cy="214.586" r="1.41029" transform="rotate(-37.7987 266.6 214.586)" fill="#FAFAFA"/>
<path d="M145.614 200.337C146.393 200.088 147.242 200.066 148.064 200.272L330.54 246.024L248.911 283.753C248.039 284.156 247.039 284.253 246.065 284.03L51.0492 239.286C46.5617 238.257 45.9316 232.104 50.1752 230.752L145.614 200.337Z" fill="#E0DBFE"/>
<path d="M144.164 199.122C144.164 199.122 106.547 240.617 147.982 255.019C217.373 279.137 334.659 245.106 334.659 245.106L228.192 293.589C227.708 293.809 227.147 293.841 226.615 293.678L40.6952 236.588C38.573 235.936 38.3829 233.019 40.4201 232.366L144.164 199.122Z" fill="#B2A4FD"/>
<path d="M91.0701 243.292C88.1727 242.531 86.7318 241.657 86.7471 240.67C86.8315 239.7 88.5084 238.674 91.7779 237.591L95.7012 236.292L74.9023 230.835C71.8669 230.038 70.2135 229.173 69.942 228.239C69.7394 227.324 71.1275 226.373 74.1063 225.386C75.85 224.809 77.8315 224.337 80.0507 223.971C82.3426 223.58 85.4443 223.208 89.3559 222.855L153.401 216.632C156.961 216.272 160.111 216.15 162.853 216.266C165.595 216.381 168.138 216.747 170.484 217.362C173.105 218.05 174.339 218.87 174.186 219.821C174.105 220.749 172.394 221.766 169.052 222.873L129.165 236.081L131.648 236.733C134.27 237.421 135.582 238.153 135.585 238.93C135.657 239.725 134.494 240.52 132.096 241.314C129.626 242.132 127.047 242.576 124.36 242.647C121.741 242.736 119.121 242.437 116.5 241.749L114.017 241.098L110.093 242.397C106.897 243.455 103.633 244.065 100.303 244.226C97.114 244.381 94.0364 244.07 91.0701 243.292ZM110.849 231.276L136.569 222.759L139.466 223.519L89.6069 228.483L94.2931 226.931L110.849 231.276Z" fill="#846DFC"/>
<path d="M141.929 256.766C132.961 254.412 129.514 251.46 131.587 247.907C133.802 244.348 141.267 240.464 153.981 236.254C162.554 233.415 170.816 231.313 178.767 229.95C186.79 228.562 194.361 227.918 201.479 228.018C208.597 228.117 215.157 228.954 221.158 230.529C230.195 232.9 233.752 235.817 231.827 239.279C229.903 242.742 222.548 246.59 209.761 250.824C201.26 253.639 192.962 255.753 184.866 257.164C176.77 258.576 169.09 259.256 161.827 259.205C154.563 259.153 147.931 258.34 141.929 256.766ZM157.841 251.497C161.152 252.365 165.49 252.382 170.854 251.548C176.361 250.707 183.328 248.891 191.756 246.1C200.111 243.333 205.24 241.143 207.145 239.53C209.191 237.911 208.558 236.667 205.247 235.798C201.936 234.929 197.636 234.879 192.348 235.648C187.201 236.41 180.45 238.175 172.095 240.942C163.667 243.733 158.321 245.974 156.057 247.665C153.935 249.351 154.529 250.628 157.841 251.497Z" fill="#846DFC"/>
<path d="M213.563 277.843C210.666 277.083 209.225 276.209 209.24 275.221C209.325 274.252 211.002 273.226 214.271 272.143L218.194 270.844L198.994 263.394C195.959 262.598 194.305 261.733 194.034 260.799C193.831 259.883 195.219 258.932 198.198 257.946C199.942 257.369 201.923 256.897 204.142 256.53C206.434 256.14 209.536 255.768 213.448 255.414L277.493 249.191C281.052 248.832 284.203 248.71 286.945 248.825C289.686 248.941 292.23 249.306 294.575 249.922C297.197 250.61 298.431 251.429 298.278 252.381C298.197 253.308 296.485 254.326 293.143 255.432L251.658 270.633L254.142 271.285C256.763 271.973 258.075 272.705 258.078 273.482C258.15 274.277 256.987 275.071 254.59 275.865C252.119 276.683 249.541 277.128 246.853 277.199C244.235 277.288 241.615 276.989 238.993 276.301L236.51 275.649L232.587 276.949C229.39 278.007 226.126 278.617 222.796 278.778C219.607 278.933 216.53 278.622 213.563 277.843ZM233.404 265.073L260.66 255.318L263.558 256.078L213.699 261.043L216.848 260.729L233.404 265.073Z" fill="#846DFC"/>
<path opacity="0.1" d="M143.746 199.957C143.746 199.957 106.546 240.617 147.982 255.019C217.372 279.137 334.658 245.105 334.658 245.105L228.192 293.588C227.707 293.809 227.146 293.84 226.614 293.677L41.1583 236.602C39.0321 235.948 38.8492 233.022 40.8942 232.378L143.746 199.957Z" fill="#6549FB"/>
<path d="M138.056 185.565C137.606 185.803 137.095 186.124 136.533 186.556C136.203 186.809 135.855 187.101 135.489 187.437C134.503 188.345 133.858 189.153 133.437 189.819C132.773 190.872 133.012 192.242 134.004 193.049C139.435 197.476 146.528 198.407 146.528 198.407C146.528 198.407 146.484 197.982 146.35 197.258C145.944 195.09 144.72 190.25 141.407 186.23C140.602 185.251 139.18 184.97 138.056 185.565Z" fill="#B2A4FD"/>
<path d="M136.533 186.556C136.203 186.809 135.855 187.101 135.489 187.437C134.503 188.345 133.858 189.153 133.437 189.819C132.773 190.872 133.012 192.242 134.004 193.049C139.435 197.476 146.528 198.407 146.528 198.407C146.528 198.407 146.484 197.982 146.35 197.258C142.564 196.217 137.879 193.509 136.533 186.556Z" fill="#A392FD"/>
<path d="M143.768 195.665C143.619 195.801 143.484 195.948 143.364 196.102L143.133 196.931L142.678 197.505C142.427 198.54 142.642 199.665 143.322 200.575L143.323 200.575L146.702 201.827L150.321 199.513C150.482 198.988 150.517 198.43 150.432 197.886C150.313 197.131 149.954 196.398 149.354 195.802C147.831 194.287 145.329 194.226 143.768 195.665Z" fill="#B2A4FD"/>
<path d="M143.364 196.102C142.214 197.551 142.321 199.641 143.7 201.01C145.224 202.526 147.727 202.587 149.287 201.148C150.234 200.276 150.617 199.054 150.431 197.886C148.915 197.83 146.098 197.515 143.364 196.102Z" fill="#A392FD"/>
<path d="M26.4185 223.2C26.0328 223.66 25.6176 224.239 25.1972 224.963C24.9496 225.389 24.7006 225.864 24.452 226.395C23.7845 227.832 23.4462 229.008 23.2891 229.93C23.0425 231.386 23.9388 232.795 25.4046 233.251C33.4344 235.759 41.6841 233.672 41.6841 233.672C41.6841 233.672 41.4391 233.222 40.9577 232.481C39.5096 230.263 35.9269 225.45 30.4201 222.462C29.0803 221.734 27.3829 222.048 26.4185 223.2Z" fill="#B2A4FD"/>
<path d="M25.1972 224.963C24.9496 225.389 24.7006 225.864 24.452 226.395C23.7845 227.832 23.4462 229.008 23.2891 229.93C23.0425 231.386 23.9388 232.795 25.4046 233.251C33.4344 235.759 41.6841 233.672 41.6841 233.672C41.6841 233.672 41.4391 233.222 40.9577 232.481C36.3031 232.993 29.8887 232.058 25.1972 224.963Z" fill="#A392FD"/>
<path d="M37.3768 231.854C37.2752 232.071 37.1946 232.292 37.1331 232.515L37.261 233.532L37.0241 234.367C37.2249 235.62 37.9804 236.771 39.1497 237.477L39.1517 237.477L43.454 237.377L46.3764 233.229C46.3114 232.578 46.0925 231.946 45.7479 231.382C45.2686 230.6 44.5346 229.947 43.5987 229.553C41.2204 228.547 38.4335 229.578 37.3768 231.854Z" fill="#B2A4FD"/>
<path d="M37.1332 232.515C36.5338 234.621 37.6163 236.884 39.7678 237.792C42.148 238.797 44.9351 237.767 45.9918 235.491C46.6328 234.111 46.4917 232.591 45.7477 231.383C44.0507 231.986 40.7989 232.876 37.1332 232.515Z" fill="#A392FD"/>
<ellipse cx="1.74428" cy="1.39749" rx="1.74428" ry="1.39749" transform="matrix(0.919728 -0.392558 0.851091 0.525018 344.556 241.028)" fill="white"/>
<ellipse cx="1.61969" cy="1.39749" rx="1.61969" ry="1.39749" transform="matrix(0.919728 -0.392558 0.851091 0.525018 347.578 241.457)" fill="white"/>
<ellipse cx="0.872141" cy="0.752495" rx="0.872141" ry="0.752495" transform="matrix(0.919728 -0.392558 0.851091 0.525018 351.333 241.382)" fill="white"/>
<ellipse cx="277.298" cy="231.746" rx="6.99595" ry="3.93049" transform="rotate(-1.58448 277.298 231.746)" fill="#FAFAFA"/>
<ellipse cx="232.827" cy="226.521" rx="5.39869" ry="2.38855" transform="rotate(-1.58448 232.827 226.521)" fill="#FAFAFA"/>
<ellipse cx="234.354" cy="230.377" rx="6.25111" ry="2.76569" transform="rotate(-1.58448 234.354 230.377)" fill="#FAFAFA"/>
<ellipse cx="236.931" cy="233.083" rx="2.49393" ry="1.00302" transform="rotate(-1.58448 236.931 233.083)" fill="#FAFAFA"/>
<ellipse cx="255.332" cy="228.287" rx="6.81939" ry="3.01712" transform="rotate(-1.58448 255.332 228.287)" fill="#FAFAFA"/>
<ellipse cx="245.189" cy="231.586" rx="6.81939" ry="3.01712" transform="rotate(-1.58448 245.189 231.586)" fill="#FAFAFA"/>
<ellipse cx="12.7864" cy="5.65709" rx="12.7864" ry="5.65709" transform="matrix(0.999618 -0.0276509 -0.0276509 -0.999618 248.743 236.77)" fill="#FAFAFA"/>
<ellipse cx="243.935" cy="227.345" rx="7.95596" ry="3.51997" transform="rotate(-1.58448 243.935 227.345)" fill="#FAFAFA"/>
<path d="M240.384 222.31C239.559 223.313 240.409 223.188 237.301 223.882C232.909 224.004 232.441 222.88 232.398 221.313C232.355 219.746 234.221 220.046 238.613 219.924C243.005 219.803 240.341 220.743 240.384 222.31Z" fill="#E0DBFE"/>
<path d="M249.993 220.285C249.725 220.594 248.034 220.659 247.027 220.874C245.604 220.914 245.453 220.568 245.439 220.086C245.426 219.604 246.03 219.695 247.453 219.656C248.876 219.617 249.98 219.803 249.993 220.285Z" fill="#E0DBFE"/>
<path d="M237.557 229.009C237.29 229.318 235.598 229.383 234.591 229.598C233.168 229.637 233.017 229.292 233.004 228.81C232.99 228.328 233.595 228.419 235.018 228.38C236.441 228.34 237.544 228.527 237.557 229.009Z" fill="#B2A4FD"/>
<path d="M250.494 217.838C249.608 217.887 248.963 217.852 248.084 217.614C247.526 217.16 248.371 216.956 249.615 216.737C250.858 216.518 250.815 216.759 251.373 217.213C251.931 217.666 251.737 217.619 250.494 217.838Z" fill="#E0DBFE"/>
<path d="M244.247 218.095C244.116 218.35 243.27 218.389 242.768 218.559C242.057 218.578 241.978 218.289 241.967 217.887C241.956 217.486 242.259 217.567 242.97 217.548C243.682 217.528 244.236 217.693 244.247 218.095Z" fill="#E0DBFE"/>
<path d="M254.555 215.761C253.853 215.831 254.435 215.402 253.834 215.312C253.555 215.085 253.326 215.095 254.362 214.913C255.398 214.73 255.284 214.867 255.563 215.094C255.842 215.321 255.591 215.578 254.555 215.761Z" fill="#E0DBFE"/>
<path d="M237.757 227.514C237.055 227.584 237.637 227.155 237.036 227.065C236.758 226.838 236.528 226.848 237.564 226.666C238.6 226.483 238.486 226.62 238.765 226.847C239.044 227.074 238.793 227.331 237.757 227.514Z" fill="#B2A4FD"/>
<path d="M341.008 245.745C341.083 246.283 341.121 246.929 341.091 247.692C341.074 248.14 341.032 248.629 340.963 249.162C340.771 250.6 340.45 251.683 340.112 252.483C339.579 253.745 338.165 254.453 336.778 254.15C329.175 252.494 323.697 247.108 323.697 247.108C323.697 247.108 324.117 246.863 324.868 246.495C327.123 245.398 332.365 243.216 338.214 243.349C339.638 243.38 340.823 244.397 341.008 245.745Z" fill="#B2A4FD"/>
<path d="M341.091 247.692C341.074 248.14 341.032 248.629 340.963 249.162C340.771 250.6 340.45 251.683 340.112 252.483C339.579 253.745 338.165 254.453 336.778 254.15C329.175 252.494 323.697 247.108 323.697 247.108C323.697 247.108 324.117 246.863 324.868 246.495C328.291 249.009 333.83 251.175 341.091 247.692Z" fill="#A392FD"/>
<path d="M328.013 247.622C327.985 247.839 327.938 248.051 327.875 248.255L327.264 249.001L327.034 249.768C326.247 250.668 325.074 251.235 323.796 251.264L323.795 251.263L320.444 249.235L320.21 244.633C320.587 244.147 321.077 243.747 321.631 243.457C322.402 243.056 323.309 242.872 324.246 242.984C326.63 243.267 328.317 245.344 328.013 247.622Z" fill="#B2A4FD"/>
<path d="M327.875 248.255C327.295 250.191 325.306 251.491 323.151 251.233C320.765 250.95 319.078 248.873 319.382 246.595C319.566 245.214 320.439 244.076 321.632 243.458C322.672 244.703 324.797 246.88 327.875 248.255Z" fill="#A392FD"/>
<ellipse cx="1.86154" cy="1.71294" rx="1.86154" ry="1.71294" transform="matrix(0.674088 -0.730345 0.769808 0.647937 328.915 244.138)" fill="#FAFAFA"/>
<ellipse cx="1.72857" cy="1.71294" rx="1.72857" ry="1.71294" transform="matrix(0.674088 -0.730345 0.769808 0.647937 331.816 244.509)" fill="#FAFAFA"/>
<ellipse cx="0.93077" cy="0.922354" rx="0.93077" ry="0.922354" transform="matrix(0.674088 -0.730345 0.769808 0.647937 335.231 243.933)" fill="#FAFAFA"/>
<path d="M178.505 245.614C179.775 246.679 178.755 248.137 176.227 248.872C173.7 249.607 170.622 249.339 169.352 248.275C168.082 247.21 169.102 245.751 171.63 245.017C174.157 244.282 177.235 244.55 178.505 245.614Z" fill="white"/>
<path d="M194.158 241.065C195.427 242.13 198.505 242.397 201.033 241.663C203.561 240.928 204.58 239.47 203.311 238.405C202.041 237.34 198.963 237.073 196.436 237.807C193.908 238.542 192.888 240.001 194.158 241.065Z" fill="white"/>
<path d="M182.229 244.912C184.097 246.342 186.224 245.847 188.631 245.07C191.038 244.294 192.814 243.53 190.946 242.1C189.078 240.671 185.612 240.141 183.205 240.918C180.798 241.694 180.361 243.483 182.229 244.912Z" fill="#495560"/>
<path d="M172.623 245.299C172.003 245.479 171.183 245.359 170.792 245.031C169.644 244.068 170.19 242.855 172.011 242.326L172.013 242.325C172.895 242.069 173.939 242.01 174.956 242.159C175.973 242.307 176.839 242.646 177.395 243.112C177.787 243.44 177.601 243.853 176.981 244.033C176.98 244.033 176.98 244.033 176.98 244.033C176.36 244.213 175.54 244.093 175.149 243.765C174.971 243.616 174.694 243.508 174.369 243.46C174.045 243.413 173.711 243.432 173.429 243.514C173.429 243.514 173.429 243.514 173.429 243.514C172.847 243.683 172.672 244.071 173.039 244.378C173.43 244.706 173.244 245.119 172.624 245.299C172.624 245.299 172.623 245.299 172.623 245.299Z" fill="#495560"/>
<path d="M192.095 239.64C191.475 239.821 190.655 239.701 190.264 239.373C189.115 238.41 189.662 237.196 191.483 236.667L191.484 236.666C193.305 236.138 195.719 236.491 196.867 237.454C197.258 237.782 197.073 238.194 196.452 238.374C196.452 238.374 196.452 238.374 196.452 238.374C195.831 238.554 195.011 238.435 194.62 238.107C194.442 237.957 194.166 237.849 193.841 237.802C193.516 237.754 193.182 237.773 192.901 237.855C192.9 237.855 192.9 237.855 192.9 237.855C192.318 238.024 192.144 238.412 192.511 238.72C192.902 239.048 192.716 239.46 192.096 239.64C192.095 239.64 192.095 239.64 192.095 239.64Z" fill="#495560"/>
<path d="M199.531 227.335C199.853 227.385 200.23 227.472 200.662 227.614C200.917 227.698 201.19 227.8 201.484 227.925C202.277 228.264 202.845 228.612 203.247 228.921C203.881 229.41 204.049 230.267 203.641 230.943C201.41 234.65 197.396 236.626 197.396 236.626C197.396 236.626 197.326 236.365 197.242 235.911C196.992 234.548 196.624 231.442 197.685 228.401C197.943 227.661 198.726 227.209 199.531 227.335Z" fill="#B5E9F1"/>
<path d="M193.466 226.704C193.623 226.64 193.816 226.578 194.048 226.525C194.185 226.494 194.336 226.466 194.503 226.443C194.952 226.38 195.305 226.382 195.573 226.411C195.997 226.458 196.322 226.791 196.339 227.198C196.436 229.427 195.238 231.368 195.238 231.368C195.238 231.368 195.131 231.272 194.961 231.095C194.452 230.56 193.381 229.29 192.962 227.666C192.859 227.271 193.074 226.863 193.466 226.704Z" fill="#B5E9F1"/>
<path d="M197.54 222.94C197.667 222.935 197.819 222.94 197.996 222.962C198.1 222.975 198.213 222.994 198.336 223.02C198.666 223.09 198.912 223.181 199.091 223.269C199.373 223.409 199.507 223.724 199.407 224.012C198.856 225.595 197.481 226.648 197.481 226.648C197.481 226.648 197.433 226.554 197.364 226.387C197.157 225.884 196.763 224.725 196.921 223.484C196.96 223.182 197.222 222.951 197.54 222.94Z" fill="#B5E9F1"/>
<path d="M158.717 236.425C158.772 236.315 158.847 236.189 158.95 236.05C159.01 235.967 159.08 235.88 159.161 235.788C159.38 235.541 159.578 235.375 159.744 235.264C160.004 235.089 160.359 235.12 160.58 235.339C161.792 236.534 162.131 238.182 162.131 238.182C162.131 238.182 162.021 238.18 161.834 238.161C161.272 238.105 160.013 237.905 158.934 237.2C158.672 237.028 158.58 236.7 158.717 236.425Z" fill="#B5E9F1"/>
<path d="M164.064 236.46C164.221 236.396 164.413 236.334 164.646 236.281C164.783 236.25 164.934 236.222 165.1 236.199C165.55 236.137 165.903 236.139 166.171 236.168C166.594 236.214 166.919 236.547 166.937 236.954C167.034 239.183 165.836 241.125 165.836 241.125C165.836 241.125 165.729 241.029 165.559 240.851C165.05 240.317 163.979 239.046 163.559 237.422C163.457 237.027 163.671 236.619 164.064 236.46Z" fill="#B5E9F1"/>
<path d="M159.962 240.245C159.792 240.512 159.615 240.842 159.445 241.249C159.345 241.488 159.248 241.753 159.155 242.048C158.905 242.844 158.811 243.482 158.793 243.976C158.766 244.755 159.335 245.437 160.136 245.582C164.526 246.382 168.709 244.759 168.709 244.759C168.709 244.759 168.549 244.538 168.244 244.181C167.328 243.11 165.11 240.816 162.01 239.602C161.256 239.306 160.387 239.58 159.962 240.245Z" fill="#B5E9F1"/>
<path d="M250.265 290.928C250.344 291.562 250.378 292.322 250.331 293.219C250.303 293.746 250.247 294.321 250.156 294.947C249.908 296.638 249.513 297.911 249.104 298.851C248.457 300.334 246.786 301.162 245.162 300.801C236.264 298.831 229.922 292.479 229.922 292.479C229.922 292.479 230.419 292.192 231.307 291.762C233.972 290.478 240.16 287.928 247.024 288.102C248.695 288.143 250.069 289.343 250.265 290.928Z" fill="#B2A4FD"/>
<path d="M250.331 293.219C250.303 293.746 250.247 294.321 250.156 294.947C249.908 296.638 249.513 297.911 249.104 298.851C248.457 300.334 246.786 301.162 245.162 300.801C236.264 298.831 229.922 292.479 229.922 292.479C229.922 292.479 230.419 292.192 231.307 291.762C235.284 294.729 241.751 297.294 250.331 293.219Z" fill="#A392FD"/>
<path d="M234.98 293.096C234.943 293.351 234.885 293.6 234.808 293.84L234.079 294.716L233.796 295.617C232.858 296.673 231.472 297.337 229.971 297.367L229.969 297.366L226.069 294.97L225.869 289.556C226.32 288.986 226.901 288.517 227.557 288.178C228.468 287.708 229.535 287.495 230.634 287.63C233.427 287.969 235.374 290.417 234.98 293.096Z" fill="#B2A4FD"/>
<path d="M234.808 293.84C234.095 296.116 231.739 297.638 229.213 297.329C226.418 296.988 224.471 294.54 224.866 291.861C225.104 290.238 226.146 288.903 227.557 288.179C228.757 289.647 231.216 292.213 234.808 293.84Z" fill="#A392FD"/>
</g>
<defs>
<clipPath id="clip0_6218_15286">
<rect width="360" height="645" fill="white"/>
</clipPath>
</defs>
</svg>
