<svg width="768" height="723" viewBox="0 0 768 723" fill="none" xmlns="http://www.w3.org/2000/svg">
<g clip-path="url(#clip0_6218_16070)">
<path d="M0 0L768 0V723H0L0 0Z" fill="white"/>
<mask id="path-2-inside-1_6218_16070" fill="white">
<path d="M-255.962 -32.8394H901.137V44.2086H-255.962V-32.8394Z"/>
</mask>
<path d="M-255.962 -32.8394H901.137V44.2086H-255.962V-32.8394Z" fill="white"/>
<path d="M-255.962 -32.8394H901.137H-255.962ZM901.137 44.8089H-255.962V43.6083H901.137V44.8089ZM-255.962 44.2086V-32.8394V44.2086ZM901.137 -32.8394V44.2086V-32.8394Z" fill="#EBEBEB" mask="url(#path-2-inside-1_6218_16070)"/>
<rect x="-13.5859" y="-322.381" width="1233.62" height="443.623" transform="rotate(11.0172 -13.5859 -322.381)" fill="#E0DBFE"/>
<path d="M507.387 257.891C510.335 251.15 538.406 237.357 542.307 237.266C573.267 236.55 615.17 251.615 615 251.794C614.754 252.05 588.294 275.103 546.23 275.709C538.013 275.827 499.119 276.801 507.387 257.891Z" fill="#F6F4FF"/>
<path d="M546.855 186.123L610.638 178.939L622.911 216.184L614.73 251.801L577.003 244.569L538.122 236.764L546.855 186.123Z" fill="#A392FD"/>
<path d="M573.35 215.233C585.478 206.346 606.278 208.925 613.956 220.896C621.633 232.867 614.7 251.803 614.7 251.803L562.223 241.611C562.223 241.611 561.223 224.119 573.35 215.233Z" fill="#846DFC"/>
<path d="M637.089 248.672L630.795 249.6C629.592 249.778 628.472 248.948 628.294 247.746C628.117 246.545 628.948 245.427 630.152 245.249L636.446 244.321C637.649 244.144 638.769 244.974 638.947 246.176C639.124 247.377 638.293 248.495 637.089 248.672Z" fill="#EDBCB9"/>
<path opacity="0.08" d="M636.446 244.321L630.152 245.249C628.949 245.427 628.117 246.545 628.294 247.746C628.472 248.948 629.592 249.778 630.795 249.6L632.814 249.303C634.989 248.144 636.643 246.538 637.493 244.421C637.167 244.308 636.81 244.268 636.446 244.321Z" fill="black"/>
<path d="M621.113 251.028L614.82 251.956C613.616 252.134 612.496 251.304 612.319 250.102C612.141 248.901 612.973 247.783 614.177 247.605L620.47 246.677C621.674 246.5 622.793 247.33 622.971 248.532C623.149 249.733 622.317 250.851 621.113 251.028Z" fill="#EDBCB9"/>
<path d="M617.732 246.302C607.314 247.838 597.588 240.629 596.051 230.23L595.493 226.457C595.415 225.932 595.778 225.445 596.304 225.367C596.829 225.29 597.318 225.652 597.396 226.176L597.953 229.949C599.335 239.301 608.082 245.785 617.452 244.403C617.977 244.326 618.466 244.688 618.543 245.212C618.621 245.737 618.258 246.225 617.732 246.302Z" fill="#EDBCB9"/>
<path opacity="0.08" d="M620.47 246.677L614.177 247.605C613.812 247.659 613.483 247.8 613.204 248.003C614.629 249.784 616.677 250.844 619.095 251.325L621.114 251.028C622.317 250.85 623.149 249.733 622.972 248.531C622.794 247.33 621.674 246.499 620.47 246.677Z" fill="black"/>
<path d="M637.766 237.659C638.857 245.04 633.279 248.746 625.883 249.836C618.488 250.927 612.076 248.989 610.985 241.608C609.894 234.227 615.005 227.36 622.4 226.269C629.795 225.179 636.675 230.278 637.766 237.659Z" fill="#E8E8E8"/>
<path opacity="0.08" d="M622.399 226.269C617.144 227.044 613.043 230.737 611.501 235.458C615.06 236.584 619.325 236.687 623.841 236.021C628.356 235.356 632.41 234.025 635.491 231.92C632.649 227.846 627.655 225.494 622.399 226.269Z" fill="black"/>
<path d="M603.439 218.612C610.267 217.605 614.985 211.264 613.978 204.45C612.971 197.635 606.619 192.927 599.791 193.934C592.964 194.941 588.245 201.281 589.252 208.096C590.26 214.91 596.611 219.618 603.439 218.612Z" fill="#E8E8E8"/>
<path d="M602.577 212.752C606.162 212.223 608.639 208.894 608.11 205.316C607.581 201.738 604.247 199.266 600.662 199.795C597.077 200.323 594.6 203.652 595.128 207.23C595.657 210.808 598.992 213.28 602.577 212.752Z" fill="#EDBCB9"/>
<path opacity="0.08" d="M613.278 201.778C605.53 203.982 599.953 210.65 599.007 218.472C600.426 218.775 601.922 218.834 603.441 218.61C610.269 217.604 614.987 211.263 613.98 204.448C613.842 203.515 613.604 202.622 613.278 201.778Z" fill="black"/>
<path d="M638.336 213.465C645.164 212.458 649.883 206.118 648.875 199.303C647.868 192.489 641.517 187.781 634.689 188.787C627.861 189.794 623.143 196.135 624.15 202.949C625.157 209.764 631.509 214.472 638.336 213.465Z" fill="#E8E8E8"/>
<path d="M637.468 207.606C641.053 207.078 643.531 203.749 643.002 200.171C642.473 196.593 639.138 194.121 635.553 194.649C631.969 195.178 629.491 198.507 630.02 202.085C630.549 205.663 633.884 208.135 637.468 207.606Z" fill="#EDBCB9"/>
<path d="M640.931 215.669C642.533 226.511 634.339 231.954 623.476 233.556C612.613 235.158 603.194 232.312 601.591 221.469C599.989 210.627 607.496 200.539 618.359 198.937C629.223 197.335 639.328 204.826 640.931 215.669Z" fill="#E8E8E8"/>
<path d="M614.917 219.232C614.392 219.309 613.903 218.947 613.826 218.423C613.766 218.021 613.39 217.742 612.987 217.801C612.584 217.861 612.305 218.236 612.364 218.638C612.442 219.163 612.079 219.651 611.553 219.728C611.028 219.806 610.539 219.443 610.462 218.919C610.248 217.47 611.255 216.116 612.707 215.902C614.159 215.688 615.514 216.693 615.728 218.142C615.806 218.667 615.443 219.155 614.917 219.232Z" fill="#4A5058"/>
<path d="M630.891 216.878C630.366 216.956 629.877 216.593 629.799 216.069C629.74 215.667 629.364 215.388 628.961 215.447C628.558 215.507 628.279 215.882 628.338 216.284C628.416 216.809 628.053 217.297 627.527 217.374C627.002 217.452 626.513 217.089 626.435 216.565C626.221 215.116 627.228 213.762 628.68 213.548C630.132 213.334 631.488 214.339 631.702 215.788C631.78 216.313 631.416 216.801 630.891 216.878Z" fill="#4A5058"/>
<path d="M621.011 228.325C621.528 228.248 621.984 228.433 622.028 228.736C622.114 229.316 623.553 229.104 623.467 228.524C623.422 228.22 623.805 227.913 624.322 227.836C624.839 227.76 625.295 227.944 625.34 228.248C625.464 229.086 624.402 229.94 622.972 230.15C621.543 230.361 620.279 229.85 620.155 229.012C620.111 228.709 620.494 228.401 621.011 228.325Z" fill="#4A5058"/>
<path d="M615.541 224.414L610.854 225.105C610.329 225.183 609.84 224.821 609.762 224.296C609.685 223.772 610.048 223.284 610.573 223.206L615.26 222.515C615.786 222.438 616.274 222.8 616.352 223.325C616.429 223.849 616.066 224.337 615.541 224.414Z" fill="#4A5058"/>
<path d="M612.889 230.54C612.573 230.587 612.241 230.475 612.018 230.216C611.672 229.813 611.718 229.207 612.121 228.862L615.847 225.67C616.25 225.325 616.857 225.371 617.203 225.773C617.549 226.175 617.502 226.781 617.099 227.127L613.374 230.319C613.231 230.441 613.062 230.514 612.889 230.54Z" fill="#4A5058"/>
<path d="M633.116 221.824L628.429 222.515C627.904 222.592 627.415 222.23 627.338 221.705C627.26 221.181 627.623 220.693 628.149 220.616L632.835 219.925C633.361 219.847 633.849 220.209 633.927 220.734C634.004 221.258 633.641 221.746 633.116 221.824Z" fill="#4A5058"/>
<path d="M632.741 227.613C632.567 227.639 632.385 227.617 632.213 227.541L627.723 225.561C627.237 225.347 627.017 224.78 627.232 224.295C627.447 223.81 628.014 223.591 628.5 223.805L632.991 225.785C633.476 226 633.696 226.566 633.481 227.051C633.342 227.364 633.057 227.567 632.741 227.613Z" fill="#4A5058"/>
<path d="M622.366 226.028C624.31 225.741 625.654 223.936 625.367 221.995C625.08 220.055 623.272 218.714 621.328 219.001C619.384 219.288 618.04 221.093 618.327 223.033C618.614 224.974 620.422 226.314 622.366 226.028Z" fill="#EDBCB9"/>
<path d="M619.728 240.591C619.312 240.92 618.777 241.101 618.206 241.061C615.87 240.899 613.872 239.707 613.004 238.67C612.225 237.737 612.35 236.351 613.284 235.572C614.212 234.796 615.6 234.918 616.381 235.844C616.589 236.061 617.489 236.602 618.514 236.674C619.728 236.759 620.643 237.809 620.558 239.021C620.513 239.663 620.196 240.221 619.728 240.591Z" fill="white"/>
<path d="M625.971 238.101C626.058 238.691 626.384 239.244 626.918 239.604C627.927 240.283 629.296 240.017 629.977 239.01C630.554 238.155 631.48 237.648 631.768 237.58C632.967 237.372 633.765 236.238 633.556 235.039C633.348 233.842 632.2 233.042 631.001 233.25C629.667 233.481 627.634 234.613 626.324 236.551C626.004 237.024 625.894 237.578 625.971 238.101Z" fill="white"/>
<path d="M538.723 236.749L507.955 230.557L514.187 141.575C514.591 135.811 519.956 131.706 525.626 132.823L648.154 156.971C653.005 157.927 656.337 162.409 655.856 167.329L646.997 257.957L618.651 252.61C616.433 234.661 635.047 184.077 582.535 185.295C542.389 186.225 538.806 218.747 538.723 236.749Z" fill="#E0DBFE"/>
<path d="M542.014 237.575L538.092 236.765L541.181 215.766C544.4 193.883 564.099 178.29 586.136 180.18C610.632 182.282 628.04 204.957 623.742 229.164L619.529 252.891L614.7 251.802C615.264 237.274 635.234 192.171 584.747 190.078C544.778 188.422 542.751 228.721 542.014 237.575Z" fill="#E0DBFE"/>
<ellipse cx="549.905" cy="295.323" rx="6.08493" ry="5.65029" transform="rotate(-37.7987 549.905 295.323)" fill="#FAFAFA"/>
<circle cx="559.077" cy="296.173" r="5.65029" transform="rotate(-37.7987 559.077 296.173)" fill="#FAFAFA"/>
<circle cx="566.549" cy="295.878" r="3.04246" transform="rotate(-37.7987 566.549 295.878)" fill="#FAFAFA"/>
<path d="M305.542 265.139C307.224 264.603 309.055 264.554 310.827 264.999L704.489 363.702L528.387 445.096C526.507 445.965 524.349 446.175 522.248 445.693L101.535 349.166C91.854 346.945 90.4947 333.672 99.6495 330.754L305.542 265.139Z" fill="#E0DBFE"/>
<path d="M302.415 262.518C302.415 262.518 221.262 352.036 310.652 383.106C460.351 435.137 713.375 361.72 713.375 361.72L483.692 466.313C482.646 466.789 481.436 466.858 480.289 466.506L79.1984 343.344C74.6202 341.938 74.2101 335.644 78.6049 334.236L302.415 262.518Z" fill="#B2A4FD"/>
<path d="M188.612 358.863C182.336 357.218 179.216 355.328 179.249 353.191C179.432 351.093 183.064 348.874 190.144 346.532L198.641 343.721L153.595 331.916C147.021 330.193 143.44 328.322 142.852 326.302C142.414 324.321 145.42 322.264 151.871 320.13C155.648 318.881 159.939 317.86 164.746 317.068C169.71 316.223 176.427 315.419 184.899 314.654L323.608 301.192C331.317 300.414 338.14 300.15 344.078 300.4C350.016 300.651 355.525 301.441 360.605 302.773C366.283 304.261 368.955 306.034 368.623 308.092C368.448 310.099 364.742 312.299 357.503 314.693L271.117 343.266L276.495 344.675C282.173 346.163 285.015 347.747 285.021 349.428C285.177 351.148 282.659 352.867 277.466 354.584C272.116 356.354 266.531 357.315 260.71 357.469C255.039 357.662 249.365 357.014 243.687 355.526L238.309 354.117L229.812 356.927C222.888 359.217 215.82 360.537 208.607 360.885C201.701 361.221 195.036 360.547 188.612 358.863ZM231.449 332.87L287.152 314.446L293.427 316.09L185.443 326.83L195.592 323.473L231.449 332.87Z" fill="#846DFC"/>
<path d="M298.762 388.01C279.339 382.92 271.873 376.532 276.363 368.847C281.16 361.149 297.326 352.746 324.863 343.638C343.431 337.497 361.324 332.951 378.544 330.002C395.921 327 412.318 325.607 427.734 325.822C443.15 326.038 457.357 327.849 470.355 331.255C489.927 336.384 497.63 342.694 493.462 350.184C489.295 357.674 473.364 365.998 445.67 375.158C427.26 381.248 409.288 385.819 391.753 388.873C374.219 391.927 357.586 393.398 341.855 393.287C326.125 393.175 311.76 391.417 298.762 388.01ZM333.222 376.612C340.394 378.492 349.789 378.528 361.408 376.723C373.333 374.904 388.422 370.976 406.675 364.939C424.771 358.954 435.881 354.216 440.005 350.726C444.437 347.223 443.066 344.532 435.895 342.653C428.723 340.773 419.411 340.665 407.958 342.327C396.811 343.977 382.19 347.795 364.094 353.78C345.841 359.817 334.263 364.665 329.36 368.324C324.763 371.97 326.051 374.733 333.222 376.612Z" fill="#846DFC"/>
<path d="M453.906 433.606C447.631 431.962 444.51 430.071 444.544 427.934C444.726 425.837 448.358 423.617 455.439 421.275L463.936 418.464L422.352 402.349C415.778 400.626 412.197 398.755 411.609 396.735C411.17 394.755 414.177 392.697 420.628 390.564C424.405 389.314 428.696 388.294 433.502 387.501C438.466 386.656 445.184 385.852 453.655 385.087L592.365 371.625C600.073 370.847 606.897 370.583 612.835 370.833C618.773 371.084 624.282 371.874 629.362 373.206C635.039 374.694 637.712 376.467 637.38 378.525C637.205 380.532 633.498 382.732 626.26 385.126L536.412 418.009L541.79 419.418C547.468 420.906 550.309 422.49 550.316 424.171C550.472 425.891 547.953 427.61 542.761 429.327C537.411 431.097 531.825 432.058 526.005 432.212C520.334 432.405 514.66 431.757 508.982 430.269L503.604 428.86L495.107 431.67C488.183 433.96 481.115 435.28 473.902 435.628C466.996 435.964 460.331 435.29 453.906 433.606ZM496.877 405.982L555.909 384.879L562.184 386.524L454.199 397.263L461.019 396.584L496.877 405.982Z" fill="#846DFC"/>
<path opacity="0.1" d="M301.514 264.319C301.514 264.319 221.262 352.036 310.652 383.106C460.35 435.137 713.375 361.72 713.375 361.72L483.693 466.312C482.646 466.789 481.435 466.857 480.287 466.504L80.1985 343.375C75.6115 341.964 75.217 335.652 79.6288 334.261L301.514 264.319Z" fill="#6549FB"/>
<path d="M290.373 233.989C289.4 234.503 288.293 235.198 287.076 236.131C286.36 236.68 285.606 237.311 284.814 238.037C282.679 240.001 281.282 241.749 280.369 243.191C278.931 245.469 279.45 248.432 281.598 250.178C293.36 259.754 308.722 261.768 308.722 261.768C308.722 261.768 308.627 260.848 308.337 259.283C307.457 254.593 304.806 244.122 297.631 235.426C295.887 233.308 292.807 232.7 290.373 233.989Z" fill="#B2A4FD"/>
<path d="M287.076 236.131C286.36 236.68 285.606 237.311 284.814 238.037C282.679 240.001 281.282 241.749 280.369 243.191C278.931 245.469 279.45 248.432 281.598 250.178C293.36 259.754 308.722 261.768 308.722 261.768C308.722 261.768 308.627 260.848 308.337 259.283C300.136 257.031 289.99 251.174 287.076 236.131Z" fill="#A392FD"/>
<path d="M302.746 255.836C302.423 256.131 302.131 256.449 301.871 256.782L301.371 258.575L300.385 259.817C299.842 262.055 300.306 264.49 301.779 266.457L301.782 266.458L309.099 269.167L316.937 264.161C317.286 263.024 317.361 261.817 317.177 260.641C316.92 259.007 316.143 257.422 314.844 256.134C311.545 252.856 306.126 252.723 302.746 255.836Z" fill="#B2A4FD"/>
<path d="M301.872 256.782C299.382 259.915 299.614 264.437 302.6 267.398C305.901 270.677 311.321 270.811 314.701 267.698C316.75 265.812 317.581 263.167 317.178 260.641C313.895 260.519 307.792 259.838 301.872 256.782Z" fill="#A392FD"/>
<path d="M48.5911 315.398C47.7557 316.394 46.8563 317.648 45.9459 319.213C45.4097 320.133 44.8704 321.162 44.332 322.311C42.8864 325.419 42.1537 327.964 41.8134 329.959C41.2793 333.107 43.2205 336.155 46.3952 337.141C63.7859 342.566 81.6532 338.053 81.6532 338.053C81.6532 338.053 81.1225 337.078 80.08 335.475C76.9437 330.678 69.1843 320.267 57.2576 313.803C54.356 312.227 50.6797 312.906 48.5911 315.398Z" fill="#B2A4FD"/>
<path d="M45.9459 319.213C45.4097 320.133 44.8704 321.162 44.332 322.311C42.8864 325.419 42.1537 327.964 41.8134 329.959C41.2793 333.107 43.2205 336.155 46.3952 337.141C63.7859 342.566 81.6532 338.053 81.6532 338.053C81.6532 338.053 81.1225 337.078 80.08 335.475C69.9991 336.584 56.1068 334.561 45.9459 319.213Z" fill="#A392FD"/>
<path d="M72.323 334.121C72.103 334.589 71.9284 335.069 71.7952 335.55L72.0723 337.752L71.5591 339.556C71.994 342.268 73.6302 344.756 76.1626 346.285L76.167 346.284L85.4849 346.068L91.8142 337.096C91.6735 335.687 91.1994 334.32 90.453 333.101C89.415 331.408 87.8254 329.997 85.7984 329.143C80.6475 326.967 74.6116 329.197 72.323 334.121Z" fill="#B2A4FD"/>
<path d="M71.796 335.55C70.4979 340.105 72.8425 345.003 77.5022 346.965C82.6571 349.141 88.6934 346.911 90.982 341.988C92.3703 339.004 92.0646 335.716 90.4534 333.101C86.7779 334.406 79.7351 336.331 71.796 335.55Z" fill="#A392FD"/>
<ellipse cx="3.76299" cy="3.01485" rx="3.76299" ry="3.01485" transform="matrix(0.919728 -0.392558 0.851091 0.525018 734.726 352.923)" fill="white"/>
<ellipse cx="3.49421" cy="3.01485" rx="3.49421" ry="3.01485" transform="matrix(0.919728 -0.392558 0.851091 0.525018 741.247 353.847)" fill="white"/>
<ellipse cx="1.8815" cy="1.62338" rx="1.8815" ry="1.62338" transform="matrix(0.919728 -0.392558 0.851091 0.525018 749.347 353.686)" fill="white"/>
<ellipse cx="589.629" cy="332.901" rx="15.0926" ry="8.47936" transform="rotate(-1.58448 589.629 332.901)" fill="#FAFAFA"/>
<ellipse cx="493.69" cy="321.627" rx="11.6468" ry="5.15289" transform="rotate(-1.58448 493.69 321.627)" fill="#FAFAFA"/>
<ellipse cx="496.984" cy="329.947" rx="13.4857" ry="5.96651" transform="rotate(-1.58448 496.984 329.947)" fill="#FAFAFA"/>
<ellipse cx="502.545" cy="335.785" rx="5.38023" ry="2.16385" transform="rotate(-1.58448 502.545 335.785)" fill="#FAFAFA"/>
<ellipse cx="542.241" cy="325.438" rx="14.7117" ry="6.50892" transform="rotate(-1.58448 542.241 325.438)" fill="#FAFAFA"/>
<ellipse cx="520.361" cy="332.555" rx="14.7117" ry="6.50892" transform="rotate(-1.58448 520.361 332.555)" fill="#FAFAFA"/>
<ellipse cx="27.5844" cy="12.2042" rx="27.5844" ry="12.2042" transform="matrix(0.999618 -0.0276509 -0.0276509 -0.999618 528.028 343.738)" fill="#FAFAFA"/>
<ellipse cx="517.655" cy="323.405" rx="17.1636" ry="7.59374" transform="rotate(-1.58448 517.655 323.405)" fill="#FAFAFA"/>
<path d="M509.995 312.546C508.215 314.709 510.047 314.439 503.343 315.938C493.867 316.2 492.859 313.776 492.765 310.396C492.671 307.015 496.697 307.661 506.173 307.399C515.649 307.137 509.901 309.165 509.995 312.546Z" fill="#E0DBFE"/>
<path d="M530.723 308.179C530.146 308.845 526.497 308.986 524.324 309.45C521.254 309.535 520.929 308.79 520.9 307.749C520.871 306.709 522.175 306.906 525.245 306.821C528.315 306.736 530.695 307.139 530.723 308.179Z" fill="#E0DBFE"/>
<path d="M503.894 326.999C503.317 327.665 499.668 327.806 497.495 328.27C494.425 328.355 494.1 327.609 494.071 326.569C494.042 325.529 495.346 325.726 498.416 325.641C501.486 325.556 503.865 325.959 503.894 326.999Z" fill="#B2A4FD"/>
<path d="M531.804 302.898C529.895 303.003 528.502 302.927 526.605 302.414C525.402 301.434 527.226 300.995 529.909 300.522C532.591 300.049 532.499 300.569 533.702 301.548C534.905 302.528 534.487 302.425 531.804 302.898Z" fill="#E0DBFE"/>
<path d="M518.327 303.454C518.044 304.003 516.22 304.087 515.138 304.453C513.603 304.496 513.433 303.872 513.409 303.005C513.385 302.138 514.039 302.315 515.574 302.272C517.109 302.23 518.303 302.587 518.327 303.454Z" fill="#E0DBFE"/>
<path d="M540.563 298.418C539.05 298.569 540.305 297.645 539.009 297.449C538.408 296.959 537.913 296.982 540.148 296.589C542.383 296.195 542.137 296.49 542.739 296.979C543.34 297.469 542.799 298.024 540.563 298.418Z" fill="#E0DBFE"/>
<path d="M504.326 323.772C502.812 323.923 504.067 322.999 502.772 322.803C502.17 322.313 501.675 322.336 503.911 321.943C506.146 321.549 505.9 321.844 506.501 322.333C507.103 322.823 506.561 323.378 504.326 323.772Z" fill="#B2A4FD"/>
<path d="M729.925 364.167C730.086 365.333 730.169 366.731 730.104 368.38C730.066 369.35 729.977 370.407 729.827 371.56C729.412 374.67 728.715 377.014 727.984 378.745C726.828 381.475 723.766 383.006 720.762 382.349C704.295 378.769 692.433 367.117 692.433 367.117C692.433 367.117 693.341 366.586 694.969 365.791C699.853 363.417 711.205 358.699 723.874 358.985C726.957 359.053 729.523 361.253 729.925 364.167Z" fill="#B2A4FD"/>
<path d="M730.104 368.38C730.066 369.35 729.977 370.407 729.827 371.56C729.412 374.67 728.715 377.014 727.984 378.745C726.828 381.475 723.766 383.006 720.762 382.349C704.295 378.769 692.433 367.117 692.433 367.117C692.433 367.117 693.341 366.586 694.969 365.791C702.382 371.228 714.378 375.915 730.104 368.38Z" fill="#A392FD"/>
<path d="M701.78 368.229C701.719 368.699 701.617 369.157 701.481 369.598L700.159 371.213L699.66 372.872C697.957 374.819 695.416 376.045 692.648 376.107L692.645 376.105L685.387 371.718L684.881 361.762C685.698 360.712 686.758 359.845 687.96 359.219C689.629 358.35 691.593 357.954 693.623 358.196C698.785 358.807 702.439 363.301 701.78 368.229Z" fill="#B2A4FD"/>
<path d="M701.483 369.599C700.225 373.787 695.917 376.598 691.25 376.041C686.084 375.428 682.43 370.934 683.089 366.006C683.487 363.019 685.377 360.558 687.961 359.221C690.213 361.915 694.815 366.624 701.483 369.599Z" fill="#A392FD"/>
<ellipse cx="4.01596" cy="3.69539" rx="4.01596" ry="3.69539" transform="matrix(0.674088 -0.730345 0.769808 0.647937 700.989 359.633)" fill="#FAFAFA"/>
<ellipse cx="3.7291" cy="3.69539" rx="3.7291" ry="3.69539" transform="matrix(0.674088 -0.730345 0.769808 0.647937 707.247 360.434)" fill="#FAFAFA"/>
<ellipse cx="2.00798" cy="1.98982" rx="2.00798" ry="1.98982" transform="matrix(0.674088 -0.730345 0.769808 0.647937 714.615 359.189)" fill="#FAFAFA"/>
<path d="M377.975 363.888C380.726 366.192 378.518 369.346 373.045 370.935C367.572 372.524 360.905 371.944 358.155 369.641C355.405 367.338 357.612 364.183 363.085 362.594C368.558 361.005 375.225 361.585 377.975 363.888Z" fill="white"/>
<path d="M411.879 354.047C414.629 356.35 421.296 356.93 426.769 355.341C432.242 353.752 434.45 350.598 431.7 348.294C428.949 345.991 422.283 345.411 416.809 347C411.336 348.589 409.128 351.744 411.879 354.047Z" fill="white"/>
<path d="M386.043 362.369C390.09 365.462 394.696 364.392 399.908 362.712C405.12 361.033 408.965 359.381 404.919 356.287C400.872 353.194 393.366 352.048 388.154 353.727C382.942 355.406 381.997 359.275 386.043 362.369Z" fill="#495560"/>
<path d="M365.242 363.206C363.898 363.595 362.123 363.336 361.275 362.626C358.787 360.543 359.971 357.917 363.913 356.773L363.918 356.771C365.826 356.218 368.089 356.09 370.29 356.412C372.493 356.733 374.37 357.466 375.575 358.476C376.423 359.186 376.021 360.077 374.677 360.467C374.677 360.467 374.676 360.468 374.676 360.468C373.332 360.857 371.557 360.598 370.709 359.888C370.324 359.565 369.724 359.331 369.021 359.228C368.318 359.126 367.595 359.166 366.985 359.343C366.985 359.343 366.984 359.343 366.984 359.344C365.724 359.709 365.346 360.548 366.141 361.214C366.989 361.924 366.587 362.815 365.243 363.205C365.242 363.206 365.242 363.206 365.242 363.206Z" fill="#495560"/>
<path d="M407.414 350.965C406.071 351.355 404.295 351.095 403.448 350.385C400.96 348.302 402.143 345.676 406.086 344.532L406.089 344.531C410.032 343.388 415.26 344.152 417.748 346.235C418.595 346.945 418.193 347.837 416.85 348.227C416.85 348.227 416.849 348.227 416.849 348.227C415.505 348.616 413.73 348.357 412.882 347.647C412.497 347.324 411.898 347.09 411.194 346.988C410.491 346.885 409.768 346.926 409.158 347.103C409.157 347.103 409.157 347.103 409.157 347.103C407.897 347.468 407.519 348.307 408.314 348.973C409.162 349.683 408.76 350.575 407.416 350.965C407.415 350.965 407.415 350.965 407.414 350.965Z" fill="#495560"/>
<path d="M423.515 324.346C424.212 324.455 425.029 324.643 425.965 324.951C426.517 325.131 427.109 325.353 427.745 325.623C429.463 326.355 430.692 327.108 431.563 327.777C432.937 328.834 433.3 330.689 432.417 332.152C427.585 340.171 418.891 344.444 418.891 344.444C418.891 344.444 418.739 343.881 418.557 342.898C418.016 339.95 417.218 333.23 419.518 326.652C420.076 325.051 421.773 324.073 423.515 324.346Z" fill="#B5E9F1"/>
<path d="M410.381 322.98C410.721 322.842 411.137 322.707 411.641 322.593C411.938 322.526 412.265 322.466 412.625 322.415C413.599 322.281 414.363 322.285 414.944 322.348C415.861 322.448 416.565 323.168 416.602 324.049C416.812 328.871 414.219 333.071 414.219 333.071C414.219 333.071 413.987 332.863 413.618 332.478C412.516 331.323 410.197 328.574 409.288 325.061C409.066 324.207 409.53 323.324 410.381 322.98Z" fill="#B5E9F1"/>
<path d="M419.204 314.838C419.479 314.827 419.807 314.839 420.191 314.886C420.416 314.914 420.661 314.955 420.926 315.011C421.643 315.163 422.174 315.359 422.562 315.55C423.174 315.852 423.464 316.534 423.246 317.158C422.053 320.581 419.076 322.86 419.076 322.86C419.076 322.86 418.972 322.656 418.822 322.294C418.375 321.208 417.521 318.7 417.864 316.016C417.946 315.362 418.515 314.863 419.204 314.838Z" fill="#B5E9F1"/>
<path d="M335.12 344.009C335.239 343.772 335.402 343.5 335.624 343.197C335.755 343.02 335.907 342.831 336.082 342.632C336.557 342.097 336.986 341.737 337.344 341.497C337.909 341.119 338.677 341.187 339.156 341.659C341.781 344.245 342.515 347.811 342.515 347.811C342.515 347.811 342.277 347.805 341.871 347.766C340.654 347.644 337.926 347.211 335.592 345.686C335.023 345.315 334.824 344.603 335.12 344.009Z" fill="#B5E9F1"/>
<path d="M346.7 344.085C347.04 343.947 347.457 343.812 347.961 343.698C348.257 343.631 348.584 343.571 348.945 343.52C349.918 343.386 350.682 343.39 351.263 343.453C352.18 343.552 352.884 344.273 352.921 345.153C353.132 349.976 350.538 354.176 350.538 354.176C350.538 354.176 350.306 353.968 349.938 353.583C348.836 352.428 346.516 349.679 345.607 346.166C345.386 345.312 345.85 344.429 346.7 344.085Z" fill="#B5E9F1"/>
<path d="M337.817 352.274C337.449 352.85 337.065 353.565 336.697 354.444C336.481 354.961 336.27 355.535 336.068 356.172C335.528 357.894 335.323 359.276 335.284 360.344C335.226 362.029 336.459 363.503 338.194 363.818C347.702 365.549 356.761 362.038 356.761 362.038C356.761 362.038 356.414 361.561 355.754 360.787C353.771 358.472 348.966 353.509 342.253 350.882C340.619 350.242 338.738 350.833 337.817 352.274Z" fill="#B5E9F1"/>
<path d="M533.39 461.911C533.561 463.282 533.635 464.926 533.532 466.866C533.472 468.007 533.35 469.25 533.155 470.605C532.617 474.262 531.761 477.017 530.875 479.05C529.474 482.258 525.855 484.05 522.339 483.268C503.067 479.008 489.332 465.267 489.332 465.267C489.332 465.267 490.407 464.645 492.33 463.715C498.102 460.938 511.505 455.422 526.371 455.797C529.99 455.886 532.966 458.481 533.39 461.911Z" fill="#B2A4FD"/>
<path d="M533.532 466.866C533.472 468.007 533.35 469.25 533.155 470.605C532.617 474.262 531.761 477.017 530.875 479.05C529.474 482.258 525.855 484.05 522.339 483.268C503.067 479.008 489.332 465.267 489.332 465.267C489.332 465.267 490.407 464.645 492.33 463.715C500.944 470.133 514.95 475.681 533.532 466.866Z" fill="#A392FD"/>
<path d="M500.285 466.601C500.206 467.154 500.079 467.692 499.912 468.21L498.333 470.106L497.72 472.055C495.689 474.34 492.687 475.775 489.437 475.84L489.433 475.838L480.985 470.656L480.553 458.944C481.529 457.711 482.788 456.696 484.208 455.963C486.182 454.946 488.494 454.486 490.873 454.777C496.923 455.511 501.139 460.807 500.285 466.601Z" fill="#B2A4FD"/>
<path d="M499.911 468.211C498.367 473.134 493.264 476.426 487.795 475.757C481.741 475.021 477.525 469.725 478.378 463.931C478.894 460.419 481.152 457.53 484.208 455.964C486.807 459.14 492.133 464.692 499.911 468.211Z" fill="#A392FD"/>
<path d="M-498.396 -56.7471L560.966 -308.853L660.438 109.13L-398.924 361.236L-498.396 -56.7471Z" fill="#E0DBFE"/>
</g>
<defs>
<clipPath id="clip0_6218_16070">
<rect width="768" height="723" fill="white"/>
</clipPath>
</defs>
</svg>
