<svg width="1226" height="511" viewBox="0 0 1226 511" fill="none" xmlns="http://www.w3.org/2000/svg">
<path d="M444.236 96.5557C446.666 95.8816 449.261 95.8049 451.804 96.332L1133.29 237.556L839.935 373.144C836.803 374.591 833.208 374.941 829.708 374.138L133.34 214.366C116.903 210.595 115.001 187.901 130.755 183.53L444.236 96.5557Z" fill="#E0DBFE"/>
<path d="M437.631 97.9251C437.631 97.9251 328.313 218.122 477.222 269.879C726.594 356.554 1148.09 234.253 1148.09 234.253L765.476 408.488C763.734 409.281 761.718 409.395 759.807 408.809L93.9843 204.356C86.1564 201.952 85.7223 191.099 93.3731 189.073L437.631 97.9251Z" fill="#B2A4FD"/>
<path d="M272.694 227.735C262.281 225.003 257.103 221.862 257.158 218.312C257.462 214.827 263.488 211.139 275.237 207.249L289.337 202.58L214.591 182.968C203.683 180.105 197.741 176.997 196.765 173.641C196.037 170.351 201.025 166.933 211.73 163.388C217.997 161.313 225.118 159.617 233.093 158.3C241.329 156.897 252.476 155.56 266.533 154.289L496.697 131.926C509.488 130.633 520.81 130.195 530.663 130.61C540.516 131.026 549.658 132.34 558.087 134.551C567.507 137.023 571.942 139.969 571.391 143.389C571.101 146.722 564.951 150.377 552.94 154.355L409.597 201.822L418.522 204.164C427.942 206.636 432.658 209.268 432.669 212.06C432.927 214.918 428.748 217.773 420.132 220.626C411.255 223.566 401.987 225.163 392.329 225.419C382.919 225.739 373.503 224.663 364.083 222.192L355.158 219.85L341.058 224.519C329.57 228.323 317.842 230.515 305.873 231.094C294.414 231.651 283.354 230.532 272.694 227.735ZM343.776 184.552L436.205 153.944L446.617 156.676L267.436 174.517L284.277 168.941L343.776 184.552Z" fill="#846DFC"/>
<path d="M455.469 276.157C423.24 267.7 410.851 257.089 418.302 244.321C426.261 231.533 453.087 217.573 498.779 202.442C529.589 192.239 559.28 184.688 587.854 179.787C616.688 174.8 643.895 172.486 669.475 172.844C695.055 173.202 718.629 176.21 740.197 181.869C772.674 190.391 785.455 200.873 778.54 213.316C771.625 225.759 745.191 239.589 699.237 254.806C668.689 264.922 638.867 272.517 609.771 277.59C580.676 282.664 553.077 285.108 526.975 284.923C500.873 284.738 477.038 281.816 455.469 276.157ZM512.65 257.221C524.55 260.344 540.139 260.405 559.418 257.405C579.207 254.384 604.244 247.858 634.532 237.828C664.558 227.885 682.993 220.015 689.837 214.217C697.19 208.398 694.917 203.927 683.017 200.805C671.117 197.682 655.665 197.502 636.66 200.264C618.164 203.005 593.903 209.347 563.876 219.29C533.589 229.319 514.377 237.373 506.241 243.452C498.614 249.509 500.75 254.099 512.65 257.221Z" fill="#846DFC"/>
<path d="M712.903 351.905C702.491 349.173 697.312 346.032 697.368 342.483C697.671 338.998 703.697 335.31 715.447 331.419L729.546 326.75L660.545 299.978C649.636 297.116 643.694 294.007 642.719 290.652C641.991 287.361 646.979 283.944 657.684 280.399C663.951 278.324 671.071 276.628 679.047 275.311C687.283 273.908 698.43 272.571 712.487 271.3L942.65 248.937C955.442 247.644 966.764 247.205 976.617 247.621C986.47 248.037 995.612 249.351 1004.04 251.562C1013.46 254.034 1017.9 256.98 1017.34 260.399C1017.05 263.733 1010.9 267.388 998.894 271.365L849.806 325.993L858.731 328.335C868.152 330.807 872.867 333.439 872.878 336.231C873.137 339.088 868.958 341.944 860.341 344.797C851.464 347.737 842.196 349.334 832.538 349.59C823.128 349.91 813.713 348.834 804.292 346.362L795.367 344.021L781.268 348.69C769.78 352.494 758.051 354.686 746.083 355.265C734.623 355.822 723.564 354.702 712.903 351.905ZM784.206 306.013L882.159 270.955L892.571 273.687L713.389 291.528L724.707 290.401L784.206 306.013Z" fill="#846DFC"/>
<path opacity="0.1" d="M435.42 99.6873C435.42 99.6873 328.313 218.122 477.221 269.879C726.594 356.554 1148.09 234.253 1148.09 234.253L765.479 408.487C763.735 409.281 761.717 409.394 759.805 408.806L95.5471 204.378C87.715 201.968 87.295 191.105 94.9561 189.093L435.42 99.6873Z" fill="#6549FB"/>
<path d="M413.549 44.2793C411.934 45.1342 410.097 46.2887 408.078 47.839C406.889 48.7504 405.639 49.7992 404.324 51.0045C400.783 54.2677 398.465 57.172 396.95 59.5681C394.563 63.3517 395.424 68.2746 398.989 71.1743C418.505 87.0835 443.996 90.43 443.996 90.43C443.996 90.43 443.837 88.9008 443.356 86.301C441.896 78.5098 437.498 61.1146 425.593 46.6677C422.698 43.1495 417.588 42.1393 413.549 44.2793Z" fill="#B2A4FD"/>
<path d="M408.078 47.839C406.889 48.7504 405.639 49.7992 404.324 51.0045C400.783 54.2677 398.465 57.172 396.95 59.5681C394.563 63.3517 395.424 68.2746 398.989 71.1743C418.505 87.0835 443.996 90.43 443.996 90.43C443.996 90.43 443.837 88.9008 443.356 86.301C429.75 82.5598 412.913 72.8289 408.078 47.839Z" fill="#A392FD"/>
<path d="M434.079 80.5765C433.542 81.0675 433.058 81.5957 432.627 82.1479L431.797 85.1274L430.162 87.1898C429.26 90.9077 430.03 94.9532 432.474 98.2214L432.479 98.2233L444.62 102.723L457.627 94.4066C458.205 92.5183 458.331 90.5134 458.025 88.559C457.599 85.8451 456.308 83.2113 454.153 81.0715C448.679 75.6265 439.688 75.4048 434.079 80.5765Z" fill="#B2A4FD"/>
<path d="M432.627 82.1484C428.495 87.3532 428.879 94.8666 433.834 99.7854C439.313 105.233 448.305 105.455 453.914 100.283C457.315 97.1496 458.693 92.7557 458.024 88.5599C452.577 88.3565 442.451 87.2258 432.627 82.1484Z" fill="#A392FD"/>
<path d="M40.3527 155.53C38.9665 157.184 37.4742 159.267 35.9635 161.867C35.0738 163.396 34.1789 165.105 33.2856 167.015C30.8868 172.177 29.671 176.405 29.1063 179.719C28.2201 184.95 31.4411 190.012 36.7091 191.652C65.5659 200.664 95.2135 193.166 95.2135 193.166C95.2135 193.166 94.3328 191.546 92.6029 188.884C87.3988 180.913 74.5235 163.619 54.7333 152.879C49.9185 150.262 43.8184 151.39 40.3527 155.53Z" fill="#B2A4FD"/>
<path d="M35.9635 161.867C35.0738 163.396 34.1789 165.105 33.2856 167.015C30.8868 172.177 29.671 176.405 29.1063 179.719C28.2201 184.95 31.4411 190.012 36.7091 191.652C65.5659 200.664 95.2135 193.166 95.2135 193.166C95.2135 193.166 94.3328 191.546 92.6029 188.884C75.8754 190.725 52.8237 187.365 35.9635 161.867Z" fill="#A392FD"/>
<path d="M79.7341 186.632C79.3691 187.41 79.0794 188.206 78.8583 189.006L79.3181 192.664L78.4665 195.662C79.1881 200.167 81.9032 204.301 86.1053 206.84L86.1126 206.839L101.574 206.48L112.076 191.575C111.843 189.234 111.056 186.963 109.818 184.937C108.095 182.125 105.457 179.78 102.094 178.362C93.5471 174.748 83.5316 178.452 79.7341 186.632Z" fill="#B2A4FD"/>
<path d="M78.8574 189.007C76.7035 196.574 80.5938 204.71 88.3258 207.97C96.8794 211.585 106.896 207.88 110.693 199.701C112.997 194.744 112.49 189.282 109.816 184.938C103.717 187.105 92.031 190.303 78.8574 189.007Z" fill="#A392FD"/>
<ellipse rx="6.2685" ry="5.02223" transform="matrix(0.919728 -0.392557 0.851091 0.525018 1193.7 219.777)" fill="white"/>
<ellipse rx="5.82076" ry="5.02223" transform="matrix(0.919728 -0.392557 0.851091 0.525018 1204.15 221.495)" fill="white"/>
<ellipse rx="3.13425" ry="2.70428" transform="matrix(0.919728 -0.392557 0.851091 0.525018 1213.2 221.062)" fill="white"/>
<ellipse cx="941.951" cy="186.244" rx="25.1417" ry="14.1252" transform="rotate(-1.58448 941.951 186.244)" fill="#FAFAFA"/>
<ellipse cx="782.133" cy="167.464" rx="19.4015" ry="8.58385" transform="rotate(-1.58448 782.133 167.464)" fill="#FAFAFA"/>
<ellipse cx="787.625" cy="181.323" rx="22.4649" ry="9.93919" transform="rotate(-1.58448 787.625 181.323)" fill="#FAFAFA"/>
<ellipse cx="796.882" cy="191.048" rx="8.96254" ry="3.60461" transform="rotate(-1.58448 796.882 191.048)" fill="#FAFAFA"/>
<ellipse cx="863.01" cy="173.814" rx="24.5072" ry="10.8427" transform="rotate(-1.58448 863.01 173.814)" fill="#FAFAFA"/>
<ellipse cx="826.563" cy="185.669" rx="24.5072" ry="10.8427" transform="rotate(-1.58448 826.563 185.669)" fill="#FAFAFA"/>
<ellipse rx="45.9509" ry="20.3302" transform="matrix(0.999618 -0.0276509 -0.0276509 -0.999618 884.708 182.705)" fill="#FAFAFA"/>
<ellipse cx="822.055" cy="170.427" rx="28.5917" ry="12.6499" transform="rotate(-1.58448 822.055 170.427)" fill="#FAFAFA"/>
<path d="M809.296 152.333C806.331 155.936 809.383 155.488 798.216 157.983C782.431 158.42 780.75 154.383 780.594 148.751C780.439 143.12 787.145 144.196 802.93 143.76C818.715 143.323 809.14 146.701 809.296 152.333Z" fill="#E0DBFE"/>
<path d="M843.827 145.059C842.865 146.169 836.786 146.403 833.167 147.176C828.053 147.317 827.51 146.076 827.463 144.343C827.415 142.61 829.587 142.938 834.701 142.797C839.814 142.656 843.779 143.326 843.827 145.059Z" fill="#E0DBFE"/>
<path d="M799.136 176.408C798.174 177.518 792.095 177.752 788.476 178.525C783.362 178.667 782.82 177.425 782.772 175.693C782.724 173.96 784.896 174.288 790.01 174.147C795.124 174.005 799.088 174.675 799.136 176.408Z" fill="#B2A4FD"/>
<path d="M845.627 136.262C842.446 136.437 840.126 136.311 836.966 135.456C834.962 133.824 838.001 133.092 842.469 132.304C846.938 131.517 846.784 132.383 848.788 134.014C850.792 135.646 850.095 135.475 845.627 136.262Z" fill="#E0DBFE"/>
<path d="M823.179 137.186C822.708 138.102 819.669 138.241 817.866 138.851C815.309 138.922 815.026 137.883 814.986 136.439C814.946 134.995 816.036 135.288 818.593 135.218C821.15 135.147 823.139 135.742 823.179 137.186Z" fill="#E0DBFE"/>
<path d="M860.222 128.797C857.701 129.048 859.791 127.509 857.634 127.183C856.631 126.368 855.807 126.406 859.53 125.75C863.254 125.093 862.844 125.585 863.846 126.401C864.848 127.217 863.946 128.141 860.222 128.797Z" fill="#E0DBFE"/>
<path d="M799.852 171.034C797.331 171.286 799.421 169.746 797.263 169.42C796.261 168.605 795.436 168.643 799.16 167.987C802.884 167.331 802.474 167.822 803.476 168.638C804.478 169.454 803.576 170.378 799.852 171.034Z" fill="#B2A4FD"/>
<path d="M1170.91 236.554C1171.18 238.489 1171.31 240.812 1171.21 243.552C1171.14 245.164 1171 246.92 1170.75 248.834C1170.06 254.002 1168.9 257.895 1167.69 260.771C1165.77 265.307 1160.69 267.85 1155.71 266.76C1128.38 260.811 1108.7 241.453 1108.7 241.453C1108.7 241.453 1110.21 240.571 1112.91 239.25C1121.01 235.307 1139.85 227.468 1160.87 227.944C1165.99 228.056 1170.24 231.711 1170.91 236.554Z" fill="#B2A4FD"/>
<path d="M1171.21 243.552C1171.14 245.164 1171 246.92 1170.75 248.834C1170.06 254.002 1168.9 257.895 1167.69 260.771C1165.77 265.307 1160.69 267.85 1155.71 266.76C1128.38 260.811 1108.7 241.453 1108.7 241.453C1108.7 241.453 1110.21 240.571 1112.91 239.25C1125.21 248.284 1145.11 256.07 1171.21 243.552Z" fill="#A392FD"/>
<path d="M1124.21 243.299C1124.11 244.08 1123.94 244.841 1123.71 245.573L1121.52 248.256L1120.69 251.012C1117.86 254.247 1113.65 256.284 1109.05 256.388L1109.05 256.384L1097.01 249.096L1096.17 232.555C1097.52 230.811 1099.28 229.372 1101.28 228.331C1104.04 226.888 1107.3 226.23 1110.67 226.632C1119.24 227.647 1125.3 235.113 1124.21 243.299Z" fill="#B2A4FD"/>
<path d="M1123.71 245.575C1121.63 252.533 1114.48 257.202 1106.73 256.277C1098.16 255.259 1092.1 247.793 1093.19 239.606C1093.85 234.644 1096.99 230.556 1101.28 228.334C1105.01 232.81 1112.65 240.632 1123.71 245.575Z" fill="#A392FD"/>
<ellipse rx="6.6899" ry="6.15588" transform="matrix(0.674088 -0.730345 0.769808 0.647937 1136.7 229.879)" fill="#FAFAFA"/>
<ellipse rx="6.21205" ry="6.15588" transform="matrix(0.674088 -0.730345 0.769808 0.647937 1146.81 231.563)" fill="#FAFAFA"/>
<ellipse rx="3.34495" ry="3.31471" transform="matrix(0.674088 -0.730345 0.769808 0.647937 1154.96 229.745)" fill="#FAFAFA"/>
<path d="M586.913 236.084C591.475 239.91 587.81 245.151 578.727 247.791C569.644 250.431 558.582 249.47 554.019 245.644C549.457 241.818 553.122 236.576 562.205 233.937C571.288 231.297 582.35 232.259 586.913 236.084Z" fill="white"/>
<path d="M643.166 219.736C647.728 223.561 658.79 224.523 667.874 221.883C676.957 219.243 680.622 214.002 676.06 210.176C671.497 206.35 660.435 205.389 651.351 208.029C642.268 210.669 638.603 215.91 643.166 219.736Z" fill="white"/>
<path d="M600.296 233.562C607.009 238.7 614.652 236.921 623.302 234.13C631.952 231.339 638.334 228.594 631.621 223.456C624.908 218.318 612.453 216.415 603.804 219.205C595.154 221.996 593.583 228.423 600.296 233.562Z" fill="#495560"/>
<path d="M565.778 234.951C563.548 235.598 560.602 235.167 559.196 233.988C555.07 230.528 557.035 226.166 563.578 224.264L563.585 224.262C566.753 223.343 570.508 223.13 574.16 223.664C577.815 224.198 580.928 225.415 582.927 227.092C584.334 228.271 583.666 229.752 581.437 230.4C581.436 230.4 581.435 230.401 581.435 230.401C579.205 231.048 576.259 230.617 574.853 229.438C574.214 228.902 573.219 228.513 572.052 228.343C570.886 228.173 569.686 228.24 568.674 228.534C568.673 228.534 568.672 228.535 568.672 228.535C566.581 229.142 565.953 230.536 567.271 231.641C568.678 232.821 568.01 234.302 565.781 234.95C565.779 234.95 565.778 234.951 565.778 234.951Z" fill="#495560"/>
<path d="M635.754 214.615C633.525 215.263 630.579 214.832 629.173 213.653C625.046 210.192 627.011 205.83 633.554 203.929L633.56 203.927C640.103 202.028 648.778 203.297 652.904 206.756C654.31 207.936 653.643 209.417 651.413 210.065C651.413 210.065 651.412 210.065 651.411 210.065C649.182 210.712 646.235 210.282 644.83 209.103C644.191 208.567 643.196 208.178 642.029 208.007C640.862 207.837 639.662 207.905 638.649 208.199C638.649 208.199 638.648 208.199 638.648 208.199C636.558 208.807 635.93 210.201 637.248 211.306C638.654 212.485 637.987 213.967 635.757 214.614C635.756 214.615 635.755 214.615 635.754 214.615Z" fill="#495560"/>
<path d="M662.474 170.392C663.63 170.572 664.986 170.886 666.54 171.396C667.455 171.696 668.438 172.064 669.494 172.512C672.343 173.729 674.383 174.98 675.828 176.091C678.108 177.848 678.711 180.93 677.246 183.359C669.227 196.681 654.802 203.78 654.802 203.78C654.802 203.78 654.55 202.844 654.247 201.211C653.35 196.314 652.026 185.151 655.842 174.223C656.768 171.562 659.583 169.938 662.474 170.392Z" fill="#B5E9F1"/>
<path d="M640.681 168.125C641.245 167.896 641.936 167.673 642.773 167.483C643.265 167.371 643.807 167.272 644.405 167.187C646.021 166.964 647.288 166.971 648.253 167.075C649.774 167.241 650.942 168.439 651.004 169.901C651.353 177.912 647.049 184.889 647.049 184.889C647.049 184.889 646.664 184.544 646.053 183.905C644.225 181.986 640.375 177.418 638.868 171.583C638.5 170.163 639.27 168.697 640.681 168.125Z" fill="#B5E9F1"/>
<path d="M655.324 154.597C655.781 154.58 656.325 154.599 656.961 154.678C657.335 154.725 657.741 154.793 658.181 154.885C659.37 155.138 660.252 155.464 660.896 155.781C661.911 156.283 662.393 157.415 662.03 158.453C660.05 164.139 655.112 167.924 655.112 167.924C655.112 167.924 654.939 167.586 654.69 166.984C653.948 165.18 652.531 161.014 653.099 156.554C653.237 155.469 654.181 154.639 655.324 154.597Z" fill="#B5E9F1"/>
<path d="M515.803 203.059C516 202.664 516.27 202.212 516.639 201.71C516.857 201.415 517.108 201.102 517.399 200.772C518.186 199.881 518.899 199.285 519.493 198.886C520.43 198.257 521.705 198.37 522.499 199.155C526.856 203.45 528.073 209.375 528.073 209.375C528.073 209.375 527.678 209.365 527.004 209.299C524.984 209.097 520.459 208.378 516.585 205.844C515.642 205.228 515.311 204.046 515.803 203.059Z" fill="#B5E9F1"/>
<path d="M535.019 203.185C535.583 202.956 536.274 202.732 537.11 202.543C537.602 202.431 538.145 202.331 538.743 202.247C540.359 202.023 541.626 202.03 542.59 202.134C544.112 202.3 545.28 203.498 545.342 204.96C545.691 212.971 541.387 219.949 541.387 219.949C541.387 219.949 541.002 219.604 540.391 218.965C538.562 217.045 534.713 212.478 533.206 206.643C532.838 205.223 533.608 203.756 535.019 203.185Z" fill="#B5E9F1"/>
<path d="M520.276 216.789C519.665 217.745 519.028 218.933 518.418 220.394C518.059 221.253 517.709 222.207 517.374 223.265C516.478 226.126 516.137 228.422 516.074 230.196C515.976 232.996 518.022 235.445 520.902 235.967C536.679 238.843 551.71 233.01 551.71 233.01C551.71 233.01 551.134 232.217 550.04 230.932C546.749 227.085 538.777 218.841 527.637 214.477C524.926 213.413 521.804 214.396 520.276 216.789Z" fill="#B5E9F1"/>
<path d="M844.806 398.925C845.089 401.202 845.212 403.934 845.041 407.157C844.942 409.053 844.739 411.118 844.415 413.368C843.523 419.444 842.103 424.02 840.633 427.398C838.308 432.728 832.302 435.704 826.468 434.406C794.49 427.328 771.699 404.5 771.699 404.5C771.699 404.5 773.483 403.467 776.674 401.922C786.252 397.309 808.491 388.145 833.159 388.768C839.163 388.916 844.102 393.227 844.806 398.925Z" fill="#B2A4FD"/>
<path d="M845.041 407.157C844.942 409.053 844.739 411.118 844.415 413.368C843.523 419.444 842.103 424.02 840.633 427.398C838.308 432.728 832.302 435.704 826.468 434.406C794.49 427.328 771.699 404.5 771.699 404.5C771.699 404.5 773.483 403.467 776.674 401.922C790.968 412.584 814.207 421.802 845.041 407.157Z" fill="#A392FD"/>
<path d="M789.874 406.717C789.743 407.635 789.532 408.53 789.255 409.39L786.635 412.54L785.618 415.778C782.248 419.574 777.267 421.958 771.874 422.066L771.867 422.062L757.849 413.453L757.131 393.996C758.752 391.948 760.84 390.261 763.197 389.043C766.472 387.354 770.308 386.59 774.256 387.073C784.295 388.293 791.291 397.092 789.874 406.717Z" fill="#B2A4FD"/>
<path d="M789.256 409.392C786.694 417.57 778.227 423.04 769.151 421.928C759.106 420.706 752.109 411.906 753.525 402.281C754.382 396.446 758.129 391.648 763.199 389.046C767.511 394.322 776.349 403.546 789.256 409.392Z" fill="#A392FD"/>
</svg>
