<svg width="1920" height="1079" viewBox="0 0 1920 1079" fill="none" xmlns="http://www.w3.org/2000/svg">
<g clip-path="url(#clip0_1756_8175)">
<rect x="402.096" y="-482.341" width="2055" height="739" transform="rotate(11.0172 402.096 -482.341)" fill="#E0DBFE"/>
<path d="M-390.992 21.1875L1373.72 -398.778L1524.9 236.481L-239.814 656.447L-390.992 21.1875Z" fill="#E0DBFE"/>
<path d="M1269.95 484.296C1274.86 473.065 1321.62 450.088 1328.12 449.938C1379.69 448.744 1449.5 473.84 1449.21 474.138C1448.8 474.566 1404.73 512.968 1334.65 513.977C1320.97 514.174 1256.18 515.796 1269.95 484.296Z" fill="#F6F4FF"/>
<path d="M1335.7 364.74L1441.95 352.774L1462.39 414.816L1448.76 474.148L1385.92 462.102L1321.15 449.099L1335.7 364.74Z" fill="#A392FD"/>
<path d="M1379.83 413.23C1400.03 398.426 1434.68 402.723 1447.47 422.664C1460.26 442.606 1448.71 474.149 1448.71 474.149L1361.3 457.171C1361.3 457.171 1359.63 428.033 1379.83 413.23Z" fill="#846DFC"/>
<path d="M1481.85 467.674L1471.41 469.216C1469.41 469.511 1467.55 468.132 1467.26 466.135C1466.96 464.139 1468.34 462.282 1470.34 461.987L1480.78 460.446C1482.78 460.151 1484.64 461.53 1484.94 463.526C1485.23 465.522 1483.85 467.379 1481.85 467.674Z" fill="#EDBCB9"/>
<path opacity="0.08" d="M1480.79 460.446L1470.34 461.987C1468.34 462.282 1466.96 464.139 1467.26 466.135C1467.55 468.131 1469.41 469.511 1471.41 469.216L1474.76 468.721C1478.37 466.797 1481.11 464.128 1482.52 460.612C1481.98 460.423 1481.39 460.356 1480.79 460.446Z" fill="black"/>
<path d="M1455.35 471.587L1444.91 473.128C1442.91 473.423 1441.05 472.044 1440.76 470.048C1440.46 468.052 1441.84 466.195 1443.84 465.9L1454.28 464.358C1456.28 464.063 1458.14 465.442 1458.43 467.439C1458.73 469.435 1457.35 471.292 1455.35 471.587Z" fill="#EDBCB9"/>
<path d="M1449.74 463.737C1432.45 466.289 1416.31 454.311 1413.76 437.036L1412.83 430.768C1412.7 429.897 1413.31 429.086 1414.18 428.957C1415.05 428.829 1415.86 429.431 1415.99 430.302L1416.92 436.57C1419.21 452.105 1433.72 462.877 1449.27 460.582C1450.14 460.453 1450.95 461.055 1451.08 461.926C1451.21 462.798 1450.61 463.608 1449.74 463.737Z" fill="#EDBCB9"/>
<path opacity="0.08" d="M1454.28 464.358L1443.84 465.9C1443.23 465.989 1442.69 466.224 1442.22 466.561C1444.59 469.52 1447.99 471.282 1452 472.081L1455.35 471.587C1457.35 471.292 1458.73 469.435 1458.43 467.438C1458.14 465.443 1456.28 464.063 1454.28 464.358Z" fill="black"/>
<path d="M1482.98 449.378C1484.79 461.64 1475.53 467.796 1463.26 469.607C1450.99 471.419 1440.35 468.201 1438.54 455.938C1436.73 443.676 1445.21 432.267 1457.48 430.456C1469.75 428.644 1481.17 437.116 1482.98 449.378Z" fill="#E8E8E8"/>
<path opacity="0.08" d="M1457.48 430.456C1448.76 431.743 1441.96 437.878 1439.4 445.721C1445.3 447.592 1452.38 447.764 1459.87 446.658C1467.37 445.551 1474.09 443.341 1479.21 439.844C1474.49 433.075 1466.2 429.168 1457.48 430.456Z" fill="black"/>
<path d="M1426.02 417.734C1437.35 416.061 1445.18 405.528 1443.51 394.207C1441.84 382.886 1431.3 375.064 1419.97 376.736C1408.64 378.409 1400.81 388.942 1402.48 400.264C1404.15 411.585 1414.69 419.406 1426.02 417.734Z" fill="#E8E8E8"/>
<path d="M1424.59 407.998C1430.53 407.12 1434.65 401.589 1433.77 395.645C1432.89 389.701 1427.36 385.594 1421.41 386.472C1415.46 387.351 1411.35 392.881 1412.23 398.825C1413.1 404.769 1418.64 408.876 1424.59 407.998Z" fill="#EDBCB9"/>
<path opacity="0.08" d="M1442.35 389.769C1429.49 393.431 1420.24 404.508 1418.67 417.504C1421.02 418.006 1423.5 418.105 1426.02 417.733C1437.35 416.06 1445.18 405.527 1443.51 394.206C1443.28 392.656 1442.89 391.172 1442.35 389.769Z" fill="black"/>
<path d="M1483.92 409.186C1495.25 407.513 1503.08 396.98 1501.41 385.659C1499.74 374.338 1489.2 366.516 1477.87 368.189C1466.54 369.861 1458.71 380.395 1460.38 391.716C1462.06 403.037 1472.6 410.858 1483.92 409.186Z" fill="#E8E8E8"/>
<path d="M1482.49 399.45C1488.43 398.572 1492.54 393.041 1491.67 387.097C1490.79 381.153 1485.26 377.047 1479.31 377.925C1473.36 378.803 1469.25 384.333 1470.13 390.278C1471 396.222 1476.54 400.328 1482.49 399.45Z" fill="#EDBCB9"/>
<path d="M1488.23 412.846C1490.89 430.858 1477.3 439.901 1459.27 442.562C1441.24 445.223 1425.61 440.495 1422.96 422.483C1420.3 404.47 1432.75 387.711 1450.78 385.049C1468.81 382.388 1485.57 394.833 1488.23 412.846Z" fill="#E8E8E8"/>
<path d="M1445.07 418.765C1444.2 418.894 1443.39 418.292 1443.26 417.421C1443.16 416.753 1442.53 416.289 1441.87 416.388C1441.2 416.487 1440.73 417.111 1440.83 417.779C1440.96 418.65 1440.36 419.461 1439.49 419.589C1438.61 419.718 1437.8 419.116 1437.67 418.245C1437.32 415.837 1438.99 413.589 1441.4 413.233C1443.81 412.878 1446.06 414.547 1446.41 416.955C1446.54 417.826 1445.94 418.636 1445.07 418.765Z" fill="#4A5058"/>
<path d="M1471.57 414.853C1470.7 414.981 1469.89 414.379 1469.76 413.508C1469.66 412.84 1469.04 412.377 1468.37 412.476C1467.7 412.574 1467.24 413.198 1467.33 413.866C1467.46 414.737 1466.86 415.548 1465.99 415.677C1465.12 415.805 1464.31 415.203 1464.18 414.332C1463.82 411.925 1465.49 409.676 1467.9 409.321C1470.31 408.965 1472.56 410.634 1472.92 413.042C1473.04 413.913 1472.44 414.724 1471.57 414.853Z" fill="#4A5058"/>
<path d="M1455.18 433.872C1456.04 433.745 1456.79 434.051 1456.87 434.555C1457.01 435.518 1459.4 435.166 1459.25 434.202C1459.18 433.698 1459.82 433.187 1460.67 433.061C1461.53 432.934 1462.29 433.24 1462.36 433.744C1462.57 435.136 1460.81 436.554 1458.43 436.905C1456.06 437.255 1453.97 436.406 1453.76 435.014C1453.69 434.51 1454.32 433.998 1455.18 433.872Z" fill="#4A5058"/>
<path d="M1446.1 427.375L1438.32 428.523C1437.45 428.652 1436.64 428.05 1436.51 427.179C1436.38 426.308 1436.98 425.497 1437.86 425.369L1445.63 424.22C1446.5 424.092 1447.32 424.694 1447.44 425.565C1447.57 426.436 1446.97 427.247 1446.1 427.375Z" fill="#4A5058"/>
<path d="M1441.7 437.553C1441.18 437.63 1440.62 437.445 1440.25 437.014C1439.68 436.346 1439.76 435.339 1440.43 434.765L1446.61 429.462C1447.28 428.889 1448.28 428.965 1448.86 429.634C1449.43 430.302 1449.35 431.308 1448.69 431.882L1442.5 437.185C1442.27 437.388 1441.99 437.51 1441.7 437.553Z" fill="#4A5058"/>
<path d="M1475.27 423.069L1467.49 424.217C1466.62 424.346 1465.81 423.744 1465.68 422.873C1465.55 422.001 1466.15 421.191 1467.02 421.062L1474.8 419.914C1475.67 419.785 1476.48 420.387 1476.61 421.258C1476.74 422.13 1476.14 422.94 1475.27 423.069Z" fill="#4A5058"/>
<path d="M1474.64 432.69C1474.36 432.732 1474.05 432.696 1473.77 432.57L1466.32 429.28C1465.51 428.924 1465.15 427.983 1465.5 427.177C1465.86 426.371 1466.8 426.007 1467.61 426.363L1475.06 429.653C1475.86 430.009 1476.23 430.95 1475.87 431.756C1475.64 432.276 1475.17 432.612 1474.64 432.69Z" fill="#4A5058"/>
<path d="M1457.42 430.055C1460.65 429.579 1462.88 426.579 1462.4 423.356C1461.93 420.132 1458.93 417.905 1455.7 418.382C1452.47 418.858 1450.25 421.857 1450.72 425.081C1451.2 428.304 1454.2 430.531 1457.42 430.055Z" fill="#EDBCB9"/>
<path d="M1453.05 454.249C1452.36 454.796 1451.47 455.096 1450.52 455.03C1446.65 454.759 1443.33 452.781 1441.89 451.057C1440.6 449.508 1440.81 447.204 1442.36 445.911C1443.9 444.621 1446.2 444.825 1447.49 446.362C1447.84 446.723 1449.33 447.622 1451.03 447.741C1453.05 447.882 1454.57 449.627 1454.43 451.64C1454.35 452.706 1453.83 453.634 1453.05 454.249Z" fill="white"/>
<path d="M1463.4 450.111C1463.55 451.091 1464.09 452.009 1464.98 452.607C1466.65 453.735 1468.92 453.293 1470.05 451.621C1471.01 450.201 1472.54 449.358 1473.02 449.246C1475.01 448.901 1476.34 447.016 1475.99 445.024C1475.64 443.036 1473.74 441.706 1471.75 442.051C1469.54 442.435 1466.16 444.316 1463.99 447.536C1463.46 448.322 1463.27 449.241 1463.4 450.111Z" fill="white"/>
<path d="M1322.15 449.076L1270.89 438.761L1281.28 290.532C1281.95 280.93 1290.89 274.091 1300.33 275.952L1504.44 316.179C1512.52 317.771 1518.07 325.237 1517.27 333.433L1502.51 484.405L1455.3 475.497C1451.6 445.596 1482.61 361.333 1395.13 363.361C1328.26 364.912 1322.29 419.087 1322.15 449.076Z" fill="#E0DBFE"/>
<path d="M1327.63 450.449L1321.1 449.1L1326.24 414.119C1331.61 377.666 1364.42 351.69 1401.13 354.84C1441.94 358.341 1470.94 396.114 1463.78 436.439L1456.76 475.963L1448.71 474.149C1449.65 449.948 1482.92 374.814 1398.82 371.328C1332.23 368.568 1328.86 435.701 1327.63 450.449Z" fill="#E0DBFE"/>
<ellipse cx="1340.78" cy="546.65" rx="10.1364" ry="9.41242" transform="rotate(-37.7987 1340.78 546.65)" fill="#FAFAFA"/>
<circle cx="1356.06" cy="548.067" r="9.41242" transform="rotate(-37.7987 1356.06 548.067)" fill="#FAFAFA"/>
<circle cx="1368.51" cy="547.575" r="5.06822" transform="rotate(-37.7987 1368.51 547.575)" fill="#FAFAFA"/>
<path d="M930.155 494.418C932.993 493.492 936.091 493.401 939.088 494.158L1598.29 660.556L1304.94 796.144C1301.8 797.591 1298.21 797.941 1294.71 797.138L593.104 636.165C577.035 632.478 574.705 610.476 589.86 605.527L930.155 494.418Z" fill="#E0DBFE"/>
<path d="M928.5 492C928.5 492 793.314 641.122 942.222 692.878C1191.6 779.554 1613.09 657.253 1613.09 657.253L1230.48 831.488C1228.74 832.281 1226.72 832.395 1224.81 831.808L556.66 626.642C549.034 624.3 548.35 613.815 555.671 611.469L928.5 492Z" fill="#B2A4FD"/>
<path d="M737.694 650.735C727.282 648.003 722.103 644.862 722.159 641.312C722.462 637.827 728.488 634.139 740.238 630.249L754.337 625.58L679.591 605.968C668.683 603.105 662.741 599.997 661.765 596.641C661.037 593.351 666.026 589.933 676.731 586.388C682.997 584.313 690.118 582.617 698.093 581.3C706.33 579.897 717.477 578.56 731.534 577.289L961.697 554.926C974.488 553.633 985.811 553.195 995.664 553.61C1005.52 554.026 1014.66 555.34 1023.09 557.551C1032.51 560.023 1036.94 562.969 1036.39 566.389C1036.1 569.722 1029.95 573.377 1017.94 577.355L874.597 624.822L883.522 627.164C892.943 629.636 897.659 632.268 897.669 635.06C897.928 637.918 893.749 640.773 885.133 643.626C876.255 646.566 866.987 648.163 857.329 648.419C847.919 648.739 838.504 647.663 829.083 645.192L820.158 642.85L806.059 647.519C794.571 651.323 782.842 653.515 770.874 654.094C759.414 654.651 748.355 653.532 737.694 650.735ZM808.776 607.552L901.205 576.944L911.618 579.676L732.436 597.517L749.277 591.941L808.776 607.552Z" fill="#846DFC"/>
<path d="M920.47 699.157C888.241 690.7 875.852 680.089 883.302 667.321C891.262 654.533 918.088 640.573 963.78 625.442C994.589 615.239 1024.28 607.688 1052.85 602.787C1081.69 597.8 1108.9 595.486 1134.48 595.844C1160.06 596.202 1183.63 599.21 1205.2 604.869C1237.67 613.391 1250.46 623.873 1243.54 636.316C1236.63 648.759 1210.19 662.589 1164.24 677.806C1133.69 687.922 1103.87 695.517 1074.77 700.59C1045.68 705.664 1018.08 708.108 991.975 707.923C965.873 707.738 942.038 704.816 920.47 699.157ZM977.65 680.221C989.55 683.344 1005.14 683.405 1024.42 680.405C1044.21 677.384 1069.24 670.858 1099.53 660.828C1129.56 650.885 1147.99 643.015 1154.84 637.217C1162.19 631.398 1159.92 626.927 1148.02 623.805C1136.12 620.682 1120.67 620.502 1101.66 623.264C1083.16 626.005 1058.9 632.347 1028.88 642.29C998.589 652.319 979.378 660.374 971.241 666.452C963.614 672.509 965.75 677.099 977.65 680.221Z" fill="#846DFC"/>
<path d="M1177.9 774.905C1167.49 772.173 1162.31 769.032 1162.37 765.483C1162.67 761.998 1168.7 758.31 1180.45 754.419L1194.55 749.75L1125.55 722.978C1114.64 720.116 1108.69 717.007 1107.72 713.652C1106.99 710.361 1111.98 706.944 1122.68 703.399C1128.95 701.324 1136.07 699.628 1144.05 698.311C1152.28 696.908 1163.43 695.571 1177.49 694.3L1407.65 671.937C1420.44 670.644 1431.76 670.205 1441.62 670.621C1451.47 671.037 1460.61 672.351 1469.04 674.562C1478.46 677.034 1482.9 679.98 1482.35 683.4C1482.06 686.733 1475.91 690.388 1463.89 694.365L1314.81 748.993L1323.73 751.335C1333.15 753.807 1337.87 756.439 1337.88 759.231C1338.14 762.088 1333.96 764.944 1325.34 767.797C1316.46 770.737 1307.2 772.334 1297.54 772.59C1288.13 772.91 1278.71 771.834 1269.29 769.362L1260.37 767.021L1246.27 771.69C1234.78 775.494 1223.05 777.686 1211.08 778.265C1199.62 778.822 1188.56 777.702 1177.9 774.905ZM1249.21 729.013L1347.16 693.955L1357.57 696.687L1178.39 714.528L1189.71 713.401L1249.21 729.013Z" fill="#846DFC"/>
<path opacity="0.1" d="M927 495C927 495 793.314 641.122 942.222 692.878C1191.59 779.554 1613.09 657.253 1613.09 657.253L1230.48 831.486C1228.74 832.28 1226.72 832.394 1224.81 831.805L558.326 626.694C550.685 624.343 550.028 613.829 557.377 611.512L927 495Z" fill="#6549FB"/>
<path d="M906.549 443.279C904.934 444.134 903.097 445.289 901.078 446.839C899.889 447.75 898.639 448.799 897.324 450.004C893.783 453.268 891.465 456.172 889.95 458.568C887.563 462.352 888.424 467.274 891.989 470.174C911.505 486.083 936.996 489.43 936.996 489.43C936.996 489.43 936.837 487.901 936.356 485.301C934.896 477.51 930.498 460.114 918.593 445.668C915.698 442.149 910.588 441.139 906.549 443.279Z" fill="#B2A4FD"/>
<path d="M901.078 446.839C899.889 447.75 898.639 448.799 897.324 450.004C893.783 453.268 891.465 456.172 889.95 458.568C887.563 462.352 888.424 467.274 891.989 470.174C911.505 486.083 936.996 489.43 936.996 489.43C936.996 489.43 936.837 487.901 936.356 485.301C922.75 481.56 905.913 471.829 901.078 446.839Z" fill="#A392FD"/>
<path d="M927.079 479.576C926.542 480.067 926.058 480.595 925.627 481.148L924.797 484.127L923.162 486.19C922.26 489.907 923.03 493.953 925.474 497.221L925.479 497.223L937.62 501.723L950.627 493.406C951.205 491.518 951.331 489.513 951.025 487.559C950.599 484.845 949.308 482.211 947.153 480.071C941.679 474.626 932.688 474.405 927.079 479.576Z" fill="#B2A4FD"/>
<path d="M925.627 481.148C921.495 486.353 921.879 493.866 926.834 498.785C932.313 504.233 941.305 504.454 946.914 499.283C950.315 496.149 951.693 491.755 951.024 487.56C945.577 487.356 935.451 486.226 925.627 481.148Z" fill="#A392FD"/>
<path d="M505.353 578.529C503.967 580.184 502.474 582.267 500.963 584.867C500.074 586.396 499.179 588.105 498.286 590.014C495.887 595.177 494.671 599.405 494.106 602.719C493.22 607.949 496.441 613.012 501.709 614.652C530.566 623.664 560.213 616.166 560.213 616.166C560.213 616.166 559.333 614.546 557.603 611.884C552.399 603.913 539.523 586.618 519.733 575.879C514.919 573.262 508.818 574.39 505.353 578.529Z" fill="#B2A4FD"/>
<path d="M500.963 584.867C500.074 586.396 499.179 588.105 498.286 590.014C495.887 595.177 494.671 599.405 494.106 602.719C493.22 607.949 496.441 613.012 501.709 614.652C530.566 623.664 560.213 616.166 560.213 616.166C560.213 616.166 559.333 614.546 557.603 611.884C540.875 613.725 517.824 610.365 500.963 584.867Z" fill="#A392FD"/>
<path d="M544.735 609.631C544.37 610.41 544.08 611.206 543.859 612.006L544.319 615.664L543.467 618.662C544.189 623.167 546.904 627.3 551.106 629.839L551.113 629.839L566.574 629.48L577.077 614.575C576.843 612.234 576.057 609.963 574.818 607.937C573.096 605.124 570.458 602.78 567.095 601.362C558.548 597.747 548.532 601.452 544.735 609.631Z" fill="#B2A4FD"/>
<path d="M543.858 612.006C541.704 619.574 545.594 627.71 553.326 630.97C561.88 634.585 571.896 630.88 575.694 622.701C577.997 617.744 577.49 612.281 574.817 607.938C568.718 610.105 557.031 613.303 543.858 612.006Z" fill="#A392FD"/>
<path d="M1432.08 608.549C1432.3 616.347 1421.22 622.98 1407.34 623.364C1393.46 623.748 1382.03 617.738 1381.82 609.939C1381.6 602.141 1392.68 595.508 1406.56 595.124C1420.44 594.74 1431.87 600.751 1432.08 608.549Z" fill="#FAFAFA"/>
<path d="M1266.53 589.927C1266.66 594.666 1258.08 598.748 1247.37 599.044C1236.66 599.34 1227.87 595.739 1227.74 591C1227.61 586.261 1236.19 582.179 1246.9 581.883C1257.61 581.587 1266.4 585.188 1266.53 589.927Z" fill="#FAFAFA"/>
<path d="M1275.08 603.702C1275.23 609.189 1265.3 613.915 1252.9 614.258C1240.5 614.601 1230.32 610.431 1230.17 604.944C1230.02 599.457 1239.95 594.73 1252.35 594.387C1264.75 594.044 1274.93 598.214 1275.08 603.702Z" fill="#FAFAFA"/>
<path d="M1270.84 613.8C1270.9 615.79 1266.93 617.514 1261.98 617.651C1257.03 617.788 1252.98 616.286 1252.92 614.296C1252.87 612.306 1256.83 610.582 1261.78 610.445C1266.73 610.308 1270.79 611.81 1270.84 613.8Z" fill="#FAFAFA"/>
<path d="M1352.51 596.136C1352.67 602.122 1341.84 607.278 1328.31 607.653C1314.78 608.027 1303.68 603.478 1303.51 597.492C1303.35 591.506 1314.18 586.35 1327.71 585.975C1341.24 585.601 1352.34 590.15 1352.51 596.136Z" fill="#FAFAFA"/>
<path d="M1316.06 607.991C1316.23 613.977 1305.39 619.133 1291.86 619.507C1278.33 619.882 1267.23 615.333 1267.07 609.347C1266.9 603.361 1277.73 598.205 1291.26 597.83C1304.79 597.456 1315.9 602.005 1316.06 607.991Z" fill="#FAFAFA"/>
<path d="M1395.64 604.434C1395.33 593.21 1374.51 584.68 1349.15 585.382C1323.78 586.084 1303.46 595.751 1303.78 606.975C1304.09 618.199 1324.9 626.728 1350.27 626.027C1375.64 625.325 1395.95 615.657 1395.64 604.434Z" fill="#FAFAFA"/>
<path d="M1315.64 592.636C1315.83 599.62 1303.19 605.635 1287.4 606.072C1271.62 606.508 1258.67 601.201 1258.47 594.217C1258.28 587.233 1270.92 581.218 1286.71 580.781C1302.49 580.345 1315.44 585.652 1315.64 592.636Z" fill="#FAFAFA"/>
<path d="M1274.3 575.333C1271.33 578.936 1274.38 578.487 1263.22 580.983C1247.43 581.42 1245.75 577.383 1245.59 571.751C1245.44 566.119 1252.15 567.196 1267.93 566.76C1283.71 566.323 1274.14 569.701 1274.3 575.333Z" fill="#E0DBFE"/>
<path d="M1308.83 568.058C1307.86 569.168 1301.79 569.403 1298.17 570.176C1293.05 570.317 1292.51 569.076 1292.46 567.343C1292.41 565.61 1294.59 565.938 1299.7 565.797C1304.81 565.655 1308.78 566.326 1308.83 568.058Z" fill="#E0DBFE"/>
<path d="M1264.14 599.408C1263.17 600.518 1257.1 600.752 1253.48 601.525C1248.36 601.667 1247.82 600.425 1247.77 598.692C1247.72 596.959 1249.9 597.288 1255.01 597.146C1260.12 597.005 1264.09 597.675 1264.14 599.408Z" fill="#B2A4FD"/>
<path d="M1310.63 559.262C1307.45 559.437 1305.13 559.311 1301.97 558.456C1299.96 556.824 1303 556.092 1307.47 555.304C1311.94 554.517 1311.78 555.383 1313.79 557.014C1315.79 558.646 1315.1 558.474 1310.63 559.262Z" fill="#E0DBFE"/>
<path d="M1288.18 560.186C1287.71 561.102 1284.67 561.241 1282.87 561.851C1280.31 561.922 1280.03 560.883 1279.99 559.439C1279.95 557.995 1281.04 558.288 1283.59 558.217C1286.15 558.147 1288.14 558.742 1288.18 560.186Z" fill="#E0DBFE"/>
<path d="M1325.22 551.797C1322.7 552.048 1324.79 550.509 1322.63 550.183C1321.63 549.367 1320.81 549.406 1324.53 548.749C1328.25 548.093 1327.84 548.585 1328.85 549.401C1329.85 550.216 1328.95 551.14 1325.22 551.797Z" fill="#E0DBFE"/>
<path d="M1264.85 594.034C1262.33 594.285 1264.42 592.746 1262.26 592.42C1261.26 591.604 1260.44 591.643 1264.16 590.987C1267.88 590.33 1267.47 590.822 1268.48 591.638C1269.48 592.454 1268.58 593.378 1264.85 594.034Z" fill="#B2A4FD"/>
<path d="M1635.91 659.554C1636.18 661.489 1636.32 663.812 1636.21 666.552C1636.15 668.164 1636 669.92 1635.75 671.834C1635.06 677.002 1633.9 680.895 1632.69 683.77C1630.77 688.307 1625.69 690.85 1620.71 689.759C1593.38 683.811 1573.7 664.453 1573.7 664.453C1573.7 664.453 1575.21 663.571 1577.91 662.25C1586.01 658.307 1604.85 650.468 1625.87 650.944C1630.99 651.056 1635.24 654.711 1635.91 659.554Z" fill="#B2A4FD"/>
<path d="M1636.21 666.552C1636.15 668.164 1636 669.92 1635.75 671.834C1635.06 677.002 1633.9 680.895 1632.69 683.77C1630.77 688.307 1625.69 690.85 1620.71 689.759C1593.38 683.811 1573.7 664.453 1573.7 664.453C1573.7 664.453 1575.21 663.571 1577.91 662.25C1590.21 671.284 1610.11 679.07 1636.21 666.552Z" fill="#A392FD"/>
<path d="M1589.21 666.299C1589.11 667.08 1588.94 667.84 1588.71 668.573L1586.52 671.256L1585.69 674.012C1582.86 677.246 1578.65 679.284 1574.05 679.387L1574.05 679.384L1562.01 672.096L1561.17 655.555C1562.52 653.81 1564.28 652.371 1566.28 651.331C1569.04 649.888 1572.3 649.23 1575.67 649.632C1584.24 650.647 1590.3 658.112 1589.21 666.299Z" fill="#B2A4FD"/>
<path d="M1588.71 668.575C1586.63 675.533 1579.48 680.202 1571.73 679.276C1563.16 678.259 1557.1 670.793 1558.19 662.606C1558.85 657.644 1561.99 653.556 1566.28 651.333C1570.01 655.81 1577.65 663.632 1588.71 668.575Z" fill="#A392FD"/>
<path d="M1606.21 647.993C1608.83 650.196 1608.93 654.169 1606.44 656.868C1603.95 659.566 1599.81 659.968 1597.19 657.765C1594.57 655.562 1594.47 651.589 1596.96 648.89C1599.45 646.192 1603.59 645.79 1606.21 647.993Z" fill="#FAFAFA"/>
<path d="M1615.99 650.026C1618.61 652.228 1618.86 656.045 1616.54 658.551C1614.23 661.057 1610.24 661.302 1607.62 659.099C1605 656.897 1604.75 653.08 1607.07 650.574C1609.38 648.068 1613.38 647.823 1615.99 650.026Z" fill="#FAFAFA"/>
<path d="M1622.22 650.301C1623.62 651.488 1623.76 653.543 1622.51 654.892C1621.27 656.241 1619.11 656.373 1617.71 655.187C1616.3 654.001 1616.16 651.946 1617.41 650.597C1618.65 649.247 1620.81 649.115 1622.22 650.301Z" fill="#FAFAFA"/>
<path d="M1051.91 659.084C1056.48 662.91 1052.81 668.151 1043.73 670.791C1034.64 673.431 1023.58 672.469 1019.02 668.644C1014.46 664.818 1018.12 659.576 1027.21 656.937C1036.29 654.297 1047.35 655.258 1051.91 659.084Z" fill="white"/>
<path d="M1108.17 642.735C1112.73 646.561 1123.79 647.523 1132.87 644.883C1141.96 642.243 1145.62 637.002 1141.06 633.176C1136.5 629.35 1125.44 628.388 1116.35 631.028C1107.27 633.669 1103.6 638.91 1108.17 642.735Z" fill="white"/>
<path d="M1065.3 656.562C1072.01 661.7 1079.65 659.921 1088.3 657.13C1096.95 654.339 1103.34 651.594 1096.62 646.456C1089.91 641.318 1077.45 639.415 1068.8 642.205C1060.15 644.996 1058.58 651.423 1065.3 656.562Z" fill="#495560"/>
<path d="M1030.78 657.951C1028.55 658.598 1025.6 658.167 1024.2 656.988C1020.07 653.528 1022.04 649.166 1028.58 647.264L1028.59 647.262C1031.75 646.343 1035.51 646.13 1039.16 646.664C1042.82 647.198 1045.93 648.415 1047.93 650.091C1049.33 651.271 1048.67 652.752 1046.44 653.4C1046.44 653.4 1046.44 653.4 1046.44 653.401C1044.21 654.048 1041.26 653.617 1039.85 652.438C1039.21 651.902 1038.22 651.513 1037.05 651.343C1035.89 651.172 1034.69 651.24 1033.67 651.534C1033.67 651.534 1033.67 651.534 1033.67 651.535C1031.58 652.142 1030.95 653.536 1032.27 654.641C1033.68 655.821 1033.01 657.302 1030.78 657.95C1030.78 657.95 1030.78 657.95 1030.78 657.951Z" fill="#495560"/>
<path d="M1100.75 637.615C1098.53 638.262 1095.58 637.832 1094.17 636.653C1090.05 633.192 1092.01 628.83 1098.55 626.929L1098.56 626.927C1105.1 625.028 1113.78 626.296 1117.9 629.756C1119.31 630.936 1118.64 632.417 1116.41 633.065C1116.41 633.065 1116.41 633.065 1116.41 633.065C1114.18 633.712 1111.24 633.282 1109.83 632.103C1109.19 631.567 1108.2 631.178 1107.03 631.007C1105.86 630.837 1104.66 630.905 1103.65 631.199C1103.65 631.199 1103.65 631.199 1103.65 631.199C1101.56 631.807 1100.93 633.201 1102.25 634.306C1103.65 635.485 1102.99 636.967 1100.76 637.614C1100.76 637.615 1100.76 637.615 1100.75 637.615Z" fill="#495560"/>
<path d="M1127.47 593.391C1128.63 593.572 1129.99 593.885 1131.54 594.396C1132.46 594.696 1133.44 595.064 1134.49 595.512C1137.34 596.729 1139.38 597.98 1140.83 599.091C1143.11 600.847 1143.71 603.93 1142.25 606.359C1134.23 619.681 1119.8 626.78 1119.8 626.78C1119.8 626.78 1119.55 625.844 1119.25 624.211C1118.35 619.314 1117.03 608.151 1120.84 597.222C1121.77 594.562 1124.58 592.938 1127.47 593.391Z" fill="#B5E9F1"/>
<path d="M1105.68 591.125C1106.25 590.896 1106.94 590.673 1107.77 590.483C1108.27 590.371 1108.81 590.271 1109.41 590.187C1111.02 589.963 1112.29 589.971 1113.25 590.075C1114.78 590.241 1115.94 591.439 1116.01 592.901C1116.35 600.912 1112.05 607.889 1112.05 607.889C1112.05 607.889 1111.67 607.544 1111.05 606.905C1109.23 604.986 1105.38 600.418 1103.87 594.583C1103.5 593.163 1104.27 591.697 1105.68 591.125Z" fill="#B5E9F1"/>
<path d="M1120.32 577.597C1120.78 577.58 1121.33 577.599 1121.96 577.678C1122.34 577.725 1122.74 577.792 1123.18 577.885C1124.37 578.138 1125.25 578.464 1125.9 578.781C1126.91 579.282 1127.39 580.415 1127.03 581.452C1125.05 587.139 1120.11 590.924 1120.11 590.924C1120.11 590.924 1119.94 590.586 1119.69 589.984C1118.95 588.18 1117.53 584.014 1118.1 579.554C1118.24 578.469 1119.18 577.639 1120.32 577.597Z" fill="#B5E9F1"/>
<path d="M980.804 626.059C981.001 625.664 981.271 625.212 981.64 624.71C981.858 624.415 982.109 624.102 982.4 623.772C983.187 622.881 983.9 622.284 984.494 621.885C985.431 621.257 986.706 621.37 987.5 622.155C991.857 626.45 993.074 632.375 993.074 632.375C993.074 632.375 992.679 632.365 992.005 632.299C989.985 632.097 985.46 631.378 981.586 628.844C980.643 628.228 980.312 627.046 980.804 626.059Z" fill="#B5E9F1"/>
<path d="M1000.02 626.184C1000.58 625.956 1001.27 625.732 1002.11 625.542C1002.6 625.431 1003.15 625.331 1003.74 625.247C1005.36 625.023 1006.63 625.03 1007.59 625.134C1009.11 625.3 1010.28 626.498 1010.34 627.96C1010.69 635.971 1006.39 642.949 1006.39 642.949C1006.39 642.949 1006 642.604 1005.39 641.965C1003.56 640.045 999.714 635.478 998.207 629.643C997.839 628.223 998.609 626.756 1000.02 626.184Z" fill="#B5E9F1"/>
<path d="M985.277 639.789C984.666 640.745 984.029 641.933 983.419 643.394C983.06 644.253 982.71 645.206 982.375 646.265C981.479 649.126 981.138 651.422 981.075 653.196C980.977 655.996 983.023 658.444 985.903 658.966C1001.68 661.843 1016.71 656.01 1016.71 656.01C1016.71 656.01 1016.14 655.217 1015.04 653.931C1011.75 650.085 1003.78 641.84 992.638 637.477C989.927 636.413 986.805 637.396 985.277 639.789Z" fill="#B5E9F1"/>
<path d="M1309.81 821.925C1310.09 824.202 1310.21 826.934 1310.04 830.157C1309.94 832.053 1309.74 834.118 1309.42 836.369C1308.52 842.444 1307.1 847.02 1305.63 850.398C1303.31 855.728 1297.3 858.704 1291.47 857.406C1259.49 850.328 1236.7 827.5 1236.7 827.5C1236.7 827.5 1238.48 826.467 1241.68 824.922C1251.25 820.309 1273.49 811.145 1298.16 811.768C1304.16 811.916 1309.1 816.227 1309.81 821.925Z" fill="#B2A4FD"/>
<path d="M1310.04 830.157C1309.94 832.053 1309.74 834.118 1309.42 836.369C1308.52 842.444 1307.1 847.02 1305.63 850.398C1303.31 855.728 1297.3 858.704 1291.47 857.406C1259.49 850.328 1236.7 827.5 1236.7 827.5C1236.7 827.5 1238.48 826.467 1241.68 824.922C1255.97 835.584 1279.21 844.802 1310.04 830.157Z" fill="#A392FD"/>
<path d="M1254.87 829.717C1254.74 830.635 1254.53 831.53 1254.26 832.39L1251.64 835.54L1250.62 838.778C1247.25 842.574 1242.27 844.958 1236.87 845.066L1236.87 845.062L1222.85 836.453L1222.13 816.997C1223.75 814.948 1225.84 813.261 1228.2 812.043C1231.47 810.354 1235.31 809.59 1239.26 810.073C1249.3 811.293 1256.29 820.092 1254.87 829.717Z" fill="#B2A4FD"/>
<path d="M1254.26 832.393C1251.69 840.57 1243.23 846.04 1234.15 844.929C1224.11 843.706 1217.11 834.906 1218.53 825.281C1219.38 819.447 1223.13 814.648 1228.2 812.046C1232.51 817.322 1241.35 826.546 1254.26 832.393Z" fill="#A392FD"/>
</g>
<defs>
<clipPath id="clip0_1756_8175">
<rect width="1920" height="1079" fill="white"/>
</clipPath>
</defs>
</svg>
