<svg width="267" height="299" viewBox="0 0 267 299" fill="none" xmlns="http://www.w3.org/2000/svg">
<path d="M11.9493 217.296C16.8597 206.065 63.6214 183.088 70.1197 182.938C121.693 181.744 191.497 206.84 191.213 207.138C190.805 207.566 146.726 245.968 76.655 246.977C62.9661 247.174 -1.8241 248.796 11.9493 217.296Z" fill="#F6F4FF"/>
<path d="M77.6962 97.7395L183.947 85.7736L204.391 147.816L190.763 207.148L127.917 195.102L63.1481 182.099L77.6962 97.7395Z" fill="#A392FD"/>
<path d="M121.832 146.23C142.034 131.426 176.684 135.723 189.474 155.664C202.263 175.606 190.713 207.15 190.713 207.15L103.296 190.171C103.296 190.171 101.63 161.033 121.832 146.23Z" fill="#846DFC"/>
<path d="M223.852 200.674L213.41 202.216C211.412 202.511 209.554 201.132 209.259 199.135C208.964 197.139 210.345 195.282 212.342 194.987L222.785 193.446C224.782 193.151 226.641 194.53 226.935 196.526C227.23 198.522 225.85 200.379 223.852 200.674Z" fill="#EDBCB9"/>
<path opacity="0.08" d="M222.785 193.446L212.342 194.987C210.345 195.282 208.964 197.139 209.259 199.135C209.554 201.131 211.412 202.511 213.41 202.216L216.759 201.721C220.369 199.797 223.113 197.128 224.522 193.612C223.982 193.423 223.39 193.356 222.785 193.446Z" fill="black"/>
<path d="M197.35 204.587L186.908 206.128C184.91 206.423 183.052 205.044 182.757 203.048C182.462 201.052 183.843 199.195 185.84 198.9L196.283 197.358C198.28 197.064 200.138 198.442 200.433 200.439C200.728 202.435 199.347 204.292 197.35 204.587Z" fill="#EDBCB9"/>
<path d="M191.735 196.737C174.448 199.289 158.309 187.311 155.758 170.036L154.833 163.768C154.704 162.897 155.307 162.086 156.179 161.957C157.05 161.829 157.862 162.431 157.99 163.302L158.916 169.57C161.209 185.105 175.723 195.877 191.27 193.582C192.141 193.453 192.952 194.055 193.081 194.926C193.21 195.798 192.607 196.608 191.735 196.737Z" fill="#EDBCB9"/>
<path opacity="0.08" d="M196.282 197.358L185.839 198.9C185.234 198.989 184.687 199.224 184.224 199.561C186.589 202.52 189.988 204.282 194 205.081L197.349 204.587C199.346 204.292 200.727 202.435 200.432 200.438C200.137 198.443 198.279 197.063 196.282 197.358Z" fill="black"/>
<path d="M224.978 182.378C226.788 194.64 217.533 200.796 205.261 202.607C192.99 204.419 182.351 201.201 180.54 188.938C178.73 176.676 187.21 165.267 199.481 163.456C211.753 161.644 223.168 170.116 224.978 182.378Z" fill="#E8E8E8"/>
<path opacity="0.08" d="M199.482 163.456C190.761 164.743 183.957 170.878 181.398 178.721C187.303 180.592 194.381 180.764 201.874 179.658C209.366 178.552 216.092 176.342 221.205 172.844C216.489 166.076 208.202 162.168 199.482 163.456Z" fill="black"/>
<path d="M168.024 150.734C179.353 149.061 187.182 138.528 185.511 127.207C183.84 115.886 173.301 108.064 161.971 109.736C150.642 111.409 142.812 121.942 144.484 133.264C146.155 144.585 156.694 152.406 168.024 150.734Z" fill="#E8E8E8"/>
<path d="M166.585 140.998C172.534 140.12 176.645 134.589 175.767 128.645C174.89 122.701 169.356 118.594 163.408 119.472C157.459 120.351 153.349 125.881 154.226 131.825C155.104 137.769 160.637 141.876 166.585 140.998Z" fill="#EDBCB9"/>
<path opacity="0.08" d="M184.347 122.769C171.49 126.431 162.236 137.508 160.667 150.504C163.021 151.006 165.503 151.105 168.024 150.733C179.354 149.06 187.183 138.527 185.512 127.206C185.283 125.656 184.887 124.172 184.347 122.769Z" fill="black"/>
<path d="M225.924 142.186C237.253 140.513 245.083 129.98 243.411 118.659C241.74 107.338 231.201 99.5161 219.872 101.189C208.542 102.861 200.713 113.395 202.384 124.716C204.055 136.037 214.595 143.858 225.924 142.186Z" fill="#E8E8E8"/>
<path d="M224.485 132.45C230.434 131.572 234.545 126.041 233.667 120.097C232.789 114.153 227.256 110.047 221.308 110.925C215.359 111.803 211.248 117.333 212.126 123.278C213.004 129.222 218.537 133.328 224.485 132.45Z" fill="#EDBCB9"/>
<path d="M230.232 145.846C232.891 163.858 219.295 172.901 201.269 175.562C183.243 178.223 167.614 173.495 164.955 155.483C162.296 137.47 174.753 120.711 192.779 118.049C210.805 115.388 227.573 127.833 230.232 145.846Z" fill="#E8E8E8"/>
<path d="M187.068 151.765C186.197 151.894 185.386 151.292 185.257 150.421C185.158 149.753 184.534 149.29 183.866 149.388C183.197 149.487 182.733 150.111 182.832 150.779C182.961 151.65 182.358 152.461 181.486 152.589C180.615 152.718 179.803 152.116 179.675 151.245C179.319 148.837 180.99 146.589 183.4 146.233C185.809 145.878 188.059 147.547 188.414 149.955C188.543 150.826 187.94 151.637 187.068 151.765Z" fill="#4A5058"/>
<path d="M213.571 147.853C212.699 147.981 211.888 147.379 211.759 146.508C211.661 145.84 211.037 145.377 210.368 145.476C209.7 145.574 209.236 146.198 209.334 146.866C209.463 147.737 208.861 148.548 207.989 148.677C207.117 148.805 206.306 148.203 206.177 147.332C205.822 144.925 207.493 142.676 209.902 142.321C212.312 141.965 214.561 143.634 214.917 146.042C215.045 146.913 214.443 147.724 213.571 147.853Z" fill="#4A5058"/>
<path d="M197.179 166.872C198.037 166.745 198.793 167.051 198.867 167.555C199.01 168.518 201.396 168.166 201.254 167.202C201.18 166.698 201.815 166.187 202.673 166.061C203.532 165.934 204.288 166.24 204.362 166.744C204.568 168.136 202.805 169.554 200.434 169.905C198.062 170.255 195.965 169.406 195.76 168.014C195.685 167.51 196.321 166.998 197.179 166.872Z" fill="#4A5058"/>
<path d="M188.099 160.375L180.322 161.523C179.45 161.652 178.639 161.05 178.511 160.179C178.382 159.308 178.985 158.497 179.856 158.369L187.633 157.22C188.505 157.092 189.316 157.694 189.445 158.565C189.573 159.436 188.971 160.247 188.099 160.375Z" fill="#4A5058"/>
<path d="M183.7 170.553C183.175 170.63 182.625 170.445 182.254 170.014C181.68 169.346 181.757 168.339 182.426 167.765L188.608 162.463C189.276 161.889 190.284 161.966 190.858 162.634C191.432 163.302 191.355 164.309 190.686 164.882L184.504 170.185C184.267 170.389 183.988 170.51 183.7 170.553Z" fill="#4A5058"/>
<path d="M217.266 156.069L209.49 157.217C208.618 157.346 207.807 156.744 207.678 155.873C207.55 155.001 208.152 154.191 209.024 154.062L216.8 152.914C217.672 152.785 218.483 153.387 218.612 154.258C218.741 155.13 218.138 155.94 217.266 156.069Z" fill="#4A5058"/>
<path d="M216.643 165.69C216.355 165.732 216.052 165.696 215.766 165.57L208.315 162.28C207.509 161.924 207.145 160.983 207.501 160.177C207.858 159.371 208.8 159.007 209.606 159.363L217.057 162.653C217.863 163.009 218.227 163.95 217.871 164.756C217.641 165.276 217.166 165.612 216.643 165.69Z" fill="#4A5058"/>
<path d="M199.424 163.055C202.65 162.579 204.879 159.579 204.403 156.356C203.927 153.132 200.926 150.905 197.7 151.382C194.474 151.858 192.245 154.857 192.721 158.081C193.197 161.304 196.198 163.531 199.424 163.055Z" fill="#EDBCB9"/>
<path d="M195.049 187.249C194.359 187.796 193.471 188.096 192.524 188.03C188.647 187.759 185.331 185.781 183.892 184.057C182.598 182.508 182.807 180.204 184.357 178.911C185.896 177.621 188.2 177.825 189.495 179.362C189.841 179.723 191.333 180.622 193.035 180.741C195.049 180.882 196.567 182.627 196.426 184.64C196.352 185.706 195.826 186.634 195.049 187.249Z" fill="white"/>
<path d="M205.403 183.111C205.547 184.091 206.088 185.009 206.975 185.607C208.649 186.735 210.921 186.293 212.05 184.621C213.008 183.201 214.544 182.358 215.022 182.246C217.012 181.901 218.336 180.016 217.988 178.024C217.643 176.036 215.739 174.706 213.75 175.051C211.536 175.435 208.162 177.316 205.989 180.536C205.458 181.322 205.274 182.241 205.403 183.111Z" fill="white"/>
<path d="M64.1477 182.076L12.8944 171.761L23.276 23.5325C23.9486 13.9301 32.8864 7.09104 42.3307 8.95233L246.442 49.1789C254.522 50.7713 260.074 58.2372 259.273 66.4336L244.515 217.405L197.295 208.497C193.601 178.597 224.607 94.3335 137.131 96.3615C70.2552 97.912 64.2862 152.087 64.1477 182.076Z" fill="#E0DBFE"/>
<path d="M69.6312 183.449L63.0982 182.1L68.2436 147.119C73.6053 110.666 106.421 84.6901 143.131 87.8399C183.937 91.3412 212.935 129.114 205.775 169.439L198.757 208.963L190.713 207.149C191.652 182.948 224.92 107.814 140.817 104.328C74.2347 101.568 70.8592 168.701 69.6312 183.449Z" fill="#E0DBFE"/>
</svg>
