<svg width="250" height="140" viewBox="0 0 250 140" fill="none" xmlns="http://www.w3.org/2000/svg">
<path d="M50.1961 140C40.0555 140 31.1824 137.777 23.5769 133.332C16.0729 128.785 10.242 122.42 6.08437 114.236C2.02812 105.951 0 96.2521 0 85.1383C0 76.7525 1.16617 69.2254 3.49851 62.5571C5.83086 55.7878 9.17726 50.0289 13.5377 45.2802C17.8982 40.4306 23.1713 36.7428 29.3571 34.217C35.5429 31.6911 42.4892 30.4282 50.1961 30.4282C60.4381 30.4282 69.3111 32.6509 76.8152 37.0965C84.3193 41.542 90.0994 47.8566 94.1557 56.0404C98.3133 64.2242 100.392 73.873 100.392 84.9868C100.392 93.3726 99.226 100.95 96.8936 107.72C94.5613 114.489 91.1642 120.298 86.7023 125.148C82.3418 129.998 77.0687 133.685 70.8829 136.211C64.6972 138.737 57.8015 140 50.1961 140ZM50.1961 126.36C57.2945 126.36 63.3282 124.744 68.2971 121.511C73.3674 118.278 77.2208 113.58 79.8574 107.416C82.5954 101.253 83.9643 93.8273 83.9643 85.1383C83.9643 72.1049 81.0236 62.0014 75.142 54.828C69.2604 47.6546 60.9451 44.0678 50.1961 44.0678C43.0976 44.0678 37.0133 45.6844 31.943 48.9175C26.9741 52.0496 23.1206 56.6971 20.3826 62.8602C17.7461 69.0233 16.4278 76.4494 16.4278 85.1383C16.4278 98.0707 19.3686 108.174 25.2501 115.449C31.2331 122.723 39.5484 126.36 50.1961 126.36Z" fill="#333333"/>
<path d="M128.288 139.697C127.274 139.697 126.31 139.545 125.397 139.242C124.586 138.939 123.876 138.434 123.268 137.727C122.761 137.019 122.355 136.211 122.051 135.302C121.747 134.292 121.595 133.13 121.595 131.816V38.1573C121.595 35.8335 122.254 34.0149 123.572 32.7015C124.89 31.388 126.716 30.7313 129.048 30.7313C131.38 30.7313 133.155 31.388 134.372 32.7015C135.589 34.0149 136.197 35.8335 136.197 38.1573V117.57H132.851L195.064 35.2778C196.382 33.5603 197.599 32.3984 198.714 31.7922C199.931 31.0849 201.452 30.7313 203.277 30.7313C204.596 30.7313 205.711 31.0344 206.624 31.6406C207.537 32.1458 208.246 32.9541 208.753 34.0654C209.362 35.1768 209.666 36.4903 209.666 38.0058V132.119C209.666 134.544 209.058 136.413 207.841 137.727C206.624 139.04 204.799 139.697 202.365 139.697C200.032 139.697 198.207 139.04 196.889 137.727C195.672 136.413 195.064 134.544 195.064 132.119V52.8578H198.41L136.197 134.999C134.879 136.716 133.713 137.929 132.699 138.636C131.685 139.343 130.214 139.697 128.288 139.697ZM165.554 23.4568C159.064 23.4568 153.386 22.0423 148.518 19.2134C143.651 16.3844 140 12.2925 137.566 6.9377C136.856 5.22011 136.755 3.80563 137.262 2.69426C137.769 1.58287 138.682 0.774597 140 0.269426C141.42 -0.134713 142.586 -0.0841955 143.499 0.420976C144.513 0.926147 145.425 1.93649 146.236 3.45201C148.163 6.98821 150.698 9.71614 153.842 11.6358C157.087 13.4544 161.042 14.3637 165.706 14.3637C170.473 14.3637 174.427 13.4544 177.571 11.6358C180.715 9.71614 183.25 6.98821 185.176 3.45201C185.988 1.93649 186.9 0.926147 187.914 0.420976C188.928 -0.0841955 190.095 -0.134713 191.413 0.269426C192.731 0.774597 193.593 1.58287 193.999 2.69426C194.506 3.7046 194.354 5.06856 193.542 6.78614C190.906 12.242 187.154 16.3844 182.286 19.2134C177.52 22.0423 171.943 23.4568 165.554 23.4568Z" fill="#333333"/>
<path d="M240.417 109.841C238.795 109.841 237.527 109.336 236.614 108.326C235.803 107.315 235.296 105.901 235.093 104.082L231.443 40.7337C231.24 37.7027 231.899 35.2778 233.42 33.4592C234.941 31.6406 237.274 30.7313 240.417 30.7313C243.358 30.7313 245.589 31.6406 247.11 33.4592C248.631 35.2778 249.239 37.7027 248.935 40.7337L245.285 104.082C245.183 105.901 244.676 107.315 243.764 108.326C242.952 109.336 241.837 109.841 240.417 109.841ZM240.417 139.242C237.476 139.242 235.093 138.333 233.268 136.514C231.443 134.696 230.53 132.372 230.53 129.543C230.53 126.714 231.443 124.441 233.268 122.723C235.093 120.904 237.476 119.995 240.417 119.995C243.358 119.995 245.69 120.904 247.414 122.723C249.138 124.441 250 126.714 250 129.543C250 132.372 249.138 134.696 247.414 136.514C245.69 138.333 243.358 139.242 240.417 139.242Z" fill="#333333"/>
</svg>
