<svg width="251" height="228" viewBox="0 0 251 228" fill="none" xmlns="http://www.w3.org/2000/svg">
<g clip-path="url(#clip0_1067_6163)">
<path d="M70.4015 127.284C86.9514 141.135 82.4378 181 82.4378 181H31.8716C28.8159 175.49 27.8473 163.96 30.7062 154.159C37.3897 131.245 48.4935 122.793 52.686 120C52.686 120 64.4693 122.32 70.4015 127.284Z" fill="#B2A4FD"/>
<path d="M30.954 164.214C30.4581 170.487 30.9748 176.198 31.8613 181H6.87753C6.40693 181 5.66759 180.939 4.82304 180.549C2.68046 179.554 1.04641 177.022 0.373951 174.276C0.373951 174.276 0 172.708 0 171.005C0 145.665 12.7209 124.638 29.399 120.677C31.2602 120.232 33.1716 120 35.1168 120H58C43.053 127.822 32.4873 144.804 30.954 164.214Z" fill="#A392FD"/>
<path d="M55.4844 164.511C54.5389 160.473 50.9547 157.57 46.8039 157.566C38.1338 157.388 28.4517 153.051 22.083 146.797C19.2183 143.985 14.8613 143.359 11.3501 145.306C6.08211 148.226 5.08432 155.404 9.38461 159.621C19.2008 169.248 33.8392 175.492 46.7109 175.544C52.5131 175.563 56.8039 170.157 55.4844 164.511Z" fill="#FFD4BD"/>
<path d="M164.803 19.6857C164.811 34.2315 147.096 51.7648 132.31 59.6773C128.964 58.1108 115.945 51.5422 109.134 35.993C101.635 18.8728 107.159 3.41861 108.332 0.340459C109.422 0.151553 110.543 0.0540526 111.686 0.0508026C118.715 0.0414588 124.888 3.71315 128.386 9.24627C131.869 3.7034 138.029 0.0126151 145.057 2.13247e-05C155.947 -0.0158224 164.787 8.79899 164.803 19.6857Z" fill="#FD7A6E"/>
<path d="M132.309 59.6767C129.784 60.9268 126.817 60.8829 124.32 59.5382C109.617 51.6179 92.022 34.2471 92 19.7956C91.9874 10.0488 99.0416 1.94616 108.332 0.339844C104.783 12.165 105.233 24.727 110.098 35.8376C115.424 47.9966 124.704 55.3875 132.309 59.6767Z" fill="#F85647"/>
<path d="M43.4989 66.3624C40.7246 64.2816 36.9339 64.2816 34.1596 66.3624C29.0725 70.1779 21.5354 74.2851 13.5489 77.3543C13.2544 82.716 13.6976 87.1226 13.8402 88.5493C15.5395 105.507 29.3837 121.796 42.1944 127.496C62.0653 125.793 77.6592 109.123 77.6592 88.813C77.6592 86.1918 77.3923 83.6357 76.8954 81.1621C64.9062 77.8609 51.2838 72.2014 43.4989 66.3624Z" fill="#FED2A4"/>
<path d="M16.5648 87.4062C16.135 83.4234 16.1943 79.6497 16.5913 76.1255C11.429 78.3075 5.96172 80.1141 0.758469 81.163C0.26325 83.6346 0 86.192 0 88.8127C0 110.257 17.3851 127.642 38.8298 127.642C39.8803 127.642 40.9183 127.601 41.9437 127.517C42.0274 127.508 42.1111 127.504 42.1948 127.496C34.2176 122.13 18.9126 109.161 16.5648 87.4062Z" fill="#FFBD86"/>
<path d="M38.8294 50C20.0091 50 4.3177 63.39 0.758545 81.163C12.6251 79.7497 26.3738 74.9035 34.1596 69.0641C36.9339 66.9833 40.7246 66.9833 43.4989 69.0641C51.2847 74.9039 65.0338 79.7501 76.8999 81.163C73.3408 63.3904 57.6498 50 38.8294 50Z" fill="#FDC072"/>
<path d="M251.107 169.215C251.107 171.955 250.343 174.426 249.104 176.216C247.861 178.011 246.147 179.121 244.257 179.121H213.969C211.216 175.062 210.79 168.704 211.286 162.489C212.521 146.961 219.487 129.67 231.927 124.121C243.311 132.46 251.107 149.526 251.107 169.215Z" fill="#B2A4FD"/>
<path d="M213.147 162.531C212.648 168.73 213.167 174.373 214.053 179.121H181.042C181.042 179.121 165.295 171.348 161.107 158C155.414 139.855 173.14 124.134 181.042 118.831C193.483 110.483 216.218 118.831 216.218 118.831C221.937 118.831 227.336 120.786 232.107 124.258C221.524 133.115 214.388 147.041 213.147 162.531Z" fill="#A392FD"/>
<path d="M211.908 70.369C209.304 71.1523 206.537 71.0633 203.949 70.2269C198.568 68.4869 190.157 69.3932 182.93 72.8862C179.138 95.8889 194.619 119.972 211.302 126.496C230.501 124.85 245.704 109.232 246.71 89.8581C244.32 74.2707 223.158 66.9846 211.908 70.369Z" fill="#FED2A4"/>
<path d="M185.672 86.4079C185.098 81.093 185.487 75.9291 186.294 71.4551C178.061 74.4792 170.452 80.5571 169.156 89.7765C170.178 110.309 187.15 126.644 207.937 126.644C209.074 126.644 210.189 126.595 211.301 126.497C203.325 121.132 188.019 108.162 185.672 86.4079Z" fill="#FFBD86"/>
<path d="M207.937 49C186.492 49 169.107 66.3847 169.107 87.8294C169.107 88.483 169.124 89.1306 169.156 89.7761C173.76 73.3161 193.459 68.6828 203.949 72.0746C206.537 72.9111 209.304 73 211.908 72.2168C223.161 68.8315 241.836 74.2497 246.71 89.8578C246.745 89.1814 246.766 88.5143 246.766 87.8294C246.766 66.3847 229.382 49 207.937 49Z" fill="#919191"/>
<path d="M185.07 87.314C183.348 87.314 181.932 88.731 181.932 90.4527V94.8511C181.932 96.5728 183.349 97.9898 185.07 97.9898C186.792 97.9898 188.209 96.5728 188.209 94.8511V90.4527C188.209 88.731 186.792 87.314 185.07 87.314Z" fill="#454545"/>
<path d="M230.853 97.9903C232.575 97.9903 233.991 96.5733 233.991 94.8516V90.4531C233.991 88.7315 232.574 87.3145 230.853 87.3145C229.131 87.3145 227.714 88.7315 227.714 90.4531V94.8516C227.714 96.5733 229.131 97.9903 230.853 97.9903Z" fill="#454545"/>
<path d="M216.059 92.3541C214.752 91.2154 212.769 91.3511 211.631 92.658C210.704 93.7211 209.367 94.3309 207.962 94.3309C206.557 94.3309 205.22 93.7211 204.293 92.6584C203.155 91.3515 201.172 91.215 199.865 92.3541C198.558 93.4928 198.422 95.4757 199.56 96.7822C201.679 99.214 204.741 100.609 207.962 100.609C211.182 100.609 214.244 99.214 216.363 96.7826C217.502 95.4761 217.366 93.4932 216.059 92.3541Z" fill="#454545"/>
<path d="M197.609 168.053C197.405 163.91 200.05 160.132 204.039 158.984C212.325 156.424 220.436 149.585 224.834 141.819C226.813 138.325 230.829 136.523 234.74 137.427C240.609 138.781 243.547 145.406 240.576 150.646C233.793 162.605 221.443 172.642 209.084 176.24C203.512 177.857 197.897 173.843 197.609 168.053Z" fill="#FFD4BD"/>
<path d="M61.7708 88.314C60.0487 88.314 58.6321 89.731 58.6321 91.4527V95.8511C58.6321 97.5728 60.0491 98.9898 61.7708 98.9898C63.4925 98.9898 64.9095 97.5728 64.9095 95.8511V91.4527C64.9099 89.731 63.4929 88.314 61.7708 88.314Z" fill="#454545"/>
<path d="M15.9883 88.314C14.2662 88.314 12.8496 89.731 12.8496 91.4527V95.8511C12.8496 97.5728 14.2666 98.9898 15.9883 98.9898C17.71 98.9898 19.127 97.5728 19.127 95.8511V91.4527C19.1274 89.731 17.7104 88.314 15.9883 88.314Z" fill="#454545"/>
<path d="M46.9767 93.3539C45.6694 92.2148 43.6865 92.3504 42.5482 93.6582C41.6219 94.7209 40.2849 95.3307 38.8793 95.3307C37.4741 95.3307 36.1367 94.7209 35.2105 93.6578C34.0713 92.3513 32.0888 92.2152 30.7819 93.3539C29.475 94.493 29.3389 96.4755 30.4781 97.7824C32.5971 100.214 35.6594 101.608 38.8797 101.608C42.1005 101.608 45.1624 100.214 47.2814 97.782C48.4197 96.4759 48.2836 94.4926 46.9767 93.3539Z" fill="#454545"/>
<path d="M63.3972 166.147C67.4046 176.355 70.1232 186.918 68.9513 196.653C68.5239 200.204 70.9133 203.5 74.4173 204.23C88.6711 207.196 107.046 206.625 115.841 204.869C117.186 201.745 101.326 168.963 90.882 155.884C89.0753 153.621 62.403 163.614 63.3972 166.147Z" fill="#516980"/>
<path d="M141.661 170.805C150.656 180.219 141.661 213.303 141.661 213.303L137.476 228.199H109.764C107.577 223.77 104.769 216.477 104.671 207.251C104.461 187.302 117.089 173.89 120.154 170.805C120.154 170.805 136.331 165.227 141.661 170.805Z" fill="#FFB3C2"/>
<path d="M109.764 228.199H93.5624C90.3125 228.199 87.678 225.567 87.678 222.32V203.252C87.678 194.928 90.8161 187.333 95.9789 181.591C102.115 182.069 108.254 182.547 114.393 183.025C112.002 188.747 109.185 197.379 108.483 208.17C107.988 215.787 108.668 222.566 109.764 228.199Z" fill="#FF899F"/>
<path d="M166.647 228.199H171.522C174.772 228.199 177.406 225.566 177.406 222.32V203.464C177.406 192.27 169.505 182.922 158.97 180.682C157.608 182.892 150.72 194.572 154.448 209.146C157.169 219.779 164.027 226.034 166.647 228.199Z" fill="#C6C6C6"/>
<path d="M166.647 214.065V228.198H155.645C154.234 225.382 151.752 219.425 152.335 211.741C152.664 207.407 153.863 203.921 154.918 201.547C161.468 201.972 166.647 207.412 166.647 214.065Z" fill="#B7B7B7"/>
<path d="M158.97 180.682C158.103 183.657 157.284 186.911 156.583 190.424C155.79 194.395 155.262 198.124 154.918 201.547C152.447 203.715 148.686 207.559 145.728 213.367C142.662 219.387 141.801 224.881 141.535 228.199H137.476C133.776 228.199 130.776 225.199 130.776 221.499V203.464C130.776 193.55 136.976 185.083 145.713 181.722C150.132 181.375 154.551 181.029 158.97 180.682Z" fill="#B7B7B7"/>
<path d="M155.645 228.199H141.535V214.066C141.535 207.136 147.157 201.52 154.093 201.52C154.37 201.52 154.646 201.528 154.918 201.547C154.63 204.49 154.448 207.617 154.417 210.911C154.356 217.31 154.87 223.119 155.645 228.199Z" fill="#A8A8A8"/>
<path d="M70.933 173.883C77.2245 173.883 82.3248 168.787 82.3248 162.501C82.3248 156.215 77.2245 151.12 70.933 151.12C64.6415 151.12 59.5413 156.215 59.5413 162.501C59.5413 168.787 64.6415 173.883 70.933 173.883Z" fill="#FFD4BD"/>
<path d="M141.286 148.127C141.286 164.87 129.873 178.953 114.393 183.025C111.179 177.355 107.436 169.098 105.636 158.625C101.957 137.22 108.701 119.978 112.077 112.705C129.352 118.804 141.286 133.093 141.286 148.127Z" fill="#FFD4BD"/>
<path d="M114.393 183.025C111.451 183.799 108.36 184.212 105.172 184.212C85.2254 184.212 69.0544 168.056 69.0544 148.127C69.0544 124.62 95.8342 107.67 105.172 112.045C108.779 113.735 110.166 118.786 110.67 123.84C108.937 129.625 107.333 137.175 107.096 146.067C106.659 162.449 111.076 175.424 114.393 183.025Z" fill="#FFBF9D"/>
<path d="M149.763 138.887C130.776 139.007 110.67 123.84 110.67 123.84C110.659 123.884 110.648 123.932 110.637 123.976C109.942 122.218 108.574 118.059 109.462 112.806C110.297 107.865 112.693 104.527 113.889 103.062C130.211 106.898 147.285 120.783 149.763 138.887Z" fill="#5B778F"/>
<path d="M184.105 202.574L182.257 203.529C177.842 205.812 172.41 204.086 170.126 199.674C167.841 195.262 169.568 189.836 173.984 187.553L175.832 186.598C180.248 184.315 185.679 186.041 187.964 190.453C190.249 194.864 188.521 200.291 184.105 202.574Z" fill="#FFD4BD"/>
<path d="M141.068 130.904C141.068 130.904 130.647 140.564 136.831 155.222C139.161 160.746 163.779 150.38 161.449 144.856C155.265 130.198 141.068 130.904 141.068 130.904Z" fill="#A8A8A8"/>
<path d="M197.753 149.103C197.753 149.103 200.591 163.019 187.018 171.335C181.904 174.468 167.938 151.715 173.053 148.582C186.626 140.266 197.753 149.103 197.753 149.103Z" fill="#B7B7B7"/>
<path d="M113.889 103.062C112.65 108.759 111.423 115.809 110.637 123.977C105.043 147.06 72.2064 159.176 60.2165 158.634C59.4336 155.264 59 151.737 59 148.127C59 122.652 79.6708 102 105.172 102C107.991 102 110.928 102.366 113.889 103.062Z" fill="#516980"/>
<path d="M150.891 202.419C148.869 198.798 144.623 196.996 140.632 198.136C132.249 200.355 121.746 198.854 113.901 194.598C110.372 192.684 106.011 193.284 103.172 196.123C98.9134 200.382 99.9328 207.557 105.229 210.426C117.318 216.974 133.111 218.941 145.498 215.443C151.081 213.862 153.715 207.482 150.891 202.419Z" fill="#FFD4BD"/>
<path d="M187.97 175.106C184.833 186.449 171.081 192.6 156.789 189.418C155.757 185.354 154.076 176.301 157.16 165.519C159.903 155.926 165.115 149.611 167.97 146.596C182.251 151.022 191.158 163.588 187.97 175.106Z" fill="#C6C6C6"/>
<path d="M167.97 146.596C165.683 151.058 163.462 156.206 161.602 162.02C158.154 172.8 157.043 182.357 156.789 189.418C154.332 188.989 152.13 188.132 149.942 187.185C138.076 181.832 131.115 170.593 133.987 160.204C137.254 148.398 151.984 142.162 166.891 146.277C167.176 146.356 167.462 146.439 167.741 146.526C167.817 146.549 167.895 146.574 167.97 146.596Z" fill="#B7B7B7"/>
<path d="M96.7182 156.959C95.3561 156.337 93.8326 156.282 92.4295 156.804C91.0262 157.327 89.9102 158.364 89.2876 159.725C88.6649 161.086 88.61 162.608 89.1332 164.01C89.4476 164.853 90.2482 165.374 91.099 165.374C91.3422 165.374 91.5898 165.332 91.8312 165.242C92.9166 164.838 93.4688 163.631 93.0643 162.546C92.7922 161.817 93.165 161.003 93.8945 160.732C94.2479 160.6 94.6315 160.614 94.9744 160.771C95.3176 160.927 95.5788 161.208 95.7104 161.561C96.1149 162.646 97.323 163.197 98.4084 162.793C99.4941 162.389 100.046 161.182 99.6418 160.098C99.1186 158.696 98.0802 157.581 96.7182 156.959Z" fill="#454545"/>
<path d="M121.827 145.86C120.423 146.383 119.307 147.42 118.685 148.781C118.062 150.142 118.007 151.663 118.53 153.066C118.845 153.909 119.645 154.43 120.496 154.43C120.739 154.43 120.987 154.388 121.228 154.298C122.314 153.893 122.866 152.687 122.461 151.602C122.19 150.873 122.562 150.059 123.292 149.788C124.021 149.515 124.836 149.888 125.108 150.617C125.512 151.701 126.721 152.253 127.806 151.849C128.892 151.445 129.444 150.238 129.039 149.153C127.959 146.259 124.723 144.782 121.827 145.86Z" fill="#454545"/>
<path d="M114.745 157.162C113.662 156.755 112.452 157.302 112.043 158.385C111.753 159.154 111.146 159.76 110.378 160.046C109.61 160.332 108.754 160.271 108.03 159.879C107.012 159.327 105.739 159.704 105.186 160.721C104.634 161.738 105.011 163.011 106.029 163.563C107.073 164.129 108.229 164.416 109.389 164.416C110.218 164.416 111.049 164.269 111.843 163.974C113.748 163.264 115.252 161.766 115.97 159.862C116.378 158.778 115.83 157.57 114.745 157.162Z" fill="#454545"/>
<path d="M151.517 166.484C150.473 169.371 151.975 172.568 154.864 173.611C155.487 173.835 156.124 173.942 156.751 173.942C157.368 173.942 157.973 173.835 158.547 173.64C159.184 174.681 160.163 175.522 161.398 175.968C162.016 176.192 162.656 176.303 163.295 176.303C164.102 176.303 164.906 176.125 165.658 175.772C167.005 175.141 168.026 174.023 168.531 172.624C168.924 171.536 168.36 170.334 167.271 169.941C166.181 169.548 164.979 170.112 164.585 171.2C164.46 171.546 164.208 171.822 163.876 171.978C163.543 172.134 163.169 172.151 162.824 172.026C162.478 171.902 162.201 171.65 162.045 171.317C161.889 170.985 161.872 170.612 161.997 170.266C162.39 169.178 161.826 167.976 160.737 167.583C159.646 167.19 158.445 167.754 158.051 168.842C157.793 169.555 157.003 169.925 156.29 169.669C155.576 169.411 155.205 168.621 155.463 167.908C155.856 166.82 155.292 165.619 154.203 165.225C153.113 164.831 151.911 165.395 151.517 166.484Z" fill="#454545"/>
<path d="M143.26 162.716C144.35 163.11 145.552 162.546 145.946 161.457C146.173 160.83 146.867 160.505 147.495 160.731C148.123 160.957 148.449 161.651 148.222 162.279C147.829 163.367 148.393 164.568 149.482 164.962C149.718 165.047 149.958 165.087 150.195 165.087C151.053 165.087 151.859 164.556 152.168 163.703C153.18 160.902 151.723 157.8 148.92 156.789C146.117 155.777 143.013 157.233 142 160.033C141.606 161.122 142.171 162.323 143.26 162.716Z" fill="#454545"/>
<path d="M171.07 172.752C172.159 173.146 173.362 172.582 173.755 171.493C173.982 170.866 174.676 170.54 175.304 170.767C175.932 170.993 176.258 171.687 176.031 172.315C175.638 173.403 176.202 174.605 177.292 174.998C177.527 175.083 177.768 175.123 178.004 175.123C178.863 175.123 179.668 174.592 179.977 173.739C180.989 170.938 179.533 167.836 176.729 166.825C173.926 165.814 170.822 167.269 169.809 170.069C169.416 171.158 169.98 172.359 171.07 172.752Z" fill="#454545"/>
</g>
<defs>
<clipPath id="clip0_1067_6163">
<rect width="251" height="228" fill="white"/>
</clipPath>
</defs>
</svg>
