<svg width="24" height="24" viewBox="0 0 24 24" fill="none" xmlns="http://www.w3.org/2000/svg">
    <path
      fill-rule="evenodd"
      clip-rule="evenodd"
      d="M5.14871 5.00415H18.8284C19.5589 4.98442 20.2742 5.21998 20.8667 5.67298C20.9193 5.7132 20.9159 5.79248 20.8615 5.8302L20.1903 6.29541L12.0198 11.9158C11.9855 11.9394 11.9402 11.9392 11.9061 11.9155L9.82909 10.4722C9.82396 10.4686 9.8192 10.4645 9.81473 10.4602C9.77507 10.4215 9.72895 10.3911 9.67882 10.3706C9.67115 10.3675 9.66374 10.3637 9.65693 10.359L3.78246 6.29083L3.11312 5.82826C3.05945 5.79116 3.05511 5.71337 3.106 5.67254C3.69199 5.20248 4.41441 4.96511 5.14871 5.00415ZM2.55943 6.52434L3.19103 6.96385L8.75565 10.8324C8.80508 10.8668 8.81317 10.9367 8.77289 10.9814L3.24243 17.1245L2.72019 17.7025C2.67656 17.7508 2.5991 17.7452 2.5648 17.6899C2.18741 17.0812 1.99012 16.3639 2.00038 15.6318L2.00466 8.35585C1.99896 7.72926 2.14052 7.11184 2.41563 6.55997C2.44232 6.50643 2.51033 6.49017 2.55943 6.52434ZM20.1394 17.7427L14.4806 11.4707C14.4469 11.4334 14.3908 11.4268 14.3494 11.4554L12.2374 12.9165L12.1858 12.9424C12.1719 12.9494 12.1565 12.9531 12.1409 12.9531H12.1303C12.0993 12.9573 12.0679 12.9578 12.0367 12.9547C12.0278 12.9538 12.0188 12.9538 12.0098 12.9547C11.9787 12.9578 11.9473 12.9573 11.9162 12.9531H11.8992C11.8878 12.9531 11.8764 12.9511 11.8656 12.9473L11.7916 12.9209C11.7833 12.918 11.7755 12.9139 11.7682 12.9089L9.68413 11.4646C9.64285 11.436 9.58676 11.4424 9.55305 11.4796L3.8643 17.761L3.32416 18.3585C3.2836 18.4034 3.2918 18.4738 3.34281 18.5063C3.88708 18.853 4.5145 19.024 5.14917 18.9973H18.8545C19.4866 19.0016 20.1068 18.8203 20.6481 18.4743C20.699 18.4417 20.7073 18.3713 20.6667 18.3264L20.1394 17.7427ZM21.9973 8.36957V15.6317C22.0244 16.3626 21.8321 17.0824 21.4505 17.6867C21.4159 17.7415 21.3388 17.7465 21.2955 17.6983L20.7681 17.1107L15.2419 10.9633C15.2016 10.9185 15.2098 10.8485 15.2594 10.8142L20.8195 6.96384L21.456 6.5275C21.5049 6.49395 21.5723 6.51012 21.599 6.56313C21.8776 7.11678 22.0153 7.73978 21.9973 8.36957Z"
      fill="#A392FD"
    />
  </svg>

