<svg width="77" height="19" viewBox="0 0 77 19" fill="none" xmlns="http://www.w3.org/2000/svg">
<path d="M29.3238 8.14287C29.1243 9.6508 27.9274 9.6508 26.8303 9.6508H26.2318L26.7305 6.73546C26.7305 6.5344 26.93 6.43387 27.1295 6.43387H27.4287C28.2267 6.43387 28.9248 6.43387 29.3238 6.83599C29.3238 7.23811 29.3238 7.64022 29.3238 8.14287ZM28.8251 4.1217H24.5362C24.237 4.1217 24.0375 4.32276 23.9378 4.62435L22.2422 15.6825C22.2422 15.8836 22.3419 16.0847 22.6412 16.0847H24.636C24.9352 16.0847 25.1347 15.8836 25.2344 15.582L25.7331 12.5661C25.7331 12.2646 26.0324 12.0635 26.3316 12.0635H27.7279C30.5207 12.0635 32.1165 10.6561 32.6152 7.94181C32.8147 6.73546 32.6152 5.8307 32.1165 5.12699C31.3186 4.52382 30.2215 4.1217 28.8251 4.1217Z" fill="#333333"/>
<path d="M38.6995 12.164C38.5 13.3703 37.6023 14.1746 36.4055 14.1746C35.807 14.1746 35.3083 13.9735 35.0091 13.5714C34.7099 13.1693 34.6101 12.6666 34.7098 12.164C34.9093 10.9576 35.807 10.1534 37.0039 10.1534C37.6024 10.1534 38.1011 10.3545 38.4003 10.7566C38.5998 11.0582 38.7992 11.5608 38.6995 12.164ZM41.4923 8.14283H39.4974C39.298 8.14283 39.1982 8.24336 39.0984 8.44442L38.9987 9.04759L38.899 8.84654C38.5 8.24336 37.5026 7.94177 36.5052 7.94177C34.2112 7.94177 32.3161 9.65077 31.9171 12.0635C31.7176 13.2698 32.0168 14.3756 32.715 15.1799C33.3135 15.8836 34.2111 16.1852 35.3083 16.1852C37.1036 16.1852 38.101 14.9788 38.101 14.9788L38.0013 15.582C38.0013 15.783 38.1011 15.9841 38.4003 15.9841H40.1956C40.4948 15.9841 40.6943 15.783 40.7941 15.4815L41.8912 8.44442C41.8912 8.34389 41.7915 8.14283 41.4923 8.14283Z" fill="#333333"/>
<path d="M52.3642 8.14282H50.2697C50.0702 8.14282 49.8707 8.24335 49.771 8.44441L46.9782 12.6666L45.7813 8.64547C45.6816 8.34388 45.4821 8.24335 45.1829 8.24335H43.188C42.9886 8.24335 42.7891 8.44441 42.8888 8.746L45.1829 15.3809L43.0883 18.3968C42.8888 18.5978 43.0883 19 43.3875 19H45.4821C45.6816 19 45.8811 18.8994 45.9808 18.6984L52.7632 8.746C52.8629 8.44441 52.6634 8.14282 52.3642 8.14282Z" fill="#333333"/>
<path d="M59.6451 8.14287C59.4456 9.6508 58.2487 9.6508 57.1516 9.6508H56.5531L57.0518 6.73546C57.0518 6.5344 57.2513 6.43387 57.4508 6.43387H57.75C58.5479 6.43387 59.2461 6.43387 59.6451 6.83599C59.7448 7.23811 59.7448 7.64022 59.6451 8.14287ZM59.1464 4.1217H54.8575C54.5583 4.1217 54.3588 4.32276 54.2591 4.62435L52.5635 15.6825C52.5635 15.8836 52.6632 16.0847 52.9625 16.0847H55.1567C55.3562 16.0847 55.5557 15.9841 55.5557 15.6825L56.0544 12.5661C56.0544 12.2646 56.3536 12.0635 56.6529 12.0635H58.0492C60.842 12.0635 62.4379 10.6561 62.9366 7.94181C63.136 6.73546 62.9366 5.8307 62.4379 5.12699C61.7397 4.52382 60.6425 4.1217 59.1464 4.1217Z" fill="#3BBBFC"/>
<path d="M69.1204 12.164C68.9209 13.3703 68.0232 14.1746 66.8264 14.1746C66.2279 14.1746 65.7292 13.9735 65.43 13.5714C65.1308 13.1693 65.031 12.6666 65.1307 12.164C65.3302 10.9576 66.2279 10.1534 67.4248 10.1534C68.0233 10.1534 68.522 10.3545 68.8212 10.7566C69.0207 11.0582 69.2201 11.5608 69.1204 12.164ZM71.9132 8.14283H69.9183C69.7188 8.14283 69.6191 8.24336 69.5193 8.44442L69.4196 9.04759L69.3199 8.84654C68.9209 8.24336 67.9235 7.94177 66.9261 7.94177C64.6321 7.94177 62.737 9.65077 62.338 12.0635C62.1385 13.2698 62.4377 14.3756 63.1359 15.1799C63.7344 15.8836 64.632 16.1852 65.7292 16.1852C67.5245 16.1852 68.5219 14.9788 68.5219 14.9788L68.4222 15.582C68.4222 15.783 68.522 15.9841 68.8212 15.9841H70.6165C70.9157 15.9841 71.1152 15.783 71.215 15.4815L72.3121 8.44442C72.3121 8.34389 72.1126 8.14283 71.9132 8.14283Z" fill="#3BBBFC"/>
<path d="M74.3071 4.42329L72.5117 15.6825C72.5117 15.8836 72.6115 16.0847 72.9107 16.0847H74.706C75.0053 16.0847 75.2047 15.8836 75.3045 15.582L77.0001 4.52382C77.0001 4.32276 76.9003 4.1217 76.6011 4.1217H74.6063C74.5065 4.1217 74.4068 4.32276 74.3071 4.42329Z" fill="#3BBBFC"/>
<path d="M4.48854 18.1957L4.78775 16.0846H4.08957H0.598633L2.99242 0.703677C2.99242 0.703677 2.99242 0.603149 3.09216 0.603149H3.1919H9.07661C10.9717 0.603149 12.3681 1.00527 13.0663 1.8095C13.3655 2.21162 13.565 2.61373 13.6647 3.01585C13.7644 3.51849 13.7644 4.02114 13.6647 4.72484V5.12696L13.9639 5.32802C14.2632 5.42855 14.4626 5.62961 14.6621 5.83066C14.9613 6.13225 15.1608 6.53437 15.1608 7.03701C15.2606 7.53966 15.2606 8.14283 15.0611 8.84654C14.8616 9.65077 14.6621 10.2539 14.3629 10.8571C14.0637 11.3598 13.6647 11.7619 13.2657 12.164C12.8668 12.4656 12.2683 12.6666 11.7696 12.8677C11.1712 12.9682 10.5727 13.0688 9.87455 13.0688H9.37584C9.07662 13.0688 8.7774 13.1693 8.47818 13.3703C8.2787 13.5714 8.07921 13.873 7.97947 14.1746V14.3756L7.38102 18.0952V18.1957V18.2963C7.38102 18.2963 7.38101 18.2963 7.28127 18.2963H4.48854V18.1957Z" fill="#333333"/>
<path d="M14.3624 4.72485C14.3624 4.82538 14.3624 4.92591 14.2627 5.02644C13.4648 9.04761 10.8715 10.3545 7.48033 10.3545H5.78472C5.38576 10.3545 4.98681 10.6561 4.98681 11.0582L4.08913 16.6878L3.88965 18.2963C3.88965 18.5979 4.08912 18.7989 4.28861 18.7989H7.38058C7.77955 18.7989 8.07877 18.4973 8.07877 18.1958V17.9947L8.67722 14.3756V14.1746C8.77696 13.7725 9.07618 13.5714 9.3754 13.5714H9.87411C12.8663 13.5714 15.1604 12.3651 15.7588 8.84655C16.058 7.33861 15.8586 6.13226 15.1604 5.32803C14.9609 5.12697 14.6617 4.92591 14.3624 4.72485Z" fill="#3BBBFC"/>
<path d="M13.564 4.42329C13.4643 4.42329 13.3646 4.32276 13.1651 4.32276C13.0653 4.32276 12.8659 4.22223 12.7661 4.22223C12.2674 4.1217 11.7687 4.1217 11.27 4.1217H6.68192C6.58218 4.1217 6.48244 4.1217 6.3827 4.22223C6.18321 4.32276 5.98374 4.52382 5.98374 4.72488L4.98633 10.9577V11.1587C5.08607 10.7566 5.38528 10.455 5.78424 10.455H7.47985C10.871 10.455 13.4643 9.04763 14.2622 5.12699C14.2622 5.02647 14.2622 4.92594 14.362 4.82541C14.1625 4.72488 13.963 4.62435 13.7635 4.52382C13.6638 4.42329 13.564 4.42329 13.564 4.42329Z" fill="#252C5E"/>
<path d="M5.98446 4.72486C5.98446 4.52381 6.18393 4.32275 6.38342 4.22222C6.48316 4.22222 6.5829 4.12169 6.68264 4.12169H11.2707C11.7694 4.12169 12.3679 4.12169 12.7668 4.22222C12.8666 4.22222 13.0661 4.22222 13.1658 4.32275C13.2655 4.32275 13.3653 4.42328 13.5648 4.42328C13.6645 4.42328 13.6645 4.42328 13.7642 4.52381C13.9637 4.62434 14.1632 4.72487 14.3627 4.8254C14.5622 3.31746 14.3627 2.31217 13.5648 1.4074C12.6671 0.402114 11.0712 0 9.07642 0H3.19171C2.79274 0 2.39378 0.301584 2.39378 0.703701L0 16.1852C0 16.4868 0.199482 16.7884 0.498705 16.7884H4.08937L4.98705 10.9577L5.98446 4.72486Z" fill="#333333"/>
</svg>
