
  <svg width="24" height="24" viewBox="0 0 24 24" fill="none" xmlns="http://www.w3.org/2000/svg">
    <path
      fill-rule="evenodd"
      clip-rule="evenodd"
      d="M6.20973 13.9871L1.3709 12.1104C0.879454 11.919 0.875189 11.198 1.36524 11.0016L21.2239 3.04077C21.6449 2.87156 22.0793 3.25486 21.9876 3.71428L18.4239 21.5279C18.3399 21.9485 17.8653 22.1393 17.5304 21.8863L12.6655 18.216C12.37 17.9931 11.9673 18.005 11.6846 18.2444L8.98735 20.5294C8.67423 20.7954 8.20251 20.6472 8.08266 20.2463L6.20973 13.9871ZM16.7507 7.02716L7.44536 13.0192C7.08871 13.2494 6.92078 13.6996 7.036 14.1213L8.0421 17.8174C8.11353 18.0793 8.47716 18.0525 8.51179 17.7818L8.77339 15.7549C8.82271 15.3733 8.99686 15.0217 9.26677 14.759L16.9464 7.29548C17.09 7.15619 16.9179 6.91977 16.7507 7.02716Z"
      fill="#A392FD"
    />
    <path
      d="M7.44536 13.0192L16.7507 7.02716C16.9179 6.91977 17.09 7.15619 16.9464 7.29548L9.26677 14.759C8.99686 15.0217 8.82271 15.3733 8.77339 15.7549L8.51179 17.7818C8.47716 18.0525 8.11353 18.0793 8.0421 17.8174L7.036 14.1213C6.92078 13.6996 7.08871 13.2494 7.44536 13.0192Z"
      fill="#EAEAEA"
    />
  </svg>

