<svg width="24" height="24" viewBox="0 0 24 24" fill="none" xmlns="http://www.w3.org/2000/svg">
<path fill-rule="evenodd" clip-rule="evenodd" d="M23 6.01222C22.2646 6.35345 21.4728 6.58418 20.6433 6.68862C21.4904 6.15673 22.1411 5.31638 22.447 4.31452C21.654 4.80634 20.7762 5.16337 19.8408 5.35524C19.0925 4.52097 18.0265 4 16.8463 4C14.5802 4 12.7423 5.92114 12.7423 8.29159C12.7423 8.62919 12.78 8.95585 12.8494 9.27038C9.43958 9.09186 6.41687 7.38203 4.39311 4.7857C4.03895 5.4196 3.83775 6.15673 3.83775 6.94364C3.83775 8.43246 4.56254 9.74641 5.66267 10.5151C4.98965 10.4932 4.35663 10.3002 3.8048 9.97836C3.8048 9.99657 3.8048 10.0148 3.8048 10.033C3.8048 12.112 5.21791 13.8461 7.09578 14.2408C6.75103 14.3392 6.38981 14.3914 6.01447 14.3914C5.75091 14.3914 5.49323 14.3647 5.24262 14.3137C5.76503 16.0186 7.2805 17.2597 9.07601 17.2949C7.67114 18.445 5.90152 19.1311 3.97894 19.1311C3.64831 19.1311 3.32121 19.1117 3 19.0716C4.81551 20.2896 6.97223 21 9.29015 21C16.8369 21 20.9645 14.4606 20.9645 8.78948C20.9645 8.60247 20.9598 8.4191 20.9527 8.23452C21.754 7.62976 22.4505 6.87321 23 6.01343V6.01222Z" fill="white"/>
</svg>
