<svg width="68" height="21" viewBox="0 0 68 21" fill="none" xmlns="http://www.w3.org/2000/svg">
<path d="M63.4271 0.300049H59.1523C57.8599 0.300049 56.8657 0.700049 56.2692 2.00005L48.1172 20.7H53.8833C53.8833 20.7 54.8774 18.2001 55.0763 17.6C55.6727 17.6 61.3394 17.6 62.1347 17.6C62.3336 18.3001 62.8306 20.6 62.8306 20.6H68.0002L63.4271 0.300049ZM56.6669 13.4C57.164 12.2 58.854 7.70005 58.854 7.70005C58.854 7.80005 59.3511 6.50005 59.5499 5.80005L59.9476 7.60005C59.9476 7.60005 61.0412 12.5 61.24 13.5H56.6669V13.4Z" fill="#EBEBEB"/>
<path d="M48.514 14C48.514 18.2 44.7363 21 38.8708 21C36.3854 21 33.9994 20.5 32.707 19.9L33.5024 15.3L34.1983 15.6C35.9877 16.4 37.1807 16.7 39.3678 16.7C40.9585 16.7 42.6486 16.1 42.6486 14.7C42.6486 13.8 41.9526 13.2 39.7655 12.2C37.6778 11.2 34.8942 9.6 34.8942 6.7C34.8942 2.7 38.7714 0 44.2392 0C46.3269 0 48.1164 0.4 49.21 0.9L48.4146 5.3L48.017 4.9C47.0228 4.5 45.7304 4.1 43.8415 4.1C41.7538 4.2 40.7597 5.1 40.7597 5.9C40.7597 6.8 41.9526 7.5 43.8415 8.4C47.0228 9.9 48.514 11.6 48.514 14Z" fill="#EBEBEB"/>
<path d="M0 0.499976L0.0994152 0.0999756H8.64912C9.8421 0.0999756 10.7368 0.499976 11.0351 1.79998L12.924 10.8C11.0351 5.99998 6.66082 2.09998 0 0.499976Z" fill="#F9B50B"/>
<path d="M24.9532 0.299951L16.304 20.6H10.4385L5.46777 3.59995C9.04672 5.89995 12.0292 9.49995 13.1227 12L13.7192 14.1L19.0877 0.199951H24.9532V0.299951Z" fill="#EBEBEB"/>
<path d="M27.2393 0.199951H32.7071L29.2276 20.6H23.7598L27.2393 0.199951Z" fill="#EBEBEB"/>
</svg>
