<svg width="75" height="21" viewBox="0 0 75 21" fill="none" xmlns="http://www.w3.org/2000/svg">
<path d="M69.44 0H64.71C63.28 0 62.18 0.392157 61.52 1.66667L52.5 20H58.88C58.88 20 59.98 17.549 60.2 16.9608C60.86 16.9608 67.13 16.9608 68.01 16.9608C68.23 17.6471 68.78 19.902 68.78 19.902H74.5L69.44 0ZM61.96 12.8431C62.51 11.6667 64.38 7.2549 64.38 7.2549C64.38 7.35294 64.93 6.07843 65.15 5.39216L65.59 7.15686C65.59 7.15686 66.8 11.9608 67.02 12.9412H61.96V12.8431Z" fill="#3362AB"/>
<path d="M53.741 14C53.741 18.2 49.6205 21 43.2229 21C40.512 21 37.9096 20.5 36.5 19.9L37.3675 15.3L38.1265 15.6C40.0783 16.4 41.3795 16.7 43.7651 16.7C45.5 16.7 47.3434 16.1 47.3434 14.7C47.3434 13.8 46.5843 13.2 44.1988 12.2C41.9217 11.2 38.8855 9.6 38.8855 6.7C38.8855 2.7 43.1145 0 49.0783 0C51.3554 0 53.3072 0.4 54.5 0.9L53.6325 5.3L53.1988 4.9C52.1145 4.5 50.7048 4.1 48.6446 4.1C46.3675 4.2 45.2831 5.1 45.2831 5.9C45.2831 6.8 46.5843 7.5 48.6446 8.4C52.1145 9.9 53.741 11.6 53.741 14Z" fill="#3362AB"/>
<path d="M0.5 0.411215L0.607692 0H9.86923C11.1615 0 12.1308 0.411215 12.4538 1.74766L14.5 11C12.4538 6.06542 7.71538 2.05607 0.5 0.411215Z" fill="#F9B50B"/>
<path d="M27.5 0.0980392L18.1786 20H11.8571L6.5 3.33333C10.3571 5.58823 13.5714 9.11765 14.75 11.5686L15.3929 13.6274L21.1786 0H27.5V0.0980392Z" fill="#3362AB"/>
<path d="M30.3889 0H36.5L32.6111 20H26.5L30.3889 0Z" fill="#3362AB"/>
</svg>
