<svg width="42" height="41" viewBox="0 0 42 41" fill="none" xmlns="http://www.w3.org/2000/svg">
<path d="M26.6 19.7077L22.1 14.8551L17.1 19.2126L21.6 24.1643L26.6 19.7077Z" fill="#EBEBEB"/>
<path d="M13.5 10.8937L18 15.7464L23 11.3889L18.5 6.53623L13.5 10.8937Z" fill="#EBEBEB"/>
<path d="M30.1 28.1256L25.6 23.2729L20.6 27.7295L25.1 32.5821L30.1 28.1256Z" fill="#EBEBEB"/>
<path d="M24.9 36.2464L16.7 27.2343L19 25.2536L13.2 18.9155L15.5 16.9348L9.7 10.5966L18.8 2.57488L21.7 5.64493L26.7 1.38647L29.6 4.35749L31.5 2.67391C31.1 2.47585 30.6 2.17874 30.2 1.98068C27.3 0.79227 24.2 0 20.9 0C9.4 0 0 9.21015 0 20.5C0 31.7899 9.4 41 21 41C24.8 41 28.3 40.0097 31.3 38.3261C32.3 37.7319 33.2 37.1377 34.1 36.5435L29.9 31.8889L24.9 36.2464Z" fill="#EBEBEB"/>
<path d="M22.7 8.51691L26 12.1812L29.8 8.91304L26.4 5.24879L22.7 8.51691Z" fill="#EBEBEB"/>
<path d="M33.2 16.2415L29.8 12.5773L26.1 15.9444L29.5 19.5097L33.2 16.2415Z" fill="#EBEBEB"/>
<path d="M36.4 23.9662L33 20.3019L29.3 23.57L32.7 27.3333L36.4 23.9662Z" fill="#EBEBEB"/>
<path d="M36.6 11.8841L34.1 14.0628L36.4 16.5386L38.8 14.3599L36.6 11.8841Z" fill="#EBEBEB"/>
<path d="M37.3 21.2923L39.5 23.7681L42 21.5894L39.7 19.1135L37.3 21.2923Z" fill="#EBEBEB"/>
<path d="M30.9 6.83333L33.2 9.30918L35.6 7.13043L33.4 4.65459L30.9 6.83333Z" fill="#EBEBEB"/>
<path d="M32.6 30.9976L36 34.6618L39.7 31.3937L36.3 27.7295L32.6 30.9976Z" fill="#EBEBEB"/>
</svg>
