<svg width="47" height="41" viewBox="0 0 47 41" fill="none" xmlns="http://www.w3.org/2000/svg">
<path d="M29.6333 19.7077L24.7048 14.8551L19.2286 19.2126L24.1571 24.1643L29.6333 19.7077Z" fill="#137ABE"/>
<path d="M15.2857 10.8937L20.2143 15.7464L25.6905 11.3889L20.7619 6.53623L15.2857 10.8937Z" fill="#137ABE"/>
<path d="M33.4667 28.1256L28.5381 23.2729L23.0619 27.7295L27.9905 32.5821L33.4667 28.1256Z" fill="#137ABE"/>
<path d="M27.7714 36.2464L18.7905 27.2343L21.3095 25.2536L14.9571 18.9155L17.4762 16.9348L11.1238 10.5966L21.0905 2.57488L24.2667 5.64493L29.7429 1.38647L32.919 4.35749L35 2.67391C34.5619 2.47585 34.0143 2.17874 33.5762 1.98068C30.4 0.79227 27.0048 0 23.3905 0C10.7952 0 0.5 9.21015 0.5 20.5C0.5 31.7899 10.7952 41 23.5 41C27.6619 41 31.4952 40.0097 34.781 38.3261C35.8762 37.7319 36.8619 37.1377 37.8476 36.5435L33.2476 31.8889L27.7714 36.2464Z" fill="#137ABE"/>
<path d="M25.3619 8.51691L28.9762 12.1812L33.1381 8.91304L29.4143 5.24879L25.3619 8.51691Z" fill="#137ABE"/>
<path d="M36.8619 16.2415L33.1381 12.5773L29.0857 15.9444L32.8095 19.5097L36.8619 16.2415Z" fill="#137ABE"/>
<path d="M40.3667 23.9662L36.6429 20.3019L32.5905 23.57L36.3143 27.3333L40.3667 23.9662Z" fill="#137ABE"/>
<path d="M40.5857 11.8841L37.8476 14.0628L40.3667 16.5386L42.9952 14.3599L40.5857 11.8841Z" fill="#137ABE"/>
<path d="M41.3524 21.2923L43.7619 23.7681L46.5 21.5894L43.981 19.1135L41.3524 21.2923Z" fill="#137ABE"/>
<path d="M34.3429 6.83333L36.8619 9.30918L39.4905 7.13043L37.081 4.65459L34.3429 6.83333Z" fill="#137ABE"/>
<path d="M36.2048 30.9976L39.9286 34.6618L43.981 31.3937L40.2571 27.7295L36.2048 30.9976Z" fill="#137ABE"/>
</svg>
