<svg width="39" height="37" viewBox="0 0 39 37" fill="none" xmlns="http://www.w3.org/2000/svg">
<path d="M38.4348 15.1584C38.2362 13.956 37.1438 13.1545 35.6542 13.1545C35.1577 13.1545 34.7605 13.1545 34.264 13.1545C33.3702 13.0543 33.1716 13.3549 33.1716 14.0562C33.1716 17.5631 33.1716 20.9697 33.1716 24.4765C33.1716 26.2801 31.3841 28.1838 29.2987 28.5846C22.7445 30.0875 16.1903 31.4902 9.63611 32.9932C8.94097 33.1936 8.14654 33.1936 7.35209 33.1936C7.05417 33.1936 6.55765 32.9932 6.45834 32.6926C6.35904 32.4922 6.65695 32.0914 6.85556 31.891C7.15348 31.6906 7.55071 31.4902 7.94793 31.2898C9.1396 30.8891 10.4306 30.4883 11.6222 30.0875C16.4882 28.4844 21.3542 26.8812 26.2202 25.1779C28.4049 24.4765 29.5966 22.9736 29.5966 21.0699C29.6959 15.0582 29.5966 8.94625 29.5966 2.93452C29.5966 1.93257 29.1 1.13101 28.0077 0.730226C26.7167 0.229249 25.525 0.630024 24.4327 1.131C17.4813 4.43745 10.6292 7.74391 3.67777 11.0504C1.69165 12.0523 0.5 13.455 0.5 15.459C0.5 21.1701 0.5 26.8812 0.5 32.5924C0.5 32.893 0.499976 33.1936 0.599281 33.394C1.29442 35.2977 3.08195 36.5 5.46529 36.5C10.3313 36.5 15.1972 36.5 20.0632 36.5C24.9292 36.5 29.6959 36.5 34.5619 36.5C35.6542 36.5 36.548 36.2996 37.3424 35.5982C38.3355 34.7967 38.3355 33.6945 38.3355 32.6926C38.3355 27.0816 38.3355 21.5709 38.3355 15.9599C38.5341 15.8597 38.5341 15.459 38.4348 15.1584ZM18.1764 13.3549C18.6729 12.0523 19.7653 11.2508 21.3542 11.0504C22.4466 10.9502 23.3403 11.5513 23.5389 12.5533C23.7375 14.0562 21.95 15.8597 20.0632 15.8597C18.5736 15.8597 17.6799 14.7576 18.1764 13.3549Z" fill="#E47418"/>
</svg>
