<svg width="38" height="37" viewBox="0 0 38 37" fill="none" xmlns="http://www.w3.org/2000/svg">
<path d="M37.9348 15.1584C37.7362 13.956 36.6438 13.1545 35.1542 13.1545C34.6577 13.1545 34.2605 13.1545 33.764 13.1545C32.8702 13.0543 32.6716 13.3549 32.6716 14.0562C32.6716 17.5631 32.6716 20.9697 32.6716 24.4765C32.6716 26.2801 30.8841 28.1838 28.7987 28.5846C22.2445 30.0875 15.6903 31.4902 9.13611 32.9932C8.44097 33.1936 7.64654 33.1936 6.85209 33.1936C6.55417 33.1936 6.05765 32.9932 5.95834 32.6926C5.85904 32.4922 6.15695 32.0914 6.35556 31.891C6.65348 31.6906 7.05071 31.4902 7.44793 31.2898C8.6396 30.8891 9.93056 30.4883 11.1222 30.0875C15.9882 28.4844 20.8542 26.8812 25.7202 25.1779C27.9049 24.4765 29.0966 22.9736 29.0966 21.0699C29.1959 15.0582 29.0966 8.94625 29.0966 2.93452C29.0966 1.93257 28.6 1.13101 27.5077 0.730226C26.2167 0.229249 25.025 0.630024 23.9327 1.131C16.9813 4.43745 10.1292 7.74391 3.17777 11.0504C1.19165 12.0523 0 13.455 0 15.459C0 21.1701 0 26.8812 0 32.5924C0 32.893 -2.4246e-05 33.1936 0.0992815 33.394C0.794422 35.2977 2.58195 36.5 4.96529 36.5C9.83127 36.5 14.6972 36.5 19.5632 36.5C24.4292 36.5 29.1959 36.5 34.0619 36.5C35.1542 36.5 36.048 36.2996 36.8424 35.5982C37.8355 34.7967 37.8355 33.6945 37.8355 32.6926C37.8355 27.0816 37.8355 21.5709 37.8355 15.9599C38.0341 15.8597 38.0341 15.459 37.9348 15.1584ZM17.6764 13.3549C18.1729 12.0523 19.2653 11.2508 20.8542 11.0504C21.9466 10.9502 22.8403 11.5513 23.0389 12.5533C23.2375 14.0562 21.45 15.8597 19.5632 15.8597C18.0736 15.8597 17.1799 14.7576 17.6764 13.3549Z" fill="#EBEBEB"/>
</svg>
