<svg width="24" height="24" viewBox="0 0 24 24" fill="none" xmlns="http://www.w3.org/2000/svg">
<path fill-rule="evenodd" clip-rule="evenodd" d="M21.45 6.125C22.0441 6.75016 22.2671 8.13755 22.2819 8.2334C22.2825 8.23716 22.283 8.24033 22.2834 8.24411C22.2967 8.35184 22.5 10.0339 22.5 11.7159V13.3182C22.5 14.9673 22.2966 16.6483 22.2834 16.7559C22.283 16.7597 22.2825 16.7628 22.2819 16.7666C22.2671 16.8624 22.0441 18.2498 21.45 18.875C20.6925 19.6531 19.8367 19.7221 19.4121 19.7563C19.3902 19.758 19.3695 19.7597 19.35 19.7614C16.4285 19.9991 12.0337 20 12.0002 20C11.9992 20 12.0009 20 11.9998 20C11.9662 19.9998 6.52758 19.9654 4.86726 19.7955C4.77876 19.7763 4.66978 19.7619 4.54585 19.7455C4.01067 19.6747 3.19679 19.5671 2.55 18.875C1.95501 18.2489 1.73216 16.8581 1.71799 16.7662C1.71747 16.7628 1.71705 16.7598 1.71663 16.7564C1.7038 16.6541 1.5 15.0021 1.5 13.3182V11.7159C1.5 9.98119 1.71628 8.24645 1.71726 8.23866C1.71729 8.23842 1.71723 8.23885 1.71726 8.23861C1.71823 8.23079 1.90001 6.77102 2.55 6.125C3.30753 5.34693 4.16328 5.27796 4.58787 5.24374C4.60975 5.24197 4.63048 5.2403 4.65 5.23863C7.55502 5.03604 11.9166 5.00067 11.9988 5.00002C12.0014 4.99999 11.9986 4.99999 12.0012 5.00002C12.0834 5.00067 16.445 5.03604 19.35 5.23863C19.3802 5.24122 19.4134 5.24361 19.4492 5.2462C19.8851 5.27764 20.7139 5.33744 21.45 6.125ZM11.2825 15.465C10.9506 15.692 10.5002 15.4543 10.5002 15.0523V9.97304C10.5002 9.56608 10.9605 9.32958 11.2913 9.56653L14.9194 12.1647C15.2016 12.3668 15.1971 12.788 14.9105 12.9839L11.2825 15.465Z" fill="white"/>
</svg>
