<svg width="200" height="200" viewBox="0 0 200 200" fill="none" xmlns="http://www.w3.org/2000/svg">
<g clip-path="url(#clip0_740_4071)">
<path d="M142.424 24.1477V42.4234H124.245V24.1961C124.245 17.5273 118.84 12.1223 112.171 12.1223H87.8298C81.161 12.1223 75.756 17.5273 75.756 24.1961V42.4238H57.5767V24.1477C57.5763 10.8102 68.3868 0 81.7243 0H118.276C131.613 0 142.424 10.8102 142.424 24.1477Z" fill="#8991A6"/>
<path d="M96.0316 12.1223H87.8293C81.1605 12.1223 75.7555 17.5273 75.7555 24.1961V42.4238H57.5762V24.1477C57.5762 10.8102 68.3867 0 81.7242 0H95.6375C94.2246 2.21758 92.6992 6.45937 96.0316 12.1223Z" fill="#6B7790"/>
<path d="M196.97 121.214H3.03052L12.3555 51.2578C13.9575 39.2644 24.1918 30.3015 36.2942 30.3015H57.5762L66.6762 33.8152L75.7555 30.3015H163.706C175.808 30.3015 186.043 39.2644 187.645 51.2578L196.97 121.214Z" fill="#EBEBF9"/>
<path d="M59.6129 121.214H3.03052L12.3555 51.2578C13.9575 39.2644 24.1918 30.3015 36.2942 30.3015H81.7887C73.5059 41.2484 53.9825 72.8093 59.6129 121.214Z" fill="#DEDDF5"/>
<path d="M196.97 136.363L188.586 180.372C186.417 191.762 176.46 200 164.865 200H35.1352C23.5403 200 13.5833 191.762 11.4141 180.372L3.03052 136.363H196.97Z" fill="#B2A4FD"/>
<path d="M87.8696 200H35.1352C23.5403 200 13.5833 191.762 11.4141 180.372L3.03052 136.363H62.12C66.193 155.407 74.17 176.681 87.8696 200Z" fill="#9383ED"/>
<path d="M200 121.189V127.295C200 130.631 197.296 133.332 193.963 133.332L99.9961 141.381L62.5188 138.17L6.03711 133.332C2.70469 133.332 0 130.632 0 127.295V121.189C0 117.853 2.7043 115.152 6.03711 115.152H193.963C197.295 115.153 200 117.853 200 121.189Z" fill="#DEDDF5"/>
<path d="M62.5188 138.17L6.03711 133.332C2.70469 133.332 0 130.632 0 127.295V121.189C0 117.853 2.7043 115.152 6.03711 115.152H59.0254C59.5805 122.421 60.6953 130.096 62.5188 138.17Z" fill="#C7C4EA"/>
<path d="M200 139.369V145.479C200 148.811 197.296 151.516 193.963 151.516H6.03711C2.70469 151.515 0 148.811 0 145.479V139.369C0 136.037 2.7043 133.332 6.03711 133.332L23.3711 135.855L39.3934 133.332H193.963C197.295 133.332 200 136.037 200 139.369Z" fill="#A392FD"/>
<path d="M66.0766 151.515H6.03711C2.70469 151.515 0 148.811 0 145.479V139.369C0 136.037 2.7043 133.332 6.03711 133.332H61.5004C62.6395 139.176 64.1445 145.241 66.0766 151.515Z" fill="#846DFC"/>
<path d="M160.607 102.958V163.706C160.607 173.711 152.497 181.817 142.496 181.817H78.114L47.1042 174.387V95.8827L59.9628 84.8472H142.496C152.497 84.8472 160.607 92.9569 160.607 102.958Z" fill="#8991A6"/>
<path d="M78.1142 181.817H57.504C47.5028 181.817 39.3931 173.711 39.3931 163.706V102.958C39.3931 92.9569 47.5028 84.8472 57.504 84.8472H59.963C56.3731 109.985 59.1099 142.649 78.1142 181.817Z" fill="#6B7790"/>
<path d="M148.485 103.006V163.661C148.485 166.994 145.78 169.699 142.448 169.699H57.5522C54.2198 169.699 51.5151 166.994 51.5151 163.661V103.006C51.5151 99.6739 54.2194 96.9692 57.5522 96.9692H142.448C145.78 96.9696 148.485 99.6739 148.485 103.006Z" fill="#6B7790"/>
<path d="M72.6526 169.699H57.5522C54.2198 169.699 51.5151 166.994 51.5151 163.661V103.006C51.5151 99.6739 54.2194 96.9692 57.5522 96.9692H58.7878C57.7452 117.302 61.0175 141.683 72.6526 169.699Z" fill="#525E77"/>
<path d="M150.497 127.271V139.393H124.245V171.711H112.122V139.393H87.8778V171.308H75.7555V139.393H50.3079V127.271H75.7555V95.3599H87.8778V127.271H112.122V95.3599H124.245V127.271H150.497Z" fill="#8991A6"/>
<path d="M62.7964 139.393H50.3081V127.271H60.4382C61.0495 131.207 61.8304 135.248 62.7964 139.393Z" fill="#6B7790"/>
<path d="M78.9708 61.5842C78.9735 66.9924 73.4704 71.3791 66.679 71.3826C59.888 71.3861 54.3802 67.0049 54.3774 61.5967C54.3747 56.1885 59.8778 51.8014 66.6692 51.7979C73.4606 51.7943 78.9681 56.176 78.9708 61.5842Z" fill="#FFA1AC"/>
<path d="M121.029 61.5632C121.032 66.9714 126.539 71.3527 133.331 71.3492C140.122 71.3457 145.625 66.9589 145.623 61.5507C145.62 56.1425 140.113 51.7609 133.321 51.7644C126.53 51.7679 121.027 56.155 121.029 61.5632Z" fill="#FFA1AC"/>
<path d="M112.051 57.1405C112.047 49.6913 106.651 48.9941 99.9939 48.9976C93.3369 49.0011 87.9408 49.7034 87.9443 57.1527C87.9482 64.6019 93.3478 70.6378 100.004 70.6343C106.662 70.6312 112.055 64.5898 112.051 57.1405Z" fill="#495560"/>
<path d="M67.9825 53.9528C66.3161 53.9532 64.9649 52.6024 64.9641 50.9356C64.9629 48.5661 65.8844 46.3379 67.5594 44.6614C69.234 42.9848 71.4614 42.061 73.8309 42.0598H73.836C76.2036 42.0598 78.4297 42.9813 80.1051 44.6551C81.7813 46.3297 82.7055 48.5571 82.7067 50.927C82.7075 52.5942 81.3567 53.9461 79.6899 53.9469C79.6895 53.9469 79.6887 53.9469 79.6883 53.9469C78.0219 53.9469 76.6708 52.5965 76.67 50.9297C76.6696 50.1727 76.3743 49.461 75.8387 48.9262C75.3036 48.3915 74.5922 48.0973 73.836 48.0973C73.8356 48.0973 73.8352 48.0973 73.8344 48.0973C73.077 48.0977 72.3657 48.393 71.8309 48.9286C71.2958 49.4641 71.0012 50.1762 71.0016 50.9333C71.0024 52.6004 69.6516 53.9524 67.9848 53.9532C67.9836 53.9528 67.9829 53.9528 67.9825 53.9528Z" fill="#495560"/>
<path d="M120.301 53.9262C118.635 53.9262 117.284 52.5758 117.283 50.909C117.282 48.5395 118.203 46.3113 119.878 44.6348C121.553 42.9582 123.78 42.0344 126.15 42.0332H126.155C128.522 42.0332 130.749 42.9547 132.424 44.6285C134.1 46.3031 135.024 48.5305 135.026 50.9004C135.026 52.5676 133.676 53.9195 132.009 53.9203C132.008 53.9203 132.008 53.9203 132.007 53.9203C130.341 53.9207 128.99 52.5699 128.989 50.9031C128.988 50.1461 128.693 49.4344 128.158 48.8996C127.622 48.3648 126.911 48.0707 126.155 48.0707C126.154 48.0707 126.154 48.0707 126.153 48.0707C125.396 48.0711 124.685 48.3664 124.15 48.902C123.615 49.4375 123.32 50.1496 123.32 50.9066C123.321 52.5738 121.97 53.9258 120.304 53.9266C120.302 53.9262 120.302 53.9262 120.301 53.9262Z" fill="#495560"/>
</g>
<defs>
<clipPath id="clip0_740_4071">
<rect width="200" height="200" fill="white"/>
</clipPath>
</defs>
</svg>
