<svg width="200" height="200" viewBox="0 0 200 200" fill="none" xmlns="http://www.w3.org/2000/svg">
<g clip-path="url(#clip0_740_4036)">
<path d="M178.764 9.20586V15.2047C178.764 24.7402 174.278 33.7168 166.649 39.4383L100 48.5273L86.5977 46.7008L33.3508 39.4383C29.5363 36.5777 26.507 32.9043 24.4309 28.752C22.359 24.5996 21.2363 19.9727 21.2363 15.2047V9.38672C21.2363 7.46328 21.5664 5.55625 22.2102 3.7457C23.0023 1.525 25.0906 0 27.3918 0C27.6492 0 27.9066 0.0160156 28.1684 0.05625C29.5 0.257422 30.7918 0.889063 31.8258 1.92695C32.2883 2.39375 32.8074 2.77578 33.3629 3.06953L36.3805 5.47539L39.398 3.06953C39.9492 2.77969 40.4645 2.40156 40.927 1.93906C42.1824 0.683594 43.8238 0.05625 45.4695 0.05625C47.1152 0.05625 48.7566 0.683984 50.0121 1.93906C50.4746 2.40156 50.9898 2.78008 51.541 3.06953L54.5586 6.29648L57.5762 3.06953C58.1273 2.77969 58.6422 2.40156 59.1012 1.93906C60.3566 0.683594 62.002 0.05625 63.6437 0.05625C65.2895 0.05625 66.9352 0.683984 68.1902 1.93906C68.6531 2.40156 69.168 2.78008 69.7191 3.06953L72.7367 6.12734L75.7543 3.06953C76.3055 2.77578 76.8164 2.40156 77.2793 1.93906C78.5348 0.683594 80.1801 0.05625 81.8219 0.05625C82.9926 0.05625 84.1676 0.374219 85.1977 1.01367C85.616 1.27109 86.0062 1.57695 86.3684 1.93906C86.8313 2.40156 87.3422 2.77617 87.8934 3.06953L91.5348 6.26406L93.9289 3.06953C94.4801 2.77969 94.9953 2.40156 95.4578 1.93906C96.709 0.683594 98.3547 0.05625 100 0.05625C101.646 0.05625 103.291 0.683984 104.543 1.93906C105.005 2.40156 105.521 2.78008 106.072 3.06953L109.307 5.78555L112.107 3.06953C112.658 2.77578 113.169 2.40156 113.632 1.93906C114.888 0.683594 116.533 0.05625 118.179 0.05625C119.82 0.05625 121.466 0.683984 122.721 1.93906C123.184 2.40156 123.695 2.77617 124.246 3.06953L127.9 5.9543L130.282 3.06953C130.833 2.77969 131.348 2.40156 131.811 1.93906C133.066 0.683594 134.711 0.05625 136.357 0.05625C137.998 0.05625 139.644 0.683984 140.9 1.93906C141.358 2.40156 141.873 2.78008 142.425 3.06953L145.603 5.9543L148.46 3.06953C149.011 2.77969 149.526 2.40156 149.989 1.93906C151.244 0.683594 152.886 0.05625 154.531 0.05625C156.177 0.05625 157.818 0.683984 159.074 1.93906C159.536 2.40156 160.052 2.78008 160.603 3.06953L164.059 6.53789L166.638 3.06953C167.189 2.77578 167.7 2.40156 168.163 1.93906C169.418 0.683594 171.064 0.05625 172.705 0.05625H172.754C175.107 0.0765625 177.16 1.66563 177.904 3.89453V3.89844C178.474 5.60859 178.764 7.40312 178.764 9.20586Z" fill="#B2A4FD"/>
<path d="M86.5977 46.7008L33.3508 39.4383C29.5363 36.5777 26.507 32.9043 24.4309 28.752C22.359 24.5996 21.2363 19.9727 21.2363 15.2047V9.38672C21.2363 7.46328 21.5664 5.55625 22.2102 3.7457C23.0023 1.525 25.0906 0 27.3918 0C27.6492 0 27.9066 0.0160156 28.1684 0.05625C29.5 0.257422 30.7918 0.889062 31.8258 1.92695C32.2883 2.39375 32.8074 2.77578 33.3629 3.06953L36.3805 5.47539L39.398 3.06953C39.9492 2.77969 40.4645 2.40156 40.927 1.93906C42.1824 0.683594 43.8238 0.05625 45.4695 0.05625C47.1152 0.05625 48.7566 0.683984 50.0121 1.93906C50.4746 2.40156 50.9898 2.78008 51.541 3.06953L54.5586 6.29648L57.5762 3.06953C58.1273 2.77969 58.6422 2.40156 59.1012 1.93906C60.3566 0.683594 62.0019 0.05625 63.6437 0.05625C65.2894 0.05625 66.9352 0.683984 68.1902 1.93906C68.6531 2.40156 69.168 2.78008 69.7191 3.06953L72.7367 6.12734L75.7543 3.06953C76.3055 2.77578 76.8164 2.40156 77.2793 1.93906C78.5348 0.683594 80.1801 0.05625 81.8219 0.05625C82.9926 0.05625 84.1676 0.374219 85.1977 1.01367C82.5504 5.29883 73.4813 22.4953 86.1391 39.4422C88.3398 42.3875 88.2836 44.7734 86.5977 46.7008Z" fill="#9383ED"/>
<path d="M181.794 90.2149V175.859C181.794 189.193 170.987 200 157.653 200H42.3473C29.0133 200 18.2063 189.193 18.2063 175.859V90.2149C18.2063 84.6786 19.1559 79.1864 21.0188 73.9762L33.3508 39.4426L61.8129 45.643L86.1391 39.4426H166.649L178.981 73.9762C180.844 79.1864 181.794 84.6786 181.794 90.2149Z" fill="#8991A6"/>
<path d="M92.0012 200H42.3473C29.0133 200 18.2063 189.193 18.2063 175.859V90.2149C18.2063 84.6786 19.1559 79.1864 21.0188 73.9762L33.3508 39.4426H86.1391C76.354 51.8508 31.025 117.414 92.0012 200Z" fill="#6B7790"/>
<path d="M154.522 164.096C154.298 170.261 149.347 175.355 143.19 175.74C137.554 176.093 132.683 172.589 130.96 167.613C130.128 165.207 127.795 163.646 125.249 163.646H105.047C102.502 163.646 100.168 165.207 99.336 167.613C97.6142 172.589 92.7423 176.093 87.106 175.74C80.9493 175.355 75.9981 170.261 75.7743 164.096C75.688 161.721 76.2864 159.49 77.388 157.588C78.4798 155.703 78.4802 153.416 77.3884 151.531C76.2872 149.629 75.6884 147.399 75.7739 145.024C75.9962 138.859 80.9466 133.764 87.1032 133.378C90.729 133.15 94.0384 134.857 96.397 137.187C101.853 142.576 109.071 145.81 116.741 145.81L125.249 145.472C127.794 145.472 130.128 143.91 130.96 141.505C132.683 136.528 137.555 133.025 143.192 133.378C149.349 133.764 154.299 138.859 154.522 145.024C154.607 147.4 154.009 149.63 152.907 151.532C151.815 153.417 151.816 155.703 152.908 157.589C154.01 159.49 154.608 161.721 154.522 164.096Z" fill="white"/>
<path d="M120.625 147.417C115.845 150.426 109.89 149.69 105.995 146.145C104.108 144.435 101.312 144.182 99.079 145.405L81.3517 155.09C79.1185 156.309 77.8188 158.8 78.2415 161.31C78.8935 165.173 77.6181 169.16 74.8134 171.932L65.511 172.101L50.6161 153.919L49.9966 140.356L62.8638 136.465C63.8938 136.964 64.8595 137.612 65.7247 138.397C67.6075 140.107 70.404 140.36 72.6372 139.141L90.3649 129.457C92.602 128.234 93.9017 125.743 93.479 123.236C92.602 118.042 95.2013 112.631 100.315 110.236C105.904 107.625 112.691 109.725 115.841 115.028C117.057 117.072 117.6 119.313 117.543 121.51C117.491 123.691 118.586 125.695 120.449 126.829C122.327 127.968 123.921 129.638 124.987 131.766C127.742 137.282 125.839 144.126 120.625 147.417Z" fill="#B2A4FD"/>
<path d="M74.8129 171.932C73.8512 172.885 72.7126 173.694 71.4051 174.306C65.8165 176.917 59.029 174.821 55.8786 169.518C54.6633 167.474 54.1204 165.229 54.1727 163.032C54.229 160.855 53.1305 158.848 51.2719 157.717C49.393 156.575 47.7958 154.905 46.7333 152.78C43.9731 147.264 45.8762 140.42 51.0907 137.129C54.8126 134.783 59.2422 134.711 62.8633 136.465C64.9594 147.654 68.7575 159.524 74.8129 171.932Z" fill="#9383ED"/>
<path d="M166.637 3.06982V15.2046C166.637 16.8702 165.285 18.2222 163.619 18.2222C161.954 18.2222 160.602 16.8702 160.602 15.2046V3.06982C161.543 3.57295 162.581 3.82217 163.619 3.82217C164.657 3.82217 165.696 3.57256 166.637 3.06982Z" fill="#A392FD"/>
<path d="M148.459 3.06982V15.2046C148.459 16.8702 147.107 18.2222 145.441 18.2222C143.776 18.2222 142.424 16.8702 142.424 15.2046V3.06982C143.365 3.57295 144.404 3.82217 145.441 3.82217C146.479 3.82217 147.518 3.57256 148.459 3.06982Z" fill="#A392FD"/>
<path d="M130.281 3.06982V15.2046C130.281 16.8702 128.933 18.2222 127.263 18.2222C125.598 18.2222 124.246 16.8702 124.246 15.2046V3.06982C125.187 3.57295 126.225 3.82217 127.263 3.82217C128.301 3.82217 129.339 3.57256 130.281 3.06982Z" fill="#A392FD"/>
<path d="M112.107 3.06982V15.2046C112.107 16.8702 110.755 18.2222 109.089 18.2222C107.423 18.2222 106.072 16.8702 106.072 15.2046V3.06982C107.009 3.57295 108.047 3.82217 109.085 3.82217C110.127 3.82217 111.165 3.57256 112.107 3.06982Z" fill="#A392FD"/>
<path d="M93.9285 3.06982V15.2046C93.9285 16.8702 92.5765 18.2222 90.9109 18.2222C89.2453 18.2222 87.8933 16.8702 87.8933 15.2046V3.06982C88.8347 3.57295 89.873 3.82217 90.9148 3.82217C91.9531 3.82217 92.991 3.57256 93.9285 3.06982Z" fill="#A392FD"/>
<path d="M75.7544 3.06982V15.2046C75.7544 16.8702 74.4024 18.2222 72.7368 18.2222C71.0673 18.2222 69.7192 16.8702 69.7192 15.2046V3.06982C70.6606 3.57295 71.6989 3.82217 72.7368 3.82217C73.7747 3.82217 74.813 3.57256 75.7544 3.06982Z" fill="#846DFC"/>
<path d="M57.5762 3.06982V15.2046C57.5762 16.8702 56.2242 18.2222 54.5586 18.2222C52.893 18.2222 51.541 16.8702 51.541 15.2046V3.06982C52.4824 3.57295 53.5207 3.82217 54.5586 3.82217C55.5965 3.82217 56.6348 3.57256 57.5762 3.06982Z" fill="#846DFC"/>
<path d="M39.3982 3.06982V15.2046C39.3982 16.8702 38.0462 18.2222 36.3806 18.2222C34.715 18.2222 33.363 16.8702 33.363 15.2046V3.06982C34.3044 3.57295 35.3427 3.82217 36.3806 3.82217C37.4185 3.82217 38.4568 3.57256 39.3982 3.06982Z" fill="#846DFC"/>
<path d="M68.4653 87.9102C74.8916 87.9102 80.1012 83.7617 80.1012 78.6442C80.1012 73.5267 74.8916 69.3782 68.4653 69.3782C62.0389 69.3782 56.8293 73.5267 56.8293 78.6442C56.8293 83.7617 62.0389 87.9102 68.4653 87.9102Z" fill="#FFA1AC"/>
<path d="M131.535 87.9102C137.961 87.9102 143.171 83.7617 143.171 78.6442C143.171 73.5267 137.961 69.3782 131.535 69.3782C125.109 69.3782 119.899 73.5267 119.899 78.6442C119.899 83.7617 125.109 87.9102 131.535 87.9102Z" fill="#FFA1AC"/>
<path d="M80.7848 71.5786C79.1184 71.5786 77.7672 70.2274 77.7672 68.561C77.7672 67.1711 76.6364 66.0403 75.2465 66.0403C73.8567 66.0403 72.7258 67.1711 72.7258 68.561C72.7258 70.2274 71.3747 71.5786 69.7083 71.5786C68.0418 71.5786 66.6907 70.2274 66.6907 68.561C66.6907 63.843 70.529 60.0051 75.2465 60.0051C79.9645 60.0051 83.8024 63.8434 83.8024 68.561C83.8024 70.2274 82.4516 71.5786 80.7848 71.5786Z" fill="white"/>
<path d="M130.292 71.5786C128.625 71.5786 127.274 70.2274 127.274 68.561C127.274 67.1711 126.143 66.0403 124.754 66.0403C123.364 66.0403 122.233 67.1711 122.233 68.561C122.233 70.2274 120.882 71.5786 119.215 71.5786C117.549 71.5786 116.198 70.2274 116.198 68.561C116.198 63.843 120.036 60.0051 124.754 60.0051C129.472 60.0051 133.309 63.8434 133.309 68.561C133.31 70.2274 131.959 71.5786 130.292 71.5786Z" fill="white"/>
<path d="M100 80.7281C96.8766 80.7281 93.9062 79.3754 91.8504 77.0168C90.7555 75.7605 90.8863 73.8543 92.1426 72.7594C93.3988 71.6641 95.3051 71.7949 96.4 73.0516C97.3094 74.0949 98.6215 74.693 100 74.693C101.379 74.693 102.691 74.0949 103.6 73.0516C104.695 71.7949 106.601 71.6645 107.857 72.7594C109.114 73.8543 109.245 75.7605 108.15 77.0168C106.094 79.3758 103.123 80.7281 100 80.7281Z" fill="white"/>
</g>
<defs>
<clipPath id="clip0_740_4036">
<rect width="200" height="200" fill="white"/>
</clipPath>
</defs>
</svg>
