<svg width="200" height="200" viewBox="0 0 200 200" fill="none" xmlns="http://www.w3.org/2000/svg">
<path d="M190.492 81.7197C186.533 88.3383 180.759 93.2147 175.177 97.9293C166.672 105.109 157.966 112.466 154.885 126.749C153.569 132.86 153.283 140.244 154.483 149.424C154.692 151.005 153.516 152.447 151.861 152.643C151.732 152.658 151.608 152.666 151.483 152.666C149.981 152.666 148.68 151.597 148.491 150.139C147.291 140.971 147.484 133.399 148.664 127.019C151.801 109.975 161.936 101.41 171.178 93.6068C176.631 88.9997 181.782 84.6499 185.249 78.8543C192.614 66.5441 194.986 55.5683 192.296 46.231C189.235 35.5973 180.421 30.7286 180.332 30.6824C178.882 29.8979 178.367 28.1442 179.176 26.7561C179.994 25.3717 181.822 24.8718 183.276 25.6448C183.723 25.8831 194.298 31.6172 198.087 44.5773C201.272 55.4762 198.719 67.9714 190.492 81.7197Z" fill="#D97C41"/>
<path d="M154.483 149.424C154.692 151.004 153.516 152.447 151.861 152.643C151.732 152.658 151.608 152.666 151.483 152.666C149.981 152.666 148.68 151.597 148.491 150.139C147.291 140.971 147.484 133.399 148.664 127.019C150.753 126.592 152.86 126.507 154.885 126.749C153.568 132.86 153.282 140.244 154.483 149.424Z" fill="#C76D33"/>
<path d="M65.4608 195.797C59.5893 195.798 53.9772 193.303 53.1412 192.915C51.6409 192.219 51.0151 190.494 51.7432 189.061C52.4713 187.628 54.2768 187.029 55.7791 187.726C58.1912 188.835 65.3565 191.274 69.4397 189.245C71.1869 188.377 72.2549 186.682 72.7041 184.063C73.3733 180.162 75.4041 177.116 78.7401 175.009C87.6463 169.384 103.039 172.888 103.69 173.041C105.311 173.419 106.303 174.98 105.907 176.528C105.511 178.074 103.876 179.021 102.258 178.645C98.5264 177.78 87.6229 176.307 82.0651 179.825C80.1678 181.025 79.0557 182.717 78.6651 184.996C77.7076 190.578 74.6272 193.174 72.2116 194.37C70.1037 195.414 67.7619 195.797 65.4608 195.797Z" fill="#525E77"/>
<path d="M199.999 13.6885C199.999 15.9111 199.109 18.1341 197.334 19.83L82.0819 129.899L31.6843 178.029C28.1323 181.42 22.3698 181.42 18.8183 178.029C15.2663 174.637 15.2663 169.133 18.8183 165.741L69.2198 117.608L184.471 7.54664C188.023 4.15079 193.782 4.15079 197.334 7.54664C199.109 9.24288 199.999 11.4655 199.999 13.6885Z" fill="#8991A6"/>
<path d="M82.0819 129.899L31.6843 178.029C28.1323 181.421 22.3698 181.421 18.8183 178.029C15.2663 174.637 15.2663 169.134 18.8183 165.741L69.2198 117.608C72.2038 118.373 75.0269 119.873 77.3702 122.111C77.6038 122.334 77.8292 122.561 78.0468 122.796C80.0202 124.888 81.3651 127.33 82.0819 129.899Z" fill="#6B7790"/>
<path d="M70.6892 145.867C70.6892 150.312 68.9091 154.758 65.3576 158.154L32.5259 189.508L31.056 190.912C23.9486 197.696 12.4314 197.696 5.32788 190.912C-1.77563 184.128 -1.77563 173.129 5.32788 166.342L39.6294 133.584C44.3935 129.034 51.1345 127.534 57.2033 129.084L58.7052 131.576L66.0341 134.268C69.1349 137.56 70.6892 141.713 70.6892 145.867Z" fill="#B2A4FD"/>
<path d="M32.5259 189.508L31.056 190.912C23.9486 197.696 12.4314 197.696 5.32788 190.912C-1.77563 184.128 -1.77563 173.129 5.32788 166.342L39.6294 133.584C46.7369 126.796 58.2541 126.796 65.3576 133.584C65.5912 133.807 65.8166 134.034 66.0341 134.268C56.015 137.041 18.2865 150.293 32.5259 189.508Z" fill="#9383ED"/>
<path d="M189.256 35.7359L188.999 35.9814C186.701 38.1753 182.977 38.1753 180.68 35.9814L167.559 23.4508C165.262 21.2569 165.262 17.7002 167.559 15.5064L167.816 15.2609C170.113 13.067 173.837 13.067 176.135 15.2609L189.256 27.7915C191.553 29.9854 191.553 33.5424 189.256 35.7359Z" fill="#C76D33"/>
<path d="M184.06 184.528H109.312C104.335 184.528 100.32 181.755 98.4107 177.983L98.8537 175.344L97.2471 172.053L97.2432 172.056C97.3721 170.603 97.799 169.134 98.5682 167.714C104.625 156.539 116.09 146.886 130.26 146.886C139.675 146.886 147.79 147.809 154.736 149.416C176.522 154.458 186.839 166.21 189.896 177.26C190.91 180.932 188.035 184.528 184.06 184.528Z" fill="#8991A6"/>
<path d="M155.811 184.528H109.312C100.271 184.528 94.408 175.383 98.5681 167.714C104.625 156.539 116.09 146.886 130.26 146.886C139.675 146.886 147.79 147.809 154.736 149.416C149.006 156.497 145.623 167.826 155.811 184.528Z" fill="#6B7790"/>
<path d="M193.935 184.529C197.284 184.529 199.999 181.936 199.999 178.738C199.999 175.54 197.284 172.947 193.935 172.947C190.586 172.947 187.871 175.54 187.871 178.738C187.871 181.936 190.586 184.529 193.935 184.529Z" fill="#FFB3C2"/>
<path d="M161.308 167.799C157.793 169.811 153.721 170.549 149.815 169.999C147.339 169.652 144.93 168.787 142.776 167.399C139.639 165.376 137.005 162.888 135.439 160.396C130.772 152.966 133.969 142.943 142.587 138.006C144.238 137.06 145.97 136.368 147.721 135.922H147.725L150.568 137.125L153.798 135.341C158.365 135.622 162.601 137.533 165.436 140.875C165.871 141.39 166.273 141.937 166.64 142.517C168.206 145.009 169.266 148.401 169.656 151.993C170.353 158.354 167.051 164.507 161.308 167.799Z" fill="#6B7790"/>
<path d="M149.815 169.999C147.339 169.653 144.931 168.788 142.776 167.399C139.639 165.376 137.006 162.888 135.439 160.396C130.772 152.966 133.969 142.944 142.587 138.006C150.529 133.453 160.298 134.814 165.437 140.875C159.838 143.775 146.437 152.662 149.815 169.999Z" fill="#525E77"/>
<path d="M156.629 160.35C154.849 161.369 152.147 160.465 149.936 158.977L146.585 153.643L149.928 148.539L155.666 148.328C156.246 148.755 156.749 149.289 157.148 149.924C158.872 152.666 159.5 158.708 156.629 160.35Z" fill="#FFB3C2"/>
<path d="M155.666 148.328C153.169 151.112 150.983 154.631 149.936 158.977C148.575 158.061 147.403 156.927 146.746 155.881C145.023 153.139 145.957 149.582 148.828 147.936C151.036 146.67 153.75 146.905 155.666 148.328Z" fill="#FF899F"/>
<path d="M18.2522 182.774C17.4796 182.774 16.7065 182.493 16.1167 181.929L12.6995 178.666C11.5198 177.54 11.5198 175.714 12.6991 174.587C13.8788 173.461 15.7913 173.461 16.9702 174.587L20.3874 177.851C21.5671 178.977 21.5671 180.803 20.3878 181.929C19.7983 182.493 19.0249 182.774 18.2522 182.774Z" fill="#495560"/>
<path d="M53.8167 148.81C53.0441 148.81 52.271 148.529 51.6808 147.965L48.2636 144.702C47.0843 143.576 47.0843 141.749 48.2636 140.623C49.4433 139.497 51.3554 139.497 52.5351 140.623L55.9523 143.886C57.1316 145.013 57.1316 146.839 55.9523 147.965C55.3625 148.529 54.5894 148.81 53.8167 148.81Z" fill="#495560"/>
<path d="M31.8507 170.192C31.58 170.192 31.3097 170.183 31.0379 170.166C29.3734 170.057 28.1172 168.68 28.2316 167.09C28.3461 165.501 29.7961 164.303 31.4515 164.41C33.1238 164.52 34.7539 163.937 35.9332 162.811C37.1121 161.685 37.7226 160.125 37.6078 158.532C37.4933 156.942 38.75 155.565 40.4136 155.456C42.0757 155.349 43.5195 156.547 43.6339 158.136C43.8683 161.394 42.6187 164.584 40.2043 166.89C37.9824 169.012 34.975 170.192 31.8507 170.192Z" fill="#495560"/>
</svg>
