<svg width="200" height="200" fill="none" xmlns="http://www.w3.org/2000/svg"><path d="M182.613 85.14c0 31.92-21.534 63.724-60.904 61.606-5.765-9.474-16.691-30.311-17.74-58.959-1.152-31.487 10.272-54.785 15.72-64.444 37.454-5.083 62.924 29.184 62.924 61.796Z" fill="#EBEBF9"/><path d="M127.082.952c-.841.193-6.591 1.614-9.375 7.158-2.414 4.805-1.638 10.794 1.982 15.233 32.009 2.453 57.22 29.183 57.22 61.796 0 31.921-24.157 58.209-55.2 61.607-.665 1.547-2.123 5.526-1.066 10.393 1.667 7.678 8.214 11.229 9.203 11.745C169.722 161.816 200 127.012 200 85.139c0-42.833-31.686-78.272-72.918-84.187Z" fill="#485C70"/><path d="M121.709 146.746c-1.764 2.961-5.386 3.265-7.955 3.266-35.82.003-65.084-26.772-64.652-65.597.429-38.469 37.852-64.032 64.334-64.345 1.808-.021 5.045.582 6.253 3.274-4.853 17.76-8.35 39.167-7.778 63.408a220.633 220.633 0 0 0 9.798 59.994Z" fill="#DEDDF5"/><path d="M28.475 141.13 6.288 163.298c-8.384 8.377-8.384 21.959 0 30.336 8.385 8.378 21.978 8.378 30.362 0l22.188-22.168-30.363-30.336Z" fill="#3E4F61"/><path d="m83.268 158.676-15.95 15.949a9.063 9.063 0 0 1-12.818 0l-29.163-29.164a9.063 9.063 0 0 1 0-12.818l15.949-15.949 41.982 41.982Z" fill="#A392FD"/><path d="M74.363 90.614c4.207 0 7.618-4.097 7.618-9.15s-3.41-9.15-7.618-9.15c-4.207 0-7.617 4.097-7.617 9.15s3.41 9.15 7.617 9.15ZM155.387 90.614c4.207 0 7.618-4.097 7.618-9.15s-3.411-9.15-7.618-9.15c-4.207 0-7.617 4.097-7.617 9.15s3.41 9.15 7.617 9.15ZM130.21 73.242c4.207 0 7.618-4.298 7.618-9.599 0-5.3-3.411-9.598-7.618-9.598-4.207 0-7.617 4.297-7.617 9.598 0 5.301 3.41 9.599 7.617 9.599ZM99.54 73.242c4.207 0 7.618-4.298 7.618-9.599 0-5.3-3.411-9.598-7.618-9.598-4.207 0-7.618 4.297-7.618 9.598 0 5.301 3.41 9.599 7.618 9.599ZM138.405 100.387c-2.374-10.337-13.746-14.282-23.53-14.444-9.781.16-21.159 4.109-23.53 14.444-1.95 7.968 4.378 15.942 12.588 15.843a12.87 12.87 0 0 0 6.341-1.659 9.395 9.395 0 0 1 9.202 0 12.873 12.873 0 0 0 6.341 1.659c8.211.099 14.539-7.876 12.588-15.843Z" fill="#6549FB"/><path d="M129.847 168.884a85.75 85.75 0 0 1-14.97 1.311c-47.015 0-85.128-38.08-85.128-85.055 0-46.976 38.113-85.057 85.128-85.057 4.145 0 8.221.298 12.205.869a225.325 225.325 0 0 0-7.392 22.391 61.998 61.998 0 0 0-4.813-.184c-34.262 0-62.033 27.747-62.033 61.98 0 34.229 27.77 61.981 62.033 61.981a61.59 61.59 0 0 0 6.833-.374 223.412 223.412 0 0 0 8.137 22.138Z" fill="#3E4F61"/></svg>